G04 #@! TF.FileFunction,Soldermask,Top*
%FSLAX46Y46*%
G04 Gerber Fmt 4.6, Leading zero omitted, Abs format (unit mm)*
G04 Created by KiCad (PCBNEW 4.0.6) date 08/03/17 16:45:26*
%MOMM*%
%LPD*%
G01*
G04 APERTURE LIST*
%ADD10C,0.100000*%
%ADD11R,1.252220X1.150620*%
%ADD12R,1.351280X0.751840*%
%ADD13R,0.952400X0.902400*%
%ADD14R,0.701040X1.351280*%
%ADD15R,1.150620X1.252220*%
%ADD16R,0.949960X1.051560*%
%ADD17R,0.551180X1.600200*%
%ADD18R,1.950720X1.651000*%
%ADD19R,2.651760X1.651000*%
%ADD20C,1.000760*%
%ADD21R,2.550160X2.151380*%
%ADD22C,2.184400*%
%ADD23R,1.676400X1.620520*%
%ADD24R,3.152140X1.551940*%
%ADD25R,0.965200X1.676400*%
%ADD26R,3.276600X2.057400*%
%ADD27R,1.051560X0.949960*%
%ADD28O,0.601980X2.057400*%
%ADD29C,2.032000*%
%ADD30C,2.652400*%
%ADD31C,1.852400*%
%ADD32C,1.676400*%
%ADD33R,1.750060X1.551940*%
%ADD34R,1.551940X1.750060*%
%ADD35C,1.352400*%
%ADD36C,3.454400*%
%ADD37C,1.150620*%
%ADD38R,0.711200X1.422400*%
%ADD39R,1.422400X0.711200*%
%ADD40R,1.252220X1.351280*%
%ADD41R,0.751840X1.501140*%
%ADD42R,1.351280X2.151380*%
%ADD43R,2.302400X2.302400*%
%ADD44C,2.302400*%
%ADD45R,1.422400X0.787400*%
%ADD46C,5.352400*%
%ADD47C,0.652400*%
%ADD48R,1.950720X1.750060*%
G04 APERTURE END LIST*
D10*
D11*
X179999640Y-106172000D03*
X181696360Y-106172000D03*
X175346360Y-106172000D03*
X173649640Y-106172000D03*
D12*
X161676080Y-102108000D03*
X161676080Y-100838000D03*
X161676080Y-99568000D03*
X161676080Y-98298000D03*
X161676080Y-97028000D03*
X161676080Y-95758000D03*
X161676080Y-94488000D03*
X161676080Y-93218000D03*
X156077920Y-93218000D03*
X156077920Y-94488000D03*
X156077920Y-95758000D03*
X156077920Y-97028000D03*
X156077920Y-98298000D03*
X156077920Y-99568000D03*
X156077920Y-100838000D03*
X156077920Y-102108000D03*
D11*
X160949640Y-106172000D03*
X162646360Y-106172000D03*
X168996360Y-106172000D03*
X167299640Y-106172000D03*
X186268360Y-91440000D03*
X184571640Y-91440000D03*
X177292000Y-100584000D03*
X175595280Y-100584000D03*
X175595280Y-98679000D03*
X177292000Y-98679000D03*
D13*
X166001000Y-101092000D03*
X167501000Y-101092000D03*
X167501000Y-99568000D03*
X166001000Y-99568000D03*
D14*
X103418640Y-103964740D03*
X104368600Y-103964740D03*
X105316020Y-103964740D03*
X105316020Y-101368860D03*
X103418640Y-101368860D03*
D13*
X105156000Y-98298000D03*
X103656000Y-98298000D03*
X166001000Y-93218000D03*
X167501000Y-93218000D03*
D11*
X137607040Y-92837000D03*
X139303760Y-92837000D03*
D15*
X142392400Y-90170000D03*
X142392400Y-88473280D03*
D11*
X145201640Y-92837000D03*
X146898360Y-92837000D03*
D15*
X149987000Y-90195400D03*
X149987000Y-88498680D03*
D16*
X147111720Y-88087200D03*
X145211800Y-88087200D03*
X146161760Y-90185240D03*
X139506960Y-88074500D03*
X137607040Y-88074500D03*
X138557000Y-90172540D03*
D11*
X127929640Y-109524800D03*
X129626360Y-109524800D03*
X129626360Y-107442000D03*
X127929640Y-107442000D03*
D17*
X130543300Y-112466120D03*
X129895600Y-112466120D03*
X131841240Y-112466120D03*
X131191000Y-112466120D03*
D18*
X126860300Y-115189000D03*
X134226300Y-115189000D03*
D19*
X130543300Y-115189000D03*
D17*
X129245360Y-112466120D03*
D20*
X128643380Y-112989360D03*
X132443220Y-112989360D03*
D21*
X121523760Y-114046000D03*
X121523760Y-107947460D03*
X110124240Y-114046000D03*
X110124240Y-107947460D03*
D22*
X115824000Y-114046000D03*
X115824000Y-109474000D03*
D23*
X147055840Y-96774000D03*
X142504160Y-96774000D03*
D24*
X127000000Y-92456000D03*
X122204480Y-92456000D03*
D25*
X127904240Y-102334060D03*
X130175000Y-102334060D03*
X132461000Y-102334060D03*
D26*
X130175000Y-96395540D03*
D15*
X120650000Y-99273360D03*
X120650000Y-97576640D03*
X112903000Y-97576640D03*
X112903000Y-99273360D03*
D27*
X115443000Y-90932000D03*
X115443000Y-92829380D03*
X117541040Y-91881960D03*
D15*
X112903000Y-90932000D03*
X112903000Y-92628720D03*
D11*
X105156000Y-95758000D03*
X103459280Y-95758000D03*
D28*
X184856120Y-106299000D03*
X186055000Y-106299000D03*
X187253880Y-106299000D03*
D29*
X184912000Y-85598000D03*
X187452000Y-85598000D03*
X189992000Y-85598000D03*
X192532000Y-85598000D03*
X184912000Y-83058000D03*
X187452000Y-83058000D03*
X189992000Y-83058000D03*
X192532000Y-83058000D03*
X184912000Y-80518000D03*
X187452000Y-80518000D03*
X189992000Y-80518000D03*
X192532000Y-80518000D03*
X172212000Y-85598000D03*
X174752000Y-85598000D03*
X177292000Y-85598000D03*
X179832000Y-85598000D03*
X172212000Y-83058000D03*
X174752000Y-83058000D03*
X177292000Y-83058000D03*
X179832000Y-83058000D03*
X172212000Y-80518000D03*
X174752000Y-80518000D03*
X177292000Y-80518000D03*
X179832000Y-80518000D03*
X154432000Y-85598000D03*
X156972000Y-85598000D03*
X159512000Y-85598000D03*
X162052000Y-85598000D03*
X164592000Y-85598000D03*
X167132000Y-85598000D03*
X154432000Y-83058000D03*
X156972000Y-83058000D03*
X159512000Y-83058000D03*
X162052000Y-83058000D03*
X164592000Y-83058000D03*
X167132000Y-83058000D03*
X154432000Y-80518000D03*
X156972000Y-80518000D03*
X159512000Y-80518000D03*
X162052000Y-80518000D03*
X164592000Y-80518000D03*
X167132000Y-80518000D03*
X123952000Y-83058000D03*
X126492000Y-83058000D03*
X129032000Y-83058000D03*
X131572000Y-83058000D03*
X131572000Y-80518000D03*
X129032000Y-80518000D03*
X126492000Y-80518000D03*
X123952000Y-80518000D03*
D30*
X147066000Y-101648000D03*
X140066000Y-101648000D03*
X147066000Y-104648000D03*
X140066000Y-104648000D03*
D31*
X193782000Y-112308000D03*
D32*
X192532000Y-114808000D03*
X188032000Y-114808000D03*
D31*
X186782000Y-112308000D03*
D33*
X116713000Y-96895920D03*
X116713000Y-99695000D03*
D34*
X105664000Y-92710000D03*
X102864920Y-92710000D03*
D35*
X182118000Y-112522000D03*
X179578000Y-112522000D03*
X175768000Y-112522000D03*
X173228000Y-112522000D03*
D36*
X199390000Y-114046000D03*
X199390000Y-82550000D03*
D37*
X107505500Y-85852000D03*
X196342000Y-110744000D03*
D38*
X182112920Y-102717600D03*
X182913020Y-102717600D03*
X183713120Y-102717600D03*
X184513220Y-102717600D03*
X185310780Y-102717600D03*
X186110880Y-102717600D03*
X186910980Y-102717600D03*
X187711080Y-102717600D03*
D39*
X189204600Y-101224080D03*
X189204600Y-100423980D03*
X189204600Y-99623880D03*
X189204600Y-98823780D03*
X189204600Y-98026220D03*
X189204600Y-97226120D03*
X189204600Y-96426020D03*
X189204600Y-95625920D03*
D38*
X187711080Y-94134940D03*
X186910980Y-94134940D03*
X186110880Y-94134940D03*
X185310780Y-94134940D03*
X184513220Y-94134940D03*
X183713120Y-94134940D03*
X182913020Y-94134940D03*
X182112920Y-94134940D03*
D39*
X180621940Y-95625920D03*
X180621940Y-96426020D03*
X180621940Y-97226120D03*
X180621940Y-98026220D03*
X180621940Y-98823780D03*
X180621940Y-99623880D03*
X180621940Y-100423980D03*
X180621940Y-101224080D03*
D40*
X165877240Y-95219520D03*
X165877240Y-97566480D03*
X167624760Y-97566480D03*
X167624760Y-95219520D03*
D35*
X163068000Y-112522000D03*
X160528000Y-112522000D03*
X169418000Y-112522000D03*
X166878000Y-112522000D03*
D41*
X148559520Y-84190840D03*
X147558760Y-84190840D03*
X146563080Y-84190840D03*
X145562320Y-84190840D03*
D42*
X144261840Y-80518000D03*
X149860000Y-80518000D03*
D41*
X140441680Y-84190840D03*
X139440920Y-84190840D03*
X138445240Y-84190840D03*
X137444480Y-84190840D03*
D42*
X136144000Y-80518000D03*
X141742160Y-80518000D03*
D43*
X117348000Y-82575400D03*
D44*
X112349280Y-82575400D03*
D45*
X104140000Y-87833200D03*
X104140000Y-88646000D03*
X104140000Y-108864400D03*
X104140000Y-108051600D03*
D46*
X104140000Y-82550000D03*
D47*
X106172000Y-82550000D03*
X102108000Y-82550000D03*
X104140000Y-80518000D03*
X104140000Y-84582000D03*
X105664000Y-84074000D03*
X105664000Y-81026000D03*
X102616000Y-81026000D03*
X102616000Y-84074000D03*
D46*
X104140000Y-114300000D03*
D47*
X106172000Y-114300000D03*
X102108000Y-114300000D03*
X104140000Y-112268000D03*
X104140000Y-116332000D03*
X105664000Y-115824000D03*
X105664000Y-112776000D03*
X102616000Y-112776000D03*
X102616000Y-115824000D03*
D48*
X124968000Y-109090460D03*
X124968000Y-111889540D03*
D29*
X195326000Y-95758000D03*
X197866000Y-95758000D03*
X195326000Y-98298000D03*
X197866000Y-98298000D03*
X195326000Y-100838000D03*
X197866000Y-100838000D03*
M02*
