G04 #@! TF.FileFunction,Legend,Top*
%FSLAX46Y46*%
G04 Gerber Fmt 4.6, Leading zero omitted, Abs format (unit mm)*
G04 Created by KiCad (PCBNEW 4.0.6) date 08/03/17 16:45:26*
%MOMM*%
%LPD*%
G01*
G04 APERTURE LIST*
%ADD10C,0.100000*%
%ADD11C,0.508000*%
%ADD12C,0.190500*%
%ADD13C,0.300000*%
%ADD14C,0.200000*%
%ADD15C,0.203200*%
%ADD16C,0.127000*%
%ADD17C,0.254000*%
%ADD18C,0.398780*%
%ADD19C,0.152400*%
%ADD20C,0.066040*%
%ADD21C,0.050800*%
%ADD22C,0.150000*%
%ADD23C,0.500000*%
G04 APERTURE END LIST*
D10*
D11*
X156527500Y-117221000D02*
X156527500Y-109093000D01*
X137541000Y-117348000D02*
X137541000Y-108902500D01*
D12*
X145351500Y-112580964D02*
X145097500Y-112218107D01*
X144916072Y-112580964D02*
X144916072Y-111818964D01*
X145206357Y-111818964D01*
X145278929Y-111855250D01*
X145315214Y-111891536D01*
X145351500Y-111964107D01*
X145351500Y-112072964D01*
X145315214Y-112145536D01*
X145278929Y-112181821D01*
X145206357Y-112218107D01*
X144916072Y-112218107D01*
X145823214Y-111818964D02*
X145968357Y-111818964D01*
X146040929Y-111855250D01*
X146113500Y-111927821D01*
X146149786Y-112072964D01*
X146149786Y-112326964D01*
X146113500Y-112472107D01*
X146040929Y-112544679D01*
X145968357Y-112580964D01*
X145823214Y-112580964D01*
X145750643Y-112544679D01*
X145678072Y-112472107D01*
X145641786Y-112326964D01*
X145641786Y-112072964D01*
X145678072Y-111927821D01*
X145750643Y-111855250D01*
X145823214Y-111818964D01*
X146911786Y-112508393D02*
X146875500Y-112544679D01*
X146766643Y-112580964D01*
X146694072Y-112580964D01*
X146585215Y-112544679D01*
X146512643Y-112472107D01*
X146476358Y-112399536D01*
X146440072Y-112254393D01*
X146440072Y-112145536D01*
X146476358Y-112000393D01*
X146512643Y-111927821D01*
X146585215Y-111855250D01*
X146694072Y-111818964D01*
X146766643Y-111818964D01*
X146875500Y-111855250D01*
X146911786Y-111891536D01*
X147238358Y-112580964D02*
X147238358Y-111818964D01*
X147673786Y-112580964D02*
X147347215Y-112145536D01*
X147673786Y-111818964D02*
X147238358Y-112254393D01*
X148000358Y-112181821D02*
X148254358Y-112181821D01*
X148363215Y-112580964D02*
X148000358Y-112580964D01*
X148000358Y-111818964D01*
X148363215Y-111818964D01*
X149125215Y-112580964D02*
X148871215Y-112218107D01*
X148689787Y-112580964D02*
X148689787Y-111818964D01*
X148980072Y-111818964D01*
X149052644Y-111855250D01*
X149088929Y-111891536D01*
X149125215Y-111964107D01*
X149125215Y-112072964D01*
X149088929Y-112145536D01*
X149052644Y-112181821D01*
X148980072Y-112218107D01*
X148689787Y-112218107D01*
X145097501Y-113878179D02*
X145206358Y-113914464D01*
X145387787Y-113914464D01*
X145460358Y-113878179D01*
X145496644Y-113841893D01*
X145532929Y-113769321D01*
X145532929Y-113696750D01*
X145496644Y-113624179D01*
X145460358Y-113587893D01*
X145387787Y-113551607D01*
X145242644Y-113515321D01*
X145170072Y-113479036D01*
X145133787Y-113442750D01*
X145097501Y-113370179D01*
X145097501Y-113297607D01*
X145133787Y-113225036D01*
X145170072Y-113188750D01*
X145242644Y-113152464D01*
X145424072Y-113152464D01*
X145532929Y-113188750D01*
X145786929Y-113152464D02*
X145968358Y-113914464D01*
X146113501Y-113370179D01*
X146258643Y-113914464D01*
X146440072Y-113152464D01*
X146730358Y-113914464D02*
X146730358Y-113152464D01*
X146984357Y-113152464D02*
X147419786Y-113152464D01*
X147202072Y-113914464D02*
X147202072Y-113152464D01*
X148109214Y-113841893D02*
X148072928Y-113878179D01*
X147964071Y-113914464D01*
X147891500Y-113914464D01*
X147782643Y-113878179D01*
X147710071Y-113805607D01*
X147673786Y-113733036D01*
X147637500Y-113587893D01*
X147637500Y-113479036D01*
X147673786Y-113333893D01*
X147710071Y-113261321D01*
X147782643Y-113188750D01*
X147891500Y-113152464D01*
X147964071Y-113152464D01*
X148072928Y-113188750D01*
X148109214Y-113225036D01*
X148435786Y-113914464D02*
X148435786Y-113152464D01*
X148435786Y-113515321D02*
X148871214Y-113515321D01*
X148871214Y-113914464D02*
X148871214Y-113152464D01*
D13*
X106899971Y-111298999D02*
X106899971Y-110298999D01*
X108399971Y-110941856D01*
X107828543Y-109727571D02*
X107828543Y-108584714D01*
X108399971Y-107084714D02*
X108399971Y-107941857D01*
X108399971Y-107513285D02*
X106899971Y-107513285D01*
X107114257Y-107656142D01*
X107257114Y-107799000D01*
X107328543Y-107941857D01*
X106899971Y-105727571D02*
X106899971Y-106441857D01*
X107614257Y-106513286D01*
X107542829Y-106441857D01*
X107471400Y-106299000D01*
X107471400Y-105941857D01*
X107542829Y-105799000D01*
X107614257Y-105727571D01*
X107757114Y-105656143D01*
X108114257Y-105656143D01*
X108257114Y-105727571D01*
X108328543Y-105799000D01*
X108399971Y-105941857D01*
X108399971Y-106299000D01*
X108328543Y-106441857D01*
X108257114Y-106513286D01*
X106899971Y-105227572D02*
X108399971Y-104727572D01*
X106899971Y-104227572D01*
X108399971Y-103727572D02*
X106899971Y-103727572D01*
X106899971Y-103370429D01*
X106971400Y-103156144D01*
X107114257Y-103013286D01*
X107257114Y-102941858D01*
X107542829Y-102870429D01*
X107757114Y-102870429D01*
X108042829Y-102941858D01*
X108185686Y-103013286D01*
X108328543Y-103156144D01*
X108399971Y-103370429D01*
X108399971Y-103727572D01*
X108257114Y-101370429D02*
X108328543Y-101441858D01*
X108399971Y-101656144D01*
X108399971Y-101799001D01*
X108328543Y-102013286D01*
X108185686Y-102156144D01*
X108042829Y-102227572D01*
X107757114Y-102299001D01*
X107542829Y-102299001D01*
X107257114Y-102227572D01*
X107114257Y-102156144D01*
X106971400Y-102013286D01*
X106899971Y-101799001D01*
X106899971Y-101656144D01*
X106971400Y-101441858D01*
X107042829Y-101370429D01*
D14*
X118414857Y-102244514D02*
X119329143Y-102244514D01*
X112445857Y-102269914D02*
X113360143Y-102269914D01*
X112903000Y-102727057D02*
X112903000Y-101812771D01*
D11*
X177647600Y-106984800D02*
X177647600Y-108356400D01*
X171348400Y-106984800D02*
X171348400Y-108305600D01*
X164947600Y-106934000D02*
X164947600Y-108305600D01*
X158750000Y-108458000D02*
X158750000Y-106883200D01*
X183896000Y-108458000D02*
X158750000Y-108458000D01*
X183896000Y-106883200D02*
X183896000Y-108458000D01*
X158750000Y-106883200D02*
X183896000Y-106883200D01*
X186182000Y-86969600D02*
X186182000Y-88493600D01*
X191262000Y-86868000D02*
X191262000Y-88595200D01*
X188722000Y-86918800D02*
X188722000Y-88544400D01*
X191262000Y-79248000D02*
X191262000Y-81635600D01*
X188722000Y-79248000D02*
X188722000Y-81686400D01*
X186182000Y-79248000D02*
X186182000Y-81686400D01*
X183743600Y-90322400D02*
X193700400Y-90322400D01*
X193700400Y-88646000D02*
X183743600Y-88646000D01*
X183743600Y-86868000D02*
X193700400Y-86868000D01*
X193700400Y-84328000D02*
X183743600Y-84328000D01*
X183692800Y-81788000D02*
X193700400Y-81788000D01*
X193802000Y-91948000D02*
X193802000Y-79248000D01*
X187198000Y-91948000D02*
X193802000Y-91948000D01*
X183642000Y-79248000D02*
X183642000Y-91948000D01*
X173482000Y-86868000D02*
X173482000Y-88595200D01*
X178562000Y-86969600D02*
X178562000Y-88544400D01*
X176022000Y-86918800D02*
X176022000Y-88493600D01*
X173482000Y-79248000D02*
X173482000Y-81635600D01*
X178562000Y-79248000D02*
X178562000Y-81635600D01*
X176022000Y-79248000D02*
X176022000Y-81737200D01*
X181000400Y-90322400D02*
X171043600Y-90322400D01*
X170992800Y-88646000D02*
X181000400Y-88646000D01*
X170992800Y-86868000D02*
X180949600Y-86868000D01*
X181051200Y-84328000D02*
X171094400Y-84328000D01*
X170942000Y-81788000D02*
X181000400Y-81788000D01*
X170942000Y-91948000D02*
X170942000Y-79248000D01*
X181102000Y-91948000D02*
X170942000Y-91948000D01*
X181102000Y-79248000D02*
X181102000Y-91948000D01*
X165862000Y-86918800D02*
X165862000Y-88493600D01*
X163322000Y-86969600D02*
X163322000Y-88544400D01*
X160782000Y-86969600D02*
X160782000Y-88544400D01*
X158242000Y-87020400D02*
X158242000Y-88544400D01*
X155702000Y-86969600D02*
X155702000Y-88493600D01*
X165862000Y-79248000D02*
X165862000Y-81788000D01*
X163322000Y-79248000D02*
X163322000Y-81635600D01*
X160782000Y-79248000D02*
X160782000Y-81584800D01*
X158242000Y-79248000D02*
X158242000Y-81534000D01*
X155702000Y-79248000D02*
X155702000Y-81635600D01*
X153212800Y-90322400D02*
X168249600Y-90322400D01*
X168351200Y-88646000D02*
X153314400Y-88646000D01*
X153212800Y-86868000D02*
X168351200Y-86868000D01*
X168351200Y-84328000D02*
X153263600Y-84328000D01*
X153162000Y-81788000D02*
X168402000Y-81788000D01*
X168402000Y-91948000D02*
X168402000Y-79248000D01*
X153162000Y-91948000D02*
X168402000Y-91948000D01*
X153162000Y-79248000D02*
X153162000Y-91948000D01*
X127711200Y-81788000D02*
X127711200Y-79248000D01*
X127711200Y-86004400D02*
X127711200Y-84429600D01*
X122529600Y-86055200D02*
X133045200Y-86055200D01*
X122478800Y-84328000D02*
X133096000Y-84328000D01*
X122428000Y-81788000D02*
X133096000Y-81788000D01*
X133096000Y-87630000D02*
X133096000Y-79298800D01*
X122428000Y-87630000D02*
X133096000Y-87630000D01*
X122428000Y-79248000D02*
X122428000Y-87630000D01*
X114858800Y-88239600D02*
X114858800Y-86664800D01*
X120446800Y-86614000D02*
X109270800Y-86614000D01*
X109270800Y-88239600D02*
X109270800Y-79146400D01*
X120446800Y-88239600D02*
X109270800Y-88239600D01*
X120446800Y-79146400D02*
X120446800Y-88239600D01*
X109270800Y-79146400D02*
X120446800Y-79146400D01*
D13*
X183232357Y-87220215D02*
X182032357Y-87220215D01*
X182032357Y-86763072D01*
X182089500Y-86648786D01*
X182146643Y-86591643D01*
X182260929Y-86534500D01*
X182432357Y-86534500D01*
X182546643Y-86591643D01*
X182603786Y-86648786D01*
X182660929Y-86763072D01*
X182660929Y-87220215D01*
X182032357Y-86134500D02*
X183232357Y-85848786D01*
X182375214Y-85620215D01*
X183232357Y-85391643D01*
X182032357Y-85105929D01*
X183232357Y-84648786D02*
X182032357Y-84648786D01*
X182889500Y-84248786D01*
X182032357Y-83848786D01*
X183232357Y-83848786D01*
X170348214Y-86826572D02*
X170405357Y-86655143D01*
X170405357Y-86369429D01*
X170348214Y-86255143D01*
X170291071Y-86198000D01*
X170176786Y-86140857D01*
X170062500Y-86140857D01*
X169948214Y-86198000D01*
X169891071Y-86255143D01*
X169833929Y-86369429D01*
X169776786Y-86598000D01*
X169719643Y-86712286D01*
X169662500Y-86769429D01*
X169548214Y-86826572D01*
X169433929Y-86826572D01*
X169319643Y-86769429D01*
X169262500Y-86712286D01*
X169205357Y-86598000D01*
X169205357Y-86312286D01*
X169262500Y-86140857D01*
X170405357Y-85626572D02*
X169205357Y-85626572D01*
X169205357Y-85169429D01*
X169262500Y-85055143D01*
X169319643Y-84998000D01*
X169433929Y-84940857D01*
X169605357Y-84940857D01*
X169719643Y-84998000D01*
X169776786Y-85055143D01*
X169833929Y-85169429D01*
X169833929Y-85626572D01*
X170405357Y-84426572D02*
X169205357Y-84426572D01*
X152282500Y-86956714D02*
X152282500Y-86385285D01*
X152625357Y-87070999D02*
X151425357Y-86670999D01*
X152625357Y-86270999D01*
X152625357Y-85871000D02*
X151425357Y-85871000D01*
X151425357Y-85585285D01*
X151482500Y-85413857D01*
X151596786Y-85299571D01*
X151711071Y-85242428D01*
X151939643Y-85185285D01*
X152111071Y-85185285D01*
X152339643Y-85242428D01*
X152453929Y-85299571D01*
X152568214Y-85413857D01*
X152625357Y-85585285D01*
X152625357Y-85871000D01*
X152511071Y-83985285D02*
X152568214Y-84042428D01*
X152625357Y-84213857D01*
X152625357Y-84328143D01*
X152568214Y-84499571D01*
X152453929Y-84613857D01*
X152339643Y-84671000D01*
X152111071Y-84728143D01*
X151939643Y-84728143D01*
X151711071Y-84671000D01*
X151596786Y-84613857D01*
X151482500Y-84499571D01*
X151425357Y-84328143D01*
X151425357Y-84213857D01*
X151482500Y-84042428D01*
X151539643Y-83985285D01*
D14*
X161043817Y-102933500D02*
G75*
G03X161043817Y-102933500I-261817J0D01*
G01*
X195688048Y-103485905D02*
X195688048Y-102685905D01*
X196030905Y-103447810D02*
X196145191Y-103485905D01*
X196335667Y-103485905D01*
X196411857Y-103447810D01*
X196449953Y-103409714D01*
X196488048Y-103333524D01*
X196488048Y-103257333D01*
X196449953Y-103181143D01*
X196411857Y-103143048D01*
X196335667Y-103104952D01*
X196183286Y-103066857D01*
X196107095Y-103028762D01*
X196069000Y-102990667D01*
X196030905Y-102914476D01*
X196030905Y-102838286D01*
X196069000Y-102762095D01*
X196107095Y-102724000D01*
X196183286Y-102685905D01*
X196373762Y-102685905D01*
X196488048Y-102724000D01*
X196830905Y-103485905D02*
X196830905Y-102685905D01*
X197135667Y-102685905D01*
X197211858Y-102724000D01*
X197249953Y-102762095D01*
X197288048Y-102838286D01*
X197288048Y-102952571D01*
X197249953Y-103028762D01*
X197211858Y-103066857D01*
X197135667Y-103104952D01*
X196830905Y-103104952D01*
X101962000Y-109004023D02*
X101923905Y-109080214D01*
X101923905Y-109194499D01*
X101962000Y-109308785D01*
X102038190Y-109384976D01*
X102114381Y-109423071D01*
X102266762Y-109461166D01*
X102381048Y-109461166D01*
X102533429Y-109423071D01*
X102609619Y-109384976D01*
X102685810Y-109308785D01*
X102723905Y-109194499D01*
X102723905Y-109118309D01*
X102685810Y-109004023D01*
X102647714Y-108965928D01*
X102381048Y-108965928D01*
X102381048Y-109118309D01*
X102723905Y-108623071D02*
X101923905Y-108623071D01*
X102723905Y-108165928D01*
X101923905Y-108165928D01*
X102723905Y-107784976D02*
X101923905Y-107784976D01*
X101923905Y-107594500D01*
X101962000Y-107480214D01*
X102038190Y-107404023D01*
X102114381Y-107365928D01*
X102266762Y-107327833D01*
X102381048Y-107327833D01*
X102533429Y-107365928D01*
X102609619Y-107404023D01*
X102685810Y-107480214D01*
X102723905Y-107594500D01*
X102723905Y-107784976D01*
X102685810Y-90252309D02*
X102723905Y-90138023D01*
X102723905Y-89947547D01*
X102685810Y-89871357D01*
X102647714Y-89833261D01*
X102571524Y-89795166D01*
X102495333Y-89795166D01*
X102419143Y-89833261D01*
X102381048Y-89871357D01*
X102342952Y-89947547D01*
X102304857Y-90099928D01*
X102266762Y-90176119D01*
X102228667Y-90214214D01*
X102152476Y-90252309D01*
X102076286Y-90252309D01*
X102000095Y-90214214D01*
X101962000Y-90176119D01*
X101923905Y-90099928D01*
X101923905Y-89909452D01*
X101962000Y-89795166D01*
X102723905Y-89452309D02*
X101923905Y-89452309D01*
X102304857Y-89452309D02*
X102304857Y-88995166D01*
X102723905Y-88995166D02*
X101923905Y-88995166D01*
X102723905Y-88614214D02*
X101923905Y-88614214D01*
X102304857Y-88233262D02*
X102304857Y-87966595D01*
X102723905Y-87852309D02*
X102723905Y-88233262D01*
X101923905Y-88233262D01*
X101923905Y-87852309D01*
X102723905Y-87128499D02*
X102723905Y-87509452D01*
X101923905Y-87509452D01*
X102723905Y-86861833D02*
X101923905Y-86861833D01*
X101923905Y-86671357D01*
X101962000Y-86557071D01*
X102038190Y-86480880D01*
X102114381Y-86442785D01*
X102266762Y-86404690D01*
X102381048Y-86404690D01*
X102533429Y-86442785D01*
X102609619Y-86480880D01*
X102685810Y-86557071D01*
X102723905Y-86671357D01*
X102723905Y-86861833D01*
X142068668Y-86099595D02*
X141992477Y-86061500D01*
X141916287Y-85985310D01*
X141802001Y-85871024D01*
X141725810Y-85832929D01*
X141649620Y-85832929D01*
X141687715Y-86023405D02*
X141611525Y-85985310D01*
X141535334Y-85909119D01*
X141497239Y-85756738D01*
X141497239Y-85490071D01*
X141535334Y-85337690D01*
X141611525Y-85261500D01*
X141687715Y-85223405D01*
X141840096Y-85223405D01*
X141916287Y-85261500D01*
X141992477Y-85337690D01*
X142030572Y-85490071D01*
X142030572Y-85756738D01*
X141992477Y-85909119D01*
X141916287Y-85985310D01*
X141840096Y-86023405D01*
X141687715Y-86023405D01*
X142297239Y-85223405D02*
X142487715Y-86023405D01*
X142640096Y-85451976D01*
X142792477Y-86023405D01*
X142982953Y-85223405D01*
X143287715Y-86023405D02*
X143287715Y-85223405D01*
X143668667Y-86023405D02*
X143668667Y-85223405D01*
X144506762Y-85947214D02*
X144468667Y-85985310D01*
X144354381Y-86023405D01*
X144278191Y-86023405D01*
X144163905Y-85985310D01*
X144087714Y-85909119D01*
X144049619Y-85832929D01*
X144011524Y-85680548D01*
X144011524Y-85566262D01*
X144049619Y-85413881D01*
X144087714Y-85337690D01*
X144163905Y-85261500D01*
X144278191Y-85223405D01*
X144354381Y-85223405D01*
X144468667Y-85261500D01*
X144506762Y-85299595D01*
X189147595Y-110153405D02*
X188880928Y-109772452D01*
X188690452Y-110153405D02*
X188690452Y-109353405D01*
X188995214Y-109353405D01*
X189071405Y-109391500D01*
X189109500Y-109429595D01*
X189147595Y-109505786D01*
X189147595Y-109620071D01*
X189109500Y-109696262D01*
X189071405Y-109734357D01*
X188995214Y-109772452D01*
X188690452Y-109772452D01*
X189490452Y-109734357D02*
X189757119Y-109734357D01*
X189871405Y-110153405D02*
X189490452Y-110153405D01*
X189490452Y-109353405D01*
X189871405Y-109353405D01*
X190176167Y-110115310D02*
X190290453Y-110153405D01*
X190480929Y-110153405D01*
X190557119Y-110115310D01*
X190595215Y-110077214D01*
X190633310Y-110001024D01*
X190633310Y-109924833D01*
X190595215Y-109848643D01*
X190557119Y-109810548D01*
X190480929Y-109772452D01*
X190328548Y-109734357D01*
X190252357Y-109696262D01*
X190214262Y-109658167D01*
X190176167Y-109581976D01*
X190176167Y-109505786D01*
X190214262Y-109429595D01*
X190252357Y-109391500D01*
X190328548Y-109353405D01*
X190519024Y-109353405D01*
X190633310Y-109391500D01*
X190976167Y-109734357D02*
X191242834Y-109734357D01*
X191357120Y-110153405D02*
X190976167Y-110153405D01*
X190976167Y-109353405D01*
X191357120Y-109353405D01*
X191585691Y-109353405D02*
X192042834Y-109353405D01*
X191814263Y-110153405D02*
X191814263Y-109353405D01*
X164973000Y-108458000D02*
X164973000Y-106870500D01*
X171323000Y-108458000D02*
X171323000Y-106870500D01*
X177673000Y-108458000D02*
X177673000Y-106870500D01*
X158750000Y-106870500D02*
X158750000Y-108394500D01*
X181229000Y-106870500D02*
X158750000Y-106870500D01*
X183896000Y-106870500D02*
X183896000Y-108458000D01*
X181165500Y-106870500D02*
X183896000Y-106870500D01*
X158750000Y-108458000D02*
X183896000Y-108458000D01*
X180651167Y-108057905D02*
X180384500Y-107676952D01*
X180194024Y-108057905D02*
X180194024Y-107257905D01*
X180498786Y-107257905D01*
X180574977Y-107296000D01*
X180613072Y-107334095D01*
X180651167Y-107410286D01*
X180651167Y-107524571D01*
X180613072Y-107600762D01*
X180574977Y-107638857D01*
X180498786Y-107676952D01*
X180194024Y-107676952D01*
X180917834Y-107257905D02*
X181451167Y-108057905D01*
X181451167Y-107257905D02*
X180917834Y-108057905D01*
X173888476Y-107257905D02*
X174345619Y-107257905D01*
X174117048Y-108057905D02*
X174117048Y-107257905D01*
X174536096Y-107257905D02*
X175069429Y-108057905D01*
X175069429Y-107257905D02*
X174536096Y-108057905D01*
X160731333Y-108057905D02*
X160731333Y-107257905D01*
X161036095Y-107257905D01*
X161112286Y-107296000D01*
X161150381Y-107334095D01*
X161188476Y-107410286D01*
X161188476Y-107524571D01*
X161150381Y-107600762D01*
X161112286Y-107638857D01*
X161036095Y-107676952D01*
X160731333Y-107676952D01*
X161455143Y-107257905D02*
X161645619Y-108057905D01*
X161798000Y-107486476D01*
X161950381Y-108057905D01*
X162140857Y-107257905D01*
X162902762Y-108057905D02*
X162636095Y-107676952D01*
X162445619Y-108057905D02*
X162445619Y-107257905D01*
X162750381Y-107257905D01*
X162826572Y-107296000D01*
X162864667Y-107334095D01*
X162902762Y-107410286D01*
X162902762Y-107524571D01*
X162864667Y-107600762D01*
X162826572Y-107638857D01*
X162750381Y-107676952D01*
X162445619Y-107676952D01*
X167995619Y-108057905D02*
X167538476Y-108057905D01*
X167767047Y-108057905D02*
X167767047Y-107257905D01*
X167690857Y-107372190D01*
X167614666Y-107448381D01*
X167538476Y-107486476D01*
X168262286Y-107257905D02*
X168757524Y-107257905D01*
X168490857Y-107562667D01*
X168605143Y-107562667D01*
X168681333Y-107600762D01*
X168719429Y-107638857D01*
X168757524Y-107715048D01*
X168757524Y-107905524D01*
X168719429Y-107981714D01*
X168681333Y-108019810D01*
X168605143Y-108057905D01*
X168376571Y-108057905D01*
X168300381Y-108019810D01*
X168262286Y-107981714D01*
X114871500Y-86614000D02*
X114871500Y-88265000D01*
X120446800Y-88262460D02*
X120446800Y-86611460D01*
X109283500Y-88265000D02*
X120396000Y-88265000D01*
X109250480Y-86611460D02*
X109250480Y-88262460D01*
X188112477Y-90786000D02*
X188036286Y-90747905D01*
X187922001Y-90747905D01*
X187807715Y-90786000D01*
X187731524Y-90862190D01*
X187693429Y-90938381D01*
X187655334Y-91090762D01*
X187655334Y-91205048D01*
X187693429Y-91357429D01*
X187731524Y-91433619D01*
X187807715Y-91509810D01*
X187922001Y-91547905D01*
X187998191Y-91547905D01*
X188112477Y-91509810D01*
X188150572Y-91471714D01*
X188150572Y-91205048D01*
X187998191Y-91205048D01*
X188493429Y-91547905D02*
X188493429Y-90747905D01*
X188950572Y-91547905D01*
X188950572Y-90747905D01*
X189331524Y-91547905D02*
X189331524Y-90747905D01*
X189522000Y-90747905D01*
X189636286Y-90786000D01*
X189712477Y-90862190D01*
X189750572Y-90938381D01*
X189788667Y-91090762D01*
X189788667Y-91205048D01*
X189750572Y-91357429D01*
X189712477Y-91433619D01*
X189636286Y-91509810D01*
X189522000Y-91547905D01*
X189331524Y-91547905D01*
X188569620Y-89096905D02*
X188188667Y-89096905D01*
X188150572Y-89477857D01*
X188188667Y-89439762D01*
X188264858Y-89401667D01*
X188455334Y-89401667D01*
X188531524Y-89439762D01*
X188569620Y-89477857D01*
X188607715Y-89554048D01*
X188607715Y-89744524D01*
X188569620Y-89820714D01*
X188531524Y-89858810D01*
X188455334Y-89896905D01*
X188264858Y-89896905D01*
X188188667Y-89858810D01*
X188150572Y-89820714D01*
X188836286Y-89096905D02*
X189102953Y-89896905D01*
X189369620Y-89096905D01*
X192265334Y-87318905D02*
X192760572Y-87318905D01*
X192493905Y-87623667D01*
X192608191Y-87623667D01*
X192684381Y-87661762D01*
X192722477Y-87699857D01*
X192760572Y-87776048D01*
X192760572Y-87966524D01*
X192722477Y-88042714D01*
X192684381Y-88080810D01*
X192608191Y-88118905D01*
X192379619Y-88118905D01*
X192303429Y-88080810D01*
X192265334Y-88042714D01*
X190182477Y-87318905D02*
X189801524Y-87318905D01*
X189763429Y-87699857D01*
X189801524Y-87661762D01*
X189877715Y-87623667D01*
X190068191Y-87623667D01*
X190144381Y-87661762D01*
X190182477Y-87699857D01*
X190220572Y-87776048D01*
X190220572Y-87966524D01*
X190182477Y-88042714D01*
X190144381Y-88080810D01*
X190068191Y-88118905D01*
X189877715Y-88118905D01*
X189801524Y-88080810D01*
X189763429Y-88042714D01*
X187604381Y-87318905D02*
X187452000Y-87318905D01*
X187375810Y-87357000D01*
X187337715Y-87395095D01*
X187261524Y-87509381D01*
X187223429Y-87661762D01*
X187223429Y-87966524D01*
X187261524Y-88042714D01*
X187299619Y-88080810D01*
X187375810Y-88118905D01*
X187528191Y-88118905D01*
X187604381Y-88080810D01*
X187642477Y-88042714D01*
X187680572Y-87966524D01*
X187680572Y-87776048D01*
X187642477Y-87699857D01*
X187604381Y-87661762D01*
X187528191Y-87623667D01*
X187375810Y-87623667D01*
X187299619Y-87661762D01*
X187261524Y-87699857D01*
X187223429Y-87776048D01*
X184759619Y-88118905D02*
X184912000Y-88118905D01*
X184988191Y-88080810D01*
X185026286Y-88042714D01*
X185102477Y-87928429D01*
X185140572Y-87776048D01*
X185140572Y-87471286D01*
X185102477Y-87395095D01*
X185064381Y-87357000D01*
X184988191Y-87318905D01*
X184835810Y-87318905D01*
X184759619Y-87357000D01*
X184721524Y-87395095D01*
X184683429Y-87471286D01*
X184683429Y-87661762D01*
X184721524Y-87737952D01*
X184759619Y-87776048D01*
X184835810Y-87814143D01*
X184988191Y-87814143D01*
X185064381Y-87776048D01*
X185102477Y-87737952D01*
X185140572Y-87661762D01*
X175412477Y-90786000D02*
X175336286Y-90747905D01*
X175222001Y-90747905D01*
X175107715Y-90786000D01*
X175031524Y-90862190D01*
X174993429Y-90938381D01*
X174955334Y-91090762D01*
X174955334Y-91205048D01*
X174993429Y-91357429D01*
X175031524Y-91433619D01*
X175107715Y-91509810D01*
X175222001Y-91547905D01*
X175298191Y-91547905D01*
X175412477Y-91509810D01*
X175450572Y-91471714D01*
X175450572Y-91205048D01*
X175298191Y-91205048D01*
X175793429Y-91547905D02*
X175793429Y-90747905D01*
X176250572Y-91547905D01*
X176250572Y-90747905D01*
X176631524Y-91547905D02*
X176631524Y-90747905D01*
X176822000Y-90747905D01*
X176936286Y-90786000D01*
X177012477Y-90862190D01*
X177050572Y-90938381D01*
X177088667Y-91090762D01*
X177088667Y-91205048D01*
X177050572Y-91357429D01*
X177012477Y-91433619D01*
X176936286Y-91509810D01*
X176822000Y-91547905D01*
X176631524Y-91547905D01*
X175869620Y-89096905D02*
X175488667Y-89096905D01*
X175450572Y-89477857D01*
X175488667Y-89439762D01*
X175564858Y-89401667D01*
X175755334Y-89401667D01*
X175831524Y-89439762D01*
X175869620Y-89477857D01*
X175907715Y-89554048D01*
X175907715Y-89744524D01*
X175869620Y-89820714D01*
X175831524Y-89858810D01*
X175755334Y-89896905D01*
X175564858Y-89896905D01*
X175488667Y-89858810D01*
X175450572Y-89820714D01*
X176136286Y-89096905D02*
X176402953Y-89896905D01*
X176669620Y-89096905D01*
X179679619Y-88118905D02*
X179222476Y-88118905D01*
X179451047Y-88118905D02*
X179451047Y-87318905D01*
X179374857Y-87433190D01*
X179298666Y-87509381D01*
X179222476Y-87547476D01*
X180174857Y-87318905D02*
X180251048Y-87318905D01*
X180327238Y-87357000D01*
X180365333Y-87395095D01*
X180403429Y-87471286D01*
X180441524Y-87623667D01*
X180441524Y-87814143D01*
X180403429Y-87966524D01*
X180365333Y-88042714D01*
X180327238Y-88080810D01*
X180251048Y-88118905D01*
X180174857Y-88118905D01*
X180098667Y-88080810D01*
X180060571Y-88042714D01*
X180022476Y-87966524D01*
X179984381Y-87814143D01*
X179984381Y-87623667D01*
X180022476Y-87471286D01*
X180060571Y-87395095D01*
X180098667Y-87357000D01*
X180174857Y-87318905D01*
X177139619Y-88118905D02*
X176682476Y-88118905D01*
X176911047Y-88118905D02*
X176911047Y-87318905D01*
X176834857Y-87433190D01*
X176758666Y-87509381D01*
X176682476Y-87547476D01*
X177901524Y-88118905D02*
X177444381Y-88118905D01*
X177672952Y-88118905D02*
X177672952Y-87318905D01*
X177596762Y-87433190D01*
X177520571Y-87509381D01*
X177444381Y-87547476D01*
X174599619Y-88118905D02*
X174142476Y-88118905D01*
X174371047Y-88118905D02*
X174371047Y-87318905D01*
X174294857Y-87433190D01*
X174218666Y-87509381D01*
X174142476Y-87547476D01*
X174904381Y-87395095D02*
X174942476Y-87357000D01*
X175018667Y-87318905D01*
X175209143Y-87318905D01*
X175285333Y-87357000D01*
X175323429Y-87395095D01*
X175361524Y-87471286D01*
X175361524Y-87547476D01*
X175323429Y-87661762D01*
X174866286Y-88118905D01*
X175361524Y-88118905D01*
X172059619Y-88118905D02*
X171602476Y-88118905D01*
X171831047Y-88118905D02*
X171831047Y-87318905D01*
X171754857Y-87433190D01*
X171678666Y-87509381D01*
X171602476Y-87547476D01*
X172326286Y-87318905D02*
X172821524Y-87318905D01*
X172554857Y-87623667D01*
X172669143Y-87623667D01*
X172745333Y-87661762D01*
X172783429Y-87699857D01*
X172821524Y-87776048D01*
X172821524Y-87966524D01*
X172783429Y-88042714D01*
X172745333Y-88080810D01*
X172669143Y-88118905D01*
X172440571Y-88118905D01*
X172364381Y-88080810D01*
X172326286Y-88042714D01*
X191262000Y-86868000D02*
X191262000Y-88646000D01*
X188722000Y-86868000D02*
X188722000Y-88646000D01*
X186182000Y-86868000D02*
X186182000Y-88646000D01*
X193802000Y-91948000D02*
X187071000Y-91948000D01*
X193802000Y-91948000D02*
X193802000Y-90297000D01*
X193802000Y-90297000D02*
X193802000Y-88519000D01*
X183642000Y-90297000D02*
X193802000Y-90297000D01*
X193802000Y-88646000D02*
X193802000Y-86868000D01*
X183642000Y-88646000D02*
X193802000Y-88646000D01*
X183642000Y-86868000D02*
X183642000Y-91948000D01*
X183642000Y-84328000D02*
X193802000Y-84328000D01*
X183642000Y-86868000D02*
X183642000Y-81788000D01*
X183769000Y-86868000D02*
X183642000Y-86868000D01*
X193802000Y-86868000D02*
X183769000Y-86868000D01*
X193802000Y-81788000D02*
X193802000Y-86868000D01*
X193802000Y-81788000D02*
X193802000Y-79248000D01*
X183642000Y-81788000D02*
X193802000Y-81788000D01*
X183642000Y-79248000D02*
X183642000Y-81788000D01*
X191262000Y-79248000D02*
X191262000Y-81788000D01*
X188722000Y-79248000D02*
X188722000Y-81788000D01*
X186182000Y-79248000D02*
X186182000Y-81788000D01*
X170942000Y-90297000D02*
X181102000Y-90297000D01*
X181102000Y-91948000D02*
X181102000Y-88646000D01*
X170942000Y-91948000D02*
X181102000Y-91948000D01*
X170942000Y-88646000D02*
X170942000Y-91948000D01*
X173482000Y-86868000D02*
X173482000Y-88646000D01*
X176022000Y-86868000D02*
X176022000Y-88646000D01*
X178562000Y-86868000D02*
X178562000Y-88646000D01*
X181102000Y-86995000D02*
X181102000Y-86741000D01*
X181102000Y-88646000D02*
X181102000Y-86995000D01*
X170942000Y-88646000D02*
X181102000Y-88646000D01*
X170942000Y-86868000D02*
X170942000Y-88646000D01*
X170942000Y-81788000D02*
X181102000Y-81788000D01*
X170942000Y-84328000D02*
X181102000Y-84328000D01*
X170942000Y-86868000D02*
X170942000Y-79248000D01*
X181102000Y-86868000D02*
X170942000Y-86868000D01*
X181102000Y-79248000D02*
X181102000Y-86868000D01*
X178562000Y-79248000D02*
X178562000Y-81788000D01*
X176022000Y-79248000D02*
X176022000Y-81788000D01*
X173482000Y-79248000D02*
X173482000Y-81788000D01*
X127762000Y-81788000D02*
X127762000Y-79248000D01*
X165862000Y-81788000D02*
X165862000Y-79248000D01*
X163322000Y-81788000D02*
X163322000Y-79248000D01*
X160782000Y-81788000D02*
X160782000Y-79248000D01*
X158242000Y-81788000D02*
X158242000Y-79248000D01*
X155702000Y-81788000D02*
X155702000Y-79248000D01*
X160172477Y-90786000D02*
X160096286Y-90747905D01*
X159982001Y-90747905D01*
X159867715Y-90786000D01*
X159791524Y-90862190D01*
X159753429Y-90938381D01*
X159715334Y-91090762D01*
X159715334Y-91205048D01*
X159753429Y-91357429D01*
X159791524Y-91433619D01*
X159867715Y-91509810D01*
X159982001Y-91547905D01*
X160058191Y-91547905D01*
X160172477Y-91509810D01*
X160210572Y-91471714D01*
X160210572Y-91205048D01*
X160058191Y-91205048D01*
X160553429Y-91547905D02*
X160553429Y-90747905D01*
X161010572Y-91547905D01*
X161010572Y-90747905D01*
X161391524Y-91547905D02*
X161391524Y-90747905D01*
X161582000Y-90747905D01*
X161696286Y-90786000D01*
X161772477Y-90862190D01*
X161810572Y-90938381D01*
X161848667Y-91090762D01*
X161848667Y-91205048D01*
X161810572Y-91357429D01*
X161772477Y-91433619D01*
X161696286Y-91509810D01*
X161582000Y-91547905D01*
X161391524Y-91547905D01*
X160629620Y-89096905D02*
X160248667Y-89096905D01*
X160210572Y-89477857D01*
X160248667Y-89439762D01*
X160324858Y-89401667D01*
X160515334Y-89401667D01*
X160591524Y-89439762D01*
X160629620Y-89477857D01*
X160667715Y-89554048D01*
X160667715Y-89744524D01*
X160629620Y-89820714D01*
X160591524Y-89858810D01*
X160515334Y-89896905D01*
X160324858Y-89896905D01*
X160248667Y-89858810D01*
X160210572Y-89820714D01*
X160896286Y-89096905D02*
X161162953Y-89896905D01*
X161429620Y-89096905D01*
X168402000Y-91948000D02*
X168402000Y-90424000D01*
X153162000Y-91948000D02*
X168402000Y-91948000D01*
X153162000Y-90424000D02*
X153162000Y-91948000D01*
X168402000Y-90424000D02*
X168402000Y-88646000D01*
X153162000Y-90297000D02*
X168402000Y-90297000D01*
X153162000Y-88773000D02*
X153162000Y-90424000D01*
X166560572Y-87890333D02*
X166941524Y-87890333D01*
X166484381Y-88118905D02*
X166751048Y-87318905D01*
X167017715Y-88118905D01*
X167436762Y-87318905D02*
X167512953Y-87318905D01*
X167589143Y-87357000D01*
X167627238Y-87395095D01*
X167665334Y-87471286D01*
X167703429Y-87623667D01*
X167703429Y-87814143D01*
X167665334Y-87966524D01*
X167627238Y-88042714D01*
X167589143Y-88080810D01*
X167512953Y-88118905D01*
X167436762Y-88118905D01*
X167360572Y-88080810D01*
X167322476Y-88042714D01*
X167284381Y-87966524D01*
X167246286Y-87814143D01*
X167246286Y-87623667D01*
X167284381Y-87471286D01*
X167322476Y-87395095D01*
X167360572Y-87357000D01*
X167436762Y-87318905D01*
X164020572Y-87890333D02*
X164401524Y-87890333D01*
X163944381Y-88118905D02*
X164211048Y-87318905D01*
X164477715Y-88118905D01*
X165163429Y-88118905D02*
X164706286Y-88118905D01*
X164934857Y-88118905D02*
X164934857Y-87318905D01*
X164858667Y-87433190D01*
X164782476Y-87509381D01*
X164706286Y-87547476D01*
X161480572Y-87890333D02*
X161861524Y-87890333D01*
X161404381Y-88118905D02*
X161671048Y-87318905D01*
X161937715Y-88118905D01*
X162166286Y-87395095D02*
X162204381Y-87357000D01*
X162280572Y-87318905D01*
X162471048Y-87318905D01*
X162547238Y-87357000D01*
X162585334Y-87395095D01*
X162623429Y-87471286D01*
X162623429Y-87547476D01*
X162585334Y-87661762D01*
X162128191Y-88118905D01*
X162623429Y-88118905D01*
X158940572Y-87890333D02*
X159321524Y-87890333D01*
X158864381Y-88118905D02*
X159131048Y-87318905D01*
X159397715Y-88118905D01*
X159588191Y-87318905D02*
X160083429Y-87318905D01*
X159816762Y-87623667D01*
X159931048Y-87623667D01*
X160007238Y-87661762D01*
X160045334Y-87699857D01*
X160083429Y-87776048D01*
X160083429Y-87966524D01*
X160045334Y-88042714D01*
X160007238Y-88080810D01*
X159931048Y-88118905D01*
X159702476Y-88118905D01*
X159626286Y-88080810D01*
X159588191Y-88042714D01*
X156400572Y-87890333D02*
X156781524Y-87890333D01*
X156324381Y-88118905D02*
X156591048Y-87318905D01*
X156857715Y-88118905D01*
X157467238Y-87318905D02*
X157314857Y-87318905D01*
X157238667Y-87357000D01*
X157200572Y-87395095D01*
X157124381Y-87509381D01*
X157086286Y-87661762D01*
X157086286Y-87966524D01*
X157124381Y-88042714D01*
X157162476Y-88080810D01*
X157238667Y-88118905D01*
X157391048Y-88118905D01*
X157467238Y-88080810D01*
X157505334Y-88042714D01*
X157543429Y-87966524D01*
X157543429Y-87776048D01*
X157505334Y-87699857D01*
X157467238Y-87661762D01*
X157391048Y-87623667D01*
X157238667Y-87623667D01*
X157162476Y-87661762D01*
X157124381Y-87699857D01*
X157086286Y-87776048D01*
X153860572Y-87890333D02*
X154241524Y-87890333D01*
X153784381Y-88118905D02*
X154051048Y-87318905D01*
X154317715Y-88118905D01*
X154508191Y-87318905D02*
X155041524Y-87318905D01*
X154698667Y-88118905D01*
X153162000Y-88646000D02*
X168402000Y-88646000D01*
X153162000Y-86868000D02*
X168402000Y-86868000D01*
X153162000Y-79248000D02*
X153162000Y-88773000D01*
X168402000Y-79248000D02*
X168402000Y-88519000D01*
X153162000Y-84328000D02*
X168402000Y-84328000D01*
X153162000Y-81788000D02*
X168402000Y-81788000D01*
X165862000Y-86868000D02*
X165862000Y-88646000D01*
X163322000Y-86868000D02*
X163322000Y-88646000D01*
X160782000Y-86868000D02*
X160782000Y-88646000D01*
X158242000Y-86868000D02*
X158242000Y-88646000D01*
X155702000Y-86868000D02*
X155702000Y-88646000D01*
X133096000Y-87630000D02*
X133096000Y-86233000D01*
X122428000Y-87630000D02*
X133096000Y-87630000D01*
X122428000Y-86233000D02*
X122428000Y-87630000D01*
X133096000Y-86233000D02*
X133096000Y-79248000D01*
X122428000Y-86233000D02*
X122428000Y-79248000D01*
X122428000Y-85979000D02*
X133096000Y-85979000D01*
X122428000Y-84328000D02*
X133096000Y-84328000D01*
X122428000Y-81788000D02*
X133096000Y-81788000D01*
X127762000Y-84328000D02*
X127762000Y-85979000D01*
X127152477Y-86468000D02*
X127076286Y-86429905D01*
X126962001Y-86429905D01*
X126847715Y-86468000D01*
X126771524Y-86544190D01*
X126733429Y-86620381D01*
X126695334Y-86772762D01*
X126695334Y-86887048D01*
X126733429Y-87039429D01*
X126771524Y-87115619D01*
X126847715Y-87191810D01*
X126962001Y-87229905D01*
X127038191Y-87229905D01*
X127152477Y-87191810D01*
X127190572Y-87153714D01*
X127190572Y-86887048D01*
X127038191Y-86887048D01*
X127533429Y-87229905D02*
X127533429Y-86429905D01*
X127990572Y-87229905D01*
X127990572Y-86429905D01*
X128371524Y-87229905D02*
X128371524Y-86429905D01*
X128562000Y-86429905D01*
X128676286Y-86468000D01*
X128752477Y-86544190D01*
X128790572Y-86620381D01*
X128828667Y-86772762D01*
X128828667Y-86887048D01*
X128790572Y-87039429D01*
X128752477Y-87115619D01*
X128676286Y-87191810D01*
X128562000Y-87229905D01*
X128371524Y-87229905D01*
X129184524Y-84778905D02*
X129679762Y-84778905D01*
X129413095Y-85083667D01*
X129527381Y-85083667D01*
X129603571Y-85121762D01*
X129641667Y-85159857D01*
X129679762Y-85236048D01*
X129679762Y-85426524D01*
X129641667Y-85502714D01*
X129603571Y-85540810D01*
X129527381Y-85578905D01*
X129298809Y-85578905D01*
X129222619Y-85540810D01*
X129184524Y-85502714D01*
X129908333Y-84778905D02*
X130175000Y-85578905D01*
X130441667Y-84778905D01*
X130632143Y-84778905D02*
X131127381Y-84778905D01*
X130860714Y-85083667D01*
X130975000Y-85083667D01*
X131051190Y-85121762D01*
X131089286Y-85159857D01*
X131127381Y-85236048D01*
X131127381Y-85426524D01*
X131089286Y-85502714D01*
X131051190Y-85540810D01*
X130975000Y-85578905D01*
X130746428Y-85578905D01*
X130670238Y-85540810D01*
X130632143Y-85502714D01*
X125069620Y-84778905D02*
X124688667Y-84778905D01*
X124650572Y-85159857D01*
X124688667Y-85121762D01*
X124764858Y-85083667D01*
X124955334Y-85083667D01*
X125031524Y-85121762D01*
X125069620Y-85159857D01*
X125107715Y-85236048D01*
X125107715Y-85426524D01*
X125069620Y-85502714D01*
X125031524Y-85540810D01*
X124955334Y-85578905D01*
X124764858Y-85578905D01*
X124688667Y-85540810D01*
X124650572Y-85502714D01*
X125336286Y-84778905D02*
X125602953Y-85578905D01*
X125869620Y-84778905D01*
X111467977Y-87103000D02*
X111391786Y-87064905D01*
X111277501Y-87064905D01*
X111163215Y-87103000D01*
X111087024Y-87179190D01*
X111048929Y-87255381D01*
X111010834Y-87407762D01*
X111010834Y-87522048D01*
X111048929Y-87674429D01*
X111087024Y-87750619D01*
X111163215Y-87826810D01*
X111277501Y-87864905D01*
X111353691Y-87864905D01*
X111467977Y-87826810D01*
X111506072Y-87788714D01*
X111506072Y-87522048D01*
X111353691Y-87522048D01*
X111848929Y-87864905D02*
X111848929Y-87064905D01*
X112306072Y-87864905D01*
X112306072Y-87064905D01*
X112687024Y-87864905D02*
X112687024Y-87064905D01*
X112877500Y-87064905D01*
X112991786Y-87103000D01*
X113067977Y-87179190D01*
X113106072Y-87255381D01*
X113144167Y-87407762D01*
X113144167Y-87522048D01*
X113106072Y-87674429D01*
X113067977Y-87750619D01*
X112991786Y-87826810D01*
X112877500Y-87864905D01*
X112687024Y-87864905D01*
X116725810Y-87064905D02*
X116992477Y-87864905D01*
X117259144Y-87064905D01*
X117525810Y-87864905D02*
X117525810Y-87064905D01*
X117906762Y-87864905D02*
X117906762Y-87064905D01*
X118363905Y-87864905D01*
X118363905Y-87064905D01*
D15*
X159537400Y-102870000D02*
G75*
G03X158267400Y-102870000I-635000J0D01*
G01*
D10*
X102895400Y-103682800D02*
G75*
G03X102895400Y-103682800I-127000J0D01*
G01*
D15*
X143781780Y-97772220D02*
X143781780Y-95775780D01*
X115951000Y-95882460D02*
X117475000Y-95882460D01*
X106677460Y-91948000D02*
X106677460Y-93472000D01*
D16*
X202184000Y-114046000D02*
G75*
G03X202184000Y-114046000I-2794000J0D01*
G01*
D15*
X199390000Y-115900200D02*
G75*
G03X199390000Y-112191800I0J1854200D01*
G01*
X199390000Y-112191800D02*
G75*
G03X199390000Y-115900200I0J-1854200D01*
G01*
X199390000Y-115900200D02*
G75*
G03X199390000Y-112191800I0J1854200D01*
G01*
X199390000Y-112191800D02*
G75*
G03X199390000Y-115900200I0J-1854200D01*
G01*
D16*
X202184000Y-82550000D02*
G75*
G03X202184000Y-82550000I-2794000J0D01*
G01*
D15*
X199390000Y-84404200D02*
G75*
G03X199390000Y-80695800I0J1854200D01*
G01*
X199390000Y-80695800D02*
G75*
G03X199390000Y-84404200I0J-1854200D01*
G01*
X199390000Y-84404200D02*
G75*
G03X199390000Y-80695800I0J1854200D01*
G01*
X199390000Y-80695800D02*
G75*
G03X199390000Y-84404200I0J-1854200D01*
G01*
X181409340Y-94922340D02*
X188414660Y-94922340D01*
X188414660Y-94922340D02*
X188414660Y-101927660D01*
X188414660Y-101927660D02*
X181762400Y-101927660D01*
X181409340Y-101574600D02*
X181409340Y-94922340D01*
X181409340Y-101574600D02*
X181762400Y-101927660D01*
X181381400Y-102082600D02*
G75*
G03X181381400Y-102082600I-152400J0D01*
G01*
X168127680Y-95994220D02*
X168127680Y-96791780D01*
X166601140Y-94668340D02*
X166900860Y-94668340D01*
X166900860Y-98117660D02*
X166601140Y-98117660D01*
X165374320Y-96791780D02*
X165374320Y-95994220D01*
D17*
X148559520Y-79590900D02*
X145562320Y-79590900D01*
X150060660Y-82191860D02*
X150060660Y-83842860D01*
X144813020Y-83842860D02*
X144061180Y-83842860D01*
X144061180Y-83842860D02*
X144061180Y-82191860D01*
X150060660Y-83842860D02*
X149308820Y-83842860D01*
D18*
X149699980Y-84490560D02*
G75*
G03X149699980Y-84490560I-139700J0D01*
G01*
D17*
X140441680Y-79590900D02*
X137444480Y-79590900D01*
X141942820Y-82191860D02*
X141942820Y-83842860D01*
X136695180Y-83842860D02*
X135943340Y-83842860D01*
X135943340Y-83842860D02*
X135943340Y-82191860D01*
X141942820Y-83842860D02*
X141190980Y-83842860D01*
D18*
X141582140Y-84490560D02*
G75*
G03X141582140Y-84490560I-139700J0D01*
G01*
D15*
X120446800Y-86774020D02*
X109250480Y-86774020D01*
X109250480Y-86774020D02*
X109250480Y-80276700D01*
X109250480Y-80276700D02*
X109250480Y-79275940D01*
X109250480Y-79275940D02*
X120446800Y-79275940D01*
X120446800Y-79275940D02*
X120446800Y-80276700D01*
X120446800Y-80276700D02*
X120446800Y-86774020D01*
X109250480Y-80276700D02*
X120446800Y-80276700D01*
D19*
X103124000Y-89103200D02*
X103124000Y-87376000D01*
X103378000Y-89357200D02*
X104902000Y-89357200D01*
X103378000Y-87122000D02*
X104902000Y-87122000D01*
X105156000Y-87376000D02*
X105156000Y-89103200D01*
X104902000Y-89357200D02*
G75*
G03X105156000Y-89103200I0J254000D01*
G01*
X105156000Y-87376000D02*
G75*
G03X104902000Y-87122000I-254000J0D01*
G01*
X103378000Y-87122000D02*
G75*
G03X103124000Y-87376000I0J-254000D01*
G01*
X103124000Y-89103200D02*
G75*
G03X103378000Y-89357200I254000J0D01*
G01*
X105156000Y-107594400D02*
X105156000Y-109321600D01*
X104902000Y-107340400D02*
X103378000Y-107340400D01*
X104902000Y-109575600D02*
X103378000Y-109575600D01*
X103124000Y-109321600D02*
X103124000Y-107594400D01*
X103378000Y-107340400D02*
G75*
G03X103124000Y-107594400I0J-254000D01*
G01*
X103124000Y-109321600D02*
G75*
G03X103378000Y-109575600I254000J0D01*
G01*
X104902000Y-109575600D02*
G75*
G03X105156000Y-109321600I0J254000D01*
G01*
X105156000Y-107594400D02*
G75*
G03X104902000Y-107340400I-254000J0D01*
G01*
D20*
X124569220Y-110291880D02*
X124569220Y-110688120D01*
X124569220Y-110688120D02*
X125366780Y-110688120D01*
X125366780Y-110291880D02*
X125366780Y-110688120D01*
X124569220Y-110291880D02*
X125366780Y-110291880D01*
D21*
X126067820Y-108092240D02*
X126067820Y-112887760D01*
X123868180Y-112887760D02*
X123868180Y-108092240D01*
X123868180Y-108092240D02*
X126067820Y-108092240D01*
X126067820Y-112887760D02*
X123868180Y-112887760D01*
D22*
X115900200Y-102274300D02*
X113900200Y-102274300D01*
X117900200Y-102274300D02*
X117000200Y-102274300D01*
X119825200Y-102274300D02*
G75*
G03X119825200Y-102274300I-925000J0D01*
G01*
X113825200Y-102274300D02*
G75*
G03X113825200Y-102274300I-925000J0D01*
G01*
D23*
X116075200Y-102274300D02*
G75*
G03X116075200Y-102274300I-175000J0D01*
G01*
D22*
X115225200Y-103024300D02*
G75*
G03X115150200Y-101599300I675000J750000D01*
G01*
X126621288Y-90927429D02*
X127383193Y-90927429D01*
X127002241Y-91308381D02*
X127002241Y-90546476D01*
M02*
