G04 #@! TF.FileFunction,Paste,Top*
%FSLAX46Y46*%
G04 Gerber Fmt 4.6, Leading zero omitted, Abs format (unit mm)*
G04 Created by KiCad (PCBNEW 4.0.7) date 11/14/17 13:42:56*
%MOMM*%
%LPD*%
G01*
G04 APERTURE LIST*
%ADD10C,0.100000*%
%ADD11R,0.398780X1.447800*%
%ADD12R,1.798320X1.498600*%
%ADD13R,2.499360X1.498600*%
%ADD14R,0.599440X1.348740*%
%ADD15R,1.198880X1.998980*%
%ADD16C,0.635000*%
%ADD17R,1.099820X0.998220*%
%ADD18R,0.998220X1.099820*%
%ADD19R,1.597660X1.399540*%
%ADD20R,1.198880X2.499360*%
%ADD21R,1.399540X1.597660*%
%ADD22R,1.270000X1.468120*%
%ADD23R,1.798320X1.597660*%
%ADD24R,0.899160X0.797560*%
%ADD25R,0.797560X0.899160*%
%ADD26R,1.198880X0.599440*%
%ADD27R,0.548640X1.198880*%
%ADD28R,0.558800X1.270000*%
%ADD29R,1.270000X0.558800*%
%ADD30O,0.449580X1.905000*%
%ADD31R,1.219200X2.235200*%
%ADD32R,3.599180X2.199640*%
%ADD33R,1.099820X1.198880*%
%ADD34R,2.397760X2.799080*%
G04 APERTURE END LIST*
D10*
D11*
X130543300Y-112466120D03*
X129895600Y-112466120D03*
X131841240Y-112466120D03*
X131191000Y-112466120D03*
D12*
X126860300Y-115189000D03*
X134226300Y-115189000D03*
D13*
X130543300Y-115189000D03*
D11*
X129245360Y-112466120D03*
D14*
X140436600Y-84201000D03*
X139435840Y-84201000D03*
X138440160Y-84201000D03*
X137439400Y-84201000D03*
D15*
X136138920Y-80528160D03*
X141737080Y-80528160D03*
D16*
X200660000Y-86614000D03*
X104140000Y-106426000D03*
D17*
X186268360Y-91440000D03*
X184571640Y-91440000D03*
D18*
X120650000Y-99273360D03*
X120650000Y-97576640D03*
D19*
X116713000Y-96895920D03*
X116713000Y-99695000D03*
D18*
X112903000Y-97576640D03*
X112903000Y-99273360D03*
D20*
X126250700Y-92456000D03*
X122953780Y-92456000D03*
D21*
X105664000Y-92710000D03*
X102864920Y-92710000D03*
D17*
X105156000Y-95758000D03*
X103459280Y-95758000D03*
X175595280Y-98679000D03*
X177292000Y-98679000D03*
X167599360Y-99568000D03*
X165902640Y-99568000D03*
X165902640Y-93218000D03*
X167599360Y-93218000D03*
X165902640Y-101092000D03*
X167599360Y-101092000D03*
X105254360Y-98298000D03*
X103557640Y-98298000D03*
D22*
X146928840Y-96774000D03*
X142631160Y-96774000D03*
D23*
X124968000Y-109090460D03*
X124968000Y-111889540D03*
D24*
X115443000Y-90932000D03*
X115443000Y-92831920D03*
X117541040Y-91881960D03*
D25*
X139506960Y-88074500D03*
X137607040Y-88074500D03*
X138557000Y-90172540D03*
D17*
X168996360Y-106172000D03*
X167299640Y-106172000D03*
X160949640Y-106172000D03*
X162646360Y-106172000D03*
X177292000Y-100584000D03*
X175595280Y-100584000D03*
D18*
X112903000Y-90932000D03*
X112903000Y-92628720D03*
D17*
X179999640Y-106172000D03*
X181696360Y-106172000D03*
X175346360Y-106172000D03*
X173649640Y-106172000D03*
X137607040Y-92837000D03*
X139303760Y-92837000D03*
D18*
X142392400Y-90170000D03*
X142392400Y-88473280D03*
D17*
X129626360Y-107442000D03*
X127929640Y-107442000D03*
X127929640Y-109524800D03*
X129626360Y-109524800D03*
D26*
X161676080Y-102108000D03*
X161676080Y-100838000D03*
X161676080Y-99568000D03*
X161676080Y-98298000D03*
X161676080Y-97028000D03*
X161676080Y-95758000D03*
X161676080Y-94488000D03*
X161676080Y-93218000D03*
X156077920Y-93218000D03*
X156077920Y-94488000D03*
X156077920Y-95758000D03*
X156077920Y-97028000D03*
X156077920Y-98298000D03*
X156077920Y-99568000D03*
X156077920Y-100838000D03*
X156077920Y-102108000D03*
D27*
X103418640Y-103964740D03*
X104368600Y-103964740D03*
X105318560Y-103964740D03*
X105318560Y-101368860D03*
X103418640Y-101368860D03*
D28*
X182112920Y-102717600D03*
X182913020Y-102717600D03*
X183713120Y-102717600D03*
X184513220Y-102717600D03*
X185310780Y-102717600D03*
X186110880Y-102717600D03*
X186910980Y-102717600D03*
X187711080Y-102717600D03*
D29*
X189204600Y-101224080D03*
X189204600Y-100423980D03*
X189204600Y-99623880D03*
X189204600Y-98823780D03*
X189204600Y-98026220D03*
X189204600Y-97226120D03*
X189204600Y-96426020D03*
X189204600Y-95625920D03*
D28*
X187711080Y-94132400D03*
X186910980Y-94132400D03*
X186110880Y-94132400D03*
X185310780Y-94132400D03*
X184513220Y-94132400D03*
X183713120Y-94132400D03*
X182913020Y-94132400D03*
X182112920Y-94132400D03*
D29*
X180619400Y-95625920D03*
X180619400Y-96426020D03*
X180619400Y-97226120D03*
X180619400Y-98026220D03*
X180619400Y-98823780D03*
X180619400Y-99623880D03*
X180619400Y-100423980D03*
X180619400Y-101224080D03*
D30*
X184856120Y-106299000D03*
X186055000Y-106299000D03*
X187253880Y-106299000D03*
D31*
X127863600Y-102413800D03*
X130175000Y-102413800D03*
X132486400Y-102413800D03*
D32*
X130175000Y-96216200D03*
D33*
X165877240Y-95219520D03*
X165877240Y-97566480D03*
X167624760Y-97566480D03*
X167624760Y-95219520D03*
D24*
X144035780Y-80330040D03*
X144035780Y-82229960D03*
X146133820Y-81280000D03*
D17*
X145201640Y-92837000D03*
X146898360Y-92837000D03*
X143169640Y-84328000D03*
X144866360Y-84328000D03*
D34*
X121523760Y-114046000D03*
X121523760Y-107947460D03*
X110124240Y-114046000D03*
X110124240Y-107947460D03*
M02*
