M48
;DRILL file {KiCad 4.0.6} date 08/03/17 16:38:47
;FORMAT={-:-/ absolute / inch / decimal}
FMAT,2
INCH,TZ
T1C0.016
T2C0.020
T3C0.024
T4C0.039
T5C0.040
T6C0.051
T7C0.051
T8C0.059
T9C0.130
T10C0.033
T11C0.080
T12C0.130
%
G90
G05
M72
T1
X4.008Y-3.49
X4.161Y-3.585
X4.494Y-3.6468
X4.688Y-3.618
X4.912Y-4.535
X4.92Y-4.21
X4.983Y-4.029
X4.983Y-4.229
X5.114Y-4.367
X5.125Y-3.962
X5.156Y-4.362
X5.157Y-4.312
X5.411Y-3.256
X5.451Y-3.4
X5.489Y-3.212
X5.538Y-3.655
X5.544Y-3.467
X5.606Y-3.429
X5.652Y-3.55
X5.731Y-3.256
X5.7702Y-3.3838
X5.806Y-3.551
X5.837Y-3.655
X5.905Y-3.429
X5.958Y-3.551
X6.083Y-3.87
X6.148Y-3.482
X6.227Y-3.451
X6.3Y-3.82
X6.315Y-3.77
X6.435Y-3.991
X6.46Y-4.18
X6.47Y-3.84
X6.655Y-3.84
X6.691Y-4.18
X6.848Y-3.959
X6.913Y-3.831
X6.92Y-4.085
X7.047Y-3.923
X7.047Y-3.958
X7.048Y-3.812
X7.048Y-3.847
X7.154Y-3.37
X7.171Y-3.891
X7.218Y-3.756
X7.264Y-3.963
X7.295Y-3.87
X7.313Y-3.757
X7.327Y-3.963
X7.355Y-3.649
X7.389Y-3.648
X7.402Y-3.828
X7.504Y-3.726
X7.504Y-3.7963
X7.505Y-3.954
X7.507Y-3.859
X7.512Y-4.256
X7.538Y-3.725
X7.572Y-3.725
X7.586Y-3.94
X7.606Y-3.725
X7.906Y-4.256
T2
X4.02Y-3.25
X4.02Y-4.5
X4.04Y-3.19
X4.04Y-3.31
X4.04Y-4.44
X4.04Y-4.56
X4.1Y-3.17
X4.1Y-3.33
X4.1Y-4.42
X4.1Y-4.58
X4.16Y-3.19
X4.16Y-3.31
X4.16Y-4.44
X4.16Y-4.56
X4.18Y-3.25
X4.18Y-4.5
T3
X6.32Y-4.43
X6.42Y-4.43
X6.57Y-4.43
X6.67Y-4.43
X6.82Y-4.43
X6.92Y-4.43
X7.07Y-4.43
X7.17Y-4.43
T4
X7.4028Y-4.52
X7.58Y-4.52
T5
X4.88Y-3.17
X4.88Y-3.27
X4.98Y-3.17
X4.98Y-3.27
X5.08Y-3.17
X5.08Y-3.27
X5.18Y-3.17
X5.18Y-3.27
X6.08Y-3.17
X6.08Y-3.27
X6.08Y-3.37
X6.18Y-3.17
X6.18Y-3.27
X6.18Y-3.37
X6.28Y-3.17
X6.28Y-3.27
X6.28Y-3.37
X6.38Y-3.17
X6.38Y-3.27
X6.38Y-3.37
X6.48Y-3.17
X6.48Y-3.27
X6.48Y-3.37
X6.58Y-3.17
X6.58Y-3.27
X6.58Y-3.37
X6.78Y-3.17
X6.78Y-3.27
X6.78Y-3.37
X6.88Y-3.17
X6.88Y-3.27
X6.88Y-3.37
X6.98Y-3.17
X6.98Y-3.27
X6.98Y-3.37
X7.08Y-3.17
X7.08Y-3.27
X7.08Y-3.37
X7.28Y-3.17
X7.28Y-3.27
X7.28Y-3.37
X7.38Y-3.17
X7.38Y-3.27
X7.38Y-3.37
X7.48Y-3.17
X7.48Y-3.27
X7.48Y-3.37
X7.58Y-3.17
X7.58Y-3.27
X7.58Y-3.37
X7.69Y-3.77
X7.69Y-3.87
X7.69Y-3.97
X7.79Y-3.77
X7.79Y-3.87
X7.79Y-3.97
T6
X4.4232Y-3.251
X4.62Y-3.251
T7
X7.3536Y-4.4216
X7.6292Y-4.4216
T8
X5.5144Y-4.0019
X5.5144Y-4.12
X5.79Y-4.0019
X5.79Y-4.12
T9
X4.1Y-3.25
X4.1Y-4.5
T10
X5.0647Y-4.4484
X5.2143Y-4.4484
T11
X4.56Y-4.31
X4.56Y-4.49
T12
X7.85Y-3.25
X7.85Y-4.49
T0
M30
