G04 #@! TF.FileFunction,Soldermask,Bot*
%FSLAX46Y46*%
G04 Gerber Fmt 4.6, Leading zero omitted, Abs format (unit mm)*
G04 Created by KiCad (PCBNEW 4.0.7) date 11/14/17 13:42:56*
%MOMM*%
%LPD*%
G01*
G04 APERTURE LIST*
%ADD10C,0.100000*%
%ADD11C,1.000760*%
%ADD12C,2.032000*%
%ADD13R,2.302400X2.302400*%
%ADD14C,2.302400*%
%ADD15C,0.838200*%
%ADD16C,3.251200*%
%ADD17C,1.352400*%
%ADD18C,2.652400*%
%ADD19C,5.352400*%
%ADD20C,0.652400*%
%ADD21C,1.852400*%
%ADD22C,1.676400*%
%ADD23C,2.082800*%
%ADD24C,2.235200*%
G04 APERTURE END LIST*
D10*
D11*
X128643380Y-112989360D03*
X132443220Y-112989360D03*
D12*
X184912000Y-80518000D03*
X187452000Y-80518000D03*
X189992000Y-80518000D03*
X192532000Y-80518000D03*
X172212000Y-80518000D03*
X174752000Y-80518000D03*
X177292000Y-80518000D03*
X179832000Y-80518000D03*
X123952000Y-83058000D03*
X126492000Y-83058000D03*
X129032000Y-83058000D03*
X131572000Y-83058000D03*
X131572000Y-80518000D03*
X129032000Y-80518000D03*
X126492000Y-80518000D03*
X123952000Y-80518000D03*
D13*
X117348000Y-82575400D03*
D14*
X112349280Y-82575400D03*
D12*
X195326000Y-95758000D03*
X197866000Y-95758000D03*
X195326000Y-98298000D03*
X197866000Y-98298000D03*
X195326000Y-100838000D03*
X197866000Y-100838000D03*
D15*
X200660000Y-86614000D03*
X104140000Y-106426000D03*
D16*
X199390000Y-114046000D03*
X199390000Y-82296000D03*
D17*
X182118000Y-112522000D03*
X179578000Y-112522000D03*
X175768000Y-112522000D03*
X173228000Y-112522000D03*
X163068000Y-112522000D03*
X160528000Y-112522000D03*
X169418000Y-112522000D03*
X166878000Y-112522000D03*
D18*
X147066000Y-101648000D03*
X140066000Y-101648000D03*
X147066000Y-104648000D03*
X140066000Y-104648000D03*
D19*
X104140000Y-82550000D03*
D20*
X106172000Y-82550000D03*
X102108000Y-82550000D03*
X104140000Y-80518000D03*
X104140000Y-84582000D03*
X105664000Y-84074000D03*
X105664000Y-81026000D03*
X102616000Y-81026000D03*
X102616000Y-84074000D03*
D19*
X104140000Y-114300000D03*
D20*
X106172000Y-114300000D03*
X102108000Y-114300000D03*
X104140000Y-112268000D03*
X104140000Y-116332000D03*
X105664000Y-115824000D03*
X105664000Y-112776000D03*
X102616000Y-112776000D03*
X102616000Y-115824000D03*
D21*
X193782000Y-112308000D03*
D22*
X192532000Y-114808000D03*
X188032000Y-114808000D03*
D21*
X186782000Y-112308000D03*
D23*
X159512000Y-83058000D03*
X162052000Y-83058000D03*
X164592000Y-83058000D03*
X167132000Y-83058000D03*
X184912000Y-83058000D03*
X187452000Y-83058000D03*
X189992000Y-83058000D03*
X192532000Y-83058000D03*
X172212000Y-83058000D03*
X174752000Y-83058000D03*
X177292000Y-83058000D03*
X179832000Y-83058000D03*
X149352000Y-83058000D03*
X151892000Y-83058000D03*
X154432000Y-83058000D03*
X156972000Y-83058000D03*
X159512000Y-80518000D03*
X162052000Y-80518000D03*
X164592000Y-80518000D03*
X167132000Y-80518000D03*
X149352000Y-80518000D03*
X151892000Y-80518000D03*
X154432000Y-80518000D03*
X156972000Y-80518000D03*
X159512000Y-85598000D03*
X162052000Y-85598000D03*
X164592000Y-85598000D03*
X167132000Y-85598000D03*
X184912000Y-85598000D03*
X187452000Y-85598000D03*
X189992000Y-85598000D03*
X192532000Y-85598000D03*
X172212000Y-85598000D03*
X174752000Y-85598000D03*
X177292000Y-85598000D03*
X179832000Y-85598000D03*
X149352000Y-85598000D03*
X151892000Y-85598000D03*
X154432000Y-85598000D03*
X156972000Y-85598000D03*
D24*
X115824000Y-114046000D03*
X115824000Y-109474000D03*
M02*
