G04 #@! TF.FileFunction,Legend,Bot*
%FSLAX46Y46*%
G04 Gerber Fmt 4.6, Leading zero omitted, Abs format (unit mm)*
G04 Created by KiCad (PCBNEW 4.0.6) date 08/03/17 16:45:26*
%MOMM*%
%LPD*%
G01*
G04 APERTURE LIST*
%ADD10C,0.100000*%
%ADD11C,0.508000*%
%ADD12C,0.300000*%
%ADD13C,0.200000*%
%ADD14C,0.010000*%
G04 APERTURE END LIST*
D10*
D11*
X177673000Y-108394500D02*
X177673000Y-106997500D01*
X171323000Y-108394500D02*
X171323000Y-106934000D01*
X164973000Y-108394500D02*
X164973000Y-106997500D01*
X183896000Y-106870500D02*
X158750000Y-106870500D01*
X183896000Y-108458000D02*
X183896000Y-106870500D01*
X158750000Y-108458000D02*
X183896000Y-108458000D01*
X158750000Y-106870500D02*
X158750000Y-108458000D01*
X191262000Y-86931500D02*
X191262000Y-88519000D01*
X188722000Y-86868000D02*
X188722000Y-88646000D01*
X186182000Y-86931500D02*
X186182000Y-88519000D01*
X193675000Y-90297000D02*
X183705500Y-90297000D01*
X183642000Y-88646000D02*
X193675000Y-88646000D01*
X193802000Y-86868000D02*
X183769000Y-86868000D01*
X183769000Y-84328000D02*
X193611500Y-84328000D01*
X193675000Y-81788000D02*
X183769000Y-81788000D01*
X191262000Y-79248000D02*
X191262000Y-81724500D01*
X188722000Y-79248000D02*
X188722000Y-81724500D01*
X186182000Y-79248000D02*
X186182000Y-81788000D01*
X183642000Y-91948000D02*
X183642000Y-79248000D01*
X193802000Y-91948000D02*
X187198000Y-91948000D01*
X193802000Y-79248000D02*
X193802000Y-91948000D01*
X173482000Y-86995000D02*
X173482000Y-88519000D01*
X176022000Y-86995000D02*
X176022000Y-88455500D01*
X178562000Y-86995000D02*
X178562000Y-88582500D01*
X173482000Y-79248000D02*
X173482000Y-81661000D01*
X178562000Y-79248000D02*
X178562000Y-81724500D01*
X176022000Y-79248000D02*
X176022000Y-81661000D01*
X170942000Y-90297000D02*
X181038500Y-90297000D01*
X181038500Y-88646000D02*
X171069000Y-88646000D01*
X170942000Y-86868000D02*
X180975000Y-86868000D01*
X181038500Y-84328000D02*
X171069000Y-84328000D01*
X170942000Y-81788000D02*
X180975000Y-81788000D01*
X170942000Y-91948000D02*
X170942000Y-79248000D01*
X181102000Y-91948000D02*
X170942000Y-91948000D01*
X181102000Y-79248000D02*
X181102000Y-91948000D01*
X165862000Y-79248000D02*
X165862000Y-81724500D01*
X163322000Y-79248000D02*
X163322000Y-81661000D01*
X160782000Y-79121000D02*
X160782000Y-81661000D01*
X158242000Y-79248000D02*
X158242000Y-81788000D01*
X155702000Y-79311500D02*
X155702000Y-81661000D01*
X155702000Y-88646000D02*
X155702000Y-87058500D01*
X158242000Y-86931500D02*
X158242000Y-88519000D01*
X165862000Y-86931500D02*
X165862000Y-88582500D01*
X163322000Y-86931500D02*
X163322000Y-88519000D01*
X160782000Y-88582500D02*
X160782000Y-87058500D01*
X153162000Y-90297000D02*
X168275000Y-90297000D01*
X168338500Y-88646000D02*
X153289000Y-88646000D01*
X153162000Y-86868000D02*
X168275000Y-86868000D01*
X168275000Y-84328000D02*
X153289000Y-84328000D01*
X153225500Y-81788000D02*
X168338500Y-81788000D01*
X153162000Y-91948000D02*
X153162000Y-79248000D01*
X168402000Y-91948000D02*
X153162000Y-91948000D01*
X168402000Y-79248000D02*
X168402000Y-91948000D01*
X109347000Y-86677500D02*
X109347000Y-79184500D01*
X120396000Y-86677500D02*
X120396000Y-79184500D01*
X127698500Y-84391500D02*
X127698500Y-85915500D01*
X122555000Y-86042500D02*
X132969000Y-86042500D01*
X132969000Y-84328000D02*
X122618500Y-84328000D01*
X122555000Y-81788000D02*
X132905500Y-81788000D01*
X127698500Y-79248000D02*
X127698500Y-81788000D01*
X133096000Y-87630000D02*
X133096000Y-79311500D01*
X122428000Y-87630000D02*
X133096000Y-87630000D01*
X122428000Y-79248000D02*
X122428000Y-87630000D01*
X114871500Y-88265000D02*
X114871500Y-86677500D01*
X109347000Y-88265000D02*
X109347000Y-86614000D01*
X120396000Y-88265000D02*
X109347000Y-88265000D01*
X120396000Y-86614000D02*
X120396000Y-88265000D01*
X109347000Y-86614000D02*
X120396000Y-86614000D01*
D12*
X152282500Y-83985286D02*
X152282500Y-84556715D01*
X152625357Y-83871001D02*
X151425357Y-84271001D01*
X152625357Y-84671001D01*
X152625357Y-85071000D02*
X151425357Y-85071000D01*
X151425357Y-85356715D01*
X151482500Y-85528143D01*
X151596786Y-85642429D01*
X151711071Y-85699572D01*
X151939643Y-85756715D01*
X152111071Y-85756715D01*
X152339643Y-85699572D01*
X152453929Y-85642429D01*
X152568214Y-85528143D01*
X152625357Y-85356715D01*
X152625357Y-85071000D01*
X152511071Y-86956715D02*
X152568214Y-86899572D01*
X152625357Y-86728143D01*
X152625357Y-86613857D01*
X152568214Y-86442429D01*
X152453929Y-86328143D01*
X152339643Y-86271000D01*
X152111071Y-86213857D01*
X151939643Y-86213857D01*
X151711071Y-86271000D01*
X151596786Y-86328143D01*
X151482500Y-86442429D01*
X151425357Y-86613857D01*
X151425357Y-86728143D01*
X151482500Y-86899572D01*
X151539643Y-86956715D01*
X170348214Y-84432928D02*
X170405357Y-84604357D01*
X170405357Y-84890071D01*
X170348214Y-85004357D01*
X170291071Y-85061500D01*
X170176786Y-85118643D01*
X170062500Y-85118643D01*
X169948214Y-85061500D01*
X169891071Y-85004357D01*
X169833929Y-84890071D01*
X169776786Y-84661500D01*
X169719643Y-84547214D01*
X169662500Y-84490071D01*
X169548214Y-84432928D01*
X169433929Y-84432928D01*
X169319643Y-84490071D01*
X169262500Y-84547214D01*
X169205357Y-84661500D01*
X169205357Y-84947214D01*
X169262500Y-85118643D01*
X170405357Y-85632928D02*
X169205357Y-85632928D01*
X169205357Y-86090071D01*
X169262500Y-86204357D01*
X169319643Y-86261500D01*
X169433929Y-86318643D01*
X169605357Y-86318643D01*
X169719643Y-86261500D01*
X169776786Y-86204357D01*
X169833929Y-86090071D01*
X169833929Y-85632928D01*
X170405357Y-86832928D02*
X169205357Y-86832928D01*
X183232357Y-83848785D02*
X182032357Y-83848785D01*
X182032357Y-84305928D01*
X182089500Y-84420214D01*
X182146643Y-84477357D01*
X182260929Y-84534500D01*
X182432357Y-84534500D01*
X182546643Y-84477357D01*
X182603786Y-84420214D01*
X182660929Y-84305928D01*
X182660929Y-83848785D01*
X182032357Y-84934500D02*
X183232357Y-85220214D01*
X182375214Y-85448785D01*
X183232357Y-85677357D01*
X182032357Y-85963071D01*
X183232357Y-86420214D02*
X182032357Y-86420214D01*
X182889500Y-86820214D01*
X182032357Y-87220214D01*
X183232357Y-87220214D01*
D13*
X193675000Y-95186500D02*
X193675000Y-96329500D01*
X197249952Y-103485905D02*
X197249952Y-102685905D01*
X196907095Y-103447810D02*
X196792809Y-103485905D01*
X196602333Y-103485905D01*
X196526143Y-103447810D01*
X196488047Y-103409714D01*
X196449952Y-103333524D01*
X196449952Y-103257333D01*
X196488047Y-103181143D01*
X196526143Y-103143048D01*
X196602333Y-103104952D01*
X196754714Y-103066857D01*
X196830905Y-103028762D01*
X196869000Y-102990667D01*
X196907095Y-102914476D01*
X196907095Y-102838286D01*
X196869000Y-102762095D01*
X196830905Y-102724000D01*
X196754714Y-102685905D01*
X196564238Y-102685905D01*
X196449952Y-102724000D01*
X196107095Y-103485905D02*
X196107095Y-102685905D01*
X195802333Y-102685905D01*
X195726142Y-102724000D01*
X195688047Y-102762095D01*
X195649952Y-102838286D01*
X195649952Y-102952571D01*
X195688047Y-103028762D01*
X195726142Y-103066857D01*
X195802333Y-103104952D01*
X196107095Y-103104952D01*
D12*
X121974642Y-96627071D02*
X122474642Y-95912786D01*
X122831785Y-96627071D02*
X122831785Y-95127071D01*
X122260357Y-95127071D01*
X122117499Y-95198500D01*
X122046071Y-95269929D01*
X121974642Y-95412786D01*
X121974642Y-95627071D01*
X122046071Y-95769929D01*
X122117499Y-95841357D01*
X122260357Y-95912786D01*
X122831785Y-95912786D01*
X120760357Y-96555643D02*
X120903214Y-96627071D01*
X121188928Y-96627071D01*
X121331785Y-96555643D01*
X121403214Y-96412786D01*
X121403214Y-95841357D01*
X121331785Y-95698500D01*
X121188928Y-95627071D01*
X120903214Y-95627071D01*
X120760357Y-95698500D01*
X120688928Y-95841357D01*
X120688928Y-95984214D01*
X121403214Y-96127071D01*
X119403214Y-96627071D02*
X119403214Y-95127071D01*
X119403214Y-96555643D02*
X119546071Y-96627071D01*
X119831785Y-96627071D01*
X119974643Y-96555643D01*
X120046071Y-96484214D01*
X120117500Y-96341357D01*
X120117500Y-95912786D01*
X120046071Y-95769929D01*
X119974643Y-95698500D01*
X119831785Y-95627071D01*
X119546071Y-95627071D01*
X119403214Y-95698500D01*
X118188928Y-95841357D02*
X117974642Y-95912786D01*
X117903214Y-95984214D01*
X117831785Y-96127071D01*
X117831785Y-96341357D01*
X117903214Y-96484214D01*
X117974642Y-96555643D01*
X118117500Y-96627071D01*
X118688928Y-96627071D01*
X118688928Y-95127071D01*
X118188928Y-95127071D01*
X118046071Y-95198500D01*
X117974642Y-95269929D01*
X117903214Y-95412786D01*
X117903214Y-95555643D01*
X117974642Y-95698500D01*
X118046071Y-95769929D01*
X118188928Y-95841357D01*
X118688928Y-95841357D01*
X116974642Y-96627071D02*
X117117500Y-96555643D01*
X117188928Y-96484214D01*
X117260357Y-96341357D01*
X117260357Y-95912786D01*
X117188928Y-95769929D01*
X117117500Y-95698500D01*
X116974642Y-95627071D01*
X116760357Y-95627071D01*
X116617500Y-95698500D01*
X116546071Y-95769929D01*
X116474642Y-95912786D01*
X116474642Y-96341357D01*
X116546071Y-96484214D01*
X116617500Y-96555643D01*
X116760357Y-96627071D01*
X116974642Y-96627071D01*
X115188928Y-96627071D02*
X115188928Y-95841357D01*
X115260357Y-95698500D01*
X115403214Y-95627071D01*
X115688928Y-95627071D01*
X115831785Y-95698500D01*
X115188928Y-96555643D02*
X115331785Y-96627071D01*
X115688928Y-96627071D01*
X115831785Y-96555643D01*
X115903214Y-96412786D01*
X115903214Y-96269929D01*
X115831785Y-96127071D01*
X115688928Y-96055643D01*
X115331785Y-96055643D01*
X115188928Y-95984214D01*
X114474642Y-96627071D02*
X114474642Y-95627071D01*
X114474642Y-95912786D02*
X114403214Y-95769929D01*
X114331785Y-95698500D01*
X114188928Y-95627071D01*
X114046071Y-95627071D01*
X112903214Y-96627071D02*
X112903214Y-95127071D01*
X112903214Y-96555643D02*
X113046071Y-96627071D01*
X113331785Y-96627071D01*
X113474643Y-96555643D01*
X113546071Y-96484214D01*
X113617500Y-96341357D01*
X113617500Y-95912786D01*
X113546071Y-95769929D01*
X113474643Y-95698500D01*
X113331785Y-95627071D01*
X113046071Y-95627071D01*
X112903214Y-95698500D01*
X111046071Y-95841357D02*
X110546071Y-95841357D01*
X110331785Y-96627071D02*
X111046071Y-96627071D01*
X111046071Y-95127071D01*
X110331785Y-95127071D01*
X109046071Y-96627071D02*
X109046071Y-95127071D01*
X109046071Y-96555643D02*
X109188928Y-96627071D01*
X109474642Y-96627071D01*
X109617500Y-96555643D01*
X109688928Y-96484214D01*
X109760357Y-96341357D01*
X109760357Y-95912786D01*
X109688928Y-95769929D01*
X109617500Y-95698500D01*
X109474642Y-95627071D01*
X109188928Y-95627071D01*
X109046071Y-95698500D01*
X107688928Y-95627071D02*
X107688928Y-96841357D01*
X107760357Y-96984214D01*
X107831785Y-97055643D01*
X107974642Y-97127071D01*
X108188928Y-97127071D01*
X108331785Y-97055643D01*
X107688928Y-96555643D02*
X107831785Y-96627071D01*
X108117499Y-96627071D01*
X108260357Y-96555643D01*
X108331785Y-96484214D01*
X108403214Y-96341357D01*
X108403214Y-95912786D01*
X108331785Y-95769929D01*
X108260357Y-95698500D01*
X108117499Y-95627071D01*
X107831785Y-95627071D01*
X107688928Y-95698500D01*
X106403214Y-96555643D02*
X106546071Y-96627071D01*
X106831785Y-96627071D01*
X106974642Y-96555643D01*
X107046071Y-96412786D01*
X107046071Y-95841357D01*
X106974642Y-95698500D01*
X106831785Y-95627071D01*
X106546071Y-95627071D01*
X106403214Y-95698500D01*
X106331785Y-95841357D01*
X106331785Y-95984214D01*
X107046071Y-96127071D01*
D13*
X180917833Y-108057905D02*
X181184500Y-107676952D01*
X181374976Y-108057905D02*
X181374976Y-107257905D01*
X181070214Y-107257905D01*
X180994023Y-107296000D01*
X180955928Y-107334095D01*
X180917833Y-107410286D01*
X180917833Y-107524571D01*
X180955928Y-107600762D01*
X180994023Y-107638857D01*
X181070214Y-107676952D01*
X181374976Y-107676952D01*
X180651166Y-107257905D02*
X180117833Y-108057905D01*
X180117833Y-107257905D02*
X180651166Y-108057905D01*
X175107524Y-107257905D02*
X174650381Y-107257905D01*
X174878952Y-108057905D02*
X174878952Y-107257905D01*
X174459904Y-107257905D02*
X173926571Y-108057905D01*
X173926571Y-107257905D02*
X174459904Y-108057905D01*
X168300381Y-108057905D02*
X168757524Y-108057905D01*
X168528953Y-108057905D02*
X168528953Y-107257905D01*
X168605143Y-107372190D01*
X168681334Y-107448381D01*
X168757524Y-107486476D01*
X168033714Y-107257905D02*
X167538476Y-107257905D01*
X167805143Y-107562667D01*
X167690857Y-107562667D01*
X167614667Y-107600762D01*
X167576571Y-107638857D01*
X167538476Y-107715048D01*
X167538476Y-107905524D01*
X167576571Y-107981714D01*
X167614667Y-108019810D01*
X167690857Y-108057905D01*
X167919429Y-108057905D01*
X167995619Y-108019810D01*
X168033714Y-107981714D01*
X162737667Y-108057905D02*
X162737667Y-107257905D01*
X162432905Y-107257905D01*
X162356714Y-107296000D01*
X162318619Y-107334095D01*
X162280524Y-107410286D01*
X162280524Y-107524571D01*
X162318619Y-107600762D01*
X162356714Y-107638857D01*
X162432905Y-107676952D01*
X162737667Y-107676952D01*
X162013857Y-107257905D02*
X161823381Y-108057905D01*
X161671000Y-107486476D01*
X161518619Y-108057905D01*
X161328143Y-107257905D01*
X160566238Y-108057905D02*
X160832905Y-107676952D01*
X161023381Y-108057905D02*
X161023381Y-107257905D01*
X160718619Y-107257905D01*
X160642428Y-107296000D01*
X160604333Y-107334095D01*
X160566238Y-107410286D01*
X160566238Y-107524571D01*
X160604333Y-107600762D01*
X160642428Y-107638857D01*
X160718619Y-107676952D01*
X161023381Y-107676952D01*
X192798666Y-87318905D02*
X192303428Y-87318905D01*
X192570095Y-87623667D01*
X192455809Y-87623667D01*
X192379619Y-87661762D01*
X192341523Y-87699857D01*
X192303428Y-87776048D01*
X192303428Y-87966524D01*
X192341523Y-88042714D01*
X192379619Y-88080810D01*
X192455809Y-88118905D01*
X192684381Y-88118905D01*
X192760571Y-88080810D01*
X192798666Y-88042714D01*
X189801523Y-87318905D02*
X190182476Y-87318905D01*
X190220571Y-87699857D01*
X190182476Y-87661762D01*
X190106285Y-87623667D01*
X189915809Y-87623667D01*
X189839619Y-87661762D01*
X189801523Y-87699857D01*
X189763428Y-87776048D01*
X189763428Y-87966524D01*
X189801523Y-88042714D01*
X189839619Y-88080810D01*
X189915809Y-88118905D01*
X190106285Y-88118905D01*
X190182476Y-88080810D01*
X190220571Y-88042714D01*
X187299619Y-87318905D02*
X187452000Y-87318905D01*
X187528190Y-87357000D01*
X187566285Y-87395095D01*
X187642476Y-87509381D01*
X187680571Y-87661762D01*
X187680571Y-87966524D01*
X187642476Y-88042714D01*
X187604381Y-88080810D01*
X187528190Y-88118905D01*
X187375809Y-88118905D01*
X187299619Y-88080810D01*
X187261523Y-88042714D01*
X187223428Y-87966524D01*
X187223428Y-87776048D01*
X187261523Y-87699857D01*
X187299619Y-87661762D01*
X187375809Y-87623667D01*
X187528190Y-87623667D01*
X187604381Y-87661762D01*
X187642476Y-87699857D01*
X187680571Y-87776048D01*
X185064381Y-88118905D02*
X184912000Y-88118905D01*
X184835809Y-88080810D01*
X184797714Y-88042714D01*
X184721523Y-87928429D01*
X184683428Y-87776048D01*
X184683428Y-87471286D01*
X184721523Y-87395095D01*
X184759619Y-87357000D01*
X184835809Y-87318905D01*
X184988190Y-87318905D01*
X185064381Y-87357000D01*
X185102476Y-87395095D01*
X185140571Y-87471286D01*
X185140571Y-87661762D01*
X185102476Y-87737952D01*
X185064381Y-87776048D01*
X184988190Y-87814143D01*
X184835809Y-87814143D01*
X184759619Y-87776048D01*
X184721523Y-87737952D01*
X184683428Y-87661762D01*
X188874380Y-89096905D02*
X189255333Y-89096905D01*
X189293428Y-89477857D01*
X189255333Y-89439762D01*
X189179142Y-89401667D01*
X188988666Y-89401667D01*
X188912476Y-89439762D01*
X188874380Y-89477857D01*
X188836285Y-89554048D01*
X188836285Y-89744524D01*
X188874380Y-89820714D01*
X188912476Y-89858810D01*
X188988666Y-89896905D01*
X189179142Y-89896905D01*
X189255333Y-89858810D01*
X189293428Y-89820714D01*
X188607714Y-89096905D02*
X188341047Y-89896905D01*
X188074380Y-89096905D01*
X189331523Y-90786000D02*
X189407714Y-90747905D01*
X189521999Y-90747905D01*
X189636285Y-90786000D01*
X189712476Y-90862190D01*
X189750571Y-90938381D01*
X189788666Y-91090762D01*
X189788666Y-91205048D01*
X189750571Y-91357429D01*
X189712476Y-91433619D01*
X189636285Y-91509810D01*
X189521999Y-91547905D01*
X189445809Y-91547905D01*
X189331523Y-91509810D01*
X189293428Y-91471714D01*
X189293428Y-91205048D01*
X189445809Y-91205048D01*
X188950571Y-91547905D02*
X188950571Y-90747905D01*
X188493428Y-91547905D01*
X188493428Y-90747905D01*
X188112476Y-91547905D02*
X188112476Y-90747905D01*
X187922000Y-90747905D01*
X187807714Y-90786000D01*
X187731523Y-90862190D01*
X187693428Y-90938381D01*
X187655333Y-91090762D01*
X187655333Y-91205048D01*
X187693428Y-91357429D01*
X187731523Y-91433619D01*
X187807714Y-91509810D01*
X187922000Y-91547905D01*
X188112476Y-91547905D01*
X179984381Y-88118905D02*
X180441524Y-88118905D01*
X180212953Y-88118905D02*
X180212953Y-87318905D01*
X180289143Y-87433190D01*
X180365334Y-87509381D01*
X180441524Y-87547476D01*
X179489143Y-87318905D02*
X179412952Y-87318905D01*
X179336762Y-87357000D01*
X179298667Y-87395095D01*
X179260571Y-87471286D01*
X179222476Y-87623667D01*
X179222476Y-87814143D01*
X179260571Y-87966524D01*
X179298667Y-88042714D01*
X179336762Y-88080810D01*
X179412952Y-88118905D01*
X179489143Y-88118905D01*
X179565333Y-88080810D01*
X179603429Y-88042714D01*
X179641524Y-87966524D01*
X179679619Y-87814143D01*
X179679619Y-87623667D01*
X179641524Y-87471286D01*
X179603429Y-87395095D01*
X179565333Y-87357000D01*
X179489143Y-87318905D01*
X177444381Y-88118905D02*
X177901524Y-88118905D01*
X177672953Y-88118905D02*
X177672953Y-87318905D01*
X177749143Y-87433190D01*
X177825334Y-87509381D01*
X177901524Y-87547476D01*
X176682476Y-88118905D02*
X177139619Y-88118905D01*
X176911048Y-88118905D02*
X176911048Y-87318905D01*
X176987238Y-87433190D01*
X177063429Y-87509381D01*
X177139619Y-87547476D01*
X174904381Y-88118905D02*
X175361524Y-88118905D01*
X175132953Y-88118905D02*
X175132953Y-87318905D01*
X175209143Y-87433190D01*
X175285334Y-87509381D01*
X175361524Y-87547476D01*
X174599619Y-87395095D02*
X174561524Y-87357000D01*
X174485333Y-87318905D01*
X174294857Y-87318905D01*
X174218667Y-87357000D01*
X174180571Y-87395095D01*
X174142476Y-87471286D01*
X174142476Y-87547476D01*
X174180571Y-87661762D01*
X174637714Y-88118905D01*
X174142476Y-88118905D01*
X172364381Y-88118905D02*
X172821524Y-88118905D01*
X172592953Y-88118905D02*
X172592953Y-87318905D01*
X172669143Y-87433190D01*
X172745334Y-87509381D01*
X172821524Y-87547476D01*
X172097714Y-87318905D02*
X171602476Y-87318905D01*
X171869143Y-87623667D01*
X171754857Y-87623667D01*
X171678667Y-87661762D01*
X171640571Y-87699857D01*
X171602476Y-87776048D01*
X171602476Y-87966524D01*
X171640571Y-88042714D01*
X171678667Y-88080810D01*
X171754857Y-88118905D01*
X171983429Y-88118905D01*
X172059619Y-88080810D01*
X172097714Y-88042714D01*
X176174380Y-89096905D02*
X176555333Y-89096905D01*
X176593428Y-89477857D01*
X176555333Y-89439762D01*
X176479142Y-89401667D01*
X176288666Y-89401667D01*
X176212476Y-89439762D01*
X176174380Y-89477857D01*
X176136285Y-89554048D01*
X176136285Y-89744524D01*
X176174380Y-89820714D01*
X176212476Y-89858810D01*
X176288666Y-89896905D01*
X176479142Y-89896905D01*
X176555333Y-89858810D01*
X176593428Y-89820714D01*
X175907714Y-89096905D02*
X175641047Y-89896905D01*
X175374380Y-89096905D01*
X176631523Y-90786000D02*
X176707714Y-90747905D01*
X176821999Y-90747905D01*
X176936285Y-90786000D01*
X177012476Y-90862190D01*
X177050571Y-90938381D01*
X177088666Y-91090762D01*
X177088666Y-91205048D01*
X177050571Y-91357429D01*
X177012476Y-91433619D01*
X176936285Y-91509810D01*
X176821999Y-91547905D01*
X176745809Y-91547905D01*
X176631523Y-91509810D01*
X176593428Y-91471714D01*
X176593428Y-91205048D01*
X176745809Y-91205048D01*
X176250571Y-91547905D02*
X176250571Y-90747905D01*
X175793428Y-91547905D01*
X175793428Y-90747905D01*
X175412476Y-91547905D02*
X175412476Y-90747905D01*
X175222000Y-90747905D01*
X175107714Y-90786000D01*
X175031523Y-90862190D01*
X174993428Y-90938381D01*
X174955333Y-91090762D01*
X174955333Y-91205048D01*
X174993428Y-91357429D01*
X175031523Y-91433619D01*
X175107714Y-91509810D01*
X175222000Y-91547905D01*
X175412476Y-91547905D01*
X161391523Y-90786000D02*
X161467714Y-90747905D01*
X161581999Y-90747905D01*
X161696285Y-90786000D01*
X161772476Y-90862190D01*
X161810571Y-90938381D01*
X161848666Y-91090762D01*
X161848666Y-91205048D01*
X161810571Y-91357429D01*
X161772476Y-91433619D01*
X161696285Y-91509810D01*
X161581999Y-91547905D01*
X161505809Y-91547905D01*
X161391523Y-91509810D01*
X161353428Y-91471714D01*
X161353428Y-91205048D01*
X161505809Y-91205048D01*
X161010571Y-91547905D02*
X161010571Y-90747905D01*
X160553428Y-91547905D01*
X160553428Y-90747905D01*
X160172476Y-91547905D02*
X160172476Y-90747905D01*
X159982000Y-90747905D01*
X159867714Y-90786000D01*
X159791523Y-90862190D01*
X159753428Y-90938381D01*
X159715333Y-91090762D01*
X159715333Y-91205048D01*
X159753428Y-91357429D01*
X159791523Y-91433619D01*
X159867714Y-91509810D01*
X159982000Y-91547905D01*
X160172476Y-91547905D01*
X160934380Y-89096905D02*
X161315333Y-89096905D01*
X161353428Y-89477857D01*
X161315333Y-89439762D01*
X161239142Y-89401667D01*
X161048666Y-89401667D01*
X160972476Y-89439762D01*
X160934380Y-89477857D01*
X160896285Y-89554048D01*
X160896285Y-89744524D01*
X160934380Y-89820714D01*
X160972476Y-89858810D01*
X161048666Y-89896905D01*
X161239142Y-89896905D01*
X161315333Y-89858810D01*
X161353428Y-89820714D01*
X160667714Y-89096905D02*
X160401047Y-89896905D01*
X160134380Y-89096905D01*
X167703428Y-87890333D02*
X167322476Y-87890333D01*
X167779619Y-88118905D02*
X167512952Y-87318905D01*
X167246285Y-88118905D01*
X166827238Y-87318905D02*
X166751047Y-87318905D01*
X166674857Y-87357000D01*
X166636762Y-87395095D01*
X166598666Y-87471286D01*
X166560571Y-87623667D01*
X166560571Y-87814143D01*
X166598666Y-87966524D01*
X166636762Y-88042714D01*
X166674857Y-88080810D01*
X166751047Y-88118905D01*
X166827238Y-88118905D01*
X166903428Y-88080810D01*
X166941524Y-88042714D01*
X166979619Y-87966524D01*
X167017714Y-87814143D01*
X167017714Y-87623667D01*
X166979619Y-87471286D01*
X166941524Y-87395095D01*
X166903428Y-87357000D01*
X166827238Y-87318905D01*
X165163428Y-87890333D02*
X164782476Y-87890333D01*
X165239619Y-88118905D02*
X164972952Y-87318905D01*
X164706285Y-88118905D01*
X164020571Y-88118905D02*
X164477714Y-88118905D01*
X164249143Y-88118905D02*
X164249143Y-87318905D01*
X164325333Y-87433190D01*
X164401524Y-87509381D01*
X164477714Y-87547476D01*
X162623428Y-87890333D02*
X162242476Y-87890333D01*
X162699619Y-88118905D02*
X162432952Y-87318905D01*
X162166285Y-88118905D01*
X161937714Y-87395095D02*
X161899619Y-87357000D01*
X161823428Y-87318905D01*
X161632952Y-87318905D01*
X161556762Y-87357000D01*
X161518666Y-87395095D01*
X161480571Y-87471286D01*
X161480571Y-87547476D01*
X161518666Y-87661762D01*
X161975809Y-88118905D01*
X161480571Y-88118905D01*
X160083428Y-87890333D02*
X159702476Y-87890333D01*
X160159619Y-88118905D02*
X159892952Y-87318905D01*
X159626285Y-88118905D01*
X159435809Y-87318905D02*
X158940571Y-87318905D01*
X159207238Y-87623667D01*
X159092952Y-87623667D01*
X159016762Y-87661762D01*
X158978666Y-87699857D01*
X158940571Y-87776048D01*
X158940571Y-87966524D01*
X158978666Y-88042714D01*
X159016762Y-88080810D01*
X159092952Y-88118905D01*
X159321524Y-88118905D01*
X159397714Y-88080810D01*
X159435809Y-88042714D01*
X157543428Y-87890333D02*
X157162476Y-87890333D01*
X157619619Y-88118905D02*
X157352952Y-87318905D01*
X157086285Y-88118905D01*
X156476762Y-87318905D02*
X156629143Y-87318905D01*
X156705333Y-87357000D01*
X156743428Y-87395095D01*
X156819619Y-87509381D01*
X156857714Y-87661762D01*
X156857714Y-87966524D01*
X156819619Y-88042714D01*
X156781524Y-88080810D01*
X156705333Y-88118905D01*
X156552952Y-88118905D01*
X156476762Y-88080810D01*
X156438666Y-88042714D01*
X156400571Y-87966524D01*
X156400571Y-87776048D01*
X156438666Y-87699857D01*
X156476762Y-87661762D01*
X156552952Y-87623667D01*
X156705333Y-87623667D01*
X156781524Y-87661762D01*
X156819619Y-87699857D01*
X156857714Y-87776048D01*
X155003428Y-87890333D02*
X154622476Y-87890333D01*
X155079619Y-88118905D02*
X154812952Y-87318905D01*
X154546285Y-88118905D01*
X154355809Y-87318905D02*
X153822476Y-87318905D01*
X154165333Y-88118905D01*
X131165476Y-84778905D02*
X130670238Y-84778905D01*
X130936905Y-85083667D01*
X130822619Y-85083667D01*
X130746429Y-85121762D01*
X130708333Y-85159857D01*
X130670238Y-85236048D01*
X130670238Y-85426524D01*
X130708333Y-85502714D01*
X130746429Y-85540810D01*
X130822619Y-85578905D01*
X131051191Y-85578905D01*
X131127381Y-85540810D01*
X131165476Y-85502714D01*
X130441667Y-84778905D02*
X130175000Y-85578905D01*
X129908333Y-84778905D01*
X129717857Y-84778905D02*
X129222619Y-84778905D01*
X129489286Y-85083667D01*
X129375000Y-85083667D01*
X129298810Y-85121762D01*
X129260714Y-85159857D01*
X129222619Y-85236048D01*
X129222619Y-85426524D01*
X129260714Y-85502714D01*
X129298810Y-85540810D01*
X129375000Y-85578905D01*
X129603572Y-85578905D01*
X129679762Y-85540810D01*
X129717857Y-85502714D01*
X128371523Y-86468000D02*
X128447714Y-86429905D01*
X128561999Y-86429905D01*
X128676285Y-86468000D01*
X128752476Y-86544190D01*
X128790571Y-86620381D01*
X128828666Y-86772762D01*
X128828666Y-86887048D01*
X128790571Y-87039429D01*
X128752476Y-87115619D01*
X128676285Y-87191810D01*
X128561999Y-87229905D01*
X128485809Y-87229905D01*
X128371523Y-87191810D01*
X128333428Y-87153714D01*
X128333428Y-86887048D01*
X128485809Y-86887048D01*
X127990571Y-87229905D02*
X127990571Y-86429905D01*
X127533428Y-87229905D01*
X127533428Y-86429905D01*
X127152476Y-87229905D02*
X127152476Y-86429905D01*
X126962000Y-86429905D01*
X126847714Y-86468000D01*
X126771523Y-86544190D01*
X126733428Y-86620381D01*
X126695333Y-86772762D01*
X126695333Y-86887048D01*
X126733428Y-87039429D01*
X126771523Y-87115619D01*
X126847714Y-87191810D01*
X126962000Y-87229905D01*
X127152476Y-87229905D01*
X125374380Y-84778905D02*
X125755333Y-84778905D01*
X125793428Y-85159857D01*
X125755333Y-85121762D01*
X125679142Y-85083667D01*
X125488666Y-85083667D01*
X125412476Y-85121762D01*
X125374380Y-85159857D01*
X125336285Y-85236048D01*
X125336285Y-85426524D01*
X125374380Y-85502714D01*
X125412476Y-85540810D01*
X125488666Y-85578905D01*
X125679142Y-85578905D01*
X125755333Y-85540810D01*
X125793428Y-85502714D01*
X125107714Y-84778905D02*
X124841047Y-85578905D01*
X124574380Y-84778905D01*
X118351190Y-87064905D02*
X118084523Y-87864905D01*
X117817856Y-87064905D01*
X117551190Y-87864905D02*
X117551190Y-87064905D01*
X117170238Y-87864905D02*
X117170238Y-87064905D01*
X116713095Y-87864905D01*
X116713095Y-87064905D01*
X112687023Y-87103000D02*
X112763214Y-87064905D01*
X112877499Y-87064905D01*
X112991785Y-87103000D01*
X113067976Y-87179190D01*
X113106071Y-87255381D01*
X113144166Y-87407762D01*
X113144166Y-87522048D01*
X113106071Y-87674429D01*
X113067976Y-87750619D01*
X112991785Y-87826810D01*
X112877499Y-87864905D01*
X112801309Y-87864905D01*
X112687023Y-87826810D01*
X112648928Y-87788714D01*
X112648928Y-87522048D01*
X112801309Y-87522048D01*
X112306071Y-87864905D02*
X112306071Y-87064905D01*
X111848928Y-87864905D01*
X111848928Y-87064905D01*
X111467976Y-87864905D02*
X111467976Y-87064905D01*
X111277500Y-87064905D01*
X111163214Y-87103000D01*
X111087023Y-87179190D01*
X111048928Y-87255381D01*
X111010833Y-87407762D01*
X111010833Y-87522048D01*
X111048928Y-87674429D01*
X111087023Y-87750619D01*
X111163214Y-87826810D01*
X111277500Y-87864905D01*
X111467976Y-87864905D01*
X114871500Y-86614000D02*
X114871500Y-88265000D01*
X109347000Y-86614000D02*
X120396000Y-86614000D01*
X109347000Y-88265000D02*
X109347000Y-86614000D01*
X120396000Y-88265000D02*
X109347000Y-88265000D01*
X120396000Y-86614000D02*
X120396000Y-88265000D01*
X177673000Y-106870500D02*
X177673000Y-108458000D01*
X171323000Y-106934000D02*
X171323000Y-108394500D01*
X164973000Y-106870500D02*
X164973000Y-108458000D01*
X183896000Y-106870500D02*
X158750000Y-106870500D01*
X183896000Y-108458000D02*
X183896000Y-106870500D01*
X158750000Y-108458000D02*
X183896000Y-108458000D01*
X158750000Y-108394500D02*
X158750000Y-108458000D01*
X158750000Y-106934000D02*
X158750000Y-108394500D01*
X191262000Y-86931500D02*
X191262000Y-88519000D01*
X188722000Y-86868000D02*
X188722000Y-88646000D01*
X186182000Y-86931500D02*
X186182000Y-88646000D01*
X193802000Y-90297000D02*
X183705500Y-90297000D01*
X183642000Y-88646000D02*
X193802000Y-88646000D01*
X193738500Y-86868000D02*
X183642000Y-86868000D01*
X183642000Y-84328000D02*
X193738500Y-84328000D01*
X193802000Y-81788000D02*
X183642000Y-81788000D01*
X191262000Y-79248000D02*
X191262000Y-81788000D01*
X188722000Y-79248000D02*
X188722000Y-81724500D01*
X186182000Y-79248000D02*
X186182000Y-81724500D01*
X183642000Y-91948000D02*
X183642000Y-79248000D01*
X193802000Y-91948000D02*
X183642000Y-91948000D01*
X193802000Y-79248000D02*
X193802000Y-91948000D01*
X173482000Y-86931500D02*
X173482000Y-88582500D01*
X176022000Y-86931500D02*
X176022000Y-88582500D01*
X178562000Y-86931500D02*
X178562000Y-88582500D01*
X171005500Y-90297000D02*
X181038500Y-90297000D01*
X170942000Y-88646000D02*
X181038500Y-88646000D01*
X181102000Y-86868000D02*
X170942000Y-86868000D01*
X170942000Y-84328000D02*
X181102000Y-84328000D01*
X181102000Y-81788000D02*
X170942000Y-81788000D01*
X178562000Y-79248000D02*
X178562000Y-81788000D01*
X176022000Y-79248000D02*
X176022000Y-81788000D01*
X173482000Y-79248000D02*
X173482000Y-81788000D01*
X181102000Y-91948000D02*
X181102000Y-79248000D01*
X170942000Y-91948000D02*
X181102000Y-91948000D01*
X170942000Y-79248000D02*
X170942000Y-91948000D01*
X165862000Y-86931500D02*
X165862000Y-88582500D01*
X163322000Y-88582500D02*
X163322000Y-86931500D01*
X160782000Y-86868000D02*
X160782000Y-88646000D01*
X158242000Y-88646000D02*
X158242000Y-86931500D01*
X155702000Y-86868000D02*
X155702000Y-88646000D01*
X155702000Y-81788000D02*
X155702000Y-79248000D01*
X158242000Y-79248000D02*
X158242000Y-81724500D01*
X165862000Y-79248000D02*
X165862000Y-81788000D01*
X163322000Y-81788000D02*
X163322000Y-79248000D01*
X160782000Y-79248000D02*
X160782000Y-81724500D01*
X168402000Y-90297000D02*
X153162000Y-90297000D01*
X153162000Y-88646000D02*
X168402000Y-88646000D01*
X168402000Y-86868000D02*
X153162000Y-86868000D01*
X153162000Y-84328000D02*
X168402000Y-84328000D01*
X168402000Y-81788000D02*
X153162000Y-81788000D01*
X168402000Y-91948000D02*
X168402000Y-79248000D01*
X153162000Y-91948000D02*
X168402000Y-91948000D01*
X153162000Y-79248000D02*
X153162000Y-91948000D01*
X122428000Y-85979000D02*
X133096000Y-85979000D01*
X133096000Y-84328000D02*
X122428000Y-84328000D01*
X122428000Y-81788000D02*
X133096000Y-81788000D01*
X127762000Y-79248000D02*
X127762000Y-81788000D01*
X127762000Y-84328000D02*
X127762000Y-85979000D01*
X133096000Y-87630000D02*
X133096000Y-79248000D01*
X122428000Y-87630000D02*
X133096000Y-87630000D01*
X122428000Y-79248000D02*
X122428000Y-87630000D01*
D14*
G36*
X109163556Y-93563722D02*
X120452444Y-93563722D01*
X120452444Y-92554247D01*
X120163564Y-92554247D01*
X120163561Y-92653248D01*
X120163535Y-92746751D01*
X120163485Y-92834248D01*
X120163413Y-92915232D01*
X120163318Y-92989195D01*
X120163201Y-93055627D01*
X120163063Y-93114022D01*
X120162903Y-93163871D01*
X120162724Y-93204665D01*
X120162525Y-93235897D01*
X120162306Y-93257059D01*
X120162068Y-93267643D01*
X120161968Y-93268800D01*
X120159862Y-93269251D01*
X120153755Y-93269684D01*
X120143445Y-93270099D01*
X120128727Y-93270497D01*
X120109396Y-93270877D01*
X120085248Y-93271239D01*
X120056079Y-93271585D01*
X120021685Y-93271915D01*
X119981861Y-93272228D01*
X119936403Y-93272526D01*
X119885106Y-93272808D01*
X119827767Y-93273075D01*
X119764180Y-93273328D01*
X119694143Y-93273566D01*
X119617449Y-93273790D01*
X119533896Y-93274000D01*
X119443278Y-93274198D01*
X119345392Y-93274381D01*
X119240032Y-93274553D01*
X119126995Y-93274712D01*
X119006077Y-93274859D01*
X118877073Y-93274994D01*
X118739779Y-93275118D01*
X118593990Y-93275231D01*
X118439502Y-93275333D01*
X118276111Y-93275425D01*
X118103612Y-93275507D01*
X117921802Y-93275580D01*
X117730475Y-93275643D01*
X117529428Y-93275697D01*
X117318456Y-93275743D01*
X117097355Y-93275780D01*
X116865921Y-93275810D01*
X116623949Y-93275831D01*
X116371234Y-93275846D01*
X116107574Y-93275854D01*
X115922955Y-93275855D01*
X111686622Y-93275855D01*
X111686622Y-92753112D01*
X111144756Y-92753112D01*
X111139330Y-92753935D01*
X111123925Y-92754689D01*
X111099853Y-92755348D01*
X111068424Y-92755888D01*
X111030948Y-92756286D01*
X110988735Y-92756517D01*
X110957073Y-92756566D01*
X110769391Y-92756566D01*
X110600062Y-92499600D01*
X110563294Y-92443843D01*
X110532204Y-92396828D01*
X110506285Y-92357855D01*
X110485029Y-92326222D01*
X110467930Y-92301229D01*
X110454479Y-92282174D01*
X110444170Y-92268356D01*
X110436495Y-92259074D01*
X110430947Y-92253628D01*
X110427019Y-92251316D01*
X110424204Y-92251436D01*
X110421994Y-92253289D01*
X110421908Y-92253393D01*
X110417186Y-92260097D01*
X110406919Y-92275334D01*
X110391722Y-92298171D01*
X110372208Y-92327681D01*
X110348991Y-92362931D01*
X110322683Y-92402991D01*
X110293899Y-92446933D01*
X110263251Y-92493824D01*
X110252575Y-92510183D01*
X110092067Y-92756216D01*
X109698479Y-92756566D01*
X109708494Y-92741044D01*
X109713193Y-92734023D01*
X109723753Y-92718417D01*
X109739670Y-92694964D01*
X109760443Y-92664405D01*
X109785566Y-92627478D01*
X109814538Y-92584921D01*
X109846855Y-92537475D01*
X109882015Y-92485878D01*
X109919514Y-92430869D01*
X109958849Y-92373187D01*
X109971698Y-92354350D01*
X110224889Y-91983178D01*
X109973622Y-91616076D01*
X109934197Y-91558445D01*
X109896672Y-91503529D01*
X109861529Y-91452037D01*
X109829249Y-91404678D01*
X109800313Y-91362160D01*
X109775204Y-91325192D01*
X109754402Y-91294482D01*
X109738390Y-91270738D01*
X109727648Y-91254670D01*
X109722659Y-91246984D01*
X109722356Y-91246415D01*
X109727782Y-91245806D01*
X109743190Y-91245249D01*
X109767271Y-91244761D01*
X109798719Y-91244361D01*
X109836226Y-91244066D01*
X109878483Y-91243893D01*
X109910887Y-91243855D01*
X110099417Y-91243855D01*
X110255935Y-91483866D01*
X110286488Y-91530641D01*
X110315242Y-91574510D01*
X110341597Y-91614572D01*
X110364955Y-91649923D01*
X110384717Y-91679659D01*
X110400283Y-91702877D01*
X110411054Y-91718673D01*
X110416433Y-91726143D01*
X110416877Y-91726612D01*
X110420705Y-91722551D01*
X110430041Y-91709865D01*
X110444294Y-91689432D01*
X110462874Y-91662128D01*
X110485191Y-91628829D01*
X110510655Y-91590412D01*
X110538676Y-91547753D01*
X110568663Y-91501729D01*
X110578418Y-91486682D01*
X110735533Y-91244016D01*
X110932099Y-91243935D01*
X111128664Y-91243855D01*
X111092494Y-91296066D01*
X111053168Y-91353002D01*
X111012907Y-91411607D01*
X110972204Y-91471142D01*
X110931554Y-91530865D01*
X110891452Y-91590036D01*
X110852393Y-91647912D01*
X110814872Y-91703753D01*
X110779382Y-91756819D01*
X110746418Y-91806367D01*
X110716476Y-91851656D01*
X110690049Y-91891946D01*
X110667633Y-91926496D01*
X110649722Y-91954564D01*
X110636810Y-91975410D01*
X110629392Y-91988291D01*
X110627752Y-91992381D01*
X110631390Y-91998269D01*
X110640938Y-92012744D01*
X110655912Y-92035089D01*
X110675823Y-92064591D01*
X110700188Y-92100533D01*
X110728519Y-92142201D01*
X110760331Y-92188878D01*
X110795137Y-92239850D01*
X110832453Y-92294401D01*
X110871791Y-92351817D01*
X110887894Y-92375293D01*
X110927804Y-92433502D01*
X110965815Y-92489023D01*
X111001449Y-92541153D01*
X111034229Y-92589189D01*
X111063677Y-92632430D01*
X111089315Y-92670172D01*
X111110665Y-92701713D01*
X111127251Y-92726349D01*
X111138593Y-92743379D01*
X111144215Y-92752099D01*
X111144756Y-92753112D01*
X111686622Y-92753112D01*
X111686622Y-90724559D01*
X115924189Y-90725974D01*
X120161756Y-90727388D01*
X120163202Y-91994566D01*
X120163326Y-92113432D01*
X120163424Y-92229342D01*
X120163496Y-92341786D01*
X120163542Y-92450257D01*
X120163564Y-92554247D01*
X120452444Y-92554247D01*
X120452444Y-90436700D01*
X109163556Y-90436700D01*
X109163556Y-93563722D01*
X109163556Y-93563722D01*
G37*
X109163556Y-93563722D02*
X120452444Y-93563722D01*
X120452444Y-92554247D01*
X120163564Y-92554247D01*
X120163561Y-92653248D01*
X120163535Y-92746751D01*
X120163485Y-92834248D01*
X120163413Y-92915232D01*
X120163318Y-92989195D01*
X120163201Y-93055627D01*
X120163063Y-93114022D01*
X120162903Y-93163871D01*
X120162724Y-93204665D01*
X120162525Y-93235897D01*
X120162306Y-93257059D01*
X120162068Y-93267643D01*
X120161968Y-93268800D01*
X120159862Y-93269251D01*
X120153755Y-93269684D01*
X120143445Y-93270099D01*
X120128727Y-93270497D01*
X120109396Y-93270877D01*
X120085248Y-93271239D01*
X120056079Y-93271585D01*
X120021685Y-93271915D01*
X119981861Y-93272228D01*
X119936403Y-93272526D01*
X119885106Y-93272808D01*
X119827767Y-93273075D01*
X119764180Y-93273328D01*
X119694143Y-93273566D01*
X119617449Y-93273790D01*
X119533896Y-93274000D01*
X119443278Y-93274198D01*
X119345392Y-93274381D01*
X119240032Y-93274553D01*
X119126995Y-93274712D01*
X119006077Y-93274859D01*
X118877073Y-93274994D01*
X118739779Y-93275118D01*
X118593990Y-93275231D01*
X118439502Y-93275333D01*
X118276111Y-93275425D01*
X118103612Y-93275507D01*
X117921802Y-93275580D01*
X117730475Y-93275643D01*
X117529428Y-93275697D01*
X117318456Y-93275743D01*
X117097355Y-93275780D01*
X116865921Y-93275810D01*
X116623949Y-93275831D01*
X116371234Y-93275846D01*
X116107574Y-93275854D01*
X115922955Y-93275855D01*
X111686622Y-93275855D01*
X111686622Y-92753112D01*
X111144756Y-92753112D01*
X111139330Y-92753935D01*
X111123925Y-92754689D01*
X111099853Y-92755348D01*
X111068424Y-92755888D01*
X111030948Y-92756286D01*
X110988735Y-92756517D01*
X110957073Y-92756566D01*
X110769391Y-92756566D01*
X110600062Y-92499600D01*
X110563294Y-92443843D01*
X110532204Y-92396828D01*
X110506285Y-92357855D01*
X110485029Y-92326222D01*
X110467930Y-92301229D01*
X110454479Y-92282174D01*
X110444170Y-92268356D01*
X110436495Y-92259074D01*
X110430947Y-92253628D01*
X110427019Y-92251316D01*
X110424204Y-92251436D01*
X110421994Y-92253289D01*
X110421908Y-92253393D01*
X110417186Y-92260097D01*
X110406919Y-92275334D01*
X110391722Y-92298171D01*
X110372208Y-92327681D01*
X110348991Y-92362931D01*
X110322683Y-92402991D01*
X110293899Y-92446933D01*
X110263251Y-92493824D01*
X110252575Y-92510183D01*
X110092067Y-92756216D01*
X109698479Y-92756566D01*
X109708494Y-92741044D01*
X109713193Y-92734023D01*
X109723753Y-92718417D01*
X109739670Y-92694964D01*
X109760443Y-92664405D01*
X109785566Y-92627478D01*
X109814538Y-92584921D01*
X109846855Y-92537475D01*
X109882015Y-92485878D01*
X109919514Y-92430869D01*
X109958849Y-92373187D01*
X109971698Y-92354350D01*
X110224889Y-91983178D01*
X109973622Y-91616076D01*
X109934197Y-91558445D01*
X109896672Y-91503529D01*
X109861529Y-91452037D01*
X109829249Y-91404678D01*
X109800313Y-91362160D01*
X109775204Y-91325192D01*
X109754402Y-91294482D01*
X109738390Y-91270738D01*
X109727648Y-91254670D01*
X109722659Y-91246984D01*
X109722356Y-91246415D01*
X109727782Y-91245806D01*
X109743190Y-91245249D01*
X109767271Y-91244761D01*
X109798719Y-91244361D01*
X109836226Y-91244066D01*
X109878483Y-91243893D01*
X109910887Y-91243855D01*
X110099417Y-91243855D01*
X110255935Y-91483866D01*
X110286488Y-91530641D01*
X110315242Y-91574510D01*
X110341597Y-91614572D01*
X110364955Y-91649923D01*
X110384717Y-91679659D01*
X110400283Y-91702877D01*
X110411054Y-91718673D01*
X110416433Y-91726143D01*
X110416877Y-91726612D01*
X110420705Y-91722551D01*
X110430041Y-91709865D01*
X110444294Y-91689432D01*
X110462874Y-91662128D01*
X110485191Y-91628829D01*
X110510655Y-91590412D01*
X110538676Y-91547753D01*
X110568663Y-91501729D01*
X110578418Y-91486682D01*
X110735533Y-91244016D01*
X110932099Y-91243935D01*
X111128664Y-91243855D01*
X111092494Y-91296066D01*
X111053168Y-91353002D01*
X111012907Y-91411607D01*
X110972204Y-91471142D01*
X110931554Y-91530865D01*
X110891452Y-91590036D01*
X110852393Y-91647912D01*
X110814872Y-91703753D01*
X110779382Y-91756819D01*
X110746418Y-91806367D01*
X110716476Y-91851656D01*
X110690049Y-91891946D01*
X110667633Y-91926496D01*
X110649722Y-91954564D01*
X110636810Y-91975410D01*
X110629392Y-91988291D01*
X110627752Y-91992381D01*
X110631390Y-91998269D01*
X110640938Y-92012744D01*
X110655912Y-92035089D01*
X110675823Y-92064591D01*
X110700188Y-92100533D01*
X110728519Y-92142201D01*
X110760331Y-92188878D01*
X110795137Y-92239850D01*
X110832453Y-92294401D01*
X110871791Y-92351817D01*
X110887894Y-92375293D01*
X110927804Y-92433502D01*
X110965815Y-92489023D01*
X111001449Y-92541153D01*
X111034229Y-92589189D01*
X111063677Y-92632430D01*
X111089315Y-92670172D01*
X111110665Y-92701713D01*
X111127251Y-92726349D01*
X111138593Y-92743379D01*
X111144215Y-92752099D01*
X111144756Y-92753112D01*
X111686622Y-92753112D01*
X111686622Y-90724559D01*
X115924189Y-90725974D01*
X120161756Y-90727388D01*
X120163202Y-91994566D01*
X120163326Y-92113432D01*
X120163424Y-92229342D01*
X120163496Y-92341786D01*
X120163542Y-92450257D01*
X120163564Y-92554247D01*
X120452444Y-92554247D01*
X120452444Y-90436700D01*
X109163556Y-90436700D01*
X109163556Y-93563722D01*
G36*
X119094956Y-91229973D02*
X119051450Y-91230202D01*
X119017005Y-91230811D01*
X118989398Y-91231957D01*
X118966403Y-91233795D01*
X118945796Y-91236481D01*
X118925352Y-91240173D01*
X118913270Y-91242709D01*
X118837265Y-91262993D01*
X118761503Y-91290304D01*
X118688639Y-91323424D01*
X118621329Y-91361133D01*
X118562231Y-91402214D01*
X118557485Y-91405972D01*
X118544947Y-91416011D01*
X118625908Y-91533541D01*
X118648279Y-91565915D01*
X118668748Y-91595343D01*
X118686382Y-91620500D01*
X118700248Y-91640061D01*
X118709416Y-91652702D01*
X118712749Y-91656950D01*
X118719649Y-91657412D01*
X118733856Y-91651685D01*
X118756005Y-91639478D01*
X118771325Y-91630194D01*
X118844130Y-91588732D01*
X118913031Y-91557122D01*
X118978997Y-91535034D01*
X119043000Y-91522137D01*
X119100600Y-91518108D01*
X119145807Y-91519256D01*
X119182451Y-91523763D01*
X119212895Y-91532139D01*
X119239500Y-91544893D01*
X119247292Y-91549786D01*
X119275568Y-91574283D01*
X119293820Y-91603868D01*
X119302281Y-91638983D01*
X119302970Y-91655578D01*
X119299462Y-91689925D01*
X119288926Y-91718610D01*
X119270312Y-91742984D01*
X119242571Y-91764399D01*
X119204651Y-91784208D01*
X119202200Y-91785300D01*
X119189174Y-91790194D01*
X119167050Y-91797542D01*
X119137612Y-91806792D01*
X119102645Y-91817394D01*
X119063932Y-91828797D01*
X119027061Y-91839375D01*
X118951164Y-91861379D01*
X118885274Y-91881705D01*
X118828319Y-91900849D01*
X118779229Y-91919307D01*
X118736931Y-91937575D01*
X118700355Y-91956150D01*
X118668430Y-91975526D01*
X118640085Y-91996201D01*
X118614249Y-92018670D01*
X118592424Y-92040656D01*
X118554150Y-92089336D01*
X118525544Y-92143222D01*
X118506532Y-92202572D01*
X118497043Y-92267642D01*
X118497001Y-92338690D01*
X118499365Y-92366549D01*
X118511911Y-92438609D01*
X118533541Y-92504012D01*
X118564275Y-92562778D01*
X118604133Y-92614929D01*
X118653135Y-92660487D01*
X118711301Y-92699472D01*
X118778651Y-92731907D01*
X118855204Y-92757812D01*
X118865939Y-92760729D01*
X118886373Y-92765826D01*
X118905255Y-92769634D01*
X118924930Y-92772377D01*
X118947741Y-92774283D01*
X118976032Y-92775577D01*
X119012148Y-92776487D01*
X119032867Y-92776853D01*
X119086540Y-92777211D01*
X119130503Y-92776336D01*
X119166274Y-92774169D01*
X119195370Y-92770652D01*
X119195815Y-92770580D01*
X119263289Y-92757194D01*
X119331854Y-92739038D01*
X119398372Y-92717138D01*
X119459707Y-92692522D01*
X119509822Y-92667828D01*
X119538418Y-92651017D01*
X119570725Y-92630378D01*
X119603648Y-92608037D01*
X119634091Y-92586116D01*
X119658958Y-92566741D01*
X119666401Y-92560400D01*
X119690335Y-92539255D01*
X119593023Y-92422457D01*
X119563506Y-92387180D01*
X119540253Y-92359816D01*
X119522428Y-92339500D01*
X119509196Y-92325367D01*
X119499719Y-92316554D01*
X119493162Y-92312195D01*
X119488690Y-92311427D01*
X119486576Y-92312390D01*
X119448810Y-92339843D01*
X119417187Y-92361829D01*
X119389088Y-92380003D01*
X119361894Y-92396014D01*
X119332987Y-92411517D01*
X119315089Y-92420585D01*
X119265983Y-92443639D01*
X119222167Y-92460703D01*
X119180116Y-92472838D01*
X119136306Y-92481105D01*
X119099491Y-92485470D01*
X119038492Y-92488135D01*
X118983298Y-92484155D01*
X118934855Y-92473742D01*
X118894109Y-92457110D01*
X118862005Y-92434471D01*
X118858702Y-92431284D01*
X118840591Y-92410042D01*
X118829897Y-92388345D01*
X118825128Y-92362292D01*
X118824497Y-92341700D01*
X118826061Y-92317525D01*
X118830948Y-92295904D01*
X118839917Y-92276381D01*
X118853731Y-92258497D01*
X118873149Y-92241797D01*
X118898932Y-92225824D01*
X118931840Y-92210121D01*
X118972634Y-92194230D01*
X119022074Y-92177696D01*
X119080920Y-92160061D01*
X119149934Y-92140869D01*
X119166043Y-92136530D01*
X119237113Y-92116585D01*
X119298295Y-92097331D01*
X119350915Y-92078151D01*
X119396299Y-92058426D01*
X119435772Y-92037536D01*
X119470658Y-92014863D01*
X119502284Y-91989789D01*
X119524527Y-91969166D01*
X119549029Y-91943829D01*
X119567014Y-91921892D01*
X119581007Y-91900001D01*
X119590362Y-91881677D01*
X119613057Y-91821377D01*
X119626827Y-91757104D01*
X119631785Y-91690796D01*
X119628043Y-91624391D01*
X119615713Y-91559829D01*
X119594909Y-91499048D01*
X119565743Y-91443987D01*
X119564873Y-91442647D01*
X119523576Y-91388558D01*
X119475193Y-91342272D01*
X119419164Y-91303412D01*
X119354931Y-91271601D01*
X119281935Y-91246462D01*
X119269173Y-91242972D01*
X119251527Y-91238551D01*
X119235252Y-91235240D01*
X119218293Y-91232885D01*
X119198597Y-91231332D01*
X119174110Y-91230430D01*
X119142779Y-91230024D01*
X119102552Y-91229961D01*
X119094956Y-91229973D01*
X119094956Y-91229973D01*
G37*
X119094956Y-91229973D02*
X119051450Y-91230202D01*
X119017005Y-91230811D01*
X118989398Y-91231957D01*
X118966403Y-91233795D01*
X118945796Y-91236481D01*
X118925352Y-91240173D01*
X118913270Y-91242709D01*
X118837265Y-91262993D01*
X118761503Y-91290304D01*
X118688639Y-91323424D01*
X118621329Y-91361133D01*
X118562231Y-91402214D01*
X118557485Y-91405972D01*
X118544947Y-91416011D01*
X118625908Y-91533541D01*
X118648279Y-91565915D01*
X118668748Y-91595343D01*
X118686382Y-91620500D01*
X118700248Y-91640061D01*
X118709416Y-91652702D01*
X118712749Y-91656950D01*
X118719649Y-91657412D01*
X118733856Y-91651685D01*
X118756005Y-91639478D01*
X118771325Y-91630194D01*
X118844130Y-91588732D01*
X118913031Y-91557122D01*
X118978997Y-91535034D01*
X119043000Y-91522137D01*
X119100600Y-91518108D01*
X119145807Y-91519256D01*
X119182451Y-91523763D01*
X119212895Y-91532139D01*
X119239500Y-91544893D01*
X119247292Y-91549786D01*
X119275568Y-91574283D01*
X119293820Y-91603868D01*
X119302281Y-91638983D01*
X119302970Y-91655578D01*
X119299462Y-91689925D01*
X119288926Y-91718610D01*
X119270312Y-91742984D01*
X119242571Y-91764399D01*
X119204651Y-91784208D01*
X119202200Y-91785300D01*
X119189174Y-91790194D01*
X119167050Y-91797542D01*
X119137612Y-91806792D01*
X119102645Y-91817394D01*
X119063932Y-91828797D01*
X119027061Y-91839375D01*
X118951164Y-91861379D01*
X118885274Y-91881705D01*
X118828319Y-91900849D01*
X118779229Y-91919307D01*
X118736931Y-91937575D01*
X118700355Y-91956150D01*
X118668430Y-91975526D01*
X118640085Y-91996201D01*
X118614249Y-92018670D01*
X118592424Y-92040656D01*
X118554150Y-92089336D01*
X118525544Y-92143222D01*
X118506532Y-92202572D01*
X118497043Y-92267642D01*
X118497001Y-92338690D01*
X118499365Y-92366549D01*
X118511911Y-92438609D01*
X118533541Y-92504012D01*
X118564275Y-92562778D01*
X118604133Y-92614929D01*
X118653135Y-92660487D01*
X118711301Y-92699472D01*
X118778651Y-92731907D01*
X118855204Y-92757812D01*
X118865939Y-92760729D01*
X118886373Y-92765826D01*
X118905255Y-92769634D01*
X118924930Y-92772377D01*
X118947741Y-92774283D01*
X118976032Y-92775577D01*
X119012148Y-92776487D01*
X119032867Y-92776853D01*
X119086540Y-92777211D01*
X119130503Y-92776336D01*
X119166274Y-92774169D01*
X119195370Y-92770652D01*
X119195815Y-92770580D01*
X119263289Y-92757194D01*
X119331854Y-92739038D01*
X119398372Y-92717138D01*
X119459707Y-92692522D01*
X119509822Y-92667828D01*
X119538418Y-92651017D01*
X119570725Y-92630378D01*
X119603648Y-92608037D01*
X119634091Y-92586116D01*
X119658958Y-92566741D01*
X119666401Y-92560400D01*
X119690335Y-92539255D01*
X119593023Y-92422457D01*
X119563506Y-92387180D01*
X119540253Y-92359816D01*
X119522428Y-92339500D01*
X119509196Y-92325367D01*
X119499719Y-92316554D01*
X119493162Y-92312195D01*
X119488690Y-92311427D01*
X119486576Y-92312390D01*
X119448810Y-92339843D01*
X119417187Y-92361829D01*
X119389088Y-92380003D01*
X119361894Y-92396014D01*
X119332987Y-92411517D01*
X119315089Y-92420585D01*
X119265983Y-92443639D01*
X119222167Y-92460703D01*
X119180116Y-92472838D01*
X119136306Y-92481105D01*
X119099491Y-92485470D01*
X119038492Y-92488135D01*
X118983298Y-92484155D01*
X118934855Y-92473742D01*
X118894109Y-92457110D01*
X118862005Y-92434471D01*
X118858702Y-92431284D01*
X118840591Y-92410042D01*
X118829897Y-92388345D01*
X118825128Y-92362292D01*
X118824497Y-92341700D01*
X118826061Y-92317525D01*
X118830948Y-92295904D01*
X118839917Y-92276381D01*
X118853731Y-92258497D01*
X118873149Y-92241797D01*
X118898932Y-92225824D01*
X118931840Y-92210121D01*
X118972634Y-92194230D01*
X119022074Y-92177696D01*
X119080920Y-92160061D01*
X119149934Y-92140869D01*
X119166043Y-92136530D01*
X119237113Y-92116585D01*
X119298295Y-92097331D01*
X119350915Y-92078151D01*
X119396299Y-92058426D01*
X119435772Y-92037536D01*
X119470658Y-92014863D01*
X119502284Y-91989789D01*
X119524527Y-91969166D01*
X119549029Y-91943829D01*
X119567014Y-91921892D01*
X119581007Y-91900001D01*
X119590362Y-91881677D01*
X119613057Y-91821377D01*
X119626827Y-91757104D01*
X119631785Y-91690796D01*
X119628043Y-91624391D01*
X119615713Y-91559829D01*
X119594909Y-91499048D01*
X119565743Y-91443987D01*
X119564873Y-91442647D01*
X119523576Y-91388558D01*
X119475193Y-91342272D01*
X119419164Y-91303412D01*
X119354931Y-91271601D01*
X119281935Y-91246462D01*
X119269173Y-91242972D01*
X119251527Y-91238551D01*
X119235252Y-91235240D01*
X119218293Y-91232885D01*
X119198597Y-91231332D01*
X119174110Y-91230430D01*
X119142779Y-91230024D01*
X119102552Y-91229961D01*
X119094956Y-91229973D01*
G36*
X117782323Y-91243926D02*
X117710085Y-91244211D01*
X117647189Y-91244818D01*
X117592660Y-91245857D01*
X117545524Y-91247436D01*
X117504809Y-91249664D01*
X117469539Y-91252650D01*
X117438742Y-91256503D01*
X117411444Y-91261331D01*
X117386671Y-91267243D01*
X117363450Y-91274348D01*
X117340806Y-91282755D01*
X117317767Y-91292572D01*
X117293357Y-91303908D01*
X117283089Y-91308846D01*
X117219159Y-91344845D01*
X117164507Y-91386739D01*
X117118362Y-91435277D01*
X117079951Y-91491212D01*
X117062882Y-91523255D01*
X117045102Y-91561997D01*
X117031864Y-91597097D01*
X117022586Y-91631410D01*
X117016684Y-91667792D01*
X117013575Y-91709099D01*
X117012674Y-91758186D01*
X117012705Y-91768788D01*
X117013147Y-91807829D01*
X117014126Y-91838084D01*
X117015866Y-91862053D01*
X117018587Y-91882234D01*
X117022513Y-91901127D01*
X117025495Y-91912722D01*
X117050343Y-91984399D01*
X117084109Y-92049202D01*
X117126687Y-92107035D01*
X117177968Y-92157805D01*
X117237847Y-92201417D01*
X117306215Y-92237776D01*
X117382965Y-92266788D01*
X117446778Y-92283851D01*
X117462413Y-92287093D01*
X117478566Y-92289726D01*
X117496715Y-92291838D01*
X117518339Y-92293516D01*
X117544918Y-92294846D01*
X117577932Y-92295916D01*
X117618859Y-92296812D01*
X117669179Y-92297621D01*
X117685256Y-92297845D01*
X117872933Y-92300397D01*
X117872933Y-92756566D01*
X118205956Y-92756566D01*
X118205956Y-92006590D01*
X117872933Y-92006590D01*
X117699367Y-92004670D01*
X117649224Y-92004047D01*
X117609000Y-92003351D01*
X117577327Y-92002498D01*
X117552833Y-92001404D01*
X117534151Y-91999987D01*
X117519910Y-91998162D01*
X117508740Y-91995845D01*
X117499273Y-91992953D01*
X117497578Y-91992341D01*
X117450194Y-91969326D01*
X117410546Y-91938244D01*
X117379028Y-91899473D01*
X117358252Y-91859100D01*
X117349680Y-91827783D01*
X117345526Y-91790197D01*
X117345780Y-91750453D01*
X117350434Y-91712667D01*
X117358663Y-91682984D01*
X117378980Y-91645213D01*
X117407977Y-91611517D01*
X117443123Y-91584620D01*
X117457024Y-91577014D01*
X117477607Y-91567593D01*
X117497922Y-91560057D01*
X117519545Y-91554205D01*
X117544049Y-91549835D01*
X117573011Y-91546746D01*
X117608004Y-91544735D01*
X117650604Y-91543603D01*
X117702387Y-91543146D01*
X117721945Y-91543109D01*
X117872933Y-91543011D01*
X117872933Y-92006590D01*
X118205956Y-92006590D01*
X118205956Y-91243855D01*
X117864875Y-91243855D01*
X117782323Y-91243926D01*
X117782323Y-91243926D01*
G37*
X117782323Y-91243926D02*
X117710085Y-91244211D01*
X117647189Y-91244818D01*
X117592660Y-91245857D01*
X117545524Y-91247436D01*
X117504809Y-91249664D01*
X117469539Y-91252650D01*
X117438742Y-91256503D01*
X117411444Y-91261331D01*
X117386671Y-91267243D01*
X117363450Y-91274348D01*
X117340806Y-91282755D01*
X117317767Y-91292572D01*
X117293357Y-91303908D01*
X117283089Y-91308846D01*
X117219159Y-91344845D01*
X117164507Y-91386739D01*
X117118362Y-91435277D01*
X117079951Y-91491212D01*
X117062882Y-91523255D01*
X117045102Y-91561997D01*
X117031864Y-91597097D01*
X117022586Y-91631410D01*
X117016684Y-91667792D01*
X117013575Y-91709099D01*
X117012674Y-91758186D01*
X117012705Y-91768788D01*
X117013147Y-91807829D01*
X117014126Y-91838084D01*
X117015866Y-91862053D01*
X117018587Y-91882234D01*
X117022513Y-91901127D01*
X117025495Y-91912722D01*
X117050343Y-91984399D01*
X117084109Y-92049202D01*
X117126687Y-92107035D01*
X117177968Y-92157805D01*
X117237847Y-92201417D01*
X117306215Y-92237776D01*
X117382965Y-92266788D01*
X117446778Y-92283851D01*
X117462413Y-92287093D01*
X117478566Y-92289726D01*
X117496715Y-92291838D01*
X117518339Y-92293516D01*
X117544918Y-92294846D01*
X117577932Y-92295916D01*
X117618859Y-92296812D01*
X117669179Y-92297621D01*
X117685256Y-92297845D01*
X117872933Y-92300397D01*
X117872933Y-92756566D01*
X118205956Y-92756566D01*
X118205956Y-92006590D01*
X117872933Y-92006590D01*
X117699367Y-92004670D01*
X117649224Y-92004047D01*
X117609000Y-92003351D01*
X117577327Y-92002498D01*
X117552833Y-92001404D01*
X117534151Y-91999987D01*
X117519910Y-91998162D01*
X117508740Y-91995845D01*
X117499273Y-91992953D01*
X117497578Y-91992341D01*
X117450194Y-91969326D01*
X117410546Y-91938244D01*
X117379028Y-91899473D01*
X117358252Y-91859100D01*
X117349680Y-91827783D01*
X117345526Y-91790197D01*
X117345780Y-91750453D01*
X117350434Y-91712667D01*
X117358663Y-91682984D01*
X117378980Y-91645213D01*
X117407977Y-91611517D01*
X117443123Y-91584620D01*
X117457024Y-91577014D01*
X117477607Y-91567593D01*
X117497922Y-91560057D01*
X117519545Y-91554205D01*
X117544049Y-91549835D01*
X117573011Y-91546746D01*
X117608004Y-91544735D01*
X117650604Y-91543603D01*
X117702387Y-91543146D01*
X117721945Y-91543109D01*
X117872933Y-91543011D01*
X117872933Y-92006590D01*
X118205956Y-92006590D01*
X118205956Y-91243855D01*
X117864875Y-91243855D01*
X117782323Y-91243926D01*
G36*
X116087456Y-91233888D02*
X115934515Y-91235388D01*
X115611365Y-91994566D01*
X115288214Y-92753744D01*
X115458374Y-92755239D01*
X115501152Y-92755476D01*
X115540273Y-92755425D01*
X115574314Y-92755110D01*
X115601851Y-92754554D01*
X115621461Y-92753779D01*
X115631721Y-92752809D01*
X115632854Y-92752415D01*
X115635675Y-92746567D01*
X115642365Y-92731140D01*
X115652559Y-92707021D01*
X115665889Y-92675094D01*
X115681989Y-92636246D01*
X115700492Y-92591361D01*
X115721032Y-92541325D01*
X115743242Y-92487023D01*
X115766755Y-92429342D01*
X115774855Y-92409430D01*
X115818270Y-92302667D01*
X115857645Y-92205906D01*
X115893173Y-92118685D01*
X115925047Y-92040540D01*
X115953460Y-91971010D01*
X115978604Y-91909632D01*
X116000673Y-91855942D01*
X116019860Y-91809479D01*
X116036357Y-91769779D01*
X116050358Y-91736379D01*
X116062056Y-91708818D01*
X116071642Y-91686631D01*
X116079311Y-91669357D01*
X116085256Y-91656533D01*
X116089668Y-91647695D01*
X116092742Y-91642382D01*
X116094670Y-91640130D01*
X116095561Y-91640293D01*
X116098299Y-91646577D01*
X116104967Y-91662520D01*
X116115240Y-91687326D01*
X116128790Y-91720197D01*
X116145293Y-91760337D01*
X116164423Y-91806949D01*
X116185853Y-91859237D01*
X116209259Y-91916404D01*
X116234313Y-91977652D01*
X116260691Y-92042186D01*
X116288067Y-92109208D01*
X116316114Y-92177921D01*
X116344507Y-92247530D01*
X116372920Y-92317236D01*
X116401027Y-92386244D01*
X116428502Y-92453757D01*
X116455020Y-92518977D01*
X116474721Y-92567477D01*
X116550349Y-92753744D01*
X116719892Y-92755237D01*
X116889434Y-92756730D01*
X116664170Y-92227481D01*
X116630354Y-92148035D01*
X116595960Y-92067238D01*
X116561483Y-91986247D01*
X116527413Y-91906220D01*
X116494245Y-91828316D01*
X116462471Y-91753690D01*
X116432584Y-91683501D01*
X116405076Y-91618906D01*
X116380442Y-91561064D01*
X116359173Y-91511131D01*
X116341762Y-91470264D01*
X116339651Y-91465310D01*
X116240397Y-91232387D01*
X116087456Y-91233888D01*
X116087456Y-91233888D01*
G37*
X116087456Y-91233888D02*
X115934515Y-91235388D01*
X115611365Y-91994566D01*
X115288214Y-92753744D01*
X115458374Y-92755239D01*
X115501152Y-92755476D01*
X115540273Y-92755425D01*
X115574314Y-92755110D01*
X115601851Y-92754554D01*
X115621461Y-92753779D01*
X115631721Y-92752809D01*
X115632854Y-92752415D01*
X115635675Y-92746567D01*
X115642365Y-92731140D01*
X115652559Y-92707021D01*
X115665889Y-92675094D01*
X115681989Y-92636246D01*
X115700492Y-92591361D01*
X115721032Y-92541325D01*
X115743242Y-92487023D01*
X115766755Y-92429342D01*
X115774855Y-92409430D01*
X115818270Y-92302667D01*
X115857645Y-92205906D01*
X115893173Y-92118685D01*
X115925047Y-92040540D01*
X115953460Y-91971010D01*
X115978604Y-91909632D01*
X116000673Y-91855942D01*
X116019860Y-91809479D01*
X116036357Y-91769779D01*
X116050358Y-91736379D01*
X116062056Y-91708818D01*
X116071642Y-91686631D01*
X116079311Y-91669357D01*
X116085256Y-91656533D01*
X116089668Y-91647695D01*
X116092742Y-91642382D01*
X116094670Y-91640130D01*
X116095561Y-91640293D01*
X116098299Y-91646577D01*
X116104967Y-91662520D01*
X116115240Y-91687326D01*
X116128790Y-91720197D01*
X116145293Y-91760337D01*
X116164423Y-91806949D01*
X116185853Y-91859237D01*
X116209259Y-91916404D01*
X116234313Y-91977652D01*
X116260691Y-92042186D01*
X116288067Y-92109208D01*
X116316114Y-92177921D01*
X116344507Y-92247530D01*
X116372920Y-92317236D01*
X116401027Y-92386244D01*
X116428502Y-92453757D01*
X116455020Y-92518977D01*
X116474721Y-92567477D01*
X116550349Y-92753744D01*
X116719892Y-92755237D01*
X116889434Y-92756730D01*
X116664170Y-92227481D01*
X116630354Y-92148035D01*
X116595960Y-92067238D01*
X116561483Y-91986247D01*
X116527413Y-91906220D01*
X116494245Y-91828316D01*
X116462471Y-91753690D01*
X116432584Y-91683501D01*
X116405076Y-91618906D01*
X116380442Y-91561064D01*
X116359173Y-91511131D01*
X116341762Y-91470264D01*
X116339651Y-91465310D01*
X116240397Y-91232387D01*
X116087456Y-91233888D01*
G36*
X114648545Y-91245428D02*
X114571045Y-91245887D01*
X114503953Y-91246328D01*
X114446387Y-91246777D01*
X114397467Y-91247262D01*
X114356311Y-91247809D01*
X114322039Y-91248446D01*
X114293768Y-91249200D01*
X114270619Y-91250097D01*
X114251709Y-91251165D01*
X114236158Y-91252430D01*
X114223085Y-91253920D01*
X114211609Y-91255661D01*
X114200847Y-91257681D01*
X114192756Y-91259386D01*
X114113149Y-91281213D01*
X114042133Y-91310235D01*
X113979757Y-91346412D01*
X113926072Y-91389707D01*
X113881128Y-91440082D01*
X113844974Y-91497498D01*
X113826528Y-91537784D01*
X113808416Y-91595392D01*
X113796766Y-91659422D01*
X113791625Y-91727002D01*
X113793042Y-91795264D01*
X113801064Y-91861338D01*
X113815742Y-91922354D01*
X113819840Y-91934733D01*
X113846490Y-91994091D01*
X113883271Y-92049572D01*
X113929463Y-92100419D01*
X113984347Y-92145872D01*
X114047206Y-92185174D01*
X114067045Y-92195423D01*
X114113751Y-92218479D01*
X113934282Y-92480467D01*
X113900938Y-92529154D01*
X113869455Y-92575151D01*
X113840420Y-92617597D01*
X113814420Y-92655630D01*
X113792045Y-92688389D01*
X113773883Y-92715014D01*
X113760521Y-92734644D01*
X113752547Y-92746418D01*
X113750495Y-92749511D01*
X113751437Y-92751462D01*
X113757500Y-92753033D01*
X113769593Y-92754256D01*
X113788623Y-92755163D01*
X113815498Y-92755787D01*
X113851126Y-92756161D01*
X113896413Y-92756316D01*
X113939834Y-92756306D01*
X114133489Y-92756046D01*
X114294603Y-92515006D01*
X114455718Y-92273966D01*
X114586703Y-92272451D01*
X114717689Y-92270936D01*
X114717689Y-92756566D01*
X115050711Y-92756566D01*
X115050711Y-91977633D01*
X114717689Y-91977633D01*
X114523233Y-91977633D01*
X114464980Y-91977434D01*
X114413902Y-91976852D01*
X114370835Y-91975910D01*
X114336617Y-91974633D01*
X114312084Y-91973043D01*
X114298867Y-91971342D01*
X114250667Y-91956154D01*
X114208610Y-91932560D01*
X114173811Y-91901397D01*
X114147390Y-91863501D01*
X114142916Y-91854564D01*
X114136092Y-91838837D01*
X114131689Y-91824516D01*
X114129191Y-91808369D01*
X114128082Y-91787166D01*
X114127845Y-91760202D01*
X114128046Y-91732224D01*
X114129067Y-91712209D01*
X114131530Y-91696835D01*
X114136057Y-91682779D01*
X114143272Y-91666716D01*
X114146662Y-91659770D01*
X114170540Y-91622629D01*
X114202172Y-91592869D01*
X114242006Y-91570200D01*
X114290491Y-91554332D01*
X114318138Y-91548854D01*
X114332571Y-91547430D01*
X114356593Y-91546131D01*
X114388506Y-91545003D01*
X114426609Y-91544090D01*
X114469205Y-91543440D01*
X114514592Y-91543096D01*
X114535656Y-91543053D01*
X114717689Y-91543011D01*
X114717689Y-91977633D01*
X115050711Y-91977633D01*
X115050711Y-91243115D01*
X114648545Y-91245428D01*
X114648545Y-91245428D01*
G37*
X114648545Y-91245428D02*
X114571045Y-91245887D01*
X114503953Y-91246328D01*
X114446387Y-91246777D01*
X114397467Y-91247262D01*
X114356311Y-91247809D01*
X114322039Y-91248446D01*
X114293768Y-91249200D01*
X114270619Y-91250097D01*
X114251709Y-91251165D01*
X114236158Y-91252430D01*
X114223085Y-91253920D01*
X114211609Y-91255661D01*
X114200847Y-91257681D01*
X114192756Y-91259386D01*
X114113149Y-91281213D01*
X114042133Y-91310235D01*
X113979757Y-91346412D01*
X113926072Y-91389707D01*
X113881128Y-91440082D01*
X113844974Y-91497498D01*
X113826528Y-91537784D01*
X113808416Y-91595392D01*
X113796766Y-91659422D01*
X113791625Y-91727002D01*
X113793042Y-91795264D01*
X113801064Y-91861338D01*
X113815742Y-91922354D01*
X113819840Y-91934733D01*
X113846490Y-91994091D01*
X113883271Y-92049572D01*
X113929463Y-92100419D01*
X113984347Y-92145872D01*
X114047206Y-92185174D01*
X114067045Y-92195423D01*
X114113751Y-92218479D01*
X113934282Y-92480467D01*
X113900938Y-92529154D01*
X113869455Y-92575151D01*
X113840420Y-92617597D01*
X113814420Y-92655630D01*
X113792045Y-92688389D01*
X113773883Y-92715014D01*
X113760521Y-92734644D01*
X113752547Y-92746418D01*
X113750495Y-92749511D01*
X113751437Y-92751462D01*
X113757500Y-92753033D01*
X113769593Y-92754256D01*
X113788623Y-92755163D01*
X113815498Y-92755787D01*
X113851126Y-92756161D01*
X113896413Y-92756316D01*
X113939834Y-92756306D01*
X114133489Y-92756046D01*
X114294603Y-92515006D01*
X114455718Y-92273966D01*
X114586703Y-92272451D01*
X114717689Y-92270936D01*
X114717689Y-92756566D01*
X115050711Y-92756566D01*
X115050711Y-91977633D01*
X114717689Y-91977633D01*
X114523233Y-91977633D01*
X114464980Y-91977434D01*
X114413902Y-91976852D01*
X114370835Y-91975910D01*
X114336617Y-91974633D01*
X114312084Y-91973043D01*
X114298867Y-91971342D01*
X114250667Y-91956154D01*
X114208610Y-91932560D01*
X114173811Y-91901397D01*
X114147390Y-91863501D01*
X114142916Y-91854564D01*
X114136092Y-91838837D01*
X114131689Y-91824516D01*
X114129191Y-91808369D01*
X114128082Y-91787166D01*
X114127845Y-91760202D01*
X114128046Y-91732224D01*
X114129067Y-91712209D01*
X114131530Y-91696835D01*
X114136057Y-91682779D01*
X114143272Y-91666716D01*
X114146662Y-91659770D01*
X114170540Y-91622629D01*
X114202172Y-91592869D01*
X114242006Y-91570200D01*
X114290491Y-91554332D01*
X114318138Y-91548854D01*
X114332571Y-91547430D01*
X114356593Y-91546131D01*
X114388506Y-91545003D01*
X114426609Y-91544090D01*
X114469205Y-91543440D01*
X114514592Y-91543096D01*
X114535656Y-91543053D01*
X114717689Y-91543011D01*
X114717689Y-91977633D01*
X115050711Y-91977633D01*
X115050711Y-91243115D01*
X114648545Y-91245428D01*
G36*
X113151356Y-91903391D02*
X112845065Y-91573623D01*
X112538775Y-91243855D01*
X112341299Y-91243855D01*
X112295354Y-91243919D01*
X112253196Y-91244099D01*
X112216102Y-91244382D01*
X112185349Y-91244751D01*
X112162215Y-91245193D01*
X112147978Y-91245692D01*
X112143822Y-91246163D01*
X112147634Y-91250501D01*
X112158674Y-91262356D01*
X112176350Y-91281106D01*
X112200068Y-91306129D01*
X112229235Y-91336801D01*
X112263259Y-91372501D01*
X112301547Y-91412605D01*
X112343505Y-91456490D01*
X112388540Y-91503535D01*
X112436060Y-91553117D01*
X112448689Y-91566284D01*
X112496743Y-91616453D01*
X112542430Y-91664296D01*
X112585159Y-91709185D01*
X112624342Y-91750495D01*
X112659386Y-91787598D01*
X112689703Y-91819866D01*
X112714701Y-91846674D01*
X112733790Y-91867394D01*
X112746381Y-91881399D01*
X112751881Y-91888062D01*
X112752078Y-91888512D01*
X112748579Y-91893588D01*
X112738826Y-91907100D01*
X112723285Y-91928414D01*
X112702424Y-91956895D01*
X112676709Y-91991909D01*
X112646607Y-92032822D01*
X112612585Y-92078999D01*
X112575110Y-92129807D01*
X112534648Y-92184610D01*
X112491666Y-92242775D01*
X112446631Y-92303668D01*
X112434511Y-92320047D01*
X112389005Y-92381559D01*
X112345422Y-92440517D01*
X112304230Y-92496284D01*
X112265895Y-92548225D01*
X112230886Y-92595707D01*
X112199669Y-92638093D01*
X112172713Y-92674750D01*
X112150484Y-92705041D01*
X112133452Y-92728333D01*
X112122081Y-92743990D01*
X112116842Y-92751377D01*
X112116541Y-92751866D01*
X112121523Y-92752959D01*
X112136533Y-92753962D01*
X112160308Y-92754844D01*
X112191586Y-92755576D01*
X112229105Y-92756127D01*
X112271605Y-92756466D01*
X112312002Y-92756566D01*
X112509345Y-92756566D01*
X112742398Y-92436244D01*
X112781124Y-92383017D01*
X112817880Y-92332501D01*
X112852130Y-92285432D01*
X112883338Y-92242543D01*
X112910971Y-92204572D01*
X112934492Y-92172253D01*
X112953366Y-92146322D01*
X112967058Y-92127514D01*
X112975033Y-92116565D01*
X112976937Y-92113958D01*
X112981128Y-92117228D01*
X112992045Y-92127476D01*
X113008547Y-92143581D01*
X113029493Y-92164424D01*
X113053742Y-92188885D01*
X113066086Y-92201447D01*
X113153749Y-92290900D01*
X113153964Y-92523733D01*
X113154178Y-92756566D01*
X113487200Y-92756566D01*
X113487200Y-91243855D01*
X113154268Y-91243855D01*
X113151356Y-91903391D01*
X113151356Y-91903391D01*
G37*
X113151356Y-91903391D02*
X112845065Y-91573623D01*
X112538775Y-91243855D01*
X112341299Y-91243855D01*
X112295354Y-91243919D01*
X112253196Y-91244099D01*
X112216102Y-91244382D01*
X112185349Y-91244751D01*
X112162215Y-91245193D01*
X112147978Y-91245692D01*
X112143822Y-91246163D01*
X112147634Y-91250501D01*
X112158674Y-91262356D01*
X112176350Y-91281106D01*
X112200068Y-91306129D01*
X112229235Y-91336801D01*
X112263259Y-91372501D01*
X112301547Y-91412605D01*
X112343505Y-91456490D01*
X112388540Y-91503535D01*
X112436060Y-91553117D01*
X112448689Y-91566284D01*
X112496743Y-91616453D01*
X112542430Y-91664296D01*
X112585159Y-91709185D01*
X112624342Y-91750495D01*
X112659386Y-91787598D01*
X112689703Y-91819866D01*
X112714701Y-91846674D01*
X112733790Y-91867394D01*
X112746381Y-91881399D01*
X112751881Y-91888062D01*
X112752078Y-91888512D01*
X112748579Y-91893588D01*
X112738826Y-91907100D01*
X112723285Y-91928414D01*
X112702424Y-91956895D01*
X112676709Y-91991909D01*
X112646607Y-92032822D01*
X112612585Y-92078999D01*
X112575110Y-92129807D01*
X112534648Y-92184610D01*
X112491666Y-92242775D01*
X112446631Y-92303668D01*
X112434511Y-92320047D01*
X112389005Y-92381559D01*
X112345422Y-92440517D01*
X112304230Y-92496284D01*
X112265895Y-92548225D01*
X112230886Y-92595707D01*
X112199669Y-92638093D01*
X112172713Y-92674750D01*
X112150484Y-92705041D01*
X112133452Y-92728333D01*
X112122081Y-92743990D01*
X112116842Y-92751377D01*
X112116541Y-92751866D01*
X112121523Y-92752959D01*
X112136533Y-92753962D01*
X112160308Y-92754844D01*
X112191586Y-92755576D01*
X112229105Y-92756127D01*
X112271605Y-92756466D01*
X112312002Y-92756566D01*
X112509345Y-92756566D01*
X112742398Y-92436244D01*
X112781124Y-92383017D01*
X112817880Y-92332501D01*
X112852130Y-92285432D01*
X112883338Y-92242543D01*
X112910971Y-92204572D01*
X112934492Y-92172253D01*
X112953366Y-92146322D01*
X112967058Y-92127514D01*
X112975033Y-92116565D01*
X112976937Y-92113958D01*
X112981128Y-92117228D01*
X112992045Y-92127476D01*
X113008547Y-92143581D01*
X113029493Y-92164424D01*
X113053742Y-92188885D01*
X113066086Y-92201447D01*
X113153749Y-92290900D01*
X113153964Y-92523733D01*
X113154178Y-92756566D01*
X113487200Y-92756566D01*
X113487200Y-91243855D01*
X113154268Y-91243855D01*
X113151356Y-91903391D01*
G36*
X117535140Y-104123968D02*
X117499908Y-104141374D01*
X117456460Y-104171706D01*
X117424794Y-104204783D01*
X117403106Y-104246317D01*
X117389597Y-104302022D01*
X117382462Y-104377611D01*
X117379900Y-104478796D01*
X117379750Y-104522297D01*
X117380188Y-104617635D01*
X117382004Y-104685771D01*
X117385955Y-104732918D01*
X117392798Y-104765290D01*
X117403289Y-104789100D01*
X117414204Y-104805343D01*
X117483881Y-104874452D01*
X117565934Y-104916021D01*
X117654450Y-104928523D01*
X117743519Y-104910434D01*
X117771737Y-104897642D01*
X117839290Y-104862431D01*
X117839290Y-105414200D01*
X117789988Y-105388705D01*
X117725027Y-105368980D01*
X117645180Y-105363927D01*
X117565448Y-105373256D01*
X117505235Y-105394214D01*
X117455292Y-105434127D01*
X117412619Y-105491241D01*
X117409410Y-105497105D01*
X117395878Y-105524727D01*
X117385995Y-105552568D01*
X117379191Y-105586294D01*
X117374899Y-105631571D01*
X117372549Y-105694062D01*
X117371572Y-105779435D01*
X117371395Y-105875510D01*
X117371395Y-106182026D01*
X117555211Y-106182026D01*
X117555211Y-105616839D01*
X117606625Y-105573577D01*
X117660034Y-105538972D01*
X117710612Y-105532680D01*
X117761470Y-105548872D01*
X117788575Y-105564727D01*
X117808749Y-105587310D01*
X117823097Y-105621440D01*
X117832724Y-105671934D01*
X117838737Y-105743611D01*
X117842240Y-105841288D01*
X117843474Y-105906302D01*
X117847645Y-106173671D01*
X117935375Y-106178722D01*
X118023106Y-106183773D01*
X118023106Y-104524601D01*
X117839290Y-104524601D01*
X117834604Y-104617100D01*
X117818812Y-104681309D01*
X117789317Y-104721259D01*
X117743520Y-104740980D01*
X117697250Y-104744921D01*
X117644872Y-104740392D01*
X117610110Y-104722569D01*
X117588372Y-104699019D01*
X117571260Y-104673689D01*
X117561073Y-104645469D01*
X117556540Y-104605931D01*
X117556391Y-104546642D01*
X117557916Y-104496998D01*
X117561419Y-104422210D01*
X117566633Y-104373111D01*
X117575413Y-104341967D01*
X117589614Y-104321045D01*
X117603016Y-104308952D01*
X117659013Y-104282581D01*
X117725289Y-104278322D01*
X117763344Y-104287406D01*
X117801023Y-104319696D01*
X117825981Y-104382506D01*
X117838078Y-104475394D01*
X117839290Y-104524601D01*
X118023106Y-104524601D01*
X118023106Y-104109921D01*
X117931198Y-104109921D01*
X117876017Y-104112103D01*
X117847548Y-104119851D01*
X117839294Y-104134968D01*
X117839290Y-104135416D01*
X117835460Y-104150220D01*
X117818567Y-104148539D01*
X117784981Y-104132272D01*
X117706722Y-104107387D01*
X117618673Y-104104771D01*
X117535140Y-104123968D01*
X117535140Y-104123968D01*
G37*
X117535140Y-104123968D02*
X117499908Y-104141374D01*
X117456460Y-104171706D01*
X117424794Y-104204783D01*
X117403106Y-104246317D01*
X117389597Y-104302022D01*
X117382462Y-104377611D01*
X117379900Y-104478796D01*
X117379750Y-104522297D01*
X117380188Y-104617635D01*
X117382004Y-104685771D01*
X117385955Y-104732918D01*
X117392798Y-104765290D01*
X117403289Y-104789100D01*
X117414204Y-104805343D01*
X117483881Y-104874452D01*
X117565934Y-104916021D01*
X117654450Y-104928523D01*
X117743519Y-104910434D01*
X117771737Y-104897642D01*
X117839290Y-104862431D01*
X117839290Y-105414200D01*
X117789988Y-105388705D01*
X117725027Y-105368980D01*
X117645180Y-105363927D01*
X117565448Y-105373256D01*
X117505235Y-105394214D01*
X117455292Y-105434127D01*
X117412619Y-105491241D01*
X117409410Y-105497105D01*
X117395878Y-105524727D01*
X117385995Y-105552568D01*
X117379191Y-105586294D01*
X117374899Y-105631571D01*
X117372549Y-105694062D01*
X117371572Y-105779435D01*
X117371395Y-105875510D01*
X117371395Y-106182026D01*
X117555211Y-106182026D01*
X117555211Y-105616839D01*
X117606625Y-105573577D01*
X117660034Y-105538972D01*
X117710612Y-105532680D01*
X117761470Y-105548872D01*
X117788575Y-105564727D01*
X117808749Y-105587310D01*
X117823097Y-105621440D01*
X117832724Y-105671934D01*
X117838737Y-105743611D01*
X117842240Y-105841288D01*
X117843474Y-105906302D01*
X117847645Y-106173671D01*
X117935375Y-106178722D01*
X118023106Y-106183773D01*
X118023106Y-104524601D01*
X117839290Y-104524601D01*
X117834604Y-104617100D01*
X117818812Y-104681309D01*
X117789317Y-104721259D01*
X117743520Y-104740980D01*
X117697250Y-104744921D01*
X117644872Y-104740392D01*
X117610110Y-104722569D01*
X117588372Y-104699019D01*
X117571260Y-104673689D01*
X117561073Y-104645469D01*
X117556540Y-104605931D01*
X117556391Y-104546642D01*
X117557916Y-104496998D01*
X117561419Y-104422210D01*
X117566633Y-104373111D01*
X117575413Y-104341967D01*
X117589614Y-104321045D01*
X117603016Y-104308952D01*
X117659013Y-104282581D01*
X117725289Y-104278322D01*
X117763344Y-104287406D01*
X117801023Y-104319696D01*
X117825981Y-104382506D01*
X117838078Y-104475394D01*
X117839290Y-104524601D01*
X118023106Y-104524601D01*
X118023106Y-104109921D01*
X117931198Y-104109921D01*
X117876017Y-104112103D01*
X117847548Y-104119851D01*
X117839294Y-104134968D01*
X117839290Y-104135416D01*
X117835460Y-104150220D01*
X117818567Y-104148539D01*
X117784981Y-104132272D01*
X117706722Y-104107387D01*
X117618673Y-104104771D01*
X117535140Y-104123968D01*
G36*
X116838043Y-105369684D02*
X116759430Y-105390660D01*
X116699584Y-105428680D01*
X116657353Y-105478478D01*
X116644225Y-105499730D01*
X116634532Y-105521992D01*
X116627756Y-105550470D01*
X116623377Y-105590371D01*
X116620876Y-105646901D01*
X116619732Y-105725267D01*
X116619428Y-105830676D01*
X116619422Y-105858642D01*
X116619422Y-106182026D01*
X116699632Y-106182026D01*
X116750794Y-106178443D01*
X116788623Y-106169366D01*
X116798101Y-106163768D01*
X116824012Y-106154106D01*
X116850476Y-106163768D01*
X116894048Y-106175830D01*
X116957340Y-106180685D01*
X117027490Y-106178578D01*
X117091640Y-106169756D01*
X117129093Y-106158437D01*
X117201567Y-106111912D01*
X117246860Y-106047346D01*
X117267222Y-105961500D01*
X117267412Y-105959296D01*
X117265625Y-105921213D01*
X117104027Y-105921213D01*
X117089899Y-105964530D01*
X117066888Y-105988908D01*
X117020696Y-106007345D01*
X116959725Y-106014705D01*
X116897551Y-106011083D01*
X116847749Y-105996574D01*
X116833797Y-105987265D01*
X116809415Y-105944253D01*
X116803237Y-105895357D01*
X116803237Y-105831105D01*
X116895682Y-105831105D01*
X116983505Y-105837866D01*
X117050082Y-105857020D01*
X117091498Y-105886876D01*
X117104027Y-105921213D01*
X117265625Y-105921213D01*
X117263010Y-105865504D01*
X117232076Y-105791347D01*
X117173919Y-105735267D01*
X117165880Y-105730165D01*
X117131337Y-105713555D01*
X117088582Y-105703496D01*
X117028814Y-105698607D01*
X116957810Y-105697483D01*
X116803237Y-105697421D01*
X116803237Y-105632625D01*
X116809794Y-105582350D01*
X116826525Y-105548669D01*
X116828484Y-105546876D01*
X116865717Y-105532142D01*
X116921920Y-105526431D01*
X116984033Y-105529237D01*
X117038990Y-105540056D01*
X117071601Y-105556282D01*
X117089272Y-105569280D01*
X117107931Y-105571762D01*
X117133681Y-105561113D01*
X117172627Y-105534718D01*
X117230870Y-105489965D01*
X117236216Y-105485773D01*
X117233477Y-105470260D01*
X117210624Y-105444460D01*
X117175891Y-105415789D01*
X117137510Y-105391666D01*
X117125452Y-105385970D01*
X117081466Y-105374603D01*
X117017013Y-105366495D01*
X116945003Y-105363243D01*
X116941636Y-105363236D01*
X116838043Y-105369684D01*
X116838043Y-105369684D01*
G37*
X116838043Y-105369684D02*
X116759430Y-105390660D01*
X116699584Y-105428680D01*
X116657353Y-105478478D01*
X116644225Y-105499730D01*
X116634532Y-105521992D01*
X116627756Y-105550470D01*
X116623377Y-105590371D01*
X116620876Y-105646901D01*
X116619732Y-105725267D01*
X116619428Y-105830676D01*
X116619422Y-105858642D01*
X116619422Y-106182026D01*
X116699632Y-106182026D01*
X116750794Y-106178443D01*
X116788623Y-106169366D01*
X116798101Y-106163768D01*
X116824012Y-106154106D01*
X116850476Y-106163768D01*
X116894048Y-106175830D01*
X116957340Y-106180685D01*
X117027490Y-106178578D01*
X117091640Y-106169756D01*
X117129093Y-106158437D01*
X117201567Y-106111912D01*
X117246860Y-106047346D01*
X117267222Y-105961500D01*
X117267412Y-105959296D01*
X117265625Y-105921213D01*
X117104027Y-105921213D01*
X117089899Y-105964530D01*
X117066888Y-105988908D01*
X117020696Y-106007345D01*
X116959725Y-106014705D01*
X116897551Y-106011083D01*
X116847749Y-105996574D01*
X116833797Y-105987265D01*
X116809415Y-105944253D01*
X116803237Y-105895357D01*
X116803237Y-105831105D01*
X116895682Y-105831105D01*
X116983505Y-105837866D01*
X117050082Y-105857020D01*
X117091498Y-105886876D01*
X117104027Y-105921213D01*
X117265625Y-105921213D01*
X117263010Y-105865504D01*
X117232076Y-105791347D01*
X117173919Y-105735267D01*
X117165880Y-105730165D01*
X117131337Y-105713555D01*
X117088582Y-105703496D01*
X117028814Y-105698607D01*
X116957810Y-105697483D01*
X116803237Y-105697421D01*
X116803237Y-105632625D01*
X116809794Y-105582350D01*
X116826525Y-105548669D01*
X116828484Y-105546876D01*
X116865717Y-105532142D01*
X116921920Y-105526431D01*
X116984033Y-105529237D01*
X117038990Y-105540056D01*
X117071601Y-105556282D01*
X117089272Y-105569280D01*
X117107931Y-105571762D01*
X117133681Y-105561113D01*
X117172627Y-105534718D01*
X117230870Y-105489965D01*
X117236216Y-105485773D01*
X117233477Y-105470260D01*
X117210624Y-105444460D01*
X117175891Y-105415789D01*
X117137510Y-105391666D01*
X117125452Y-105385970D01*
X117081466Y-105374603D01*
X117017013Y-105366495D01*
X116945003Y-105363243D01*
X116941636Y-105363236D01*
X116838043Y-105369684D01*
G36*
X116318619Y-105364986D02*
X116293612Y-105372482D01*
X116285550Y-105388951D01*
X116285211Y-105396386D01*
X116283764Y-105417094D01*
X116273802Y-105420345D01*
X116246888Y-105406148D01*
X116230902Y-105396448D01*
X116180467Y-105375675D01*
X116120228Y-105365404D01*
X116057066Y-105364614D01*
X115997863Y-105372286D01*
X115949498Y-105387398D01*
X115918854Y-105408932D01*
X115912811Y-105435866D01*
X115915861Y-105443160D01*
X115938094Y-105473437D01*
X115972570Y-105510675D01*
X115978806Y-105516695D01*
X116011667Y-105544375D01*
X116040020Y-105553318D01*
X116079673Y-105547076D01*
X116095558Y-105542929D01*
X116144991Y-105532967D01*
X116179748Y-105537447D01*
X116209100Y-105553246D01*
X116235987Y-105574449D01*
X116255790Y-105601114D01*
X116269552Y-105638327D01*
X116278316Y-105691173D01*
X116283126Y-105764737D01*
X116285026Y-105864105D01*
X116285211Y-105924101D01*
X116285211Y-106182026D01*
X116452316Y-106182026D01*
X116452316Y-105363210D01*
X116368764Y-105363210D01*
X116318619Y-105364986D01*
X116318619Y-105364986D01*
G37*
X116318619Y-105364986D02*
X116293612Y-105372482D01*
X116285550Y-105388951D01*
X116285211Y-105396386D01*
X116283764Y-105417094D01*
X116273802Y-105420345D01*
X116246888Y-105406148D01*
X116230902Y-105396448D01*
X116180467Y-105375675D01*
X116120228Y-105365404D01*
X116057066Y-105364614D01*
X115997863Y-105372286D01*
X115949498Y-105387398D01*
X115918854Y-105408932D01*
X115912811Y-105435866D01*
X115915861Y-105443160D01*
X115938094Y-105473437D01*
X115972570Y-105510675D01*
X115978806Y-105516695D01*
X116011667Y-105544375D01*
X116040020Y-105553318D01*
X116079673Y-105547076D01*
X116095558Y-105542929D01*
X116144991Y-105532967D01*
X116179748Y-105537447D01*
X116209100Y-105553246D01*
X116235987Y-105574449D01*
X116255790Y-105601114D01*
X116269552Y-105638327D01*
X116278316Y-105691173D01*
X116283126Y-105764737D01*
X116285026Y-105864105D01*
X116285211Y-105924101D01*
X116285211Y-106182026D01*
X116452316Y-106182026D01*
X116452316Y-105363210D01*
X116368764Y-105363210D01*
X116318619Y-105364986D01*
G36*
X115265869Y-106182026D02*
X115357777Y-106182026D01*
X115411123Y-106180462D01*
X115438907Y-106173985D01*
X115448910Y-106159918D01*
X115449685Y-106150406D01*
X115451372Y-106131332D01*
X115462010Y-106127674D01*
X115489965Y-106139432D01*
X115511705Y-106150406D01*
X115595168Y-106176411D01*
X115685896Y-106177916D01*
X115759658Y-106158521D01*
X115828346Y-106111665D01*
X115880706Y-106042504D01*
X115909378Y-105960927D01*
X115910108Y-105956366D01*
X115914368Y-105906601D01*
X115916486Y-105835159D01*
X115916316Y-105781126D01*
X115733780Y-105781126D01*
X115729551Y-105852941D01*
X115719932Y-105912134D01*
X115706910Y-105945560D01*
X115657644Y-105991240D01*
X115599150Y-106007615D01*
X115538829Y-105994373D01*
X115487283Y-105954873D01*
X115467762Y-105928307D01*
X115456348Y-105896606D01*
X115451002Y-105850332D01*
X115449685Y-105780828D01*
X115452042Y-105711999D01*
X115458267Y-105651526D01*
X115467092Y-105611056D01*
X115468563Y-105607429D01*
X115504153Y-105564302D01*
X115556100Y-105540624D01*
X115614222Y-105536801D01*
X115668340Y-105553238D01*
X115708274Y-105590340D01*
X115712417Y-105597722D01*
X115725384Y-105642739D01*
X115732448Y-105707467D01*
X115733780Y-105781126D01*
X115916316Y-105781126D01*
X115916229Y-105753730D01*
X115915028Y-105709905D01*
X115906855Y-105601488D01*
X115889870Y-105520088D01*
X115861613Y-105459912D01*
X115819628Y-105415166D01*
X115778868Y-105388900D01*
X115721919Y-105370435D01*
X115651089Y-105364102D01*
X115578559Y-105369260D01*
X115516514Y-105385269D01*
X115483732Y-105404420D01*
X115449685Y-105435232D01*
X115449685Y-105045710D01*
X115265869Y-105045710D01*
X115265869Y-106182026D01*
X115265869Y-106182026D01*
G37*
X115265869Y-106182026D02*
X115357777Y-106182026D01*
X115411123Y-106180462D01*
X115438907Y-106173985D01*
X115448910Y-106159918D01*
X115449685Y-106150406D01*
X115451372Y-106131332D01*
X115462010Y-106127674D01*
X115489965Y-106139432D01*
X115511705Y-106150406D01*
X115595168Y-106176411D01*
X115685896Y-106177916D01*
X115759658Y-106158521D01*
X115828346Y-106111665D01*
X115880706Y-106042504D01*
X115909378Y-105960927D01*
X115910108Y-105956366D01*
X115914368Y-105906601D01*
X115916486Y-105835159D01*
X115916316Y-105781126D01*
X115733780Y-105781126D01*
X115729551Y-105852941D01*
X115719932Y-105912134D01*
X115706910Y-105945560D01*
X115657644Y-105991240D01*
X115599150Y-106007615D01*
X115538829Y-105994373D01*
X115487283Y-105954873D01*
X115467762Y-105928307D01*
X115456348Y-105896606D01*
X115451002Y-105850332D01*
X115449685Y-105780828D01*
X115452042Y-105711999D01*
X115458267Y-105651526D01*
X115467092Y-105611056D01*
X115468563Y-105607429D01*
X115504153Y-105564302D01*
X115556100Y-105540624D01*
X115614222Y-105536801D01*
X115668340Y-105553238D01*
X115708274Y-105590340D01*
X115712417Y-105597722D01*
X115725384Y-105642739D01*
X115732448Y-105707467D01*
X115733780Y-105781126D01*
X115916316Y-105781126D01*
X115916229Y-105753730D01*
X115915028Y-105709905D01*
X115906855Y-105601488D01*
X115889870Y-105520088D01*
X115861613Y-105459912D01*
X115819628Y-105415166D01*
X115778868Y-105388900D01*
X115721919Y-105370435D01*
X115651089Y-105364102D01*
X115578559Y-105369260D01*
X115516514Y-105385269D01*
X115483732Y-105404420D01*
X115449685Y-105435232D01*
X115449685Y-105045710D01*
X115265869Y-105045710D01*
X115265869Y-106182026D01*
G36*
X114624370Y-105366604D02*
X114558280Y-105371566D01*
X114471874Y-105630579D01*
X114385469Y-105889592D01*
X114358376Y-105797684D01*
X114342072Y-105740884D01*
X114320625Y-105664125D01*
X114297465Y-105579751D01*
X114285220Y-105534493D01*
X114239156Y-105363210D01*
X114049113Y-105363210D01*
X114105918Y-105542849D01*
X114133893Y-105631204D01*
X114167687Y-105737781D01*
X114202980Y-105848954D01*
X114234487Y-105948079D01*
X114306250Y-106173671D01*
X114461214Y-106183753D01*
X114503230Y-106045028D01*
X114529141Y-105958851D01*
X114557417Y-105863847D01*
X114582131Y-105779941D01*
X114583106Y-105776602D01*
X114601565Y-105719748D01*
X114617851Y-105680956D01*
X114629258Y-105666287D01*
X114631602Y-105667983D01*
X114639829Y-105690725D01*
X114655462Y-105739440D01*
X114676596Y-105808002D01*
X114701330Y-105890285D01*
X114714713Y-105935546D01*
X114787189Y-106182026D01*
X114941005Y-106182026D01*
X115063969Y-105793506D01*
X115098512Y-105684522D01*
X115129979Y-105585548D01*
X115156884Y-105501236D01*
X115177741Y-105436234D01*
X115191062Y-105395192D01*
X115195112Y-105383201D01*
X115191906Y-105370923D01*
X115166735Y-105365546D01*
X115114354Y-105366084D01*
X115106155Y-105366490D01*
X115009018Y-105371566D01*
X114945400Y-105605513D01*
X114922016Y-105690833D01*
X114901119Y-105765835D01*
X114884549Y-105824007D01*
X114874146Y-105858837D01*
X114872224Y-105864516D01*
X114864259Y-105857986D01*
X114848196Y-105824154D01*
X114825879Y-105767627D01*
X114799155Y-105693010D01*
X114776563Y-105625607D01*
X114690459Y-105361643D01*
X114624370Y-105366604D01*
X114624370Y-105366604D01*
G37*
X114624370Y-105366604D02*
X114558280Y-105371566D01*
X114471874Y-105630579D01*
X114385469Y-105889592D01*
X114358376Y-105797684D01*
X114342072Y-105740884D01*
X114320625Y-105664125D01*
X114297465Y-105579751D01*
X114285220Y-105534493D01*
X114239156Y-105363210D01*
X114049113Y-105363210D01*
X114105918Y-105542849D01*
X114133893Y-105631204D01*
X114167687Y-105737781D01*
X114202980Y-105848954D01*
X114234487Y-105948079D01*
X114306250Y-106173671D01*
X114461214Y-106183753D01*
X114503230Y-106045028D01*
X114529141Y-105958851D01*
X114557417Y-105863847D01*
X114582131Y-105779941D01*
X114583106Y-105776602D01*
X114601565Y-105719748D01*
X114617851Y-105680956D01*
X114629258Y-105666287D01*
X114631602Y-105667983D01*
X114639829Y-105690725D01*
X114655462Y-105739440D01*
X114676596Y-105808002D01*
X114701330Y-105890285D01*
X114714713Y-105935546D01*
X114787189Y-106182026D01*
X114941005Y-106182026D01*
X115063969Y-105793506D01*
X115098512Y-105684522D01*
X115129979Y-105585548D01*
X115156884Y-105501236D01*
X115177741Y-105436234D01*
X115191062Y-105395192D01*
X115195112Y-105383201D01*
X115191906Y-105370923D01*
X115166735Y-105365546D01*
X115114354Y-105366084D01*
X115106155Y-105366490D01*
X115009018Y-105371566D01*
X114945400Y-105605513D01*
X114922016Y-105690833D01*
X114901119Y-105765835D01*
X114884549Y-105824007D01*
X114874146Y-105858837D01*
X114872224Y-105864516D01*
X114864259Y-105857986D01*
X114848196Y-105824154D01*
X114825879Y-105767627D01*
X114799155Y-105693010D01*
X114776563Y-105625607D01*
X114690459Y-105361643D01*
X114624370Y-105366604D01*
G36*
X113618508Y-105368173D02*
X113548073Y-105385280D01*
X113527713Y-105394344D01*
X113488247Y-105418083D01*
X113457959Y-105444821D01*
X113435548Y-105479199D01*
X113419714Y-105525860D01*
X113409157Y-105589446D01*
X113402576Y-105674599D01*
X113398672Y-105785962D01*
X113397190Y-105860349D01*
X113391735Y-106182026D01*
X113484920Y-106182026D01*
X113541453Y-106179656D01*
X113570578Y-106171555D01*
X113578106Y-106157951D01*
X113582080Y-106143241D01*
X113599848Y-106146054D01*
X113624060Y-106157848D01*
X113684672Y-106175927D01*
X113762571Y-106180799D01*
X113844505Y-106172830D01*
X113917219Y-106152389D01*
X113923741Y-106149551D01*
X113990198Y-106102865D01*
X114034009Y-106037964D01*
X114054168Y-105962100D01*
X114052628Y-105934844D01*
X113888155Y-105934844D01*
X113873663Y-105971524D01*
X113830695Y-105997809D01*
X113761371Y-106011917D01*
X113724323Y-106013790D01*
X113662581Y-106008994D01*
X113621540Y-105990358D01*
X113611527Y-105981500D01*
X113584400Y-105933306D01*
X113578106Y-105889592D01*
X113578106Y-105831105D01*
X113659570Y-105831105D01*
X113754266Y-105835932D01*
X113820687Y-105851113D01*
X113862654Y-105877700D01*
X113872051Y-105889552D01*
X113888155Y-105934844D01*
X114052628Y-105934844D01*
X114049671Y-105882526D01*
X114019515Y-105806495D01*
X113978369Y-105755112D01*
X113953448Y-105732897D01*
X113929052Y-105718298D01*
X113897309Y-105709397D01*
X113850348Y-105704275D01*
X113780296Y-105701015D01*
X113752510Y-105700077D01*
X113578106Y-105694379D01*
X113578362Y-105641591D01*
X113585116Y-105586103D01*
X113609536Y-105552552D01*
X113658870Y-105531118D01*
X113660194Y-105530736D01*
X113730140Y-105522308D01*
X113798586Y-105533316D01*
X113849453Y-105560085D01*
X113869863Y-105573303D01*
X113891846Y-105571474D01*
X113925674Y-105552324D01*
X113945539Y-105538808D01*
X113984394Y-105509932D01*
X114008462Y-105488286D01*
X114012324Y-105482089D01*
X113996421Y-105450019D01*
X113949435Y-105411719D01*
X113929027Y-105398797D01*
X113870357Y-105376541D01*
X113791288Y-105363932D01*
X113703459Y-105361100D01*
X113618508Y-105368173D01*
X113618508Y-105368173D01*
G37*
X113618508Y-105368173D02*
X113548073Y-105385280D01*
X113527713Y-105394344D01*
X113488247Y-105418083D01*
X113457959Y-105444821D01*
X113435548Y-105479199D01*
X113419714Y-105525860D01*
X113409157Y-105589446D01*
X113402576Y-105674599D01*
X113398672Y-105785962D01*
X113397190Y-105860349D01*
X113391735Y-106182026D01*
X113484920Y-106182026D01*
X113541453Y-106179656D01*
X113570578Y-106171555D01*
X113578106Y-106157951D01*
X113582080Y-106143241D01*
X113599848Y-106146054D01*
X113624060Y-106157848D01*
X113684672Y-106175927D01*
X113762571Y-106180799D01*
X113844505Y-106172830D01*
X113917219Y-106152389D01*
X113923741Y-106149551D01*
X113990198Y-106102865D01*
X114034009Y-106037964D01*
X114054168Y-105962100D01*
X114052628Y-105934844D01*
X113888155Y-105934844D01*
X113873663Y-105971524D01*
X113830695Y-105997809D01*
X113761371Y-106011917D01*
X113724323Y-106013790D01*
X113662581Y-106008994D01*
X113621540Y-105990358D01*
X113611527Y-105981500D01*
X113584400Y-105933306D01*
X113578106Y-105889592D01*
X113578106Y-105831105D01*
X113659570Y-105831105D01*
X113754266Y-105835932D01*
X113820687Y-105851113D01*
X113862654Y-105877700D01*
X113872051Y-105889552D01*
X113888155Y-105934844D01*
X114052628Y-105934844D01*
X114049671Y-105882526D01*
X114019515Y-105806495D01*
X113978369Y-105755112D01*
X113953448Y-105732897D01*
X113929052Y-105718298D01*
X113897309Y-105709397D01*
X113850348Y-105704275D01*
X113780296Y-105701015D01*
X113752510Y-105700077D01*
X113578106Y-105694379D01*
X113578362Y-105641591D01*
X113585116Y-105586103D01*
X113609536Y-105552552D01*
X113658870Y-105531118D01*
X113660194Y-105530736D01*
X113730140Y-105522308D01*
X113798586Y-105533316D01*
X113849453Y-105560085D01*
X113869863Y-105573303D01*
X113891846Y-105571474D01*
X113925674Y-105552324D01*
X113945539Y-105538808D01*
X113984394Y-105509932D01*
X114008462Y-105488286D01*
X114012324Y-105482089D01*
X113996421Y-105450019D01*
X113949435Y-105411719D01*
X113929027Y-105398797D01*
X113870357Y-105376541D01*
X113791288Y-105363932D01*
X113703459Y-105361100D01*
X113618508Y-105368173D01*
G36*
X112825333Y-105362947D02*
X112761092Y-105375612D01*
X112724520Y-105394364D01*
X112686047Y-105425517D01*
X112740783Y-105494627D01*
X112774531Y-105536479D01*
X112797447Y-105556898D01*
X112820221Y-105560017D01*
X112853544Y-105549972D01*
X112869186Y-105544289D01*
X112932958Y-105535904D01*
X112991360Y-105553878D01*
X113034236Y-105594482D01*
X113041201Y-105607429D01*
X113048787Y-105641724D01*
X113054641Y-105704927D01*
X113058489Y-105792560D01*
X113060057Y-105900140D01*
X113060079Y-105915444D01*
X113060079Y-106182026D01*
X113243895Y-106182026D01*
X113243895Y-105363210D01*
X113151987Y-105363210D01*
X113098993Y-105364594D01*
X113071385Y-105370752D01*
X113061176Y-105384694D01*
X113060079Y-105397844D01*
X113060079Y-105432478D01*
X113016050Y-105397844D01*
X112965563Y-105374216D01*
X112897740Y-105362533D01*
X112825333Y-105362947D01*
X112825333Y-105362947D01*
G37*
X112825333Y-105362947D02*
X112761092Y-105375612D01*
X112724520Y-105394364D01*
X112686047Y-105425517D01*
X112740783Y-105494627D01*
X112774531Y-105536479D01*
X112797447Y-105556898D01*
X112820221Y-105560017D01*
X112853544Y-105549972D01*
X112869186Y-105544289D01*
X112932958Y-105535904D01*
X112991360Y-105553878D01*
X113034236Y-105594482D01*
X113041201Y-105607429D01*
X113048787Y-105641724D01*
X113054641Y-105704927D01*
X113058489Y-105792560D01*
X113060057Y-105900140D01*
X113060079Y-105915444D01*
X113060079Y-106182026D01*
X113243895Y-106182026D01*
X113243895Y-105363210D01*
X113151987Y-105363210D01*
X113098993Y-105364594D01*
X113071385Y-105370752D01*
X113061176Y-105384694D01*
X113060079Y-105397844D01*
X113060079Y-105432478D01*
X113016050Y-105397844D01*
X112965563Y-105374216D01*
X112897740Y-105362533D01*
X112825333Y-105362947D01*
G36*
X112297307Y-105367578D02*
X112217432Y-105388345D01*
X112150538Y-105431205D01*
X112118149Y-105463223D01*
X112065055Y-105538913D01*
X112034627Y-105626716D01*
X112024173Y-105734650D01*
X112024120Y-105743375D01*
X112024027Y-105831105D01*
X112528966Y-105831105D01*
X112518202Y-105877059D01*
X112498768Y-105918678D01*
X112464755Y-105962044D01*
X112457640Y-105968967D01*
X112396497Y-106006435D01*
X112326771Y-106012789D01*
X112246513Y-105988138D01*
X112232908Y-105981500D01*
X112191181Y-105961319D01*
X112163232Y-105949821D01*
X112158355Y-105948758D01*
X112141332Y-105959083D01*
X112108867Y-105984345D01*
X112092386Y-105998150D01*
X112058236Y-106029861D01*
X112047022Y-106050799D01*
X112054805Y-106070060D01*
X112058965Y-106075327D01*
X112087143Y-106098378D01*
X112133638Y-106126392D01*
X112166066Y-106142746D01*
X112258115Y-106171559D01*
X112360024Y-106180895D01*
X112456537Y-106169832D01*
X112483566Y-106161912D01*
X112567224Y-106117081D01*
X112629234Y-106048098D01*
X112669955Y-105954294D01*
X112689745Y-105834998D01*
X112691918Y-105772618D01*
X112685574Y-105681798D01*
X112525343Y-105681798D01*
X112509845Y-105688512D01*
X112468188Y-105693780D01*
X112407624Y-105696889D01*
X112366593Y-105697421D01*
X112292789Y-105696908D01*
X112246207Y-105694506D01*
X112220652Y-105688922D01*
X112209931Y-105678861D01*
X112207843Y-105664263D01*
X112222169Y-105619296D01*
X112258238Y-105574853D01*
X112305685Y-105540742D01*
X112353151Y-105526788D01*
X112417621Y-105539166D01*
X112473430Y-105574952D01*
X112512126Y-105626533D01*
X112525343Y-105681798D01*
X112685574Y-105681798D01*
X112682679Y-105640366D01*
X112654164Y-105534998D01*
X112605771Y-105455678D01*
X112536896Y-105401571D01*
X112446935Y-105371843D01*
X112398200Y-105366118D01*
X112297307Y-105367578D01*
X112297307Y-105367578D01*
G37*
X112297307Y-105367578D02*
X112217432Y-105388345D01*
X112150538Y-105431205D01*
X112118149Y-105463223D01*
X112065055Y-105538913D01*
X112034627Y-105626716D01*
X112024173Y-105734650D01*
X112024120Y-105743375D01*
X112024027Y-105831105D01*
X112528966Y-105831105D01*
X112518202Y-105877059D01*
X112498768Y-105918678D01*
X112464755Y-105962044D01*
X112457640Y-105968967D01*
X112396497Y-106006435D01*
X112326771Y-106012789D01*
X112246513Y-105988138D01*
X112232908Y-105981500D01*
X112191181Y-105961319D01*
X112163232Y-105949821D01*
X112158355Y-105948758D01*
X112141332Y-105959083D01*
X112108867Y-105984345D01*
X112092386Y-105998150D01*
X112058236Y-106029861D01*
X112047022Y-106050799D01*
X112054805Y-106070060D01*
X112058965Y-106075327D01*
X112087143Y-106098378D01*
X112133638Y-106126392D01*
X112166066Y-106142746D01*
X112258115Y-106171559D01*
X112360024Y-106180895D01*
X112456537Y-106169832D01*
X112483566Y-106161912D01*
X112567224Y-106117081D01*
X112629234Y-106048098D01*
X112669955Y-105954294D01*
X112689745Y-105834998D01*
X112691918Y-105772618D01*
X112685574Y-105681798D01*
X112525343Y-105681798D01*
X112509845Y-105688512D01*
X112468188Y-105693780D01*
X112407624Y-105696889D01*
X112366593Y-105697421D01*
X112292789Y-105696908D01*
X112246207Y-105694506D01*
X112220652Y-105688922D01*
X112209931Y-105678861D01*
X112207843Y-105664263D01*
X112222169Y-105619296D01*
X112258238Y-105574853D01*
X112305685Y-105540742D01*
X112353151Y-105526788D01*
X112417621Y-105539166D01*
X112473430Y-105574952D01*
X112512126Y-105626533D01*
X112525343Y-105681798D01*
X112685574Y-105681798D01*
X112682679Y-105640366D01*
X112654164Y-105534998D01*
X112605771Y-105455678D01*
X112536896Y-105401571D01*
X112446935Y-105371843D01*
X112398200Y-105366118D01*
X112297307Y-105367578D01*
G36*
X118371716Y-104118604D02*
X118284295Y-104157254D01*
X118217930Y-104221790D01*
X118172524Y-104312312D01*
X118147982Y-104428918D01*
X118146223Y-104447124D01*
X118144844Y-104575484D01*
X118162716Y-104687996D01*
X118198750Y-104779188D01*
X118218045Y-104808522D01*
X118285255Y-104870606D01*
X118370850Y-104910816D01*
X118466610Y-104927503D01*
X118564313Y-104919017D01*
X118638583Y-104892880D01*
X118702453Y-104848835D01*
X118754654Y-104791087D01*
X118755557Y-104789736D01*
X118776756Y-104754093D01*
X118790533Y-104718252D01*
X118798876Y-104673019D01*
X118803773Y-104609201D01*
X118805931Y-104556868D01*
X118806829Y-104509410D01*
X118639757Y-104509410D01*
X118638124Y-104556654D01*
X118632196Y-104619546D01*
X118621739Y-104659907D01*
X118602881Y-104688622D01*
X118585219Y-104705396D01*
X118522606Y-104740516D01*
X118457092Y-104745210D01*
X118396079Y-104719940D01*
X118365572Y-104691624D01*
X118343589Y-104663089D01*
X118330731Y-104635784D01*
X118325088Y-104600250D01*
X118324749Y-104547024D01*
X118326488Y-104498006D01*
X118330229Y-104427982D01*
X118336159Y-104382564D01*
X118346847Y-104352940D01*
X118364861Y-104330297D01*
X118379137Y-104317355D01*
X118438849Y-104283360D01*
X118503266Y-104281665D01*
X118557281Y-104301801D01*
X118603360Y-104343852D01*
X118630811Y-104412928D01*
X118639757Y-104509410D01*
X118806829Y-104509410D01*
X118807901Y-104452799D01*
X118804536Y-104374968D01*
X118794455Y-104316430D01*
X118776274Y-104270237D01*
X118748610Y-104229442D01*
X118738354Y-104217328D01*
X118674222Y-104156974D01*
X118605434Y-104121720D01*
X118521311Y-104106950D01*
X118480291Y-104105743D01*
X118371716Y-104118604D01*
X118371716Y-104118604D01*
G37*
X118371716Y-104118604D02*
X118284295Y-104157254D01*
X118217930Y-104221790D01*
X118172524Y-104312312D01*
X118147982Y-104428918D01*
X118146223Y-104447124D01*
X118144844Y-104575484D01*
X118162716Y-104687996D01*
X118198750Y-104779188D01*
X118218045Y-104808522D01*
X118285255Y-104870606D01*
X118370850Y-104910816D01*
X118466610Y-104927503D01*
X118564313Y-104919017D01*
X118638583Y-104892880D01*
X118702453Y-104848835D01*
X118754654Y-104791087D01*
X118755557Y-104789736D01*
X118776756Y-104754093D01*
X118790533Y-104718252D01*
X118798876Y-104673019D01*
X118803773Y-104609201D01*
X118805931Y-104556868D01*
X118806829Y-104509410D01*
X118639757Y-104509410D01*
X118638124Y-104556654D01*
X118632196Y-104619546D01*
X118621739Y-104659907D01*
X118602881Y-104688622D01*
X118585219Y-104705396D01*
X118522606Y-104740516D01*
X118457092Y-104745210D01*
X118396079Y-104719940D01*
X118365572Y-104691624D01*
X118343589Y-104663089D01*
X118330731Y-104635784D01*
X118325088Y-104600250D01*
X118324749Y-104547024D01*
X118326488Y-104498006D01*
X118330229Y-104427982D01*
X118336159Y-104382564D01*
X118346847Y-104352940D01*
X118364861Y-104330297D01*
X118379137Y-104317355D01*
X118438849Y-104283360D01*
X118503266Y-104281665D01*
X118557281Y-104301801D01*
X118603360Y-104343852D01*
X118630811Y-104412928D01*
X118639757Y-104509410D01*
X118806829Y-104509410D01*
X118807901Y-104452799D01*
X118804536Y-104374968D01*
X118794455Y-104316430D01*
X118776274Y-104270237D01*
X118748610Y-104229442D01*
X118738354Y-104217328D01*
X118674222Y-104156974D01*
X118605434Y-104121720D01*
X118521311Y-104106950D01*
X118480291Y-104105743D01*
X118371716Y-104118604D01*
G36*
X116801482Y-104128527D02*
X116784830Y-104136366D01*
X116727195Y-104178586D01*
X116672695Y-104240200D01*
X116632001Y-104308043D01*
X116620426Y-104339234D01*
X116609866Y-104394949D01*
X116603569Y-104462281D01*
X116602804Y-104490085D01*
X116602711Y-104577816D01*
X117107650Y-104577816D01*
X117096887Y-104623770D01*
X117070467Y-104678120D01*
X117024278Y-104725091D01*
X116969328Y-104755348D01*
X116934311Y-104761631D01*
X116886823Y-104754006D01*
X116830165Y-104734883D01*
X116810918Y-104726084D01*
X116739741Y-104690536D01*
X116678998Y-104736867D01*
X116643948Y-104768203D01*
X116625298Y-104794067D01*
X116624353Y-104801658D01*
X116641015Y-104820056D01*
X116677530Y-104848015D01*
X116710672Y-104869827D01*
X116800107Y-104909037D01*
X116900371Y-104926785D01*
X116999746Y-104922170D01*
X117078961Y-104898051D01*
X117160620Y-104846384D01*
X117218651Y-104778356D01*
X117254954Y-104690343D01*
X117271428Y-104578716D01*
X117272889Y-104527638D01*
X117267043Y-104410591D01*
X117266325Y-104407186D01*
X117099011Y-104407186D01*
X117094403Y-104418162D01*
X117075464Y-104424215D01*
X117036402Y-104426810D01*
X116971423Y-104427410D01*
X116946403Y-104427421D01*
X116870279Y-104426514D01*
X116822004Y-104423220D01*
X116796040Y-104416681D01*
X116786852Y-104406037D01*
X116786527Y-104402619D01*
X116797013Y-104375456D01*
X116823258Y-104337403D01*
X116834541Y-104324079D01*
X116876428Y-104286396D01*
X116920091Y-104271580D01*
X116943615Y-104270342D01*
X117007257Y-104285829D01*
X117060627Y-104327430D01*
X117094481Y-104387853D01*
X117095081Y-104389822D01*
X117099011Y-104407186D01*
X117266325Y-104407186D01*
X117247601Y-104318428D01*
X117212578Y-104244690D01*
X117169744Y-104192348D01*
X117090552Y-104135592D01*
X116997460Y-104105262D01*
X116898445Y-104102521D01*
X116801482Y-104128527D01*
X116801482Y-104128527D01*
G37*
X116801482Y-104128527D02*
X116784830Y-104136366D01*
X116727195Y-104178586D01*
X116672695Y-104240200D01*
X116632001Y-104308043D01*
X116620426Y-104339234D01*
X116609866Y-104394949D01*
X116603569Y-104462281D01*
X116602804Y-104490085D01*
X116602711Y-104577816D01*
X117107650Y-104577816D01*
X117096887Y-104623770D01*
X117070467Y-104678120D01*
X117024278Y-104725091D01*
X116969328Y-104755348D01*
X116934311Y-104761631D01*
X116886823Y-104754006D01*
X116830165Y-104734883D01*
X116810918Y-104726084D01*
X116739741Y-104690536D01*
X116678998Y-104736867D01*
X116643948Y-104768203D01*
X116625298Y-104794067D01*
X116624353Y-104801658D01*
X116641015Y-104820056D01*
X116677530Y-104848015D01*
X116710672Y-104869827D01*
X116800107Y-104909037D01*
X116900371Y-104926785D01*
X116999746Y-104922170D01*
X117078961Y-104898051D01*
X117160620Y-104846384D01*
X117218651Y-104778356D01*
X117254954Y-104690343D01*
X117271428Y-104578716D01*
X117272889Y-104527638D01*
X117267043Y-104410591D01*
X117266325Y-104407186D01*
X117099011Y-104407186D01*
X117094403Y-104418162D01*
X117075464Y-104424215D01*
X117036402Y-104426810D01*
X116971423Y-104427410D01*
X116946403Y-104427421D01*
X116870279Y-104426514D01*
X116822004Y-104423220D01*
X116796040Y-104416681D01*
X116786852Y-104406037D01*
X116786527Y-104402619D01*
X116797013Y-104375456D01*
X116823258Y-104337403D01*
X116834541Y-104324079D01*
X116876428Y-104286396D01*
X116920091Y-104271580D01*
X116943615Y-104270342D01*
X117007257Y-104285829D01*
X117060627Y-104327430D01*
X117094481Y-104387853D01*
X117095081Y-104389822D01*
X117099011Y-104407186D01*
X117266325Y-104407186D01*
X117247601Y-104318428D01*
X117212578Y-104244690D01*
X117169744Y-104192348D01*
X117090552Y-104135592D01*
X116997460Y-104105262D01*
X116898445Y-104102521D01*
X116801482Y-104128527D01*
G36*
X114979872Y-104107047D02*
X114916592Y-104119048D01*
X114850943Y-104144148D01*
X114843928Y-104147348D01*
X114794144Y-104173526D01*
X114759666Y-104197853D01*
X114748522Y-104213437D01*
X114759134Y-104238853D01*
X114784912Y-104276353D01*
X114796354Y-104290352D01*
X114843508Y-104345454D01*
X114904299Y-104309586D01*
X114962153Y-104285692D01*
X115029000Y-104272920D01*
X115093106Y-104272113D01*
X115142736Y-104284115D01*
X115154646Y-104291605D01*
X115177328Y-104325950D01*
X115180084Y-104365513D01*
X115163112Y-104396420D01*
X115153073Y-104402413D01*
X115122990Y-104409857D01*
X115070111Y-104418606D01*
X115004925Y-104426967D01*
X114992900Y-104428278D01*
X114888203Y-104446388D01*
X114812268Y-104477151D01*
X114761908Y-104523407D01*
X114733936Y-104587997D01*
X114725222Y-104666887D01*
X114737260Y-104756565D01*
X114776349Y-104826986D01*
X114842645Y-104878277D01*
X114936306Y-104910567D01*
X115040277Y-104923307D01*
X115125062Y-104923154D01*
X115193835Y-104911583D01*
X115240803Y-104895609D01*
X115300150Y-104867775D01*
X115354994Y-104835473D01*
X115374487Y-104821255D01*
X115424619Y-104780335D01*
X115303697Y-104657977D01*
X115234957Y-104703467D01*
X115166012Y-104737633D01*
X115092389Y-104755504D01*
X115021617Y-104757389D01*
X114961226Y-104743601D01*
X114918743Y-104714449D01*
X114905026Y-104689852D01*
X114907083Y-104650404D01*
X114941170Y-104620237D01*
X115007192Y-104599406D01*
X115079526Y-104589779D01*
X115190848Y-104571410D01*
X115273548Y-104536754D01*
X115328735Y-104484797D01*
X115357512Y-104414523D01*
X115361499Y-104331207D01*
X115341807Y-104244181D01*
X115296911Y-104178402D01*
X115226409Y-104133568D01*
X115129899Y-104109379D01*
X115058400Y-104104637D01*
X114979872Y-104107047D01*
X114979872Y-104107047D01*
G37*
X114979872Y-104107047D02*
X114916592Y-104119048D01*
X114850943Y-104144148D01*
X114843928Y-104147348D01*
X114794144Y-104173526D01*
X114759666Y-104197853D01*
X114748522Y-104213437D01*
X114759134Y-104238853D01*
X114784912Y-104276353D01*
X114796354Y-104290352D01*
X114843508Y-104345454D01*
X114904299Y-104309586D01*
X114962153Y-104285692D01*
X115029000Y-104272920D01*
X115093106Y-104272113D01*
X115142736Y-104284115D01*
X115154646Y-104291605D01*
X115177328Y-104325950D01*
X115180084Y-104365513D01*
X115163112Y-104396420D01*
X115153073Y-104402413D01*
X115122990Y-104409857D01*
X115070111Y-104418606D01*
X115004925Y-104426967D01*
X114992900Y-104428278D01*
X114888203Y-104446388D01*
X114812268Y-104477151D01*
X114761908Y-104523407D01*
X114733936Y-104587997D01*
X114725222Y-104666887D01*
X114737260Y-104756565D01*
X114776349Y-104826986D01*
X114842645Y-104878277D01*
X114936306Y-104910567D01*
X115040277Y-104923307D01*
X115125062Y-104923154D01*
X115193835Y-104911583D01*
X115240803Y-104895609D01*
X115300150Y-104867775D01*
X115354994Y-104835473D01*
X115374487Y-104821255D01*
X115424619Y-104780335D01*
X115303697Y-104657977D01*
X115234957Y-104703467D01*
X115166012Y-104737633D01*
X115092389Y-104755504D01*
X115021617Y-104757389D01*
X114961226Y-104743601D01*
X114918743Y-104714449D01*
X114905026Y-104689852D01*
X114907083Y-104650404D01*
X114941170Y-104620237D01*
X115007192Y-104599406D01*
X115079526Y-104589779D01*
X115190848Y-104571410D01*
X115273548Y-104536754D01*
X115328735Y-104484797D01*
X115357512Y-104414523D01*
X115361499Y-104331207D01*
X115341807Y-104244181D01*
X115296911Y-104178402D01*
X115226409Y-104133568D01*
X115129899Y-104109379D01*
X115058400Y-104104637D01*
X114979872Y-104107047D01*
G36*
X114186831Y-104119810D02*
X114102308Y-104165840D01*
X114036179Y-104238506D01*
X114005022Y-104297606D01*
X113991645Y-104349805D01*
X113982978Y-104424219D01*
X113979263Y-104509942D01*
X113980746Y-104596069D01*
X113987669Y-104671693D01*
X113995755Y-104712084D01*
X114023035Y-104767340D01*
X114070280Y-104826030D01*
X114127218Y-104877352D01*
X114183576Y-104910505D01*
X114184950Y-104911031D01*
X114254884Y-104925518D01*
X114337763Y-104925877D01*
X114416523Y-104912688D01*
X114446934Y-104902117D01*
X114525261Y-104857701D01*
X114581357Y-104799507D01*
X114618214Y-104722465D01*
X114638820Y-104621501D01*
X114643482Y-104568616D01*
X114642887Y-104502163D01*
X114463764Y-104502163D01*
X114457730Y-104599130D01*
X114440362Y-104673023D01*
X114412760Y-104720236D01*
X114393096Y-104733737D01*
X114342713Y-104743151D01*
X114282827Y-104740364D01*
X114231051Y-104726816D01*
X114217473Y-104719362D01*
X114181651Y-104675951D01*
X114158007Y-104609514D01*
X114147942Y-104528661D01*
X114152858Y-104442002D01*
X114163845Y-104389849D01*
X114195391Y-104329451D01*
X114245189Y-104291697D01*
X114305163Y-104278643D01*
X114367236Y-104292349D01*
X114414918Y-104325872D01*
X114439975Y-104353531D01*
X114454600Y-104380794D01*
X114461571Y-104417690D01*
X114463667Y-104474250D01*
X114463764Y-104502163D01*
X114642887Y-104502163D01*
X114642218Y-104427494D01*
X114619235Y-104311771D01*
X114574528Y-104221441D01*
X114508095Y-104156500D01*
X114419935Y-104116945D01*
X114401005Y-104112358D01*
X114287234Y-104101590D01*
X114186831Y-104119810D01*
X114186831Y-104119810D01*
G37*
X114186831Y-104119810D02*
X114102308Y-104165840D01*
X114036179Y-104238506D01*
X114005022Y-104297606D01*
X113991645Y-104349805D01*
X113982978Y-104424219D01*
X113979263Y-104509942D01*
X113980746Y-104596069D01*
X113987669Y-104671693D01*
X113995755Y-104712084D01*
X114023035Y-104767340D01*
X114070280Y-104826030D01*
X114127218Y-104877352D01*
X114183576Y-104910505D01*
X114184950Y-104911031D01*
X114254884Y-104925518D01*
X114337763Y-104925877D01*
X114416523Y-104912688D01*
X114446934Y-104902117D01*
X114525261Y-104857701D01*
X114581357Y-104799507D01*
X114618214Y-104722465D01*
X114638820Y-104621501D01*
X114643482Y-104568616D01*
X114642887Y-104502163D01*
X114463764Y-104502163D01*
X114457730Y-104599130D01*
X114440362Y-104673023D01*
X114412760Y-104720236D01*
X114393096Y-104733737D01*
X114342713Y-104743151D01*
X114282827Y-104740364D01*
X114231051Y-104726816D01*
X114217473Y-104719362D01*
X114181651Y-104675951D01*
X114158007Y-104609514D01*
X114147942Y-104528661D01*
X114152858Y-104442002D01*
X114163845Y-104389849D01*
X114195391Y-104329451D01*
X114245189Y-104291697D01*
X114305163Y-104278643D01*
X114367236Y-104292349D01*
X114414918Y-104325872D01*
X114439975Y-104353531D01*
X114454600Y-104380794D01*
X114461571Y-104417690D01*
X114463667Y-104474250D01*
X114463764Y-104502163D01*
X114642887Y-104502163D01*
X114642218Y-104427494D01*
X114619235Y-104311771D01*
X114574528Y-104221441D01*
X114508095Y-104156500D01*
X114419935Y-104116945D01*
X114401005Y-104112358D01*
X114287234Y-104101590D01*
X114186831Y-104119810D01*
G36*
X113678369Y-104370033D02*
X113676790Y-104492589D01*
X113671019Y-104585679D01*
X113659509Y-104653151D01*
X113640710Y-104698855D01*
X113613074Y-104726639D01*
X113575052Y-104740354D01*
X113527974Y-104743858D01*
X113478668Y-104739932D01*
X113441217Y-104725589D01*
X113414072Y-104696978D01*
X113395685Y-104650251D01*
X113384507Y-104581558D01*
X113378989Y-104487050D01*
X113377579Y-104370033D01*
X113377579Y-104109921D01*
X113193764Y-104109921D01*
X113193764Y-104912026D01*
X113285672Y-104912026D01*
X113341078Y-104909781D01*
X113369609Y-104901896D01*
X113377579Y-104886928D01*
X113382380Y-104873597D01*
X113401486Y-104876417D01*
X113439996Y-104895283D01*
X113528261Y-104924387D01*
X113621877Y-104922325D01*
X113711579Y-104890721D01*
X113754296Y-104865757D01*
X113786879Y-104838726D01*
X113810683Y-104804905D01*
X113827061Y-104759568D01*
X113837369Y-104697989D01*
X113842959Y-104615443D01*
X113845188Y-104507205D01*
X113845474Y-104423504D01*
X113845474Y-104109921D01*
X113678369Y-104109921D01*
X113678369Y-104370033D01*
X113678369Y-104370033D01*
G37*
X113678369Y-104370033D02*
X113676790Y-104492589D01*
X113671019Y-104585679D01*
X113659509Y-104653151D01*
X113640710Y-104698855D01*
X113613074Y-104726639D01*
X113575052Y-104740354D01*
X113527974Y-104743858D01*
X113478668Y-104739932D01*
X113441217Y-104725589D01*
X113414072Y-104696978D01*
X113395685Y-104650251D01*
X113384507Y-104581558D01*
X113378989Y-104487050D01*
X113377579Y-104370033D01*
X113377579Y-104109921D01*
X113193764Y-104109921D01*
X113193764Y-104912026D01*
X113285672Y-104912026D01*
X113341078Y-104909781D01*
X113369609Y-104901896D01*
X113377579Y-104886928D01*
X113382380Y-104873597D01*
X113401486Y-104876417D01*
X113439996Y-104895283D01*
X113528261Y-104924387D01*
X113621877Y-104922325D01*
X113711579Y-104890721D01*
X113754296Y-104865757D01*
X113786879Y-104838726D01*
X113810683Y-104804905D01*
X113827061Y-104759568D01*
X113837369Y-104697989D01*
X113842959Y-104615443D01*
X113845188Y-104507205D01*
X113845474Y-104423504D01*
X113845474Y-104109921D01*
X113678369Y-104109921D01*
X113678369Y-104370033D01*
G36*
X112051924Y-104116919D02*
X111955105Y-104158049D01*
X111924610Y-104178071D01*
X111885635Y-104208840D01*
X111861169Y-104233033D01*
X111856922Y-104240913D01*
X111868916Y-104258399D01*
X111899613Y-104288070D01*
X111924188Y-104308779D01*
X111991454Y-104362836D01*
X112044570Y-104318142D01*
X112085616Y-104289289D01*
X112125637Y-104279329D01*
X112171441Y-104281761D01*
X112244176Y-104299845D01*
X112294244Y-104337381D01*
X112324671Y-104398062D01*
X112338483Y-104485581D01*
X112338487Y-104485636D01*
X112337292Y-104583458D01*
X112318728Y-104655230D01*
X112281696Y-104704095D01*
X112256450Y-104720643D01*
X112189403Y-104741249D01*
X112117791Y-104741262D01*
X112055485Y-104721268D01*
X112040737Y-104711500D01*
X112003750Y-104686547D01*
X111974832Y-104682458D01*
X111943644Y-104701030D01*
X111909164Y-104734387D01*
X111854588Y-104790696D01*
X111915182Y-104840642D01*
X112008802Y-104897013D01*
X112114375Y-104924793D01*
X112224702Y-104922782D01*
X112297157Y-104904362D01*
X112381844Y-104858810D01*
X112449573Y-104787150D01*
X112480343Y-104736566D01*
X112505264Y-104663988D01*
X112517734Y-104572069D01*
X112517830Y-104472448D01*
X112505630Y-104376767D01*
X112481210Y-104296669D01*
X112477364Y-104288456D01*
X112420407Y-104207913D01*
X112343291Y-104149271D01*
X112252110Y-104113747D01*
X112152957Y-104102557D01*
X112051924Y-104116919D01*
X112051924Y-104116919D01*
G37*
X112051924Y-104116919D02*
X111955105Y-104158049D01*
X111924610Y-104178071D01*
X111885635Y-104208840D01*
X111861169Y-104233033D01*
X111856922Y-104240913D01*
X111868916Y-104258399D01*
X111899613Y-104288070D01*
X111924188Y-104308779D01*
X111991454Y-104362836D01*
X112044570Y-104318142D01*
X112085616Y-104289289D01*
X112125637Y-104279329D01*
X112171441Y-104281761D01*
X112244176Y-104299845D01*
X112294244Y-104337381D01*
X112324671Y-104398062D01*
X112338483Y-104485581D01*
X112338487Y-104485636D01*
X112337292Y-104583458D01*
X112318728Y-104655230D01*
X112281696Y-104704095D01*
X112256450Y-104720643D01*
X112189403Y-104741249D01*
X112117791Y-104741262D01*
X112055485Y-104721268D01*
X112040737Y-104711500D01*
X112003750Y-104686547D01*
X111974832Y-104682458D01*
X111943644Y-104701030D01*
X111909164Y-104734387D01*
X111854588Y-104790696D01*
X111915182Y-104840642D01*
X112008802Y-104897013D01*
X112114375Y-104924793D01*
X112224702Y-104922782D01*
X112297157Y-104904362D01*
X112381844Y-104858810D01*
X112449573Y-104787150D01*
X112480343Y-104736566D01*
X112505264Y-104663988D01*
X112517734Y-104572069D01*
X112517830Y-104472448D01*
X112505630Y-104376767D01*
X112481210Y-104296669D01*
X112477364Y-104288456D01*
X112420407Y-104207913D01*
X112343291Y-104149271D01*
X112252110Y-104113747D01*
X112152957Y-104102557D01*
X112051924Y-104116919D01*
G36*
X111439716Y-104107054D02*
X111396926Y-104117449D01*
X111314891Y-104155513D01*
X111244743Y-104213649D01*
X111196195Y-104283352D01*
X111189525Y-104299002D01*
X111180376Y-104339996D01*
X111173971Y-104400638D01*
X111171790Y-104461930D01*
X111171790Y-104577816D01*
X111414093Y-104577816D01*
X111514029Y-104578193D01*
X111584431Y-104580487D01*
X111629187Y-104586438D01*
X111652185Y-104597785D01*
X111657311Y-104616271D01*
X111648452Y-104643636D01*
X111632583Y-104675655D01*
X111588316Y-104729092D01*
X111526801Y-104755715D01*
X111451615Y-104754847D01*
X111366447Y-104725871D01*
X111292841Y-104690111D01*
X111231766Y-104738404D01*
X111170690Y-104786697D01*
X111228149Y-104839785D01*
X111304859Y-104889945D01*
X111399198Y-104920188D01*
X111500673Y-104928651D01*
X111598789Y-104913474D01*
X111614619Y-104908324D01*
X111700853Y-104863291D01*
X111764999Y-104796152D01*
X111808409Y-104704905D01*
X111832436Y-104587544D01*
X111832716Y-104585029D01*
X111834867Y-104457127D01*
X111826171Y-104411497D01*
X111656395Y-104411497D01*
X111640803Y-104418513D01*
X111598471Y-104423888D01*
X111536066Y-104426957D01*
X111496519Y-104427421D01*
X111422772Y-104427130D01*
X111376660Y-104425283D01*
X111352400Y-104420412D01*
X111344206Y-104411055D01*
X111346294Y-104395745D01*
X111348045Y-104389822D01*
X111377940Y-104334168D01*
X111424958Y-104289315D01*
X111466451Y-104269605D01*
X111521574Y-104270795D01*
X111577432Y-104295375D01*
X111624288Y-104336070D01*
X111652406Y-104385608D01*
X111656395Y-104411497D01*
X111826171Y-104411497D01*
X111813426Y-104344633D01*
X111770889Y-104250227D01*
X111709753Y-104176588D01*
X111632515Y-104126393D01*
X111541670Y-104102322D01*
X111439716Y-104107054D01*
X111439716Y-104107054D01*
G37*
X111439716Y-104107054D02*
X111396926Y-104117449D01*
X111314891Y-104155513D01*
X111244743Y-104213649D01*
X111196195Y-104283352D01*
X111189525Y-104299002D01*
X111180376Y-104339996D01*
X111173971Y-104400638D01*
X111171790Y-104461930D01*
X111171790Y-104577816D01*
X111414093Y-104577816D01*
X111514029Y-104578193D01*
X111584431Y-104580487D01*
X111629187Y-104586438D01*
X111652185Y-104597785D01*
X111657311Y-104616271D01*
X111648452Y-104643636D01*
X111632583Y-104675655D01*
X111588316Y-104729092D01*
X111526801Y-104755715D01*
X111451615Y-104754847D01*
X111366447Y-104725871D01*
X111292841Y-104690111D01*
X111231766Y-104738404D01*
X111170690Y-104786697D01*
X111228149Y-104839785D01*
X111304859Y-104889945D01*
X111399198Y-104920188D01*
X111500673Y-104928651D01*
X111598789Y-104913474D01*
X111614619Y-104908324D01*
X111700853Y-104863291D01*
X111764999Y-104796152D01*
X111808409Y-104704905D01*
X111832436Y-104587544D01*
X111832716Y-104585029D01*
X111834867Y-104457127D01*
X111826171Y-104411497D01*
X111656395Y-104411497D01*
X111640803Y-104418513D01*
X111598471Y-104423888D01*
X111536066Y-104426957D01*
X111496519Y-104427421D01*
X111422772Y-104427130D01*
X111376660Y-104425283D01*
X111352400Y-104420412D01*
X111344206Y-104411055D01*
X111346294Y-104395745D01*
X111348045Y-104389822D01*
X111377940Y-104334168D01*
X111424958Y-104289315D01*
X111466451Y-104269605D01*
X111521574Y-104270795D01*
X111577432Y-104295375D01*
X111624288Y-104336070D01*
X111652406Y-104385608D01*
X111656395Y-104411497D01*
X111826171Y-104411497D01*
X111813426Y-104344633D01*
X111770889Y-104250227D01*
X111709753Y-104176588D01*
X111632515Y-104126393D01*
X111541670Y-104102322D01*
X111439716Y-104107054D01*
G36*
X116000543Y-104123726D02*
X115958954Y-104143590D01*
X115918675Y-104172284D01*
X115887990Y-104205309D01*
X115865639Y-104247431D01*
X115850364Y-104303415D01*
X115840908Y-104378028D01*
X115836013Y-104476035D01*
X115834419Y-104602202D01*
X115834394Y-104615414D01*
X115834027Y-104912026D01*
X116017843Y-104912026D01*
X116017843Y-104638581D01*
X116017973Y-104537277D01*
X116018879Y-104463853D01*
X116021327Y-104412771D01*
X116026086Y-104378490D01*
X116033926Y-104355471D01*
X116045615Y-104338173D01*
X116061898Y-104321081D01*
X116118866Y-104284357D01*
X116181055Y-104277542D01*
X116240301Y-104300761D01*
X116260905Y-104318043D01*
X116276030Y-104334291D01*
X116286890Y-104351691D01*
X116294190Y-104375712D01*
X116298637Y-104411822D01*
X116300936Y-104465488D01*
X116301796Y-104542180D01*
X116301922Y-104635543D01*
X116301922Y-104912026D01*
X116485737Y-104912026D01*
X116485737Y-104109921D01*
X116393829Y-104109921D01*
X116338649Y-104112103D01*
X116310180Y-104119851D01*
X116301925Y-104134968D01*
X116301922Y-104135416D01*
X116298092Y-104150220D01*
X116281199Y-104148540D01*
X116247612Y-104132273D01*
X116171437Y-104108340D01*
X116084300Y-104105678D01*
X116000543Y-104123726D01*
X116000543Y-104123726D01*
G37*
X116000543Y-104123726D02*
X115958954Y-104143590D01*
X115918675Y-104172284D01*
X115887990Y-104205309D01*
X115865639Y-104247431D01*
X115850364Y-104303415D01*
X115840908Y-104378028D01*
X115836013Y-104476035D01*
X115834419Y-104602202D01*
X115834394Y-104615414D01*
X115834027Y-104912026D01*
X116017843Y-104912026D01*
X116017843Y-104638581D01*
X116017973Y-104537277D01*
X116018879Y-104463853D01*
X116021327Y-104412771D01*
X116026086Y-104378490D01*
X116033926Y-104355471D01*
X116045615Y-104338173D01*
X116061898Y-104321081D01*
X116118866Y-104284357D01*
X116181055Y-104277542D01*
X116240301Y-104300761D01*
X116260905Y-104318043D01*
X116276030Y-104334291D01*
X116286890Y-104351691D01*
X116294190Y-104375712D01*
X116298637Y-104411822D01*
X116300936Y-104465488D01*
X116301796Y-104542180D01*
X116301922Y-104635543D01*
X116301922Y-104912026D01*
X116485737Y-104912026D01*
X116485737Y-104109921D01*
X116393829Y-104109921D01*
X116338649Y-104112103D01*
X116310180Y-104119851D01*
X116301925Y-104134968D01*
X116301922Y-104135416D01*
X116298092Y-104150220D01*
X116281199Y-104148540D01*
X116247612Y-104132273D01*
X116171437Y-104108340D01*
X116084300Y-104105678D01*
X116000543Y-104123726D01*
G36*
X112607112Y-104109145D02*
X112549635Y-104126706D01*
X112512628Y-104148895D01*
X112500573Y-104166442D01*
X112503891Y-104187242D01*
X112525421Y-104219919D01*
X112543626Y-104243062D01*
X112581156Y-104284902D01*
X112609352Y-104302505D01*
X112633389Y-104301356D01*
X112704692Y-104283210D01*
X112757058Y-104284034D01*
X112799582Y-104304598D01*
X112813858Y-104316634D01*
X112859553Y-104358983D01*
X112859553Y-104912026D01*
X113043369Y-104912026D01*
X113043369Y-104109921D01*
X112951461Y-104109921D01*
X112896281Y-104112103D01*
X112867812Y-104119851D01*
X112859557Y-104134968D01*
X112859553Y-104135416D01*
X112855655Y-104151249D01*
X112838026Y-104149184D01*
X112813599Y-104137761D01*
X112763150Y-104116505D01*
X112722184Y-104103716D01*
X112669472Y-104100438D01*
X112607112Y-104109145D01*
X112607112Y-104109145D01*
G37*
X112607112Y-104109145D02*
X112549635Y-104126706D01*
X112512628Y-104148895D01*
X112500573Y-104166442D01*
X112503891Y-104187242D01*
X112525421Y-104219919D01*
X112543626Y-104243062D01*
X112581156Y-104284902D01*
X112609352Y-104302505D01*
X112633389Y-104301356D01*
X112704692Y-104283210D01*
X112757058Y-104284034D01*
X112799582Y-104304598D01*
X112813858Y-104316634D01*
X112859553Y-104358983D01*
X112859553Y-104912026D01*
X113043369Y-104912026D01*
X113043369Y-104109921D01*
X112951461Y-104109921D01*
X112896281Y-104112103D01*
X112867812Y-104119851D01*
X112859557Y-104134968D01*
X112859553Y-104135416D01*
X112855655Y-104151249D01*
X112838026Y-104149184D01*
X112813599Y-104137761D01*
X112763150Y-104116505D01*
X112722184Y-104103716D01*
X112669472Y-104100438D01*
X112607112Y-104109145D01*
G36*
X114497536Y-98570076D02*
X114421987Y-98970822D01*
X113864459Y-99200654D01*
X113530035Y-98973248D01*
X113436378Y-98909931D01*
X113351718Y-98853396D01*
X113280005Y-98806227D01*
X113225189Y-98771002D01*
X113191220Y-98750305D01*
X113181970Y-98745842D01*
X113165305Y-98757320D01*
X113129694Y-98789051D01*
X113079129Y-98836983D01*
X113017600Y-98897062D01*
X112949101Y-98965233D01*
X112877621Y-99037445D01*
X112807153Y-99109642D01*
X112741689Y-99177773D01*
X112685220Y-99237783D01*
X112641737Y-99285619D01*
X112615232Y-99317227D01*
X112608895Y-99327805D01*
X112618014Y-99347306D01*
X112643580Y-99390031D01*
X112682903Y-99451798D01*
X112733297Y-99528431D01*
X112792073Y-99615748D01*
X112826132Y-99665552D01*
X112888211Y-99756493D01*
X112943374Y-99838559D01*
X112988946Y-99907663D01*
X113022250Y-99959722D01*
X113040610Y-99990650D01*
X113043369Y-99997150D01*
X113037115Y-100015621D01*
X113020066Y-100058672D01*
X112994797Y-100120249D01*
X112963878Y-100194299D01*
X112929882Y-100274770D01*
X112895382Y-100355607D01*
X112862949Y-100430758D01*
X112835157Y-100494171D01*
X112814577Y-100539793D01*
X112803781Y-100561569D01*
X112803144Y-100562426D01*
X112786193Y-100566584D01*
X112741049Y-100575861D01*
X112672390Y-100589344D01*
X112584898Y-100606121D01*
X112483250Y-100625281D01*
X112423944Y-100636330D01*
X112315328Y-100657010D01*
X112217223Y-100676689D01*
X112134591Y-100694289D01*
X112072396Y-100708733D01*
X112035601Y-100718946D01*
X112028204Y-100722186D01*
X112020960Y-100744117D01*
X112015115Y-100793647D01*
X112010665Y-100864985D01*
X112007607Y-100952339D01*
X112005935Y-101049917D01*
X112005647Y-101151926D01*
X112006739Y-101252575D01*
X112009206Y-101346072D01*
X112013044Y-101426625D01*
X112018250Y-101488442D01*
X112024819Y-101525730D01*
X112028759Y-101533493D01*
X112052312Y-101542798D01*
X112102218Y-101556100D01*
X112171877Y-101571837D01*
X112254687Y-101588446D01*
X112283595Y-101593819D01*
X112422969Y-101619348D01*
X112533064Y-101639908D01*
X112617518Y-101656315D01*
X112679970Y-101669387D01*
X112724056Y-101679941D01*
X112753415Y-101688794D01*
X112771685Y-101696763D01*
X112782502Y-101704665D01*
X112784015Y-101706227D01*
X112799123Y-101731386D01*
X112822171Y-101780350D01*
X112850856Y-101847121D01*
X112882878Y-101925705D01*
X112915935Y-102010107D01*
X112947727Y-102094330D01*
X112975951Y-102172379D01*
X112998307Y-102238259D01*
X113012493Y-102285973D01*
X113016207Y-102309527D01*
X113015898Y-102310352D01*
X113003311Y-102329604D01*
X112974756Y-102371963D01*
X112933233Y-102433021D01*
X112881744Y-102508368D01*
X112823289Y-102593596D01*
X112806642Y-102617815D01*
X112747285Y-102705623D01*
X112695053Y-102785738D01*
X112652792Y-102853562D01*
X112623347Y-102904493D01*
X112609563Y-102933931D01*
X112608895Y-102937548D01*
X112620476Y-102956557D01*
X112652476Y-102994214D01*
X112700782Y-103046473D01*
X112761280Y-103109286D01*
X112829856Y-103178606D01*
X112902396Y-103250385D01*
X112974788Y-103320577D01*
X113042916Y-103385135D01*
X113102668Y-103440010D01*
X113149929Y-103481156D01*
X113180587Y-103504526D01*
X113189068Y-103508342D01*
X113208809Y-103499355D01*
X113249226Y-103475116D01*
X113303737Y-103439709D01*
X113345677Y-103411211D01*
X113421671Y-103358918D01*
X113511666Y-103297345D01*
X113601936Y-103235870D01*
X113650468Y-103202969D01*
X113814738Y-103091859D01*
X113952631Y-103166416D01*
X114015451Y-103199078D01*
X114068871Y-103224466D01*
X114105016Y-103238946D01*
X114114216Y-103240960D01*
X114125279Y-103226084D01*
X114147106Y-103184047D01*
X114178066Y-103118727D01*
X114216530Y-103034000D01*
X114260868Y-102933745D01*
X114309453Y-102821839D01*
X114360654Y-102702159D01*
X114412841Y-102578584D01*
X114464387Y-102454991D01*
X114513660Y-102335257D01*
X114559033Y-102223259D01*
X114598875Y-102122877D01*
X114631558Y-102037986D01*
X114655451Y-101972465D01*
X114668926Y-101930190D01*
X114671094Y-101915672D01*
X114653917Y-101897153D01*
X114616310Y-101867090D01*
X114566134Y-101831732D01*
X114561922Y-101828934D01*
X114432236Y-101725125D01*
X114327666Y-101604015D01*
X114249119Y-101469476D01*
X114197501Y-101325382D01*
X114173718Y-101175605D01*
X114178677Y-101024017D01*
X114213283Y-100874492D01*
X114278443Y-100730900D01*
X114297614Y-100699484D01*
X114397326Y-100572625D01*
X114515123Y-100470755D01*
X114646929Y-100394404D01*
X114788667Y-100344102D01*
X114936258Y-100320379D01*
X115085627Y-100323765D01*
X115232697Y-100354788D01*
X115373389Y-100413980D01*
X115503627Y-100501869D01*
X115543914Y-100537542D01*
X115646445Y-100649206D01*
X115721159Y-100766757D01*
X115772410Y-100898520D01*
X115800954Y-101029007D01*
X115808000Y-101175716D01*
X115784504Y-101323153D01*
X115732851Y-101466334D01*
X115655429Y-101600277D01*
X115554625Y-101719998D01*
X115432824Y-101820514D01*
X115416816Y-101831109D01*
X115366102Y-101865806D01*
X115327550Y-101895870D01*
X115309119Y-101915065D01*
X115308851Y-101915672D01*
X115312808Y-101936436D01*
X115328493Y-101983562D01*
X115354278Y-102053173D01*
X115388531Y-102141393D01*
X115429623Y-102244344D01*
X115475924Y-102358150D01*
X115525804Y-102478935D01*
X115577633Y-102602821D01*
X115629781Y-102725932D01*
X115680618Y-102844391D01*
X115728513Y-102954323D01*
X115771838Y-103051849D01*
X115808962Y-103133093D01*
X115838256Y-103194179D01*
X115858088Y-103231230D01*
X115866074Y-103240960D01*
X115890479Y-103233383D01*
X115936142Y-103213060D01*
X115995190Y-103183625D01*
X116027660Y-103166416D01*
X116165553Y-103091859D01*
X116329823Y-103202969D01*
X116413679Y-103259890D01*
X116505487Y-103322530D01*
X116591520Y-103381511D01*
X116634613Y-103411211D01*
X116695223Y-103451910D01*
X116746545Y-103484163D01*
X116781885Y-103503884D01*
X116793363Y-103508054D01*
X116810070Y-103496807D01*
X116847046Y-103465411D01*
X116900705Y-103417124D01*
X116967462Y-103355208D01*
X117043734Y-103282921D01*
X117091973Y-103236508D01*
X117176367Y-103153587D01*
X117249303Y-103079420D01*
X117307831Y-103017180D01*
X117349003Y-102970041D01*
X117369872Y-102941173D01*
X117371874Y-102935315D01*
X117362583Y-102913032D01*
X117336909Y-102867977D01*
X117297700Y-102804711D01*
X117247803Y-102727795D01*
X117190067Y-102641792D01*
X117173649Y-102617815D01*
X117113823Y-102530670D01*
X117060150Y-102452210D01*
X117015630Y-102386845D01*
X116983265Y-102338984D01*
X116966055Y-102313035D01*
X116964393Y-102310352D01*
X116966879Y-102289672D01*
X116980077Y-102244204D01*
X117001686Y-102179944D01*
X117029404Y-102102887D01*
X117060930Y-102019029D01*
X117093963Y-101934366D01*
X117126201Y-101854892D01*
X117155343Y-101786604D01*
X117179088Y-101735497D01*
X117195135Y-101707567D01*
X117196275Y-101706227D01*
X117206088Y-101698245D01*
X117222661Y-101690351D01*
X117249632Y-101681729D01*
X117290639Y-101671562D01*
X117349320Y-101659031D01*
X117429313Y-101643321D01*
X117534255Y-101623613D01*
X117667785Y-101599092D01*
X117696696Y-101593819D01*
X117782382Y-101577264D01*
X117857082Y-101561069D01*
X117914194Y-101546796D01*
X117947117Y-101536008D01*
X117951531Y-101533493D01*
X117958806Y-101511196D01*
X117964719Y-101461369D01*
X117969266Y-101389804D01*
X117972445Y-101302293D01*
X117974249Y-101204628D01*
X117974677Y-101102601D01*
X117973723Y-101002003D01*
X117971384Y-100908627D01*
X117967656Y-100828265D01*
X117962534Y-100766709D01*
X117956016Y-100729750D01*
X117952086Y-100722186D01*
X117930208Y-100714556D01*
X117880391Y-100702142D01*
X117807597Y-100686022D01*
X117716789Y-100667273D01*
X117612931Y-100646971D01*
X117556346Y-100636330D01*
X117448986Y-100616260D01*
X117353246Y-100598080D01*
X117273806Y-100582699D01*
X117215346Y-100571031D01*
X117182545Y-100563988D01*
X117177146Y-100562426D01*
X117168022Y-100544822D01*
X117148735Y-100502418D01*
X117121855Y-100441272D01*
X117089954Y-100367443D01*
X117055602Y-100286989D01*
X117021371Y-100205968D01*
X116989831Y-100130437D01*
X116963554Y-100066455D01*
X116945111Y-100020080D01*
X116937071Y-99997369D01*
X116936922Y-99996376D01*
X116946035Y-99978461D01*
X116971586Y-99937233D01*
X117010888Y-99876791D01*
X117061257Y-99801231D01*
X117120006Y-99714652D01*
X117154158Y-99664921D01*
X117216390Y-99573736D01*
X117271664Y-99490949D01*
X117317282Y-99420749D01*
X117350548Y-99367324D01*
X117368764Y-99334861D01*
X117371395Y-99327583D01*
X117360086Y-99310645D01*
X117328819Y-99274478D01*
X117281590Y-99223135D01*
X117222392Y-99160667D01*
X117155219Y-99091126D01*
X117084066Y-99018565D01*
X117012926Y-98947035D01*
X116945793Y-98880587D01*
X116886661Y-98823274D01*
X116839525Y-98779147D01*
X116808377Y-98752259D01*
X116797957Y-98745842D01*
X116780991Y-98754865D01*
X116740411Y-98780215D01*
X116680163Y-98819310D01*
X116604193Y-98869571D01*
X116516446Y-98928417D01*
X116450256Y-98973248D01*
X116115832Y-99200654D01*
X115837067Y-99085738D01*
X115558303Y-98970822D01*
X115482754Y-98570076D01*
X115407206Y-98169329D01*
X114573085Y-98169329D01*
X114497536Y-98570076D01*
X114497536Y-98570076D01*
G37*
X114497536Y-98570076D02*
X114421987Y-98970822D01*
X113864459Y-99200654D01*
X113530035Y-98973248D01*
X113436378Y-98909931D01*
X113351718Y-98853396D01*
X113280005Y-98806227D01*
X113225189Y-98771002D01*
X113191220Y-98750305D01*
X113181970Y-98745842D01*
X113165305Y-98757320D01*
X113129694Y-98789051D01*
X113079129Y-98836983D01*
X113017600Y-98897062D01*
X112949101Y-98965233D01*
X112877621Y-99037445D01*
X112807153Y-99109642D01*
X112741689Y-99177773D01*
X112685220Y-99237783D01*
X112641737Y-99285619D01*
X112615232Y-99317227D01*
X112608895Y-99327805D01*
X112618014Y-99347306D01*
X112643580Y-99390031D01*
X112682903Y-99451798D01*
X112733297Y-99528431D01*
X112792073Y-99615748D01*
X112826132Y-99665552D01*
X112888211Y-99756493D01*
X112943374Y-99838559D01*
X112988946Y-99907663D01*
X113022250Y-99959722D01*
X113040610Y-99990650D01*
X113043369Y-99997150D01*
X113037115Y-100015621D01*
X113020066Y-100058672D01*
X112994797Y-100120249D01*
X112963878Y-100194299D01*
X112929882Y-100274770D01*
X112895382Y-100355607D01*
X112862949Y-100430758D01*
X112835157Y-100494171D01*
X112814577Y-100539793D01*
X112803781Y-100561569D01*
X112803144Y-100562426D01*
X112786193Y-100566584D01*
X112741049Y-100575861D01*
X112672390Y-100589344D01*
X112584898Y-100606121D01*
X112483250Y-100625281D01*
X112423944Y-100636330D01*
X112315328Y-100657010D01*
X112217223Y-100676689D01*
X112134591Y-100694289D01*
X112072396Y-100708733D01*
X112035601Y-100718946D01*
X112028204Y-100722186D01*
X112020960Y-100744117D01*
X112015115Y-100793647D01*
X112010665Y-100864985D01*
X112007607Y-100952339D01*
X112005935Y-101049917D01*
X112005647Y-101151926D01*
X112006739Y-101252575D01*
X112009206Y-101346072D01*
X112013044Y-101426625D01*
X112018250Y-101488442D01*
X112024819Y-101525730D01*
X112028759Y-101533493D01*
X112052312Y-101542798D01*
X112102218Y-101556100D01*
X112171877Y-101571837D01*
X112254687Y-101588446D01*
X112283595Y-101593819D01*
X112422969Y-101619348D01*
X112533064Y-101639908D01*
X112617518Y-101656315D01*
X112679970Y-101669387D01*
X112724056Y-101679941D01*
X112753415Y-101688794D01*
X112771685Y-101696763D01*
X112782502Y-101704665D01*
X112784015Y-101706227D01*
X112799123Y-101731386D01*
X112822171Y-101780350D01*
X112850856Y-101847121D01*
X112882878Y-101925705D01*
X112915935Y-102010107D01*
X112947727Y-102094330D01*
X112975951Y-102172379D01*
X112998307Y-102238259D01*
X113012493Y-102285973D01*
X113016207Y-102309527D01*
X113015898Y-102310352D01*
X113003311Y-102329604D01*
X112974756Y-102371963D01*
X112933233Y-102433021D01*
X112881744Y-102508368D01*
X112823289Y-102593596D01*
X112806642Y-102617815D01*
X112747285Y-102705623D01*
X112695053Y-102785738D01*
X112652792Y-102853562D01*
X112623347Y-102904493D01*
X112609563Y-102933931D01*
X112608895Y-102937548D01*
X112620476Y-102956557D01*
X112652476Y-102994214D01*
X112700782Y-103046473D01*
X112761280Y-103109286D01*
X112829856Y-103178606D01*
X112902396Y-103250385D01*
X112974788Y-103320577D01*
X113042916Y-103385135D01*
X113102668Y-103440010D01*
X113149929Y-103481156D01*
X113180587Y-103504526D01*
X113189068Y-103508342D01*
X113208809Y-103499355D01*
X113249226Y-103475116D01*
X113303737Y-103439709D01*
X113345677Y-103411211D01*
X113421671Y-103358918D01*
X113511666Y-103297345D01*
X113601936Y-103235870D01*
X113650468Y-103202969D01*
X113814738Y-103091859D01*
X113952631Y-103166416D01*
X114015451Y-103199078D01*
X114068871Y-103224466D01*
X114105016Y-103238946D01*
X114114216Y-103240960D01*
X114125279Y-103226084D01*
X114147106Y-103184047D01*
X114178066Y-103118727D01*
X114216530Y-103034000D01*
X114260868Y-102933745D01*
X114309453Y-102821839D01*
X114360654Y-102702159D01*
X114412841Y-102578584D01*
X114464387Y-102454991D01*
X114513660Y-102335257D01*
X114559033Y-102223259D01*
X114598875Y-102122877D01*
X114631558Y-102037986D01*
X114655451Y-101972465D01*
X114668926Y-101930190D01*
X114671094Y-101915672D01*
X114653917Y-101897153D01*
X114616310Y-101867090D01*
X114566134Y-101831732D01*
X114561922Y-101828934D01*
X114432236Y-101725125D01*
X114327666Y-101604015D01*
X114249119Y-101469476D01*
X114197501Y-101325382D01*
X114173718Y-101175605D01*
X114178677Y-101024017D01*
X114213283Y-100874492D01*
X114278443Y-100730900D01*
X114297614Y-100699484D01*
X114397326Y-100572625D01*
X114515123Y-100470755D01*
X114646929Y-100394404D01*
X114788667Y-100344102D01*
X114936258Y-100320379D01*
X115085627Y-100323765D01*
X115232697Y-100354788D01*
X115373389Y-100413980D01*
X115503627Y-100501869D01*
X115543914Y-100537542D01*
X115646445Y-100649206D01*
X115721159Y-100766757D01*
X115772410Y-100898520D01*
X115800954Y-101029007D01*
X115808000Y-101175716D01*
X115784504Y-101323153D01*
X115732851Y-101466334D01*
X115655429Y-101600277D01*
X115554625Y-101719998D01*
X115432824Y-101820514D01*
X115416816Y-101831109D01*
X115366102Y-101865806D01*
X115327550Y-101895870D01*
X115309119Y-101915065D01*
X115308851Y-101915672D01*
X115312808Y-101936436D01*
X115328493Y-101983562D01*
X115354278Y-102053173D01*
X115388531Y-102141393D01*
X115429623Y-102244344D01*
X115475924Y-102358150D01*
X115525804Y-102478935D01*
X115577633Y-102602821D01*
X115629781Y-102725932D01*
X115680618Y-102844391D01*
X115728513Y-102954323D01*
X115771838Y-103051849D01*
X115808962Y-103133093D01*
X115838256Y-103194179D01*
X115858088Y-103231230D01*
X115866074Y-103240960D01*
X115890479Y-103233383D01*
X115936142Y-103213060D01*
X115995190Y-103183625D01*
X116027660Y-103166416D01*
X116165553Y-103091859D01*
X116329823Y-103202969D01*
X116413679Y-103259890D01*
X116505487Y-103322530D01*
X116591520Y-103381511D01*
X116634613Y-103411211D01*
X116695223Y-103451910D01*
X116746545Y-103484163D01*
X116781885Y-103503884D01*
X116793363Y-103508054D01*
X116810070Y-103496807D01*
X116847046Y-103465411D01*
X116900705Y-103417124D01*
X116967462Y-103355208D01*
X117043734Y-103282921D01*
X117091973Y-103236508D01*
X117176367Y-103153587D01*
X117249303Y-103079420D01*
X117307831Y-103017180D01*
X117349003Y-102970041D01*
X117369872Y-102941173D01*
X117371874Y-102935315D01*
X117362583Y-102913032D01*
X117336909Y-102867977D01*
X117297700Y-102804711D01*
X117247803Y-102727795D01*
X117190067Y-102641792D01*
X117173649Y-102617815D01*
X117113823Y-102530670D01*
X117060150Y-102452210D01*
X117015630Y-102386845D01*
X116983265Y-102338984D01*
X116966055Y-102313035D01*
X116964393Y-102310352D01*
X116966879Y-102289672D01*
X116980077Y-102244204D01*
X117001686Y-102179944D01*
X117029404Y-102102887D01*
X117060930Y-102019029D01*
X117093963Y-101934366D01*
X117126201Y-101854892D01*
X117155343Y-101786604D01*
X117179088Y-101735497D01*
X117195135Y-101707567D01*
X117196275Y-101706227D01*
X117206088Y-101698245D01*
X117222661Y-101690351D01*
X117249632Y-101681729D01*
X117290639Y-101671562D01*
X117349320Y-101659031D01*
X117429313Y-101643321D01*
X117534255Y-101623613D01*
X117667785Y-101599092D01*
X117696696Y-101593819D01*
X117782382Y-101577264D01*
X117857082Y-101561069D01*
X117914194Y-101546796D01*
X117947117Y-101536008D01*
X117951531Y-101533493D01*
X117958806Y-101511196D01*
X117964719Y-101461369D01*
X117969266Y-101389804D01*
X117972445Y-101302293D01*
X117974249Y-101204628D01*
X117974677Y-101102601D01*
X117973723Y-101002003D01*
X117971384Y-100908627D01*
X117967656Y-100828265D01*
X117962534Y-100766709D01*
X117956016Y-100729750D01*
X117952086Y-100722186D01*
X117930208Y-100714556D01*
X117880391Y-100702142D01*
X117807597Y-100686022D01*
X117716789Y-100667273D01*
X117612931Y-100646971D01*
X117556346Y-100636330D01*
X117448986Y-100616260D01*
X117353246Y-100598080D01*
X117273806Y-100582699D01*
X117215346Y-100571031D01*
X117182545Y-100563988D01*
X117177146Y-100562426D01*
X117168022Y-100544822D01*
X117148735Y-100502418D01*
X117121855Y-100441272D01*
X117089954Y-100367443D01*
X117055602Y-100286989D01*
X117021371Y-100205968D01*
X116989831Y-100130437D01*
X116963554Y-100066455D01*
X116945111Y-100020080D01*
X116937071Y-99997369D01*
X116936922Y-99996376D01*
X116946035Y-99978461D01*
X116971586Y-99937233D01*
X117010888Y-99876791D01*
X117061257Y-99801231D01*
X117120006Y-99714652D01*
X117154158Y-99664921D01*
X117216390Y-99573736D01*
X117271664Y-99490949D01*
X117317282Y-99420749D01*
X117350548Y-99367324D01*
X117368764Y-99334861D01*
X117371395Y-99327583D01*
X117360086Y-99310645D01*
X117328819Y-99274478D01*
X117281590Y-99223135D01*
X117222392Y-99160667D01*
X117155219Y-99091126D01*
X117084066Y-99018565D01*
X117012926Y-98947035D01*
X116945793Y-98880587D01*
X116886661Y-98823274D01*
X116839525Y-98779147D01*
X116808377Y-98752259D01*
X116797957Y-98745842D01*
X116780991Y-98754865D01*
X116740411Y-98780215D01*
X116680163Y-98819310D01*
X116604193Y-98869571D01*
X116516446Y-98928417D01*
X116450256Y-98973248D01*
X116115832Y-99200654D01*
X115837067Y-99085738D01*
X115558303Y-98970822D01*
X115482754Y-98570076D01*
X115407206Y-98169329D01*
X114573085Y-98169329D01*
X114497536Y-98570076D01*
M02*
