G04 #@! TF.FileFunction,Legend,Top*
%FSLAX46Y46*%
G04 Gerber Fmt 4.6, Leading zero omitted, Abs format (unit mm)*
G04 Created by KiCad (PCBNEW 4.0.7) date 01/19/18 12:17:46*
%MOMM*%
%LPD*%
G01*
G04 APERTURE LIST*
%ADD10C,0.100000*%
%ADD11C,0.200000*%
%ADD12C,0.508000*%
%ADD13C,0.300000*%
%ADD14C,0.203200*%
%ADD15C,0.066040*%
%ADD16C,0.254000*%
%ADD17C,0.101600*%
%ADD18C,0.398780*%
G04 APERTURE END LIST*
D10*
D11*
X134181905Y-81762476D02*
X134181905Y-81267238D01*
X134486667Y-81533905D01*
X134486667Y-81419619D01*
X134524762Y-81343429D01*
X134562857Y-81305333D01*
X134639048Y-81267238D01*
X134829524Y-81267238D01*
X134905714Y-81305333D01*
X134943810Y-81343429D01*
X134981905Y-81419619D01*
X134981905Y-81648191D01*
X134943810Y-81724381D01*
X134905714Y-81762476D01*
X134181905Y-81038667D02*
X134981905Y-80772000D01*
X134181905Y-80505333D01*
X134181905Y-80314857D02*
X134181905Y-79819619D01*
X134486667Y-80086286D01*
X134486667Y-79972000D01*
X134524762Y-79895810D01*
X134562857Y-79857714D01*
X134639048Y-79819619D01*
X134829524Y-79819619D01*
X134905714Y-79857714D01*
X134943810Y-79895810D01*
X134981905Y-79972000D01*
X134981905Y-80200572D01*
X134943810Y-80276762D01*
X134905714Y-80314857D01*
X153860572Y-87890333D02*
X154241524Y-87890333D01*
X153784381Y-88118905D02*
X154051048Y-87318905D01*
X154317715Y-88118905D01*
X154965334Y-87318905D02*
X154584381Y-87318905D01*
X154546286Y-87699857D01*
X154584381Y-87661762D01*
X154660572Y-87623667D01*
X154851048Y-87623667D01*
X154927238Y-87661762D01*
X154965334Y-87699857D01*
X155003429Y-87776048D01*
X155003429Y-87966524D01*
X154965334Y-88042714D01*
X154927238Y-88080810D01*
X154851048Y-88118905D01*
X154660572Y-88118905D01*
X154584381Y-88080810D01*
X154546286Y-88042714D01*
X151320572Y-87890333D02*
X151701524Y-87890333D01*
X151244381Y-88118905D02*
X151511048Y-87318905D01*
X151777715Y-88118905D01*
X152387238Y-87318905D02*
X152234857Y-87318905D01*
X152158667Y-87357000D01*
X152120572Y-87395095D01*
X152044381Y-87509381D01*
X152006286Y-87661762D01*
X152006286Y-87966524D01*
X152044381Y-88042714D01*
X152082476Y-88080810D01*
X152158667Y-88118905D01*
X152311048Y-88118905D01*
X152387238Y-88080810D01*
X152425334Y-88042714D01*
X152463429Y-87966524D01*
X152463429Y-87776048D01*
X152425334Y-87699857D01*
X152387238Y-87661762D01*
X152311048Y-87623667D01*
X152158667Y-87623667D01*
X152082476Y-87661762D01*
X152044381Y-87699857D01*
X152006286Y-87776048D01*
D12*
X150622000Y-79248000D02*
X150622000Y-81635600D01*
X153162000Y-79248000D02*
X153162000Y-81635600D01*
X150622000Y-86969600D02*
X150622000Y-88493600D01*
X153162000Y-86969600D02*
X153162000Y-88493600D01*
X147828000Y-79248000D02*
X147828000Y-91948000D01*
D13*
X106899971Y-111298999D02*
X106899971Y-110298999D01*
X108399971Y-110941856D01*
X107828543Y-109727571D02*
X107828543Y-108584714D01*
X108399971Y-107084714D02*
X108399971Y-107941857D01*
X108399971Y-107513285D02*
X106899971Y-107513285D01*
X107114257Y-107656142D01*
X107257114Y-107799000D01*
X107328543Y-107941857D01*
X106899971Y-105727571D02*
X106899971Y-106441857D01*
X107614257Y-106513286D01*
X107542829Y-106441857D01*
X107471400Y-106299000D01*
X107471400Y-105941857D01*
X107542829Y-105799000D01*
X107614257Y-105727571D01*
X107757114Y-105656143D01*
X108114257Y-105656143D01*
X108257114Y-105727571D01*
X108328543Y-105799000D01*
X108399971Y-105941857D01*
X108399971Y-106299000D01*
X108328543Y-106441857D01*
X108257114Y-106513286D01*
X106899971Y-105227572D02*
X108399971Y-104727572D01*
X106899971Y-104227572D01*
X108399971Y-103727572D02*
X106899971Y-103727572D01*
X106899971Y-103370429D01*
X106971400Y-103156144D01*
X107114257Y-103013286D01*
X107257114Y-102941858D01*
X107542829Y-102870429D01*
X107757114Y-102870429D01*
X108042829Y-102941858D01*
X108185686Y-103013286D01*
X108328543Y-103156144D01*
X108399971Y-103370429D01*
X108399971Y-103727572D01*
X108257114Y-101370429D02*
X108328543Y-101441858D01*
X108399971Y-101656144D01*
X108399971Y-101799001D01*
X108328543Y-102013286D01*
X108185686Y-102156144D01*
X108042829Y-102227572D01*
X107757114Y-102299001D01*
X107542829Y-102299001D01*
X107257114Y-102227572D01*
X107114257Y-102156144D01*
X106971400Y-102013286D01*
X106899971Y-101799001D01*
X106899971Y-101656144D01*
X106971400Y-101441858D01*
X107042829Y-101370429D01*
D11*
X118414857Y-102244514D02*
X119329143Y-102244514D01*
X112445857Y-102269914D02*
X113360143Y-102269914D01*
X112903000Y-102727057D02*
X112903000Y-101812771D01*
D12*
X177647600Y-106984800D02*
X177647600Y-108356400D01*
X171348400Y-106984800D02*
X171348400Y-108305600D01*
X164947600Y-106934000D02*
X164947600Y-108305600D01*
X158750000Y-108458000D02*
X158750000Y-106883200D01*
X183896000Y-108458000D02*
X158750000Y-108458000D01*
X183896000Y-106883200D02*
X183896000Y-108458000D01*
X158750000Y-106883200D02*
X183896000Y-106883200D01*
X186182000Y-86969600D02*
X186182000Y-88493600D01*
X191262000Y-86868000D02*
X191262000Y-88595200D01*
X188722000Y-86918800D02*
X188722000Y-88544400D01*
X191262000Y-79248000D02*
X191262000Y-81635600D01*
X188722000Y-79248000D02*
X188722000Y-81686400D01*
X186182000Y-79248000D02*
X186182000Y-81686400D01*
X183743600Y-90322400D02*
X193700400Y-90322400D01*
X193700400Y-88646000D02*
X183743600Y-88646000D01*
X183743600Y-86868000D02*
X193700400Y-86868000D01*
X193700400Y-84328000D02*
X183743600Y-84328000D01*
X183692800Y-81788000D02*
X193700400Y-81788000D01*
X193802000Y-91948000D02*
X193802000Y-79248000D01*
X187198000Y-91948000D02*
X193802000Y-91948000D01*
X183642000Y-79248000D02*
X183642000Y-91948000D01*
X173482000Y-86868000D02*
X173482000Y-88595200D01*
X178562000Y-86969600D02*
X178562000Y-88544400D01*
X176022000Y-86918800D02*
X176022000Y-88493600D01*
X173482000Y-79248000D02*
X173482000Y-81635600D01*
X178562000Y-79248000D02*
X178562000Y-81635600D01*
X176022000Y-79248000D02*
X176022000Y-81737200D01*
X181000400Y-90322400D02*
X171043600Y-90322400D01*
X170992800Y-88646000D02*
X181000400Y-88646000D01*
X170992800Y-86868000D02*
X180949600Y-86868000D01*
X181051200Y-84328000D02*
X171094400Y-84328000D01*
X170942000Y-81788000D02*
X181000400Y-81788000D01*
X170942000Y-91948000D02*
X170942000Y-79248000D01*
X181102000Y-91948000D02*
X170942000Y-91948000D01*
X181102000Y-79248000D02*
X181102000Y-91948000D01*
X165862000Y-86918800D02*
X165862000Y-88493600D01*
X163322000Y-86969600D02*
X163322000Y-88544400D01*
X160782000Y-86969600D02*
X160782000Y-88544400D01*
X158242000Y-87020400D02*
X158242000Y-88544400D01*
X155702000Y-86969600D02*
X155702000Y-88493600D01*
X165862000Y-79248000D02*
X165862000Y-81788000D01*
X163322000Y-79248000D02*
X163322000Y-81635600D01*
X160782000Y-79248000D02*
X160782000Y-81584800D01*
X158242000Y-79248000D02*
X158242000Y-81534000D01*
X155702000Y-79248000D02*
X155702000Y-81635600D01*
X147828000Y-90322400D02*
X168249600Y-90322400D01*
X168351200Y-88646000D02*
X147828000Y-88646000D01*
X147828000Y-86868000D02*
X168351200Y-86868000D01*
X168351200Y-84328000D02*
X147828000Y-84328000D01*
X147828000Y-81788000D02*
X168402000Y-81788000D01*
X168402000Y-91948000D02*
X168402000Y-79248000D01*
X147828000Y-91948000D02*
X168402000Y-91948000D01*
X127711200Y-81788000D02*
X127711200Y-79248000D01*
X127711200Y-86004400D02*
X127711200Y-84429600D01*
X122529600Y-86055200D02*
X133045200Y-86055200D01*
X122478800Y-84328000D02*
X133096000Y-84328000D01*
X122428000Y-81788000D02*
X133096000Y-81788000D01*
X133096000Y-87630000D02*
X133096000Y-79298800D01*
X122428000Y-87630000D02*
X133096000Y-87630000D01*
X122428000Y-79248000D02*
X122428000Y-87630000D01*
X114858800Y-88239600D02*
X114858800Y-86664800D01*
X120446800Y-86614000D02*
X109270800Y-86614000D01*
X109270800Y-88239600D02*
X109270800Y-79146400D01*
X120446800Y-88239600D02*
X109270800Y-88239600D01*
X120446800Y-79146400D02*
X120446800Y-88239600D01*
X109270800Y-79146400D02*
X120446800Y-79146400D01*
D13*
X183232357Y-87220215D02*
X182032357Y-87220215D01*
X182032357Y-86763072D01*
X182089500Y-86648786D01*
X182146643Y-86591643D01*
X182260929Y-86534500D01*
X182432357Y-86534500D01*
X182546643Y-86591643D01*
X182603786Y-86648786D01*
X182660929Y-86763072D01*
X182660929Y-87220215D01*
X182032357Y-86134500D02*
X183232357Y-85848786D01*
X182375214Y-85620215D01*
X183232357Y-85391643D01*
X182032357Y-85105929D01*
X183232357Y-84648786D02*
X182032357Y-84648786D01*
X182889500Y-84248786D01*
X182032357Y-83848786D01*
X183232357Y-83848786D01*
X170348214Y-86826572D02*
X170405357Y-86655143D01*
X170405357Y-86369429D01*
X170348214Y-86255143D01*
X170291071Y-86198000D01*
X170176786Y-86140857D01*
X170062500Y-86140857D01*
X169948214Y-86198000D01*
X169891071Y-86255143D01*
X169833929Y-86369429D01*
X169776786Y-86598000D01*
X169719643Y-86712286D01*
X169662500Y-86769429D01*
X169548214Y-86826572D01*
X169433929Y-86826572D01*
X169319643Y-86769429D01*
X169262500Y-86712286D01*
X169205357Y-86598000D01*
X169205357Y-86312286D01*
X169262500Y-86140857D01*
X170405357Y-85626572D02*
X169205357Y-85626572D01*
X169205357Y-85169429D01*
X169262500Y-85055143D01*
X169319643Y-84998000D01*
X169433929Y-84940857D01*
X169605357Y-84940857D01*
X169719643Y-84998000D01*
X169776786Y-85055143D01*
X169833929Y-85169429D01*
X169833929Y-85626572D01*
X170405357Y-84426572D02*
X169205357Y-84426572D01*
X147012000Y-87083714D02*
X147012000Y-86512285D01*
X147354857Y-87197999D02*
X146154857Y-86797999D01*
X147354857Y-86397999D01*
X147354857Y-85998000D02*
X146154857Y-85998000D01*
X146154857Y-85712285D01*
X146212000Y-85540857D01*
X146326286Y-85426571D01*
X146440571Y-85369428D01*
X146669143Y-85312285D01*
X146840571Y-85312285D01*
X147069143Y-85369428D01*
X147183429Y-85426571D01*
X147297714Y-85540857D01*
X147354857Y-85712285D01*
X147354857Y-85998000D01*
X147240571Y-84112285D02*
X147297714Y-84169428D01*
X147354857Y-84340857D01*
X147354857Y-84455143D01*
X147297714Y-84626571D01*
X147183429Y-84740857D01*
X147069143Y-84798000D01*
X146840571Y-84855143D01*
X146669143Y-84855143D01*
X146440571Y-84798000D01*
X146326286Y-84740857D01*
X146212000Y-84626571D01*
X146154857Y-84455143D01*
X146154857Y-84340857D01*
X146212000Y-84169428D01*
X146269143Y-84112285D01*
D11*
X161043817Y-102933500D02*
G75*
G03X161043817Y-102933500I-261817J0D01*
G01*
X195688048Y-103485905D02*
X195688048Y-102685905D01*
X196030905Y-103447810D02*
X196145191Y-103485905D01*
X196335667Y-103485905D01*
X196411857Y-103447810D01*
X196449953Y-103409714D01*
X196488048Y-103333524D01*
X196488048Y-103257333D01*
X196449953Y-103181143D01*
X196411857Y-103143048D01*
X196335667Y-103104952D01*
X196183286Y-103066857D01*
X196107095Y-103028762D01*
X196069000Y-102990667D01*
X196030905Y-102914476D01*
X196030905Y-102838286D01*
X196069000Y-102762095D01*
X196107095Y-102724000D01*
X196183286Y-102685905D01*
X196373762Y-102685905D01*
X196488048Y-102724000D01*
X196830905Y-103485905D02*
X196830905Y-102685905D01*
X197135667Y-102685905D01*
X197211858Y-102724000D01*
X197249953Y-102762095D01*
X197288048Y-102838286D01*
X197288048Y-102952571D01*
X197249953Y-103028762D01*
X197211858Y-103066857D01*
X197135667Y-103104952D01*
X196830905Y-103104952D01*
X101962000Y-109004023D02*
X101923905Y-109080214D01*
X101923905Y-109194499D01*
X101962000Y-109308785D01*
X102038190Y-109384976D01*
X102114381Y-109423071D01*
X102266762Y-109461166D01*
X102381048Y-109461166D01*
X102533429Y-109423071D01*
X102609619Y-109384976D01*
X102685810Y-109308785D01*
X102723905Y-109194499D01*
X102723905Y-109118309D01*
X102685810Y-109004023D01*
X102647714Y-108965928D01*
X102381048Y-108965928D01*
X102381048Y-109118309D01*
X102723905Y-108623071D02*
X101923905Y-108623071D01*
X102723905Y-108165928D01*
X101923905Y-108165928D01*
X102723905Y-107784976D02*
X101923905Y-107784976D01*
X101923905Y-107594500D01*
X101962000Y-107480214D01*
X102038190Y-107404023D01*
X102114381Y-107365928D01*
X102266762Y-107327833D01*
X102381048Y-107327833D01*
X102533429Y-107365928D01*
X102609619Y-107404023D01*
X102685810Y-107480214D01*
X102723905Y-107594500D01*
X102723905Y-107784976D01*
X102685810Y-90252309D02*
X102723905Y-90138023D01*
X102723905Y-89947547D01*
X102685810Y-89871357D01*
X102647714Y-89833261D01*
X102571524Y-89795166D01*
X102495333Y-89795166D01*
X102419143Y-89833261D01*
X102381048Y-89871357D01*
X102342952Y-89947547D01*
X102304857Y-90099928D01*
X102266762Y-90176119D01*
X102228667Y-90214214D01*
X102152476Y-90252309D01*
X102076286Y-90252309D01*
X102000095Y-90214214D01*
X101962000Y-90176119D01*
X101923905Y-90099928D01*
X101923905Y-89909452D01*
X101962000Y-89795166D01*
X102723905Y-89452309D02*
X101923905Y-89452309D01*
X102304857Y-89452309D02*
X102304857Y-88995166D01*
X102723905Y-88995166D02*
X101923905Y-88995166D01*
X102723905Y-88614214D02*
X101923905Y-88614214D01*
X102304857Y-88233262D02*
X102304857Y-87966595D01*
X102723905Y-87852309D02*
X102723905Y-88233262D01*
X101923905Y-88233262D01*
X101923905Y-87852309D01*
X102723905Y-87128499D02*
X102723905Y-87509452D01*
X101923905Y-87509452D01*
X102723905Y-86861833D02*
X101923905Y-86861833D01*
X101923905Y-86671357D01*
X101962000Y-86557071D01*
X102038190Y-86480880D01*
X102114381Y-86442785D01*
X102266762Y-86404690D01*
X102381048Y-86404690D01*
X102533429Y-86442785D01*
X102609619Y-86480880D01*
X102685810Y-86557071D01*
X102723905Y-86671357D01*
X102723905Y-86861833D01*
X135058095Y-85007332D02*
X135020000Y-85083523D01*
X134943810Y-85159713D01*
X134829524Y-85273999D01*
X134791429Y-85350190D01*
X134791429Y-85426380D01*
X134981905Y-85388285D02*
X134943810Y-85464475D01*
X134867619Y-85540666D01*
X134715238Y-85578761D01*
X134448571Y-85578761D01*
X134296190Y-85540666D01*
X134220000Y-85464475D01*
X134181905Y-85388285D01*
X134181905Y-85235904D01*
X134220000Y-85159713D01*
X134296190Y-85083523D01*
X134448571Y-85045428D01*
X134715238Y-85045428D01*
X134867619Y-85083523D01*
X134943810Y-85159713D01*
X134981905Y-85235904D01*
X134981905Y-85388285D01*
X134181905Y-84778761D02*
X134981905Y-84588285D01*
X134410476Y-84435904D01*
X134981905Y-84283523D01*
X134181905Y-84093047D01*
X134981905Y-83788285D02*
X134181905Y-83788285D01*
X134981905Y-83407333D02*
X134181905Y-83407333D01*
X134905714Y-82569238D02*
X134943810Y-82607333D01*
X134981905Y-82721619D01*
X134981905Y-82797809D01*
X134943810Y-82912095D01*
X134867619Y-82988286D01*
X134791429Y-83026381D01*
X134639048Y-83064476D01*
X134524762Y-83064476D01*
X134372381Y-83026381D01*
X134296190Y-82988286D01*
X134220000Y-82912095D01*
X134181905Y-82797809D01*
X134181905Y-82721619D01*
X134220000Y-82607333D01*
X134258095Y-82569238D01*
X189147595Y-110153405D02*
X188880928Y-109772452D01*
X188690452Y-110153405D02*
X188690452Y-109353405D01*
X188995214Y-109353405D01*
X189071405Y-109391500D01*
X189109500Y-109429595D01*
X189147595Y-109505786D01*
X189147595Y-109620071D01*
X189109500Y-109696262D01*
X189071405Y-109734357D01*
X188995214Y-109772452D01*
X188690452Y-109772452D01*
X189490452Y-109734357D02*
X189757119Y-109734357D01*
X189871405Y-110153405D02*
X189490452Y-110153405D01*
X189490452Y-109353405D01*
X189871405Y-109353405D01*
X190176167Y-110115310D02*
X190290453Y-110153405D01*
X190480929Y-110153405D01*
X190557119Y-110115310D01*
X190595215Y-110077214D01*
X190633310Y-110001024D01*
X190633310Y-109924833D01*
X190595215Y-109848643D01*
X190557119Y-109810548D01*
X190480929Y-109772452D01*
X190328548Y-109734357D01*
X190252357Y-109696262D01*
X190214262Y-109658167D01*
X190176167Y-109581976D01*
X190176167Y-109505786D01*
X190214262Y-109429595D01*
X190252357Y-109391500D01*
X190328548Y-109353405D01*
X190519024Y-109353405D01*
X190633310Y-109391500D01*
X190976167Y-109734357D02*
X191242834Y-109734357D01*
X191357120Y-110153405D02*
X190976167Y-110153405D01*
X190976167Y-109353405D01*
X191357120Y-109353405D01*
X191585691Y-109353405D02*
X192042834Y-109353405D01*
X191814263Y-110153405D02*
X191814263Y-109353405D01*
X164973000Y-108458000D02*
X164973000Y-106870500D01*
X171323000Y-108458000D02*
X171323000Y-106870500D01*
X177673000Y-108458000D02*
X177673000Y-106870500D01*
X158750000Y-106870500D02*
X158750000Y-108394500D01*
X181229000Y-106870500D02*
X158750000Y-106870500D01*
X183896000Y-106870500D02*
X183896000Y-108458000D01*
X181165500Y-106870500D02*
X183896000Y-106870500D01*
X158750000Y-108458000D02*
X183896000Y-108458000D01*
X180651167Y-108057905D02*
X180384500Y-107676952D01*
X180194024Y-108057905D02*
X180194024Y-107257905D01*
X180498786Y-107257905D01*
X180574977Y-107296000D01*
X180613072Y-107334095D01*
X180651167Y-107410286D01*
X180651167Y-107524571D01*
X180613072Y-107600762D01*
X180574977Y-107638857D01*
X180498786Y-107676952D01*
X180194024Y-107676952D01*
X180917834Y-107257905D02*
X181451167Y-108057905D01*
X181451167Y-107257905D02*
X180917834Y-108057905D01*
X173888476Y-107257905D02*
X174345619Y-107257905D01*
X174117048Y-108057905D02*
X174117048Y-107257905D01*
X174536096Y-107257905D02*
X175069429Y-108057905D01*
X175069429Y-107257905D02*
X174536096Y-108057905D01*
X160731333Y-108057905D02*
X160731333Y-107257905D01*
X161036095Y-107257905D01*
X161112286Y-107296000D01*
X161150381Y-107334095D01*
X161188476Y-107410286D01*
X161188476Y-107524571D01*
X161150381Y-107600762D01*
X161112286Y-107638857D01*
X161036095Y-107676952D01*
X160731333Y-107676952D01*
X161455143Y-107257905D02*
X161645619Y-108057905D01*
X161798000Y-107486476D01*
X161950381Y-108057905D01*
X162140857Y-107257905D01*
X162902762Y-108057905D02*
X162636095Y-107676952D01*
X162445619Y-108057905D02*
X162445619Y-107257905D01*
X162750381Y-107257905D01*
X162826572Y-107296000D01*
X162864667Y-107334095D01*
X162902762Y-107410286D01*
X162902762Y-107524571D01*
X162864667Y-107600762D01*
X162826572Y-107638857D01*
X162750381Y-107676952D01*
X162445619Y-107676952D01*
X167995619Y-108057905D02*
X167538476Y-108057905D01*
X167767047Y-108057905D02*
X167767047Y-107257905D01*
X167690857Y-107372190D01*
X167614666Y-107448381D01*
X167538476Y-107486476D01*
X168262286Y-107257905D02*
X168757524Y-107257905D01*
X168490857Y-107562667D01*
X168605143Y-107562667D01*
X168681333Y-107600762D01*
X168719429Y-107638857D01*
X168757524Y-107715048D01*
X168757524Y-107905524D01*
X168719429Y-107981714D01*
X168681333Y-108019810D01*
X168605143Y-108057905D01*
X168376571Y-108057905D01*
X168300381Y-108019810D01*
X168262286Y-107981714D01*
X114871500Y-86614000D02*
X114871500Y-88265000D01*
X120446800Y-88262460D02*
X120446800Y-86611460D01*
X109283500Y-88265000D02*
X120396000Y-88265000D01*
X109250480Y-86611460D02*
X109250480Y-88262460D01*
X188112477Y-90786000D02*
X188036286Y-90747905D01*
X187922001Y-90747905D01*
X187807715Y-90786000D01*
X187731524Y-90862190D01*
X187693429Y-90938381D01*
X187655334Y-91090762D01*
X187655334Y-91205048D01*
X187693429Y-91357429D01*
X187731524Y-91433619D01*
X187807715Y-91509810D01*
X187922001Y-91547905D01*
X187998191Y-91547905D01*
X188112477Y-91509810D01*
X188150572Y-91471714D01*
X188150572Y-91205048D01*
X187998191Y-91205048D01*
X188493429Y-91547905D02*
X188493429Y-90747905D01*
X188950572Y-91547905D01*
X188950572Y-90747905D01*
X189331524Y-91547905D02*
X189331524Y-90747905D01*
X189522000Y-90747905D01*
X189636286Y-90786000D01*
X189712477Y-90862190D01*
X189750572Y-90938381D01*
X189788667Y-91090762D01*
X189788667Y-91205048D01*
X189750572Y-91357429D01*
X189712477Y-91433619D01*
X189636286Y-91509810D01*
X189522000Y-91547905D01*
X189331524Y-91547905D01*
X188569620Y-89096905D02*
X188188667Y-89096905D01*
X188150572Y-89477857D01*
X188188667Y-89439762D01*
X188264858Y-89401667D01*
X188455334Y-89401667D01*
X188531524Y-89439762D01*
X188569620Y-89477857D01*
X188607715Y-89554048D01*
X188607715Y-89744524D01*
X188569620Y-89820714D01*
X188531524Y-89858810D01*
X188455334Y-89896905D01*
X188264858Y-89896905D01*
X188188667Y-89858810D01*
X188150572Y-89820714D01*
X188836286Y-89096905D02*
X189102953Y-89896905D01*
X189369620Y-89096905D01*
X192265334Y-87318905D02*
X192760572Y-87318905D01*
X192493905Y-87623667D01*
X192608191Y-87623667D01*
X192684381Y-87661762D01*
X192722477Y-87699857D01*
X192760572Y-87776048D01*
X192760572Y-87966524D01*
X192722477Y-88042714D01*
X192684381Y-88080810D01*
X192608191Y-88118905D01*
X192379619Y-88118905D01*
X192303429Y-88080810D01*
X192265334Y-88042714D01*
X190182477Y-87318905D02*
X189801524Y-87318905D01*
X189763429Y-87699857D01*
X189801524Y-87661762D01*
X189877715Y-87623667D01*
X190068191Y-87623667D01*
X190144381Y-87661762D01*
X190182477Y-87699857D01*
X190220572Y-87776048D01*
X190220572Y-87966524D01*
X190182477Y-88042714D01*
X190144381Y-88080810D01*
X190068191Y-88118905D01*
X189877715Y-88118905D01*
X189801524Y-88080810D01*
X189763429Y-88042714D01*
X187604381Y-87318905D02*
X187452000Y-87318905D01*
X187375810Y-87357000D01*
X187337715Y-87395095D01*
X187261524Y-87509381D01*
X187223429Y-87661762D01*
X187223429Y-87966524D01*
X187261524Y-88042714D01*
X187299619Y-88080810D01*
X187375810Y-88118905D01*
X187528191Y-88118905D01*
X187604381Y-88080810D01*
X187642477Y-88042714D01*
X187680572Y-87966524D01*
X187680572Y-87776048D01*
X187642477Y-87699857D01*
X187604381Y-87661762D01*
X187528191Y-87623667D01*
X187375810Y-87623667D01*
X187299619Y-87661762D01*
X187261524Y-87699857D01*
X187223429Y-87776048D01*
X184759619Y-88118905D02*
X184912000Y-88118905D01*
X184988191Y-88080810D01*
X185026286Y-88042714D01*
X185102477Y-87928429D01*
X185140572Y-87776048D01*
X185140572Y-87471286D01*
X185102477Y-87395095D01*
X185064381Y-87357000D01*
X184988191Y-87318905D01*
X184835810Y-87318905D01*
X184759619Y-87357000D01*
X184721524Y-87395095D01*
X184683429Y-87471286D01*
X184683429Y-87661762D01*
X184721524Y-87737952D01*
X184759619Y-87776048D01*
X184835810Y-87814143D01*
X184988191Y-87814143D01*
X185064381Y-87776048D01*
X185102477Y-87737952D01*
X185140572Y-87661762D01*
X175412477Y-90786000D02*
X175336286Y-90747905D01*
X175222001Y-90747905D01*
X175107715Y-90786000D01*
X175031524Y-90862190D01*
X174993429Y-90938381D01*
X174955334Y-91090762D01*
X174955334Y-91205048D01*
X174993429Y-91357429D01*
X175031524Y-91433619D01*
X175107715Y-91509810D01*
X175222001Y-91547905D01*
X175298191Y-91547905D01*
X175412477Y-91509810D01*
X175450572Y-91471714D01*
X175450572Y-91205048D01*
X175298191Y-91205048D01*
X175793429Y-91547905D02*
X175793429Y-90747905D01*
X176250572Y-91547905D01*
X176250572Y-90747905D01*
X176631524Y-91547905D02*
X176631524Y-90747905D01*
X176822000Y-90747905D01*
X176936286Y-90786000D01*
X177012477Y-90862190D01*
X177050572Y-90938381D01*
X177088667Y-91090762D01*
X177088667Y-91205048D01*
X177050572Y-91357429D01*
X177012477Y-91433619D01*
X176936286Y-91509810D01*
X176822000Y-91547905D01*
X176631524Y-91547905D01*
X175869620Y-89096905D02*
X175488667Y-89096905D01*
X175450572Y-89477857D01*
X175488667Y-89439762D01*
X175564858Y-89401667D01*
X175755334Y-89401667D01*
X175831524Y-89439762D01*
X175869620Y-89477857D01*
X175907715Y-89554048D01*
X175907715Y-89744524D01*
X175869620Y-89820714D01*
X175831524Y-89858810D01*
X175755334Y-89896905D01*
X175564858Y-89896905D01*
X175488667Y-89858810D01*
X175450572Y-89820714D01*
X176136286Y-89096905D02*
X176402953Y-89896905D01*
X176669620Y-89096905D01*
X179679619Y-88118905D02*
X179222476Y-88118905D01*
X179451047Y-88118905D02*
X179451047Y-87318905D01*
X179374857Y-87433190D01*
X179298666Y-87509381D01*
X179222476Y-87547476D01*
X180174857Y-87318905D02*
X180251048Y-87318905D01*
X180327238Y-87357000D01*
X180365333Y-87395095D01*
X180403429Y-87471286D01*
X180441524Y-87623667D01*
X180441524Y-87814143D01*
X180403429Y-87966524D01*
X180365333Y-88042714D01*
X180327238Y-88080810D01*
X180251048Y-88118905D01*
X180174857Y-88118905D01*
X180098667Y-88080810D01*
X180060571Y-88042714D01*
X180022476Y-87966524D01*
X179984381Y-87814143D01*
X179984381Y-87623667D01*
X180022476Y-87471286D01*
X180060571Y-87395095D01*
X180098667Y-87357000D01*
X180174857Y-87318905D01*
X177139619Y-88118905D02*
X176682476Y-88118905D01*
X176911047Y-88118905D02*
X176911047Y-87318905D01*
X176834857Y-87433190D01*
X176758666Y-87509381D01*
X176682476Y-87547476D01*
X177901524Y-88118905D02*
X177444381Y-88118905D01*
X177672952Y-88118905D02*
X177672952Y-87318905D01*
X177596762Y-87433190D01*
X177520571Y-87509381D01*
X177444381Y-87547476D01*
X174599619Y-88118905D02*
X174142476Y-88118905D01*
X174371047Y-88118905D02*
X174371047Y-87318905D01*
X174294857Y-87433190D01*
X174218666Y-87509381D01*
X174142476Y-87547476D01*
X174904381Y-87395095D02*
X174942476Y-87357000D01*
X175018667Y-87318905D01*
X175209143Y-87318905D01*
X175285333Y-87357000D01*
X175323429Y-87395095D01*
X175361524Y-87471286D01*
X175361524Y-87547476D01*
X175323429Y-87661762D01*
X174866286Y-88118905D01*
X175361524Y-88118905D01*
X172059619Y-88118905D02*
X171602476Y-88118905D01*
X171831047Y-88118905D02*
X171831047Y-87318905D01*
X171754857Y-87433190D01*
X171678666Y-87509381D01*
X171602476Y-87547476D01*
X172326286Y-87318905D02*
X172821524Y-87318905D01*
X172554857Y-87623667D01*
X172669143Y-87623667D01*
X172745333Y-87661762D01*
X172783429Y-87699857D01*
X172821524Y-87776048D01*
X172821524Y-87966524D01*
X172783429Y-88042714D01*
X172745333Y-88080810D01*
X172669143Y-88118905D01*
X172440571Y-88118905D01*
X172364381Y-88080810D01*
X172326286Y-88042714D01*
X191262000Y-86868000D02*
X191262000Y-88646000D01*
X188722000Y-86868000D02*
X188722000Y-88646000D01*
X186182000Y-86868000D02*
X186182000Y-88646000D01*
X193802000Y-91948000D02*
X187071000Y-91948000D01*
X193802000Y-91948000D02*
X193802000Y-90297000D01*
X193802000Y-90297000D02*
X193802000Y-88519000D01*
X183642000Y-90297000D02*
X193802000Y-90297000D01*
X193802000Y-88646000D02*
X193802000Y-86868000D01*
X183642000Y-88646000D02*
X193802000Y-88646000D01*
X183642000Y-86868000D02*
X183642000Y-91948000D01*
X183642000Y-84328000D02*
X193802000Y-84328000D01*
X183642000Y-86868000D02*
X183642000Y-81788000D01*
X183769000Y-86868000D02*
X183642000Y-86868000D01*
X193802000Y-86868000D02*
X183769000Y-86868000D01*
X193802000Y-81788000D02*
X193802000Y-86868000D01*
X193802000Y-81788000D02*
X193802000Y-79248000D01*
X183642000Y-81788000D02*
X193802000Y-81788000D01*
X183642000Y-79248000D02*
X183642000Y-81788000D01*
X191262000Y-79248000D02*
X191262000Y-81788000D01*
X188722000Y-79248000D02*
X188722000Y-81788000D01*
X186182000Y-79248000D02*
X186182000Y-81788000D01*
X170942000Y-90297000D02*
X181102000Y-90297000D01*
X181102000Y-91948000D02*
X181102000Y-88646000D01*
X170942000Y-91948000D02*
X181102000Y-91948000D01*
X170942000Y-88646000D02*
X170942000Y-91948000D01*
X173482000Y-86868000D02*
X173482000Y-88646000D01*
X176022000Y-86868000D02*
X176022000Y-88646000D01*
X178562000Y-86868000D02*
X178562000Y-88646000D01*
X181102000Y-86995000D02*
X181102000Y-86741000D01*
X181102000Y-88646000D02*
X181102000Y-86995000D01*
X170942000Y-88646000D02*
X181102000Y-88646000D01*
X170942000Y-86868000D02*
X170942000Y-88646000D01*
X170942000Y-81788000D02*
X181102000Y-81788000D01*
X170942000Y-84328000D02*
X181102000Y-84328000D01*
X170942000Y-86868000D02*
X170942000Y-79248000D01*
X181102000Y-86868000D02*
X170942000Y-86868000D01*
X181102000Y-79248000D02*
X181102000Y-86868000D01*
X178562000Y-79248000D02*
X178562000Y-81788000D01*
X176022000Y-79248000D02*
X176022000Y-81788000D01*
X173482000Y-79248000D02*
X173482000Y-81788000D01*
X127762000Y-81788000D02*
X127762000Y-79248000D01*
X165862000Y-81788000D02*
X165862000Y-79248000D01*
X163322000Y-81788000D02*
X163322000Y-79248000D01*
X160782000Y-81788000D02*
X160782000Y-79248000D01*
X158242000Y-81788000D02*
X158242000Y-79248000D01*
X155702000Y-81788000D02*
X155702000Y-79248000D01*
X157695977Y-90786000D02*
X157619786Y-90747905D01*
X157505501Y-90747905D01*
X157391215Y-90786000D01*
X157315024Y-90862190D01*
X157276929Y-90938381D01*
X157238834Y-91090762D01*
X157238834Y-91205048D01*
X157276929Y-91357429D01*
X157315024Y-91433619D01*
X157391215Y-91509810D01*
X157505501Y-91547905D01*
X157581691Y-91547905D01*
X157695977Y-91509810D01*
X157734072Y-91471714D01*
X157734072Y-91205048D01*
X157581691Y-91205048D01*
X158076929Y-91547905D02*
X158076929Y-90747905D01*
X158534072Y-91547905D01*
X158534072Y-90747905D01*
X158915024Y-91547905D02*
X158915024Y-90747905D01*
X159105500Y-90747905D01*
X159219786Y-90786000D01*
X159295977Y-90862190D01*
X159334072Y-90938381D01*
X159372167Y-91090762D01*
X159372167Y-91205048D01*
X159334072Y-91357429D01*
X159295977Y-91433619D01*
X159219786Y-91509810D01*
X159105500Y-91547905D01*
X158915024Y-91547905D01*
X158089620Y-89160405D02*
X157708667Y-89160405D01*
X157670572Y-89541357D01*
X157708667Y-89503262D01*
X157784858Y-89465167D01*
X157975334Y-89465167D01*
X158051524Y-89503262D01*
X158089620Y-89541357D01*
X158127715Y-89617548D01*
X158127715Y-89808024D01*
X158089620Y-89884214D01*
X158051524Y-89922310D01*
X157975334Y-89960405D01*
X157784858Y-89960405D01*
X157708667Y-89922310D01*
X157670572Y-89884214D01*
X158356286Y-89160405D02*
X158622953Y-89960405D01*
X158889620Y-89160405D01*
X168402000Y-91948000D02*
X168402000Y-90424000D01*
X153162000Y-91948000D02*
X168402000Y-91948000D01*
X168402000Y-90424000D02*
X168402000Y-88646000D01*
X147828000Y-90297000D02*
X168402000Y-90297000D01*
X166560572Y-87890333D02*
X166941524Y-87890333D01*
X166484381Y-88118905D02*
X166751048Y-87318905D01*
X167017715Y-88118905D01*
X167436762Y-87318905D02*
X167512953Y-87318905D01*
X167589143Y-87357000D01*
X167627238Y-87395095D01*
X167665334Y-87471286D01*
X167703429Y-87623667D01*
X167703429Y-87814143D01*
X167665334Y-87966524D01*
X167627238Y-88042714D01*
X167589143Y-88080810D01*
X167512953Y-88118905D01*
X167436762Y-88118905D01*
X167360572Y-88080810D01*
X167322476Y-88042714D01*
X167284381Y-87966524D01*
X167246286Y-87814143D01*
X167246286Y-87623667D01*
X167284381Y-87471286D01*
X167322476Y-87395095D01*
X167360572Y-87357000D01*
X167436762Y-87318905D01*
X164020572Y-87890333D02*
X164401524Y-87890333D01*
X163944381Y-88118905D02*
X164211048Y-87318905D01*
X164477715Y-88118905D01*
X165163429Y-88118905D02*
X164706286Y-88118905D01*
X164934857Y-88118905D02*
X164934857Y-87318905D01*
X164858667Y-87433190D01*
X164782476Y-87509381D01*
X164706286Y-87547476D01*
X161480572Y-87890333D02*
X161861524Y-87890333D01*
X161404381Y-88118905D02*
X161671048Y-87318905D01*
X161937715Y-88118905D01*
X162166286Y-87395095D02*
X162204381Y-87357000D01*
X162280572Y-87318905D01*
X162471048Y-87318905D01*
X162547238Y-87357000D01*
X162585334Y-87395095D01*
X162623429Y-87471286D01*
X162623429Y-87547476D01*
X162585334Y-87661762D01*
X162128191Y-88118905D01*
X162623429Y-88118905D01*
X158940572Y-87890333D02*
X159321524Y-87890333D01*
X158864381Y-88118905D02*
X159131048Y-87318905D01*
X159397715Y-88118905D01*
X159588191Y-87318905D02*
X160083429Y-87318905D01*
X159816762Y-87623667D01*
X159931048Y-87623667D01*
X160007238Y-87661762D01*
X160045334Y-87699857D01*
X160083429Y-87776048D01*
X160083429Y-87966524D01*
X160045334Y-88042714D01*
X160007238Y-88080810D01*
X159931048Y-88118905D01*
X159702476Y-88118905D01*
X159626286Y-88080810D01*
X159588191Y-88042714D01*
X156400572Y-87890333D02*
X156781524Y-87890333D01*
X156324381Y-88118905D02*
X156591048Y-87318905D01*
X156857715Y-88118905D01*
X157467238Y-87585571D02*
X157467238Y-88118905D01*
X157276762Y-87280810D02*
X157086286Y-87852238D01*
X157581524Y-87852238D01*
X148780572Y-87826833D02*
X149161524Y-87826833D01*
X148704381Y-88055405D02*
X148971048Y-87255405D01*
X149237715Y-88055405D01*
X149428191Y-87255405D02*
X149961524Y-87255405D01*
X149618667Y-88055405D01*
X153162000Y-88646000D02*
X168402000Y-88646000D01*
X153162000Y-86868000D02*
X168402000Y-86868000D01*
X168402000Y-79248000D02*
X168402000Y-88519000D01*
X153162000Y-84328000D02*
X168402000Y-84328000D01*
X153162000Y-81788000D02*
X168402000Y-81788000D01*
X165862000Y-86868000D02*
X165862000Y-88646000D01*
X163322000Y-86868000D02*
X163322000Y-88646000D01*
X160782000Y-86868000D02*
X160782000Y-88646000D01*
X158242000Y-86868000D02*
X158242000Y-88646000D01*
X155702000Y-86868000D02*
X155702000Y-88646000D01*
X133096000Y-87630000D02*
X133096000Y-86233000D01*
X122428000Y-87630000D02*
X133096000Y-87630000D01*
X122428000Y-86233000D02*
X122428000Y-87630000D01*
X133096000Y-86233000D02*
X133096000Y-79248000D01*
X122428000Y-86233000D02*
X122428000Y-79248000D01*
X122428000Y-85979000D02*
X133096000Y-85979000D01*
X122428000Y-84328000D02*
X133096000Y-84328000D01*
X122428000Y-81788000D02*
X133096000Y-81788000D01*
X127762000Y-84328000D02*
X127762000Y-85979000D01*
X127152477Y-86468000D02*
X127076286Y-86429905D01*
X126962001Y-86429905D01*
X126847715Y-86468000D01*
X126771524Y-86544190D01*
X126733429Y-86620381D01*
X126695334Y-86772762D01*
X126695334Y-86887048D01*
X126733429Y-87039429D01*
X126771524Y-87115619D01*
X126847715Y-87191810D01*
X126962001Y-87229905D01*
X127038191Y-87229905D01*
X127152477Y-87191810D01*
X127190572Y-87153714D01*
X127190572Y-86887048D01*
X127038191Y-86887048D01*
X127533429Y-87229905D02*
X127533429Y-86429905D01*
X127990572Y-87229905D01*
X127990572Y-86429905D01*
X128371524Y-87229905D02*
X128371524Y-86429905D01*
X128562000Y-86429905D01*
X128676286Y-86468000D01*
X128752477Y-86544190D01*
X128790572Y-86620381D01*
X128828667Y-86772762D01*
X128828667Y-86887048D01*
X128790572Y-87039429D01*
X128752477Y-87115619D01*
X128676286Y-87191810D01*
X128562000Y-87229905D01*
X128371524Y-87229905D01*
X129184524Y-84778905D02*
X129679762Y-84778905D01*
X129413095Y-85083667D01*
X129527381Y-85083667D01*
X129603571Y-85121762D01*
X129641667Y-85159857D01*
X129679762Y-85236048D01*
X129679762Y-85426524D01*
X129641667Y-85502714D01*
X129603571Y-85540810D01*
X129527381Y-85578905D01*
X129298809Y-85578905D01*
X129222619Y-85540810D01*
X129184524Y-85502714D01*
X129908333Y-84778905D02*
X130175000Y-85578905D01*
X130441667Y-84778905D01*
X130632143Y-84778905D02*
X131127381Y-84778905D01*
X130860714Y-85083667D01*
X130975000Y-85083667D01*
X131051190Y-85121762D01*
X131089286Y-85159857D01*
X131127381Y-85236048D01*
X131127381Y-85426524D01*
X131089286Y-85502714D01*
X131051190Y-85540810D01*
X130975000Y-85578905D01*
X130746428Y-85578905D01*
X130670238Y-85540810D01*
X130632143Y-85502714D01*
X125069620Y-84778905D02*
X124688667Y-84778905D01*
X124650572Y-85159857D01*
X124688667Y-85121762D01*
X124764858Y-85083667D01*
X124955334Y-85083667D01*
X125031524Y-85121762D01*
X125069620Y-85159857D01*
X125107715Y-85236048D01*
X125107715Y-85426524D01*
X125069620Y-85502714D01*
X125031524Y-85540810D01*
X124955334Y-85578905D01*
X124764858Y-85578905D01*
X124688667Y-85540810D01*
X124650572Y-85502714D01*
X125336286Y-84778905D02*
X125602953Y-85578905D01*
X125869620Y-84778905D01*
X116992477Y-87103000D02*
X116916286Y-87064905D01*
X116802001Y-87064905D01*
X116687715Y-87103000D01*
X116611524Y-87179190D01*
X116573429Y-87255381D01*
X116535334Y-87407762D01*
X116535334Y-87522048D01*
X116573429Y-87674429D01*
X116611524Y-87750619D01*
X116687715Y-87826810D01*
X116802001Y-87864905D01*
X116878191Y-87864905D01*
X116992477Y-87826810D01*
X117030572Y-87788714D01*
X117030572Y-87522048D01*
X116878191Y-87522048D01*
X117373429Y-87864905D02*
X117373429Y-87064905D01*
X117830572Y-87864905D01*
X117830572Y-87064905D01*
X118211524Y-87864905D02*
X118211524Y-87064905D01*
X118402000Y-87064905D01*
X118516286Y-87103000D01*
X118592477Y-87179190D01*
X118630572Y-87255381D01*
X118668667Y-87407762D01*
X118668667Y-87522048D01*
X118630572Y-87674429D01*
X118592477Y-87750619D01*
X118516286Y-87826810D01*
X118402000Y-87864905D01*
X118211524Y-87864905D01*
X111264810Y-87064905D02*
X111531477Y-87864905D01*
X111798144Y-87064905D01*
X112064810Y-87864905D02*
X112064810Y-87064905D01*
X112445762Y-87864905D02*
X112445762Y-87064905D01*
X112902905Y-87864905D01*
X112902905Y-87064905D01*
D14*
X120446800Y-86774020D02*
X109250480Y-86774020D01*
X109250480Y-86774020D02*
X109250480Y-80276700D01*
X109250480Y-80276700D02*
X109250480Y-79275940D01*
X109250480Y-79275940D02*
X120446800Y-79275940D01*
X120446800Y-79275940D02*
X120446800Y-80276700D01*
X120446800Y-80276700D02*
X120446800Y-86774020D01*
X109250480Y-80276700D02*
X120446800Y-80276700D01*
D15*
X185618120Y-91140280D02*
X185221880Y-91140280D01*
X185221880Y-91140280D02*
X185221880Y-91739720D01*
X185618120Y-91739720D02*
X185221880Y-91739720D01*
X185618120Y-91140280D02*
X185618120Y-91739720D01*
X120949720Y-98623120D02*
X120949720Y-98226880D01*
X120949720Y-98226880D02*
X120350280Y-98226880D01*
X120350280Y-98623120D02*
X120350280Y-98226880D01*
X120949720Y-98623120D02*
X120350280Y-98623120D01*
D14*
X115951000Y-95882460D02*
X117475000Y-95882460D01*
D15*
X112603280Y-98226880D02*
X112603280Y-98623120D01*
X112603280Y-98623120D02*
X113202720Y-98623120D01*
X113202720Y-98226880D02*
X113202720Y-98623120D01*
X112603280Y-98226880D02*
X113202720Y-98226880D01*
D14*
X106677460Y-91948000D02*
X106677460Y-93472000D01*
D15*
X104505760Y-95458280D02*
X104109520Y-95458280D01*
X104109520Y-95458280D02*
X104109520Y-96057720D01*
X104505760Y-96057720D02*
X104109520Y-96057720D01*
X104505760Y-95458280D02*
X104505760Y-96057720D01*
X176245520Y-98978720D02*
X176641760Y-98978720D01*
X176641760Y-98978720D02*
X176641760Y-98379280D01*
X176245520Y-98379280D02*
X176641760Y-98379280D01*
X176245520Y-98978720D02*
X176245520Y-98379280D01*
X166949120Y-99268280D02*
X166552880Y-99268280D01*
X166552880Y-99268280D02*
X166552880Y-99867720D01*
X166949120Y-99867720D02*
X166552880Y-99867720D01*
X166949120Y-99268280D02*
X166949120Y-99867720D01*
X166552880Y-93517720D02*
X166949120Y-93517720D01*
X166949120Y-93517720D02*
X166949120Y-92918280D01*
X166552880Y-92918280D02*
X166949120Y-92918280D01*
X166552880Y-93517720D02*
X166552880Y-92918280D01*
X166552880Y-101391720D02*
X166949120Y-101391720D01*
X166949120Y-101391720D02*
X166949120Y-100792280D01*
X166552880Y-100792280D02*
X166949120Y-100792280D01*
X166552880Y-101391720D02*
X166552880Y-100792280D01*
X104604120Y-97998280D02*
X104207880Y-97998280D01*
X104207880Y-97998280D02*
X104207880Y-98597720D01*
X104604120Y-98597720D02*
X104207880Y-98597720D01*
X104604120Y-97998280D02*
X104604120Y-98597720D01*
D14*
X147078700Y-97772220D02*
X147078700Y-98221800D01*
X147078700Y-98221800D02*
X142481300Y-98221800D01*
X142481300Y-98221800D02*
X142481300Y-97772220D01*
X142481300Y-95775780D02*
X142481300Y-95326200D01*
X142481300Y-95326200D02*
X147078700Y-95326200D01*
X147078700Y-95326200D02*
X147078700Y-95775780D01*
X141605000Y-97772220D02*
X141605000Y-95775780D01*
X117139720Y-91084400D02*
X117139720Y-90482420D01*
X117139720Y-90482420D02*
X116342160Y-90482420D01*
X117139720Y-92679520D02*
X117139720Y-93281500D01*
X117139720Y-93281500D02*
X116342160Y-93281500D01*
X139354560Y-89771220D02*
X139956540Y-89771220D01*
X139956540Y-89771220D02*
X139956540Y-88973660D01*
X137759440Y-89771220D02*
X137157460Y-89771220D01*
X137157460Y-89771220D02*
X137157460Y-88973660D01*
D15*
X168346120Y-105872280D02*
X167949880Y-105872280D01*
X167949880Y-105872280D02*
X167949880Y-106471720D01*
X168346120Y-106471720D02*
X167949880Y-106471720D01*
X168346120Y-105872280D02*
X168346120Y-106471720D01*
X161599880Y-106471720D02*
X161996120Y-106471720D01*
X161996120Y-106471720D02*
X161996120Y-105872280D01*
X161599880Y-105872280D02*
X161996120Y-105872280D01*
X161599880Y-106471720D02*
X161599880Y-105872280D01*
X176641760Y-100284280D02*
X176245520Y-100284280D01*
X176245520Y-100284280D02*
X176245520Y-100883720D01*
X176641760Y-100883720D02*
X176245520Y-100883720D01*
X176641760Y-100284280D02*
X176641760Y-100883720D01*
X112603280Y-91582240D02*
X112603280Y-91978480D01*
X112603280Y-91978480D02*
X113202720Y-91978480D01*
X113202720Y-91582240D02*
X113202720Y-91978480D01*
X112603280Y-91582240D02*
X113202720Y-91582240D01*
X180649880Y-106471720D02*
X181046120Y-106471720D01*
X181046120Y-106471720D02*
X181046120Y-105872280D01*
X180649880Y-105872280D02*
X181046120Y-105872280D01*
X180649880Y-106471720D02*
X180649880Y-105872280D01*
X174696120Y-105872280D02*
X174299880Y-105872280D01*
X174299880Y-105872280D02*
X174299880Y-106471720D01*
X174696120Y-106471720D02*
X174299880Y-106471720D01*
X174696120Y-105872280D02*
X174696120Y-106471720D01*
X138257280Y-93136720D02*
X138653520Y-93136720D01*
X138653520Y-93136720D02*
X138653520Y-92537280D01*
X138257280Y-92537280D02*
X138653520Y-92537280D01*
X138257280Y-93136720D02*
X138257280Y-92537280D01*
X142692120Y-89519760D02*
X142692120Y-89123520D01*
X142692120Y-89123520D02*
X142092680Y-89123520D01*
X142092680Y-89519760D02*
X142092680Y-89123520D01*
X142692120Y-89519760D02*
X142092680Y-89519760D01*
X128976120Y-107142280D02*
X128579880Y-107142280D01*
X128579880Y-107142280D02*
X128579880Y-107741720D01*
X128976120Y-107741720D02*
X128579880Y-107741720D01*
X128976120Y-107142280D02*
X128976120Y-107741720D01*
X128579880Y-109824520D02*
X128976120Y-109824520D01*
X128976120Y-109824520D02*
X128976120Y-109225080D01*
X128579880Y-109225080D02*
X128976120Y-109225080D01*
X128579880Y-109824520D02*
X128579880Y-109225080D01*
D16*
X161544000Y-103251000D02*
G75*
G03X161544000Y-103251000I-254000J0D01*
G01*
X161417000Y-103251000D02*
G75*
G03X161417000Y-103251000I-127000J0D01*
G01*
D14*
X156931360Y-92786200D02*
X156931360Y-102539800D01*
X160822640Y-102539800D02*
X160822640Y-92687140D01*
X160441640Y-92405200D02*
X157312360Y-92405200D01*
X157426660Y-102920800D02*
X158267400Y-102920800D01*
X160540700Y-102920800D02*
X159537400Y-102920800D01*
X160822640Y-92689680D02*
G75*
G03X160441640Y-92405200I-332740J-48260D01*
G01*
X156931360Y-102539800D02*
G75*
G03X157413960Y-102920800I431800J50800D01*
G01*
X157312360Y-92405200D02*
G75*
G03X156931360Y-92786200I0J-381000D01*
G01*
X160540700Y-102918260D02*
G75*
G03X160822640Y-102539800I-48260J330200D01*
G01*
X159537400Y-102870000D02*
G75*
G03X158267400Y-102870000I-635000J0D01*
G01*
X105791000Y-102237540D02*
X105791000Y-103096060D01*
X102946200Y-103096060D02*
X102946200Y-102237540D01*
X104101900Y-101856540D02*
X104635300Y-101856540D01*
X181409340Y-94922340D02*
X188414660Y-94922340D01*
X188414660Y-94922340D02*
X188414660Y-101927660D01*
X188414660Y-101927660D02*
X181762400Y-101927660D01*
X181409340Y-101574600D02*
X181409340Y-94922340D01*
X181409340Y-101574600D02*
X181762400Y-101927660D01*
X181381400Y-102082600D02*
G75*
G03X181381400Y-102082600I-152400J0D01*
G01*
X187924440Y-105641140D02*
X187924440Y-106936540D01*
X184177940Y-106936540D02*
X184177940Y-105641140D01*
X133451600Y-97664000D02*
X133451600Y-100966000D01*
X133451600Y-100966000D02*
X126898400Y-100966000D01*
X126898400Y-100966000D02*
X126898400Y-97664000D01*
X126898400Y-97664000D02*
X133451600Y-97664000D01*
X145732500Y-80482440D02*
X145732500Y-79880460D01*
X145732500Y-79880460D02*
X144934940Y-79880460D01*
X145732500Y-82077560D02*
X145732500Y-82679540D01*
X145732500Y-82679540D02*
X144934940Y-82679540D01*
D15*
X145851880Y-93136720D02*
X146248120Y-93136720D01*
X146248120Y-93136720D02*
X146248120Y-92537280D01*
X145851880Y-92537280D02*
X146248120Y-92537280D01*
X145851880Y-93136720D02*
X145851880Y-92537280D01*
X143819880Y-84627720D02*
X144216120Y-84627720D01*
X144216120Y-84627720D02*
X144216120Y-84028280D01*
X143819880Y-84028280D02*
X144216120Y-84028280D01*
X143819880Y-84627720D02*
X143819880Y-84028280D01*
D14*
X111325660Y-104246680D02*
X120322340Y-104246680D01*
X111325660Y-117543580D02*
X113324640Y-117543580D01*
X113324640Y-117543580D02*
X118323360Y-117543580D01*
X118323360Y-117543580D02*
X120322340Y-117543580D01*
X113324640Y-117543580D02*
X113324640Y-114046000D01*
X118323360Y-114046000D02*
X118323360Y-117543580D01*
X111325660Y-117543580D02*
X111325660Y-116044980D01*
X111325660Y-112047020D02*
X111325660Y-109946440D01*
X111325660Y-105846880D02*
X111325660Y-104246680D01*
X120322340Y-104246680D02*
X120322340Y-105948480D01*
X120322340Y-109946440D02*
X120322340Y-112047020D01*
X120322340Y-116044980D02*
X120322340Y-117543580D01*
X115824000Y-111760000D02*
G75*
G03X113324640Y-114046000I-106680J-2392680D01*
G01*
X118323360Y-114046000D02*
G75*
G03X115824000Y-111760000I-2392680J-106680D01*
G01*
D17*
X121353580Y-91506040D02*
X121353580Y-89207340D01*
X121353580Y-89207340D02*
X126151640Y-89207340D01*
X126151640Y-89207340D02*
X127850900Y-90906600D01*
X127850900Y-90906600D02*
X127850900Y-91506040D01*
X127850900Y-93405960D02*
X127850900Y-94005400D01*
X127850900Y-94005400D02*
X126151640Y-95704660D01*
X126151640Y-95704660D02*
X121353580Y-95704660D01*
X121353580Y-95704660D02*
X121353580Y-93405960D01*
X127549705Y-91501473D02*
G75*
G03X121653300Y-91506040I-2947465J-954527D01*
G01*
X121654775Y-93410527D02*
G75*
G03X127551180Y-93405960I2947465J954527D01*
G01*
D14*
X199390000Y-115900200D02*
G75*
G03X199390000Y-112191800I0J1854200D01*
G01*
X199390000Y-112191800D02*
G75*
G03X199390000Y-115900200I0J-1854200D01*
G01*
X199390000Y-115900200D02*
G75*
G03X199390000Y-112191800I0J1854200D01*
G01*
X199390000Y-112191800D02*
G75*
G03X199390000Y-115900200I0J-1854200D01*
G01*
X199390000Y-84150200D02*
G75*
G03X199390000Y-80441800I0J1854200D01*
G01*
X199390000Y-80441800D02*
G75*
G03X199390000Y-84150200I0J-1854200D01*
G01*
X199390000Y-84150200D02*
G75*
G03X199390000Y-80441800I0J1854200D01*
G01*
X199390000Y-80441800D02*
G75*
G03X199390000Y-84150200I0J-1854200D01*
G01*
D16*
X140436600Y-79601060D02*
X137439400Y-79601060D01*
X141937740Y-82202020D02*
X141937740Y-83853020D01*
X136690100Y-83853020D02*
X135938260Y-83853020D01*
X135938260Y-83853020D02*
X135938260Y-82202020D01*
X141937740Y-83853020D02*
X141185900Y-83853020D01*
D18*
X141577060Y-84500720D02*
G75*
G03X141577060Y-84500720I-139700J0D01*
G01*
D16*
X169799000Y-94107000D02*
G75*
G03X169799000Y-94107000I-127000J0D01*
G01*
D14*
X167223440Y-97965260D02*
X166024560Y-97965260D01*
X164025580Y-96565720D02*
X164025580Y-95966280D01*
X166024560Y-94566740D02*
X167223440Y-94566740D01*
X169222420Y-96565720D02*
X169222420Y-95966280D01*
M02*
