G04 #@! TF.FileFunction,Copper,L2,Bot,Signal*
%FSLAX46Y46*%
G04 Gerber Fmt 4.6, Leading zero omitted, Abs format (unit mm)*
G04 Created by KiCad (PCBNEW 4.0.6) date 08/03/17 16:45:26*
%MOMM*%
%LPD*%
G01*
G04 APERTURE LIST*
%ADD10C,0.100000*%
%ADD11C,1.879600*%
%ADD12C,2.500000*%
%ADD13C,1.700000*%
%ADD14C,1.524000*%
%ADD15C,1.200000*%
%ADD16R,2.150000X2.150000*%
%ADD17C,2.150000*%
%ADD18C,5.200000*%
%ADD19C,0.500000*%
%ADD20C,0.600000*%
%ADD21C,0.250000*%
%ADD22C,0.508000*%
%ADD23C,0.254000*%
G04 APERTURE END LIST*
D10*
D11*
X184912000Y-85598000D03*
X187452000Y-85598000D03*
X189992000Y-85598000D03*
X192532000Y-85598000D03*
X184912000Y-83058000D03*
X187452000Y-83058000D03*
X189992000Y-83058000D03*
X192532000Y-83058000D03*
X184912000Y-80518000D03*
X187452000Y-80518000D03*
X189992000Y-80518000D03*
X192532000Y-80518000D03*
X172212000Y-85598000D03*
X174752000Y-85598000D03*
X177292000Y-85598000D03*
X179832000Y-85598000D03*
X172212000Y-83058000D03*
X174752000Y-83058000D03*
X177292000Y-83058000D03*
X179832000Y-83058000D03*
X172212000Y-80518000D03*
X174752000Y-80518000D03*
X177292000Y-80518000D03*
X179832000Y-80518000D03*
X154432000Y-85598000D03*
X156972000Y-85598000D03*
X159512000Y-85598000D03*
X162052000Y-85598000D03*
X164592000Y-85598000D03*
X167132000Y-85598000D03*
X154432000Y-83058000D03*
X156972000Y-83058000D03*
X159512000Y-83058000D03*
X162052000Y-83058000D03*
X164592000Y-83058000D03*
X167132000Y-83058000D03*
X154432000Y-80518000D03*
X156972000Y-80518000D03*
X159512000Y-80518000D03*
X162052000Y-80518000D03*
X164592000Y-80518000D03*
X167132000Y-80518000D03*
X123952000Y-83058000D03*
X126492000Y-83058000D03*
X129032000Y-83058000D03*
X131572000Y-83058000D03*
X131572000Y-80518000D03*
X129032000Y-80518000D03*
X126492000Y-80518000D03*
X123952000Y-80518000D03*
D12*
X147066000Y-101648000D03*
X140066000Y-101648000D03*
X147066000Y-104648000D03*
X140066000Y-104648000D03*
D13*
X193782000Y-112308000D03*
D14*
X192532000Y-114808000D03*
X188032000Y-114808000D03*
D13*
X186782000Y-112308000D03*
D15*
X182118000Y-112522000D03*
X179578000Y-112522000D03*
X175768000Y-112522000D03*
X173228000Y-112522000D03*
X163068000Y-112522000D03*
X160528000Y-112522000D03*
X169418000Y-112522000D03*
X166878000Y-112522000D03*
D16*
X117348000Y-82575400D03*
D17*
X112349280Y-82575400D03*
D18*
X104140000Y-82550000D03*
D19*
X106172000Y-82550000D03*
X102108000Y-82550000D03*
X104140000Y-80518000D03*
X104140000Y-84582000D03*
X105664000Y-84074000D03*
X105664000Y-81026000D03*
X102616000Y-81026000D03*
X102616000Y-84074000D03*
D18*
X104140000Y-114300000D03*
D19*
X106172000Y-114300000D03*
X102108000Y-114300000D03*
X104140000Y-112268000D03*
X104140000Y-116332000D03*
X105664000Y-115824000D03*
X105664000Y-112776000D03*
X102616000Y-112776000D03*
X102616000Y-115824000D03*
D11*
X195326000Y-95758000D03*
X197866000Y-95758000D03*
X195326000Y-98298000D03*
X197866000Y-98298000D03*
X195326000Y-100838000D03*
X197866000Y-100838000D03*
D20*
X185293000Y-98298000D03*
X169037000Y-97536000D03*
X164338000Y-97536000D03*
X164084000Y-106172000D03*
X173939200Y-100558600D03*
X114147600Y-92628720D03*
X186817000Y-92684600D03*
X184505600Y-100660200D03*
X186105800Y-100660200D03*
X149987000Y-87096600D03*
X142392400Y-87096600D03*
X130175000Y-100634800D03*
X130987800Y-109524800D03*
X140817600Y-88061800D03*
X105689400Y-91059000D03*
X148259800Y-92837000D03*
X140665200Y-92837000D03*
X139420600Y-81584800D03*
X175590200Y-97307400D03*
X154508200Y-98298000D03*
X182143400Y-98831400D03*
X163449000Y-101371400D03*
X178993800Y-99644200D03*
X175768000Y-103759000D03*
X178993800Y-100533200D03*
X126568200Y-102336600D03*
X126568200Y-107416600D03*
X160020000Y-97028000D03*
X130962400Y-110794800D03*
X160401000Y-95758000D03*
X129895600Y-110921800D03*
X124968000Y-106934000D03*
X119075200Y-91897200D03*
X187680600Y-92659200D03*
X169951400Y-106172000D03*
X181711600Y-85598000D03*
X188010800Y-97231200D03*
X190601600Y-96426020D03*
X190601600Y-94640400D03*
X156159200Y-88442800D03*
X183337200Y-95402400D03*
X158165800Y-87655400D03*
X185750200Y-95427800D03*
X191465200Y-94615000D03*
X190677800Y-98018600D03*
X192328800Y-94615000D03*
X190627000Y-100431600D03*
X193192400Y-94615000D03*
X192684400Y-100076000D03*
X190804800Y-108102400D03*
X200812400Y-108102400D03*
X146563080Y-85948520D03*
X138455400Y-86360000D03*
X145567400Y-82702400D03*
X137439400Y-82702400D03*
X143560800Y-90170000D03*
X179019200Y-97713800D03*
X179019200Y-96824800D03*
X151333200Y-90195400D03*
X147472400Y-90195400D03*
X101803200Y-88646000D03*
X124764800Y-115189000D03*
D21*
X164338000Y-97536000D02*
X169037000Y-97536000D01*
X173939200Y-100558600D02*
X168325800Y-106172000D01*
X168325800Y-106172000D02*
X164084000Y-106172000D01*
X186817000Y-92684600D02*
X187419801Y-92081799D01*
X187419801Y-92081799D02*
X194164399Y-92081799D01*
X194164399Y-92081799D02*
X196900801Y-94818201D01*
X196900801Y-94818201D02*
X197840600Y-95758000D01*
X197840600Y-95758000D02*
X197840600Y-88366600D01*
X197840600Y-88366600D02*
X192532000Y-83058000D01*
X142392400Y-87096600D02*
X138337446Y-87096600D01*
X138337446Y-87096600D02*
X132976047Y-81735201D01*
X132976047Y-81735201D02*
X127709201Y-81735201D01*
X127709201Y-81735201D02*
X127431799Y-81457799D01*
X127431799Y-81457799D02*
X126492000Y-80518000D01*
X123952000Y-80518000D02*
X114452400Y-90017600D01*
X114452400Y-90017600D02*
X114452400Y-92323920D01*
X114452400Y-92323920D02*
X114147600Y-92628720D01*
X126492000Y-80518000D02*
X125162923Y-80518000D01*
X125162923Y-80518000D02*
X123952000Y-80518000D01*
X184505600Y-100660200D02*
X186105800Y-100660200D01*
X189992000Y-83058000D02*
X192532000Y-83058000D01*
X187452000Y-83058000D02*
X188781077Y-83058000D01*
X188781077Y-83058000D02*
X189992000Y-83058000D01*
X184912000Y-83058000D02*
X187452000Y-83058000D01*
X179832000Y-83058000D02*
X181161077Y-83058000D01*
X181161077Y-83058000D02*
X184912000Y-83058000D01*
X177292000Y-83058000D02*
X178621077Y-83058000D01*
X178621077Y-83058000D02*
X179832000Y-83058000D01*
X174752000Y-83058000D02*
X177292000Y-83058000D01*
X172212000Y-83058000D02*
X174752000Y-83058000D01*
X167132000Y-83058000D02*
X172212000Y-83058000D01*
X164592000Y-83058000D02*
X167132000Y-83058000D01*
X162052000Y-83058000D02*
X163381077Y-83058000D01*
X163381077Y-83058000D02*
X164592000Y-83058000D01*
X159512000Y-83058000D02*
X162052000Y-83058000D01*
X156972000Y-83058000D02*
X159512000Y-83058000D01*
X154432000Y-83058000D02*
X156972000Y-83058000D01*
X152171400Y-83058000D02*
X154432000Y-83058000D01*
X149987000Y-85242400D02*
X152171400Y-83058000D01*
X149987000Y-87096600D02*
X149987000Y-85242400D01*
X142392400Y-87096600D02*
X149987000Y-87096600D01*
X130987800Y-109524800D02*
X130987800Y-101447600D01*
X130987800Y-101447600D02*
X130175000Y-100634800D01*
X140817600Y-88061800D02*
X140817600Y-92684600D01*
X140817600Y-92684600D02*
X140665200Y-92837000D01*
X105689400Y-91059000D02*
X107836521Y-93206121D01*
X107836521Y-93206121D02*
X116911725Y-93206121D01*
X118798047Y-91319799D02*
X139147999Y-91319799D01*
X116911725Y-93206121D02*
X118798047Y-91319799D01*
X139147999Y-91319799D02*
X140365201Y-92537001D01*
X140365201Y-92537001D02*
X140665200Y-92837000D01*
X131572000Y-80518000D02*
X130242923Y-80518000D01*
X130242923Y-80518000D02*
X129032000Y-80518000D01*
X140665200Y-92837000D02*
X148259800Y-92837000D01*
X139420600Y-81584800D02*
X138353800Y-80518000D01*
X138353800Y-80518000D02*
X131572000Y-80518000D01*
X154508200Y-98298000D02*
X157625601Y-95180599D01*
X157625601Y-95180599D02*
X173463399Y-95180599D01*
X173463399Y-95180599D02*
X175590200Y-97307400D01*
X182143400Y-100457000D02*
X182924001Y-101237601D01*
X193571922Y-101237601D02*
X193971523Y-100838000D01*
X182924001Y-101237601D02*
X193571922Y-101237601D01*
X193971523Y-100838000D02*
X195300600Y-100838000D01*
X182143400Y-98831400D02*
X182143400Y-100457000D01*
X163449000Y-101371400D02*
X165176200Y-99644200D01*
X165176200Y-99644200D02*
X178993800Y-99644200D01*
X182118000Y-112522000D02*
X182118000Y-102768400D01*
X182118000Y-102768400D02*
X178993800Y-99644200D01*
X178993800Y-100533200D02*
X175768000Y-103759000D01*
X175768000Y-103759000D02*
X175768000Y-112522000D01*
X126568200Y-107416600D02*
X126568200Y-102336600D01*
X130962400Y-110794800D02*
X146253200Y-110794800D01*
X146253200Y-110794800D02*
X160020000Y-97028000D01*
X129895600Y-110921800D02*
X130647601Y-110169799D01*
X130647601Y-110169799D02*
X145989201Y-110169799D01*
X145989201Y-110169799D02*
X160401000Y-95758000D01*
X128854200Y-110820200D02*
X124968000Y-106934000D01*
X124968000Y-106934000D02*
X119075200Y-101041200D01*
X119075200Y-101041200D02*
X119075200Y-91897200D01*
X169951400Y-106172000D02*
X171119800Y-107340400D01*
X199263000Y-100353344D02*
X198424857Y-99515201D01*
X196596000Y-95146344D02*
X194108856Y-92659200D01*
X171119800Y-107340400D02*
X171119800Y-113715800D01*
X172948600Y-115544600D02*
X182041800Y-115544600D01*
X171119800Y-113715800D02*
X172948600Y-115544600D01*
X182041800Y-115544600D02*
X184683400Y-112903000D01*
X184683400Y-112903000D02*
X184683400Y-111175800D01*
X184683400Y-111175800D02*
X191439800Y-104419400D01*
X191439800Y-104419400D02*
X198348600Y-104419400D01*
X198348600Y-104419400D02*
X199263000Y-103505000D01*
X199263000Y-103505000D02*
X199263000Y-100353344D01*
X198424857Y-99515201D02*
X196517801Y-99515201D01*
X196596000Y-97002600D02*
X196596000Y-95146344D01*
X196517801Y-99515201D02*
X195300600Y-98298000D01*
X195300600Y-98298000D02*
X196596000Y-97002600D01*
X194108856Y-92659200D02*
X187680600Y-92659200D01*
X188010800Y-97231200D02*
X188010800Y-96806936D01*
X188010800Y-96806936D02*
X181711600Y-90507736D01*
X181711600Y-90507736D02*
X181711600Y-85598000D01*
X190601600Y-94640400D02*
X190601600Y-96426020D01*
X156616400Y-88900000D02*
X176834800Y-88900000D01*
X176834800Y-88900000D02*
X183337200Y-95402400D01*
X156159200Y-88442800D02*
X156616400Y-88900000D01*
X158165800Y-87655400D02*
X177977800Y-87655400D01*
X177977800Y-87655400D02*
X185750200Y-95427800D01*
X191465200Y-94615000D02*
X191465200Y-97231200D01*
X191465200Y-97231200D02*
X190677800Y-98018600D01*
X192328800Y-94615000D02*
X192328800Y-98729800D01*
X192328800Y-98729800D02*
X190627000Y-100431600D01*
X193192400Y-94615000D02*
X193192400Y-99568000D01*
X193192400Y-99568000D02*
X192684400Y-100076000D01*
X200812400Y-108102400D02*
X190804800Y-108102400D01*
X138455400Y-86360000D02*
X138866880Y-85948520D01*
X138866880Y-85948520D02*
X146563080Y-85948520D01*
X137439400Y-82702400D02*
X145567400Y-82702400D01*
X144830800Y-91440000D02*
X172745400Y-91440000D01*
X172745400Y-91440000D02*
X179019200Y-97713800D01*
X143560800Y-90170000D02*
X144830800Y-91440000D01*
X179019200Y-96824800D02*
X172389800Y-90195400D01*
X172389800Y-90195400D02*
X151333200Y-90195400D01*
X147472400Y-90195400D02*
X151333200Y-90195400D01*
D22*
X102209600Y-106756200D02*
X101803200Y-106349800D01*
X101803200Y-106349800D02*
X101803200Y-88646000D01*
X111455200Y-116001800D02*
X102209600Y-106756200D01*
X118567200Y-116001800D02*
X111455200Y-116001800D01*
X119380000Y-115189000D02*
X118567200Y-116001800D01*
X124764800Y-115189000D02*
X119380000Y-115189000D01*
D23*
G36*
X122377474Y-80203379D02*
X122376927Y-80829873D01*
X122432011Y-80963187D01*
X113914999Y-89480199D01*
X113750252Y-89726761D01*
X113692400Y-90017600D01*
X113692400Y-91805133D01*
X113618657Y-91835603D01*
X113355408Y-92098393D01*
X113212762Y-92441921D01*
X113212758Y-92446121D01*
X108151323Y-92446121D01*
X106624522Y-90919320D01*
X106624562Y-90873833D01*
X106482517Y-90530057D01*
X106219727Y-90266808D01*
X105876199Y-90124162D01*
X105504233Y-90123838D01*
X105160457Y-90265883D01*
X104897208Y-90528673D01*
X104754562Y-90872201D01*
X104754238Y-91244167D01*
X104896283Y-91587943D01*
X105159073Y-91851192D01*
X105502601Y-91993838D01*
X105549477Y-91993879D01*
X107299120Y-93743522D01*
X107545682Y-93908269D01*
X107836521Y-93966121D01*
X116911725Y-93966121D01*
X117202564Y-93908269D01*
X117449126Y-93743522D01*
X118315200Y-92877448D01*
X118315200Y-101041200D01*
X118373052Y-101332039D01*
X118537799Y-101578601D01*
X124032878Y-107073680D01*
X124032838Y-107119167D01*
X124174883Y-107462943D01*
X124437673Y-107726192D01*
X124781201Y-107868838D01*
X124828077Y-107868879D01*
X128316799Y-111357601D01*
X128563361Y-111522348D01*
X128854200Y-111580200D01*
X129145040Y-111522348D01*
X129162390Y-111510755D01*
X129365273Y-111713992D01*
X129708801Y-111856638D01*
X130080767Y-111856962D01*
X130424543Y-111714917D01*
X130517258Y-111622364D01*
X130775601Y-111729638D01*
X131147567Y-111729962D01*
X131491343Y-111587917D01*
X131524518Y-111554800D01*
X146253200Y-111554800D01*
X146544039Y-111496948D01*
X146790601Y-111332201D01*
X160159680Y-97963122D01*
X160205167Y-97963162D01*
X160548943Y-97821117D01*
X160812192Y-97558327D01*
X160954838Y-97214799D01*
X160955162Y-96842833D01*
X160848527Y-96584757D01*
X160929943Y-96551117D01*
X161193192Y-96288327D01*
X161335838Y-95944799D01*
X161335842Y-95940599D01*
X173148597Y-95940599D01*
X174655078Y-97447080D01*
X174655038Y-97492567D01*
X174797083Y-97836343D01*
X175059873Y-98099592D01*
X175403401Y-98242238D01*
X175775367Y-98242562D01*
X176119143Y-98100517D01*
X176382392Y-97837727D01*
X176525038Y-97494199D01*
X176525362Y-97122233D01*
X176383317Y-96778457D01*
X176120527Y-96515208D01*
X175776999Y-96372562D01*
X175730123Y-96372521D01*
X174000800Y-94643198D01*
X173754238Y-94478451D01*
X173463399Y-94420599D01*
X157625601Y-94420599D01*
X157334762Y-94478451D01*
X157088200Y-94643198D01*
X154368520Y-97362878D01*
X154323033Y-97362838D01*
X153979257Y-97504883D01*
X153716008Y-97767673D01*
X153573362Y-98111201D01*
X153573038Y-98483167D01*
X153715083Y-98826943D01*
X153977873Y-99090192D01*
X154321401Y-99232838D01*
X154693367Y-99233162D01*
X155037143Y-99091117D01*
X155300392Y-98828327D01*
X155443038Y-98484799D01*
X155443079Y-98437923D01*
X157940403Y-95940599D01*
X159143599Y-95940599D01*
X145674399Y-109409799D01*
X131922901Y-109409799D01*
X131922962Y-109339633D01*
X131780917Y-108995857D01*
X131747800Y-108962682D01*
X131747800Y-102021305D01*
X138180674Y-102021305D01*
X138467043Y-102714372D01*
X138900206Y-103148292D01*
X138468907Y-103578839D01*
X138181328Y-104271405D01*
X138180674Y-105021305D01*
X138467043Y-105714372D01*
X138996839Y-106245093D01*
X139689405Y-106532672D01*
X140439305Y-106533326D01*
X141132372Y-106246957D01*
X141663093Y-105717161D01*
X141950672Y-105024595D01*
X141951326Y-104274695D01*
X141664957Y-103581628D01*
X141231794Y-103147708D01*
X141663093Y-102717161D01*
X141950672Y-102024595D01*
X141950674Y-102021305D01*
X145180674Y-102021305D01*
X145467043Y-102714372D01*
X145900206Y-103148292D01*
X145468907Y-103578839D01*
X145181328Y-104271405D01*
X145180674Y-105021305D01*
X145467043Y-105714372D01*
X145996839Y-106245093D01*
X146689405Y-106532672D01*
X147439305Y-106533326D01*
X148132372Y-106246957D01*
X148663093Y-105717161D01*
X148950672Y-105024595D01*
X148951326Y-104274695D01*
X148664957Y-103581628D01*
X148231794Y-103147708D01*
X148663093Y-102717161D01*
X148950672Y-102024595D01*
X148951326Y-101274695D01*
X148664957Y-100581628D01*
X148135161Y-100050907D01*
X147442595Y-99763328D01*
X146692695Y-99762674D01*
X145999628Y-100049043D01*
X145468907Y-100578839D01*
X145181328Y-101271405D01*
X145180674Y-102021305D01*
X141950674Y-102021305D01*
X141951326Y-101274695D01*
X141664957Y-100581628D01*
X141135161Y-100050907D01*
X140442595Y-99763328D01*
X139692695Y-99762674D01*
X138999628Y-100049043D01*
X138468907Y-100578839D01*
X138181328Y-101271405D01*
X138180674Y-102021305D01*
X131747800Y-102021305D01*
X131747800Y-101447600D01*
X131689948Y-101156761D01*
X131525201Y-100910199D01*
X131110122Y-100495120D01*
X131110162Y-100449633D01*
X130968117Y-100105857D01*
X130705327Y-99842608D01*
X130361799Y-99699962D01*
X129989833Y-99699638D01*
X129646057Y-99841683D01*
X129382808Y-100104473D01*
X129240162Y-100448001D01*
X129239838Y-100819967D01*
X129381883Y-101163743D01*
X129644673Y-101426992D01*
X129988201Y-101569638D01*
X130035077Y-101569679D01*
X130227800Y-101762402D01*
X130227800Y-108962337D01*
X130195608Y-108994473D01*
X130052962Y-109338001D01*
X130052655Y-109689943D01*
X129755920Y-109986678D01*
X129710433Y-109986638D01*
X129366657Y-110128683D01*
X129302015Y-110193213D01*
X127207928Y-108099126D01*
X127360392Y-107946927D01*
X127503038Y-107603399D01*
X127503362Y-107231433D01*
X127361317Y-106887657D01*
X127328200Y-106854482D01*
X127328200Y-102899063D01*
X127360392Y-102866927D01*
X127503038Y-102523399D01*
X127503362Y-102151433D01*
X127361317Y-101807657D01*
X127098527Y-101544408D01*
X126754999Y-101401762D01*
X126383033Y-101401438D01*
X126039257Y-101543483D01*
X125776008Y-101806273D01*
X125633362Y-102149801D01*
X125633038Y-102521767D01*
X125775083Y-102865543D01*
X125808200Y-102898718D01*
X125808200Y-106519007D01*
X125761117Y-106405057D01*
X125498327Y-106141808D01*
X125154799Y-105999162D01*
X125107923Y-105999121D01*
X119835200Y-100726398D01*
X119835200Y-92459663D01*
X119867392Y-92427527D01*
X120010038Y-92083999D01*
X120010042Y-92079799D01*
X138833197Y-92079799D01*
X139730078Y-92976680D01*
X139730038Y-93022167D01*
X139872083Y-93365943D01*
X140134873Y-93629192D01*
X140478401Y-93771838D01*
X140850367Y-93772162D01*
X141194143Y-93630117D01*
X141227318Y-93597000D01*
X147697337Y-93597000D01*
X147729473Y-93629192D01*
X148073001Y-93771838D01*
X148444967Y-93772162D01*
X148788743Y-93630117D01*
X149051992Y-93367327D01*
X149194638Y-93023799D01*
X149194962Y-92651833D01*
X149052917Y-92308057D01*
X148945048Y-92200000D01*
X172430598Y-92200000D01*
X178084078Y-97853480D01*
X178084038Y-97898967D01*
X178226083Y-98242743D01*
X178488873Y-98505992D01*
X178832401Y-98648638D01*
X179204367Y-98648962D01*
X179548143Y-98506917D01*
X179811392Y-98244127D01*
X179954038Y-97900599D01*
X179954362Y-97528633D01*
X179847120Y-97269086D01*
X179954038Y-97011599D01*
X179954362Y-96639633D01*
X179812317Y-96295857D01*
X179549527Y-96032608D01*
X179205999Y-95889962D01*
X179159123Y-95889921D01*
X172929202Y-89660000D01*
X176519998Y-89660000D01*
X182402078Y-95542080D01*
X182402038Y-95587567D01*
X182544083Y-95931343D01*
X182806873Y-96194592D01*
X183150401Y-96337238D01*
X183522367Y-96337562D01*
X183866143Y-96195517D01*
X184129392Y-95932727D01*
X184272038Y-95589199D01*
X184272362Y-95217233D01*
X184136839Y-94889242D01*
X184815078Y-95567481D01*
X184815038Y-95612967D01*
X184957083Y-95956743D01*
X185219873Y-96219992D01*
X185563401Y-96362638D01*
X185935367Y-96362962D01*
X186279143Y-96220917D01*
X186314592Y-96185530D01*
X187104569Y-96975507D01*
X187075962Y-97044401D01*
X187075638Y-97416367D01*
X187217683Y-97760143D01*
X187480473Y-98023392D01*
X187824001Y-98166038D01*
X188195967Y-98166362D01*
X188539743Y-98024317D01*
X188802992Y-97761527D01*
X188945638Y-97417999D01*
X188945962Y-97046033D01*
X188803917Y-96702257D01*
X188736555Y-96634778D01*
X188712948Y-96516097D01*
X188548201Y-96269535D01*
X182471600Y-90192934D01*
X182471600Y-86706968D01*
X183982637Y-86706968D01*
X184073923Y-86967580D01*
X184661833Y-87184045D01*
X185287828Y-87159049D01*
X185750077Y-86967580D01*
X185841363Y-86706968D01*
X186522637Y-86706968D01*
X186613923Y-86967580D01*
X187201833Y-87184045D01*
X187827828Y-87159049D01*
X188290077Y-86967580D01*
X188381363Y-86706968D01*
X189062637Y-86706968D01*
X189153923Y-86967580D01*
X189741833Y-87184045D01*
X190367828Y-87159049D01*
X190830077Y-86967580D01*
X190921363Y-86706968D01*
X191602637Y-86706968D01*
X191693923Y-86967580D01*
X192281833Y-87184045D01*
X192907828Y-87159049D01*
X193370077Y-86967580D01*
X193461363Y-86706968D01*
X192532000Y-85777605D01*
X191602637Y-86706968D01*
X190921363Y-86706968D01*
X189992000Y-85777605D01*
X189062637Y-86706968D01*
X188381363Y-86706968D01*
X187452000Y-85777605D01*
X186522637Y-86706968D01*
X185841363Y-86706968D01*
X184912000Y-85777605D01*
X183982637Y-86706968D01*
X182471600Y-86706968D01*
X182471600Y-86160463D01*
X182503792Y-86128327D01*
X182646438Y-85784799D01*
X182646762Y-85412833D01*
X182619905Y-85347833D01*
X183325955Y-85347833D01*
X183350951Y-85973828D01*
X183542420Y-86436077D01*
X183803032Y-86527363D01*
X184732395Y-85598000D01*
X185091605Y-85598000D01*
X186020968Y-86527363D01*
X186182000Y-86470957D01*
X186343032Y-86527363D01*
X187272395Y-85598000D01*
X187631605Y-85598000D01*
X188560968Y-86527363D01*
X188722000Y-86470957D01*
X188883032Y-86527363D01*
X189812395Y-85598000D01*
X190171605Y-85598000D01*
X191100968Y-86527363D01*
X191262000Y-86470957D01*
X191423032Y-86527363D01*
X192352395Y-85598000D01*
X191423032Y-84668637D01*
X191262000Y-84725043D01*
X191100968Y-84668637D01*
X190171605Y-85598000D01*
X189812395Y-85598000D01*
X188883032Y-84668637D01*
X188722000Y-84725043D01*
X188560968Y-84668637D01*
X187631605Y-85598000D01*
X187272395Y-85598000D01*
X186343032Y-84668637D01*
X186182000Y-84725043D01*
X186020968Y-84668637D01*
X185091605Y-85598000D01*
X184732395Y-85598000D01*
X183803032Y-84668637D01*
X183542420Y-84759923D01*
X183325955Y-85347833D01*
X182619905Y-85347833D01*
X182504717Y-85069057D01*
X182241927Y-84805808D01*
X181898399Y-84663162D01*
X181526433Y-84662838D01*
X181214716Y-84791636D01*
X181201580Y-84759923D01*
X180940968Y-84668637D01*
X180011605Y-85598000D01*
X180025748Y-85612143D01*
X179846143Y-85791748D01*
X179832000Y-85777605D01*
X178902637Y-86706968D01*
X178993923Y-86967580D01*
X179581833Y-87184045D01*
X180207828Y-87159049D01*
X180670077Y-86967580D01*
X180761362Y-86706970D01*
X180875804Y-86821412D01*
X180951600Y-86745616D01*
X180951600Y-89554398D01*
X178515201Y-87117999D01*
X178268639Y-86953252D01*
X178143794Y-86928419D01*
X178221363Y-86706968D01*
X177292000Y-85777605D01*
X176362637Y-86706968D01*
X176428640Y-86895400D01*
X175615360Y-86895400D01*
X175681363Y-86706968D01*
X174752000Y-85777605D01*
X173822637Y-86706968D01*
X173888640Y-86895400D01*
X173075360Y-86895400D01*
X173141363Y-86706968D01*
X172212000Y-85777605D01*
X171282637Y-86706968D01*
X171348640Y-86895400D01*
X167995360Y-86895400D01*
X168061363Y-86706968D01*
X167132000Y-85777605D01*
X166202637Y-86706968D01*
X166268640Y-86895400D01*
X165455360Y-86895400D01*
X165521363Y-86706968D01*
X164592000Y-85777605D01*
X163662637Y-86706968D01*
X163728640Y-86895400D01*
X162915360Y-86895400D01*
X162981363Y-86706968D01*
X162052000Y-85777605D01*
X161122637Y-86706968D01*
X161188640Y-86895400D01*
X160375360Y-86895400D01*
X160441363Y-86706968D01*
X159512000Y-85777605D01*
X159497858Y-85791748D01*
X159318253Y-85612143D01*
X159332395Y-85598000D01*
X159691605Y-85598000D01*
X160620968Y-86527363D01*
X160782000Y-86470957D01*
X160943032Y-86527363D01*
X161872395Y-85598000D01*
X162231605Y-85598000D01*
X163160968Y-86527363D01*
X163322000Y-86470957D01*
X163483032Y-86527363D01*
X164412395Y-85598000D01*
X164771605Y-85598000D01*
X165700968Y-86527363D01*
X165862000Y-86470957D01*
X166023032Y-86527363D01*
X166952395Y-85598000D01*
X167311605Y-85598000D01*
X168240968Y-86527363D01*
X168501580Y-86436077D01*
X168718045Y-85848167D01*
X168698067Y-85347833D01*
X170625955Y-85347833D01*
X170650951Y-85973828D01*
X170842420Y-86436077D01*
X171103032Y-86527363D01*
X172032395Y-85598000D01*
X172391605Y-85598000D01*
X173320968Y-86527363D01*
X173482000Y-86470957D01*
X173643032Y-86527363D01*
X174572395Y-85598000D01*
X174931605Y-85598000D01*
X175860968Y-86527363D01*
X176022000Y-86470957D01*
X176183032Y-86527363D01*
X177112395Y-85598000D01*
X177471605Y-85598000D01*
X178400968Y-86527363D01*
X178562000Y-86470957D01*
X178723032Y-86527363D01*
X179652395Y-85598000D01*
X178723032Y-84668637D01*
X178562000Y-84725043D01*
X178400968Y-84668637D01*
X177471605Y-85598000D01*
X177112395Y-85598000D01*
X176183032Y-84668637D01*
X176022000Y-84725043D01*
X175860968Y-84668637D01*
X174931605Y-85598000D01*
X174572395Y-85598000D01*
X173643032Y-84668637D01*
X173482000Y-84725043D01*
X173320968Y-84668637D01*
X172391605Y-85598000D01*
X172032395Y-85598000D01*
X171103032Y-84668637D01*
X170842420Y-84759923D01*
X170625955Y-85347833D01*
X168698067Y-85347833D01*
X168693049Y-85222172D01*
X168501580Y-84759923D01*
X168240968Y-84668637D01*
X167311605Y-85598000D01*
X166952395Y-85598000D01*
X166023032Y-84668637D01*
X165862000Y-84725043D01*
X165700968Y-84668637D01*
X164771605Y-85598000D01*
X164412395Y-85598000D01*
X163483032Y-84668637D01*
X163322000Y-84725043D01*
X163160968Y-84668637D01*
X162231605Y-85598000D01*
X161872395Y-85598000D01*
X160943032Y-84668637D01*
X160782000Y-84725043D01*
X160620968Y-84668637D01*
X159691605Y-85598000D01*
X159332395Y-85598000D01*
X158403032Y-84668637D01*
X158242000Y-84725043D01*
X158080968Y-84668637D01*
X157151605Y-85598000D01*
X157165748Y-85612143D01*
X156986143Y-85791748D01*
X156972000Y-85777605D01*
X156042637Y-86706968D01*
X156133923Y-86967580D01*
X156721833Y-87184045D01*
X157347828Y-87159049D01*
X157361924Y-87153210D01*
X157230962Y-87468601D01*
X157230638Y-87840567D01*
X157354361Y-88140000D01*
X157045757Y-88140000D01*
X156952317Y-87913857D01*
X156689527Y-87650608D01*
X156345999Y-87507962D01*
X155974033Y-87507638D01*
X155630257Y-87649683D01*
X155367008Y-87912473D01*
X155224362Y-88256001D01*
X155224038Y-88627967D01*
X155366083Y-88971743D01*
X155628873Y-89234992D01*
X155972401Y-89377638D01*
X156019277Y-89377679D01*
X156076998Y-89435400D01*
X151895663Y-89435400D01*
X151863527Y-89403208D01*
X151519999Y-89260562D01*
X151148033Y-89260238D01*
X150804257Y-89402283D01*
X150771082Y-89435400D01*
X148034863Y-89435400D01*
X148002727Y-89403208D01*
X147659199Y-89260562D01*
X147287233Y-89260238D01*
X146943457Y-89402283D01*
X146680208Y-89665073D01*
X146537562Y-90008601D01*
X146537238Y-90380567D01*
X146660961Y-90680000D01*
X145145602Y-90680000D01*
X144495922Y-90030320D01*
X144495962Y-89984833D01*
X144353917Y-89641057D01*
X144091127Y-89377808D01*
X143747599Y-89235162D01*
X143375633Y-89234838D01*
X143031857Y-89376883D01*
X142768608Y-89639673D01*
X142625962Y-89983201D01*
X142625638Y-90355167D01*
X142767683Y-90698943D01*
X143030473Y-90962192D01*
X143374001Y-91104838D01*
X143420877Y-91104879D01*
X144293399Y-91977401D01*
X144442459Y-92077000D01*
X141577600Y-92077000D01*
X141577600Y-88624263D01*
X141609792Y-88592127D01*
X141752438Y-88248599D01*
X141752762Y-87876633D01*
X141744485Y-87856600D01*
X141829937Y-87856600D01*
X141862073Y-87888792D01*
X142205601Y-88031438D01*
X142577567Y-88031762D01*
X142921343Y-87889717D01*
X142954518Y-87856600D01*
X149424537Y-87856600D01*
X149456673Y-87888792D01*
X149800201Y-88031438D01*
X150172167Y-88031762D01*
X150515943Y-87889717D01*
X150779192Y-87626927D01*
X150921838Y-87283399D01*
X150922162Y-86911433D01*
X150837679Y-86706968D01*
X153502637Y-86706968D01*
X153593923Y-86967580D01*
X154181833Y-87184045D01*
X154807828Y-87159049D01*
X155270077Y-86967580D01*
X155361363Y-86706968D01*
X154432000Y-85777605D01*
X153502637Y-86706968D01*
X150837679Y-86706968D01*
X150780117Y-86567657D01*
X150747000Y-86534482D01*
X150747000Y-85557202D01*
X150956369Y-85347833D01*
X152845955Y-85347833D01*
X152870951Y-85973828D01*
X153062420Y-86436077D01*
X153323032Y-86527363D01*
X154252395Y-85598000D01*
X154611605Y-85598000D01*
X155540968Y-86527363D01*
X155702000Y-86470957D01*
X155863032Y-86527363D01*
X156792395Y-85598000D01*
X155863032Y-84668637D01*
X155702000Y-84725043D01*
X155540968Y-84668637D01*
X154611605Y-85598000D01*
X154252395Y-85598000D01*
X153323032Y-84668637D01*
X153062420Y-84759923D01*
X152845955Y-85347833D01*
X150956369Y-85347833D01*
X152486202Y-83818000D01*
X153042090Y-83818000D01*
X153096171Y-83948887D01*
X153537115Y-84390601D01*
X153502637Y-84489032D01*
X154432000Y-85418395D01*
X155361363Y-84489032D01*
X155326687Y-84390036D01*
X155702273Y-84015104D01*
X156077115Y-84390601D01*
X156042637Y-84489032D01*
X156972000Y-85418395D01*
X157901363Y-84489032D01*
X157866687Y-84390036D01*
X158242273Y-84015104D01*
X158617115Y-84390601D01*
X158582637Y-84489032D01*
X159512000Y-85418395D01*
X160441363Y-84489032D01*
X160406687Y-84390036D01*
X160782273Y-84015104D01*
X161157115Y-84390601D01*
X161122637Y-84489032D01*
X162052000Y-85418395D01*
X162981363Y-84489032D01*
X162946687Y-84390036D01*
X163322273Y-84015104D01*
X163697115Y-84390601D01*
X163662637Y-84489032D01*
X164592000Y-85418395D01*
X165521363Y-84489032D01*
X165486687Y-84390036D01*
X165862273Y-84015104D01*
X166237115Y-84390601D01*
X166202637Y-84489032D01*
X167132000Y-85418395D01*
X168061363Y-84489032D01*
X168026687Y-84390036D01*
X168466272Y-83951217D01*
X168521589Y-83818000D01*
X170822090Y-83818000D01*
X170876171Y-83948887D01*
X171317115Y-84390601D01*
X171282637Y-84489032D01*
X172212000Y-85418395D01*
X173141363Y-84489032D01*
X173106687Y-84390036D01*
X173482273Y-84015104D01*
X173857115Y-84390601D01*
X173822637Y-84489032D01*
X174752000Y-85418395D01*
X175681363Y-84489032D01*
X175646687Y-84390036D01*
X176022273Y-84015104D01*
X176397115Y-84390601D01*
X176362637Y-84489032D01*
X177292000Y-85418395D01*
X178221363Y-84489032D01*
X178186687Y-84390036D01*
X178562273Y-84015104D01*
X178937115Y-84390601D01*
X178902637Y-84489032D01*
X179832000Y-85418395D01*
X180761363Y-84489032D01*
X180726687Y-84390036D01*
X181166272Y-83951217D01*
X181221589Y-83818000D01*
X183522090Y-83818000D01*
X183576171Y-83948887D01*
X184017115Y-84390601D01*
X183982637Y-84489032D01*
X184912000Y-85418395D01*
X185841363Y-84489032D01*
X185806687Y-84390036D01*
X186182273Y-84015104D01*
X186557115Y-84390601D01*
X186522637Y-84489032D01*
X187452000Y-85418395D01*
X188381363Y-84489032D01*
X188346687Y-84390036D01*
X188722273Y-84015104D01*
X189097115Y-84390601D01*
X189062637Y-84489032D01*
X189992000Y-85418395D01*
X190921363Y-84489032D01*
X190886687Y-84390036D01*
X191262273Y-84015104D01*
X191637115Y-84390601D01*
X191602637Y-84489032D01*
X192532000Y-85418395D01*
X192546143Y-85404253D01*
X192725748Y-85583858D01*
X192711605Y-85598000D01*
X193640968Y-86527363D01*
X193901580Y-86436077D01*
X194118045Y-85848167D01*
X194112666Y-85713468D01*
X197080600Y-88681402D01*
X197080600Y-93923198D01*
X194701800Y-91544398D01*
X194455238Y-91379651D01*
X194164399Y-91321799D01*
X187419801Y-91321799D01*
X187128961Y-91379651D01*
X186882400Y-91544398D01*
X186677320Y-91749478D01*
X186631833Y-91749438D01*
X186288057Y-91891483D01*
X186024808Y-92154273D01*
X185882162Y-92497801D01*
X185881838Y-92869767D01*
X186023883Y-93213543D01*
X186286673Y-93476792D01*
X186630201Y-93619438D01*
X187002167Y-93619762D01*
X187279643Y-93505111D01*
X187493801Y-93594038D01*
X187865767Y-93594362D01*
X188209543Y-93452317D01*
X188242718Y-93419200D01*
X193794054Y-93419200D01*
X194691208Y-94316354D01*
X194435113Y-94422171D01*
X194127301Y-94729446D01*
X194127562Y-94429833D01*
X193985517Y-94086057D01*
X193722727Y-93822808D01*
X193379199Y-93680162D01*
X193007233Y-93679838D01*
X192760417Y-93781820D01*
X192515599Y-93680162D01*
X192143633Y-93679838D01*
X191896817Y-93781820D01*
X191651999Y-93680162D01*
X191280033Y-93679838D01*
X191002557Y-93794489D01*
X190788399Y-93705562D01*
X190416433Y-93705238D01*
X190072657Y-93847283D01*
X189809408Y-94110073D01*
X189666762Y-94453601D01*
X189666438Y-94825567D01*
X189808483Y-95169343D01*
X189841600Y-95202518D01*
X189841600Y-95863557D01*
X189809408Y-95895693D01*
X189666762Y-96239221D01*
X189666438Y-96611187D01*
X189808483Y-96954963D01*
X190071273Y-97218212D01*
X190131209Y-97243100D01*
X189885608Y-97488273D01*
X189742962Y-97831801D01*
X189742638Y-98203767D01*
X189884683Y-98547543D01*
X190147473Y-98810792D01*
X190491001Y-98953438D01*
X190862967Y-98953762D01*
X191147674Y-98836124D01*
X190487320Y-99496478D01*
X190441833Y-99496438D01*
X190098057Y-99638483D01*
X189834808Y-99901273D01*
X189692162Y-100244801D01*
X189691959Y-100477601D01*
X187040960Y-100477601D01*
X187040962Y-100475033D01*
X186898917Y-100131257D01*
X186636127Y-99868008D01*
X186292599Y-99725362D01*
X185920633Y-99725038D01*
X185576857Y-99867083D01*
X185543682Y-99900200D01*
X185068063Y-99900200D01*
X185035927Y-99868008D01*
X184692399Y-99725362D01*
X184320433Y-99725038D01*
X183976657Y-99867083D01*
X183713408Y-100129873D01*
X183570762Y-100473401D01*
X183570758Y-100477601D01*
X183238803Y-100477601D01*
X182903400Y-100142198D01*
X182903400Y-99393863D01*
X182935592Y-99361727D01*
X183078238Y-99018199D01*
X183078562Y-98646233D01*
X182936517Y-98302457D01*
X182673727Y-98039208D01*
X182330199Y-97896562D01*
X181958233Y-97896238D01*
X181614457Y-98038283D01*
X181351208Y-98301073D01*
X181208562Y-98644601D01*
X181208238Y-99016567D01*
X181350283Y-99360343D01*
X181383400Y-99393518D01*
X181383400Y-100457000D01*
X181441252Y-100747839D01*
X181605999Y-100994401D01*
X182386600Y-101775002D01*
X182633162Y-101939749D01*
X182924001Y-101997601D01*
X193571922Y-101997601D01*
X193862761Y-101939749D01*
X194065462Y-101804309D01*
X194432783Y-102172272D01*
X195011379Y-102412526D01*
X195637873Y-102413073D01*
X196216887Y-102173829D01*
X196658601Y-101732885D01*
X196757032Y-101767363D01*
X197686395Y-100838000D01*
X197672253Y-100823858D01*
X197851858Y-100644253D01*
X197866000Y-100658395D01*
X197880143Y-100644253D01*
X198059748Y-100823858D01*
X198045605Y-100838000D01*
X198059748Y-100852143D01*
X197880143Y-101031748D01*
X197866000Y-101017605D01*
X196936637Y-101946968D01*
X197027923Y-102207580D01*
X197615833Y-102424045D01*
X198241828Y-102399049D01*
X198503000Y-102290868D01*
X198503000Y-103190198D01*
X198033798Y-103659400D01*
X191439800Y-103659400D01*
X191148961Y-103717252D01*
X190902399Y-103881999D01*
X184145999Y-110638399D01*
X183981252Y-110884961D01*
X183923400Y-111175800D01*
X183923400Y-112588198D01*
X181726998Y-114784600D01*
X173263402Y-114784600D01*
X171879800Y-113400998D01*
X171879800Y-112766579D01*
X171992786Y-112766579D01*
X172180408Y-113220657D01*
X172527515Y-113568371D01*
X172981266Y-113756785D01*
X173472579Y-113757214D01*
X173926657Y-113569592D01*
X174274371Y-113222485D01*
X174462785Y-112768734D01*
X174463214Y-112277421D01*
X174275592Y-111823343D01*
X173928485Y-111475629D01*
X173474734Y-111287215D01*
X172983421Y-111286786D01*
X172529343Y-111474408D01*
X172181629Y-111821515D01*
X171993215Y-112275266D01*
X171992786Y-112766579D01*
X171879800Y-112766579D01*
X171879800Y-107340400D01*
X171821948Y-107049561D01*
X171657201Y-106802999D01*
X170886522Y-106032320D01*
X170886562Y-105986833D01*
X170744517Y-105643057D01*
X170481727Y-105379808D01*
X170277568Y-105295034D01*
X174078880Y-101493722D01*
X174124367Y-101493762D01*
X174468143Y-101351717D01*
X174731392Y-101088927D01*
X174874038Y-100745399D01*
X174874335Y-100404200D01*
X178047998Y-100404200D01*
X175628320Y-102823878D01*
X175582833Y-102823838D01*
X175239057Y-102965883D01*
X174975808Y-103228673D01*
X174833162Y-103572201D01*
X174832838Y-103944167D01*
X174974883Y-104287943D01*
X175008000Y-104321118D01*
X175008000Y-111535644D01*
X174721629Y-111821515D01*
X174533215Y-112275266D01*
X174532786Y-112766579D01*
X174720408Y-113220657D01*
X175067515Y-113568371D01*
X175521266Y-113756785D01*
X176012579Y-113757214D01*
X176466657Y-113569592D01*
X176814371Y-113222485D01*
X177002785Y-112768734D01*
X177002786Y-112766579D01*
X178342786Y-112766579D01*
X178530408Y-113220657D01*
X178877515Y-113568371D01*
X179331266Y-113756785D01*
X179822579Y-113757214D01*
X180276657Y-113569592D01*
X180624371Y-113222485D01*
X180812785Y-112768734D01*
X180813214Y-112277421D01*
X180625592Y-111823343D01*
X180278485Y-111475629D01*
X179824734Y-111287215D01*
X179333421Y-111286786D01*
X178879343Y-111474408D01*
X178531629Y-111821515D01*
X178343215Y-112275266D01*
X178342786Y-112766579D01*
X177002786Y-112766579D01*
X177003214Y-112277421D01*
X176815592Y-111823343D01*
X176528000Y-111535248D01*
X176528000Y-104321463D01*
X176560192Y-104289327D01*
X176702838Y-103945799D01*
X176702879Y-103898923D01*
X179133480Y-101468322D01*
X179178967Y-101468362D01*
X179522743Y-101326317D01*
X179561963Y-101287165D01*
X181358000Y-103083202D01*
X181358000Y-111535644D01*
X181071629Y-111821515D01*
X180883215Y-112275266D01*
X180882786Y-112766579D01*
X181070408Y-113220657D01*
X181417515Y-113568371D01*
X181871266Y-113756785D01*
X182362579Y-113757214D01*
X182816657Y-113569592D01*
X183164371Y-113222485D01*
X183352785Y-112768734D01*
X183353214Y-112277421D01*
X183165592Y-111823343D01*
X182878000Y-111535248D01*
X182878000Y-102768400D01*
X182820148Y-102477561D01*
X182655401Y-102230999D01*
X179928922Y-99504520D01*
X179928962Y-99459033D01*
X179786917Y-99115257D01*
X179524127Y-98852008D01*
X179180599Y-98709362D01*
X178808633Y-98709038D01*
X178464857Y-98851083D01*
X178431682Y-98884200D01*
X165176200Y-98884200D01*
X164885361Y-98942052D01*
X164638799Y-99106799D01*
X163309320Y-100436278D01*
X163263833Y-100436238D01*
X162920057Y-100578283D01*
X162656808Y-100841073D01*
X162514162Y-101184601D01*
X162513838Y-101556567D01*
X162655883Y-101900343D01*
X162918673Y-102163592D01*
X163262201Y-102306238D01*
X163634167Y-102306562D01*
X163977943Y-102164517D01*
X164241192Y-101901727D01*
X164383838Y-101558199D01*
X164383879Y-101511323D01*
X165491002Y-100404200D01*
X173004334Y-100404200D01*
X173004321Y-100418677D01*
X168010998Y-105412000D01*
X164646463Y-105412000D01*
X164614327Y-105379808D01*
X164270799Y-105237162D01*
X163898833Y-105236838D01*
X163555057Y-105378883D01*
X163291808Y-105641673D01*
X163149162Y-105985201D01*
X163148838Y-106357167D01*
X163290883Y-106700943D01*
X163553673Y-106964192D01*
X163897201Y-107106838D01*
X164269167Y-107107162D01*
X164612943Y-106965117D01*
X164646118Y-106932000D01*
X168325800Y-106932000D01*
X168616639Y-106874148D01*
X168863201Y-106709401D01*
X169074479Y-106498123D01*
X169158283Y-106700943D01*
X169421073Y-106964192D01*
X169764601Y-107106838D01*
X169811477Y-107106879D01*
X170359800Y-107655202D01*
X170359800Y-111856236D01*
X170280735Y-111838870D01*
X169597605Y-112522000D01*
X170280735Y-113205130D01*
X170359800Y-113187764D01*
X170359800Y-113715800D01*
X170417652Y-114006639D01*
X170582399Y-114253201D01*
X172411199Y-116082001D01*
X172657761Y-116246748D01*
X172948600Y-116304600D01*
X182041800Y-116304600D01*
X182332639Y-116246748D01*
X182579201Y-116082001D01*
X182872989Y-115788213D01*
X187231392Y-115788213D01*
X187300857Y-116030397D01*
X187824302Y-116217144D01*
X188379368Y-116189362D01*
X188763143Y-116030397D01*
X188832608Y-115788213D01*
X188032000Y-114987605D01*
X187231392Y-115788213D01*
X182872989Y-115788213D01*
X184060900Y-114600302D01*
X186622856Y-114600302D01*
X186650638Y-115155368D01*
X186809603Y-115539143D01*
X187051787Y-115608608D01*
X187852395Y-114808000D01*
X188211605Y-114808000D01*
X189012213Y-115608608D01*
X189254397Y-115539143D01*
X189416540Y-115084661D01*
X191134758Y-115084661D01*
X191346990Y-115598303D01*
X191739630Y-115991629D01*
X192252900Y-116204757D01*
X192808661Y-116205242D01*
X193322303Y-115993010D01*
X193715629Y-115600370D01*
X193928757Y-115087100D01*
X193929242Y-114531339D01*
X193915764Y-114498719D01*
X197103604Y-114498719D01*
X197450894Y-115339223D01*
X198093395Y-115982846D01*
X198933292Y-116331602D01*
X199842719Y-116332396D01*
X200683223Y-115985106D01*
X201326846Y-115342605D01*
X201675602Y-114502708D01*
X201676396Y-113593281D01*
X201329106Y-112752777D01*
X200686605Y-112109154D01*
X199846708Y-111760398D01*
X198937281Y-111759604D01*
X198096777Y-112106894D01*
X197453154Y-112749395D01*
X197104398Y-113589292D01*
X197103604Y-114498719D01*
X193915764Y-114498719D01*
X193717010Y-114017697D01*
X193492454Y-113792748D01*
X194076089Y-113793257D01*
X194622086Y-113567656D01*
X195040188Y-113150283D01*
X195266742Y-112604681D01*
X195267257Y-112013911D01*
X195041656Y-111467914D01*
X194624283Y-111049812D01*
X194078681Y-110823258D01*
X193487911Y-110822743D01*
X192941914Y-111048344D01*
X192523812Y-111465717D01*
X192297258Y-112011319D01*
X192296743Y-112602089D01*
X192522344Y-113148086D01*
X192785019Y-113411220D01*
X192255339Y-113410758D01*
X191741697Y-113622990D01*
X191348371Y-114015630D01*
X191135243Y-114528900D01*
X191134758Y-115084661D01*
X189416540Y-115084661D01*
X189441144Y-115015698D01*
X189413362Y-114460632D01*
X189254397Y-114076857D01*
X189012213Y-114007392D01*
X188211605Y-114808000D01*
X187852395Y-114808000D01*
X187051787Y-114007392D01*
X186809603Y-114076857D01*
X186622856Y-114600302D01*
X184060900Y-114600302D01*
X185220801Y-113440401D01*
X185385548Y-113193839D01*
X185436146Y-112939470D01*
X185522344Y-113148086D01*
X185939717Y-113566188D01*
X186485319Y-113792742D01*
X187076089Y-113793257D01*
X187263508Y-113715817D01*
X187231392Y-113827787D01*
X188032000Y-114628395D01*
X188832608Y-113827787D01*
X188763143Y-113585603D01*
X188239698Y-113398856D01*
X187767506Y-113422490D01*
X188040188Y-113150283D01*
X188266742Y-112604681D01*
X188267257Y-112013911D01*
X188041656Y-111467914D01*
X187624283Y-111049812D01*
X187078681Y-110823258D01*
X186487911Y-110822743D01*
X185941914Y-111048344D01*
X185523812Y-111465717D01*
X185443400Y-111659370D01*
X185443400Y-111490602D01*
X188646435Y-108287567D01*
X189869638Y-108287567D01*
X190011683Y-108631343D01*
X190274473Y-108894592D01*
X190618001Y-109037238D01*
X190989967Y-109037562D01*
X191333743Y-108895517D01*
X191366918Y-108862400D01*
X200249937Y-108862400D01*
X200282073Y-108894592D01*
X200625601Y-109037238D01*
X200997567Y-109037562D01*
X201341343Y-108895517D01*
X201604592Y-108632727D01*
X201747238Y-108289199D01*
X201747562Y-107917233D01*
X201605517Y-107573457D01*
X201342727Y-107310208D01*
X200999199Y-107167562D01*
X200627233Y-107167238D01*
X200283457Y-107309283D01*
X200250282Y-107342400D01*
X191367263Y-107342400D01*
X191335127Y-107310208D01*
X190991599Y-107167562D01*
X190619633Y-107167238D01*
X190275857Y-107309283D01*
X190012608Y-107572073D01*
X189869962Y-107915601D01*
X189869638Y-108287567D01*
X188646435Y-108287567D01*
X191754602Y-105179400D01*
X198348600Y-105179400D01*
X198639439Y-105121548D01*
X198886001Y-104956801D01*
X199800401Y-104042401D01*
X199965148Y-103795839D01*
X200023000Y-103505000D01*
X200023000Y-100353344D01*
X199987431Y-100174527D01*
X199965148Y-100062504D01*
X199800401Y-99815943D01*
X199187963Y-99203505D01*
X199200272Y-99191217D01*
X199440526Y-98612621D01*
X199441073Y-97986127D01*
X199201829Y-97407113D01*
X198823104Y-97027727D01*
X199200272Y-96651217D01*
X199440526Y-96072621D01*
X199441073Y-95446127D01*
X199201829Y-94867113D01*
X198759217Y-94423728D01*
X198600600Y-94357864D01*
X198600600Y-88366600D01*
X198542748Y-88075761D01*
X198378001Y-87829199D01*
X194052216Y-83503414D01*
X194106526Y-83372621D01*
X194106848Y-83002719D01*
X197103604Y-83002719D01*
X197450894Y-83843223D01*
X198093395Y-84486846D01*
X198933292Y-84835602D01*
X199842719Y-84836396D01*
X200683223Y-84489106D01*
X201326846Y-83846605D01*
X201675602Y-83006708D01*
X201676396Y-82097281D01*
X201329106Y-81256777D01*
X200686605Y-80613154D01*
X199846708Y-80264398D01*
X198937281Y-80263604D01*
X198096777Y-80610894D01*
X197453154Y-81253395D01*
X197104398Y-82093292D01*
X197103604Y-83002719D01*
X194106848Y-83002719D01*
X194107073Y-82746127D01*
X193867829Y-82167113D01*
X193489104Y-81787727D01*
X193866272Y-81411217D01*
X194106526Y-80832621D01*
X194107073Y-80206127D01*
X194004549Y-79958000D01*
X199320069Y-79958000D01*
X200327993Y-80158488D01*
X201123183Y-80689817D01*
X201654512Y-81485007D01*
X201853601Y-82485897D01*
X201852605Y-82535707D01*
X201855080Y-82549596D01*
X201855000Y-82550000D01*
X201855000Y-114103069D01*
X201654512Y-115110993D01*
X201123183Y-115906183D01*
X200327993Y-116437512D01*
X199320069Y-116638000D01*
X119184471Y-116638000D01*
X119195818Y-116630418D01*
X119748236Y-116078000D01*
X124467611Y-116078000D01*
X124578001Y-116123838D01*
X124949967Y-116124162D01*
X125293743Y-115982117D01*
X125556992Y-115719327D01*
X125699638Y-115375799D01*
X125699962Y-115003833D01*
X125557917Y-114660057D01*
X125295127Y-114396808D01*
X124951599Y-114254162D01*
X124579633Y-114253838D01*
X124467912Y-114300000D01*
X119380000Y-114300000D01*
X119039794Y-114367671D01*
X118843667Y-114498719D01*
X118751382Y-114560382D01*
X118198964Y-115112800D01*
X117092243Y-115112800D01*
X117222834Y-114982437D01*
X117474713Y-114375845D01*
X117475286Y-113719037D01*
X117260462Y-113199120D01*
X127584016Y-113199120D01*
X127744927Y-113588554D01*
X128042619Y-113886766D01*
X128431772Y-114048356D01*
X128853140Y-114048724D01*
X129242574Y-113887813D01*
X129540786Y-113590121D01*
X129702376Y-113200968D01*
X129702377Y-113199120D01*
X131383856Y-113199120D01*
X131544767Y-113588554D01*
X131842459Y-113886766D01*
X132231612Y-114048356D01*
X132652980Y-114048724D01*
X133042414Y-113887813D01*
X133340626Y-113590121D01*
X133502216Y-113200968D01*
X133502584Y-112779600D01*
X133497204Y-112766579D01*
X159292786Y-112766579D01*
X159480408Y-113220657D01*
X159827515Y-113568371D01*
X160281266Y-113756785D01*
X160772579Y-113757214D01*
X161226657Y-113569592D01*
X161411837Y-113384735D01*
X162384870Y-113384735D01*
X162434383Y-113610164D01*
X162899036Y-113769807D01*
X163389413Y-113739482D01*
X163701617Y-113610164D01*
X163751130Y-113384735D01*
X163068000Y-112701605D01*
X162384870Y-113384735D01*
X161411837Y-113384735D01*
X161574371Y-113222485D01*
X161762785Y-112768734D01*
X161763147Y-112353036D01*
X161820193Y-112353036D01*
X161850518Y-112843413D01*
X161979836Y-113155617D01*
X162205265Y-113205130D01*
X162888395Y-112522000D01*
X163247605Y-112522000D01*
X163930735Y-113205130D01*
X164156164Y-113155617D01*
X164289827Y-112766579D01*
X165642786Y-112766579D01*
X165830408Y-113220657D01*
X166177515Y-113568371D01*
X166631266Y-113756785D01*
X167122579Y-113757214D01*
X167576657Y-113569592D01*
X167761837Y-113384735D01*
X168734870Y-113384735D01*
X168784383Y-113610164D01*
X169249036Y-113769807D01*
X169739413Y-113739482D01*
X170051617Y-113610164D01*
X170101130Y-113384735D01*
X169418000Y-112701605D01*
X168734870Y-113384735D01*
X167761837Y-113384735D01*
X167924371Y-113222485D01*
X168112785Y-112768734D01*
X168113147Y-112353036D01*
X168170193Y-112353036D01*
X168200518Y-112843413D01*
X168329836Y-113155617D01*
X168555265Y-113205130D01*
X169238395Y-112522000D01*
X168555265Y-111838870D01*
X168329836Y-111888383D01*
X168170193Y-112353036D01*
X168113147Y-112353036D01*
X168113214Y-112277421D01*
X167925592Y-111823343D01*
X167761801Y-111659265D01*
X168734870Y-111659265D01*
X169418000Y-112342395D01*
X170101130Y-111659265D01*
X170051617Y-111433836D01*
X169586964Y-111274193D01*
X169096587Y-111304518D01*
X168784383Y-111433836D01*
X168734870Y-111659265D01*
X167761801Y-111659265D01*
X167578485Y-111475629D01*
X167124734Y-111287215D01*
X166633421Y-111286786D01*
X166179343Y-111474408D01*
X165831629Y-111821515D01*
X165643215Y-112275266D01*
X165642786Y-112766579D01*
X164289827Y-112766579D01*
X164315807Y-112690964D01*
X164285482Y-112200587D01*
X164156164Y-111888383D01*
X163930735Y-111838870D01*
X163247605Y-112522000D01*
X162888395Y-112522000D01*
X162205265Y-111838870D01*
X161979836Y-111888383D01*
X161820193Y-112353036D01*
X161763147Y-112353036D01*
X161763214Y-112277421D01*
X161575592Y-111823343D01*
X161411801Y-111659265D01*
X162384870Y-111659265D01*
X163068000Y-112342395D01*
X163751130Y-111659265D01*
X163701617Y-111433836D01*
X163236964Y-111274193D01*
X162746587Y-111304518D01*
X162434383Y-111433836D01*
X162384870Y-111659265D01*
X161411801Y-111659265D01*
X161228485Y-111475629D01*
X160774734Y-111287215D01*
X160283421Y-111286786D01*
X159829343Y-111474408D01*
X159481629Y-111821515D01*
X159293215Y-112275266D01*
X159292786Y-112766579D01*
X133497204Y-112766579D01*
X133341673Y-112390166D01*
X133043981Y-112091954D01*
X132654828Y-111930364D01*
X132233460Y-111929996D01*
X131844026Y-112090907D01*
X131545814Y-112388599D01*
X131384224Y-112777752D01*
X131383856Y-113199120D01*
X129702377Y-113199120D01*
X129702744Y-112779600D01*
X129541833Y-112390166D01*
X129244141Y-112091954D01*
X128854988Y-111930364D01*
X128433620Y-111929996D01*
X128044186Y-112090907D01*
X127745974Y-112388599D01*
X127584384Y-112777752D01*
X127584016Y-113199120D01*
X117260462Y-113199120D01*
X117224466Y-113112005D01*
X116760437Y-112647166D01*
X116153845Y-112395287D01*
X115497037Y-112394714D01*
X114890005Y-112645534D01*
X114425166Y-113109563D01*
X114173287Y-113716155D01*
X114172714Y-114372963D01*
X114423534Y-114979995D01*
X114556108Y-115112800D01*
X111823436Y-115112800D01*
X106511599Y-109800963D01*
X114172714Y-109800963D01*
X114423534Y-110407995D01*
X114887563Y-110872834D01*
X115494155Y-111124713D01*
X116150963Y-111125286D01*
X116757995Y-110874466D01*
X117222834Y-110410437D01*
X117474713Y-109803845D01*
X117475286Y-109147037D01*
X117224466Y-108540005D01*
X116760437Y-108075166D01*
X116153845Y-107823287D01*
X115497037Y-107822714D01*
X114890005Y-108073534D01*
X114425166Y-108537563D01*
X114173287Y-109144155D01*
X114172714Y-109800963D01*
X106511599Y-109800963D01*
X102692200Y-105981564D01*
X102692200Y-88943189D01*
X102738038Y-88832799D01*
X102738362Y-88460833D01*
X102596317Y-88117057D01*
X102333527Y-87853808D01*
X101989999Y-87711162D01*
X101675000Y-87710888D01*
X101675000Y-84659672D01*
X102305127Y-85290900D01*
X103493696Y-85784437D01*
X104780658Y-85785560D01*
X105970086Y-85294098D01*
X106880900Y-84384873D01*
X107374437Y-83196304D01*
X107374683Y-82914048D01*
X110638984Y-82914048D01*
X110898767Y-83542772D01*
X111379378Y-84024222D01*
X112007648Y-84285103D01*
X112687928Y-84285696D01*
X113316652Y-84025913D01*
X113798102Y-83545302D01*
X114058983Y-82917032D01*
X114059031Y-82861150D01*
X115638000Y-82861150D01*
X115638000Y-83776710D01*
X115734673Y-84010099D01*
X115913302Y-84188727D01*
X116146691Y-84285400D01*
X117062250Y-84285400D01*
X117221000Y-84126650D01*
X117221000Y-82702400D01*
X117475000Y-82702400D01*
X117475000Y-84126650D01*
X117633750Y-84285400D01*
X118549309Y-84285400D01*
X118782698Y-84188727D01*
X118961327Y-84010099D01*
X119058000Y-83776710D01*
X119058000Y-82861150D01*
X118899250Y-82702400D01*
X117475000Y-82702400D01*
X117221000Y-82702400D01*
X115796750Y-82702400D01*
X115638000Y-82861150D01*
X114059031Y-82861150D01*
X114059576Y-82236752D01*
X113799793Y-81608028D01*
X113566263Y-81374090D01*
X115638000Y-81374090D01*
X115638000Y-82289650D01*
X115796750Y-82448400D01*
X117221000Y-82448400D01*
X117221000Y-81024150D01*
X117475000Y-81024150D01*
X117475000Y-82448400D01*
X118899250Y-82448400D01*
X119058000Y-82289650D01*
X119058000Y-81374090D01*
X118961327Y-81140701D01*
X118782698Y-80962073D01*
X118549309Y-80865400D01*
X117633750Y-80865400D01*
X117475000Y-81024150D01*
X117221000Y-81024150D01*
X117062250Y-80865400D01*
X116146691Y-80865400D01*
X115913302Y-80962073D01*
X115734673Y-81140701D01*
X115638000Y-81374090D01*
X113566263Y-81374090D01*
X113319182Y-81126578D01*
X112690912Y-80865697D01*
X112010632Y-80865104D01*
X111381908Y-81124887D01*
X110900458Y-81605498D01*
X110639577Y-82233768D01*
X110638984Y-82914048D01*
X107374683Y-82914048D01*
X107375560Y-81909342D01*
X106884098Y-80719914D01*
X106123513Y-79958000D01*
X122479364Y-79958000D01*
X122377474Y-80203379D01*
X122377474Y-80203379D01*
G37*
X122377474Y-80203379D02*
X122376927Y-80829873D01*
X122432011Y-80963187D01*
X113914999Y-89480199D01*
X113750252Y-89726761D01*
X113692400Y-90017600D01*
X113692400Y-91805133D01*
X113618657Y-91835603D01*
X113355408Y-92098393D01*
X113212762Y-92441921D01*
X113212758Y-92446121D01*
X108151323Y-92446121D01*
X106624522Y-90919320D01*
X106624562Y-90873833D01*
X106482517Y-90530057D01*
X106219727Y-90266808D01*
X105876199Y-90124162D01*
X105504233Y-90123838D01*
X105160457Y-90265883D01*
X104897208Y-90528673D01*
X104754562Y-90872201D01*
X104754238Y-91244167D01*
X104896283Y-91587943D01*
X105159073Y-91851192D01*
X105502601Y-91993838D01*
X105549477Y-91993879D01*
X107299120Y-93743522D01*
X107545682Y-93908269D01*
X107836521Y-93966121D01*
X116911725Y-93966121D01*
X117202564Y-93908269D01*
X117449126Y-93743522D01*
X118315200Y-92877448D01*
X118315200Y-101041200D01*
X118373052Y-101332039D01*
X118537799Y-101578601D01*
X124032878Y-107073680D01*
X124032838Y-107119167D01*
X124174883Y-107462943D01*
X124437673Y-107726192D01*
X124781201Y-107868838D01*
X124828077Y-107868879D01*
X128316799Y-111357601D01*
X128563361Y-111522348D01*
X128854200Y-111580200D01*
X129145040Y-111522348D01*
X129162390Y-111510755D01*
X129365273Y-111713992D01*
X129708801Y-111856638D01*
X130080767Y-111856962D01*
X130424543Y-111714917D01*
X130517258Y-111622364D01*
X130775601Y-111729638D01*
X131147567Y-111729962D01*
X131491343Y-111587917D01*
X131524518Y-111554800D01*
X146253200Y-111554800D01*
X146544039Y-111496948D01*
X146790601Y-111332201D01*
X160159680Y-97963122D01*
X160205167Y-97963162D01*
X160548943Y-97821117D01*
X160812192Y-97558327D01*
X160954838Y-97214799D01*
X160955162Y-96842833D01*
X160848527Y-96584757D01*
X160929943Y-96551117D01*
X161193192Y-96288327D01*
X161335838Y-95944799D01*
X161335842Y-95940599D01*
X173148597Y-95940599D01*
X174655078Y-97447080D01*
X174655038Y-97492567D01*
X174797083Y-97836343D01*
X175059873Y-98099592D01*
X175403401Y-98242238D01*
X175775367Y-98242562D01*
X176119143Y-98100517D01*
X176382392Y-97837727D01*
X176525038Y-97494199D01*
X176525362Y-97122233D01*
X176383317Y-96778457D01*
X176120527Y-96515208D01*
X175776999Y-96372562D01*
X175730123Y-96372521D01*
X174000800Y-94643198D01*
X173754238Y-94478451D01*
X173463399Y-94420599D01*
X157625601Y-94420599D01*
X157334762Y-94478451D01*
X157088200Y-94643198D01*
X154368520Y-97362878D01*
X154323033Y-97362838D01*
X153979257Y-97504883D01*
X153716008Y-97767673D01*
X153573362Y-98111201D01*
X153573038Y-98483167D01*
X153715083Y-98826943D01*
X153977873Y-99090192D01*
X154321401Y-99232838D01*
X154693367Y-99233162D01*
X155037143Y-99091117D01*
X155300392Y-98828327D01*
X155443038Y-98484799D01*
X155443079Y-98437923D01*
X157940403Y-95940599D01*
X159143599Y-95940599D01*
X145674399Y-109409799D01*
X131922901Y-109409799D01*
X131922962Y-109339633D01*
X131780917Y-108995857D01*
X131747800Y-108962682D01*
X131747800Y-102021305D01*
X138180674Y-102021305D01*
X138467043Y-102714372D01*
X138900206Y-103148292D01*
X138468907Y-103578839D01*
X138181328Y-104271405D01*
X138180674Y-105021305D01*
X138467043Y-105714372D01*
X138996839Y-106245093D01*
X139689405Y-106532672D01*
X140439305Y-106533326D01*
X141132372Y-106246957D01*
X141663093Y-105717161D01*
X141950672Y-105024595D01*
X141951326Y-104274695D01*
X141664957Y-103581628D01*
X141231794Y-103147708D01*
X141663093Y-102717161D01*
X141950672Y-102024595D01*
X141950674Y-102021305D01*
X145180674Y-102021305D01*
X145467043Y-102714372D01*
X145900206Y-103148292D01*
X145468907Y-103578839D01*
X145181328Y-104271405D01*
X145180674Y-105021305D01*
X145467043Y-105714372D01*
X145996839Y-106245093D01*
X146689405Y-106532672D01*
X147439305Y-106533326D01*
X148132372Y-106246957D01*
X148663093Y-105717161D01*
X148950672Y-105024595D01*
X148951326Y-104274695D01*
X148664957Y-103581628D01*
X148231794Y-103147708D01*
X148663093Y-102717161D01*
X148950672Y-102024595D01*
X148951326Y-101274695D01*
X148664957Y-100581628D01*
X148135161Y-100050907D01*
X147442595Y-99763328D01*
X146692695Y-99762674D01*
X145999628Y-100049043D01*
X145468907Y-100578839D01*
X145181328Y-101271405D01*
X145180674Y-102021305D01*
X141950674Y-102021305D01*
X141951326Y-101274695D01*
X141664957Y-100581628D01*
X141135161Y-100050907D01*
X140442595Y-99763328D01*
X139692695Y-99762674D01*
X138999628Y-100049043D01*
X138468907Y-100578839D01*
X138181328Y-101271405D01*
X138180674Y-102021305D01*
X131747800Y-102021305D01*
X131747800Y-101447600D01*
X131689948Y-101156761D01*
X131525201Y-100910199D01*
X131110122Y-100495120D01*
X131110162Y-100449633D01*
X130968117Y-100105857D01*
X130705327Y-99842608D01*
X130361799Y-99699962D01*
X129989833Y-99699638D01*
X129646057Y-99841683D01*
X129382808Y-100104473D01*
X129240162Y-100448001D01*
X129239838Y-100819967D01*
X129381883Y-101163743D01*
X129644673Y-101426992D01*
X129988201Y-101569638D01*
X130035077Y-101569679D01*
X130227800Y-101762402D01*
X130227800Y-108962337D01*
X130195608Y-108994473D01*
X130052962Y-109338001D01*
X130052655Y-109689943D01*
X129755920Y-109986678D01*
X129710433Y-109986638D01*
X129366657Y-110128683D01*
X129302015Y-110193213D01*
X127207928Y-108099126D01*
X127360392Y-107946927D01*
X127503038Y-107603399D01*
X127503362Y-107231433D01*
X127361317Y-106887657D01*
X127328200Y-106854482D01*
X127328200Y-102899063D01*
X127360392Y-102866927D01*
X127503038Y-102523399D01*
X127503362Y-102151433D01*
X127361317Y-101807657D01*
X127098527Y-101544408D01*
X126754999Y-101401762D01*
X126383033Y-101401438D01*
X126039257Y-101543483D01*
X125776008Y-101806273D01*
X125633362Y-102149801D01*
X125633038Y-102521767D01*
X125775083Y-102865543D01*
X125808200Y-102898718D01*
X125808200Y-106519007D01*
X125761117Y-106405057D01*
X125498327Y-106141808D01*
X125154799Y-105999162D01*
X125107923Y-105999121D01*
X119835200Y-100726398D01*
X119835200Y-92459663D01*
X119867392Y-92427527D01*
X120010038Y-92083999D01*
X120010042Y-92079799D01*
X138833197Y-92079799D01*
X139730078Y-92976680D01*
X139730038Y-93022167D01*
X139872083Y-93365943D01*
X140134873Y-93629192D01*
X140478401Y-93771838D01*
X140850367Y-93772162D01*
X141194143Y-93630117D01*
X141227318Y-93597000D01*
X147697337Y-93597000D01*
X147729473Y-93629192D01*
X148073001Y-93771838D01*
X148444967Y-93772162D01*
X148788743Y-93630117D01*
X149051992Y-93367327D01*
X149194638Y-93023799D01*
X149194962Y-92651833D01*
X149052917Y-92308057D01*
X148945048Y-92200000D01*
X172430598Y-92200000D01*
X178084078Y-97853480D01*
X178084038Y-97898967D01*
X178226083Y-98242743D01*
X178488873Y-98505992D01*
X178832401Y-98648638D01*
X179204367Y-98648962D01*
X179548143Y-98506917D01*
X179811392Y-98244127D01*
X179954038Y-97900599D01*
X179954362Y-97528633D01*
X179847120Y-97269086D01*
X179954038Y-97011599D01*
X179954362Y-96639633D01*
X179812317Y-96295857D01*
X179549527Y-96032608D01*
X179205999Y-95889962D01*
X179159123Y-95889921D01*
X172929202Y-89660000D01*
X176519998Y-89660000D01*
X182402078Y-95542080D01*
X182402038Y-95587567D01*
X182544083Y-95931343D01*
X182806873Y-96194592D01*
X183150401Y-96337238D01*
X183522367Y-96337562D01*
X183866143Y-96195517D01*
X184129392Y-95932727D01*
X184272038Y-95589199D01*
X184272362Y-95217233D01*
X184136839Y-94889242D01*
X184815078Y-95567481D01*
X184815038Y-95612967D01*
X184957083Y-95956743D01*
X185219873Y-96219992D01*
X185563401Y-96362638D01*
X185935367Y-96362962D01*
X186279143Y-96220917D01*
X186314592Y-96185530D01*
X187104569Y-96975507D01*
X187075962Y-97044401D01*
X187075638Y-97416367D01*
X187217683Y-97760143D01*
X187480473Y-98023392D01*
X187824001Y-98166038D01*
X188195967Y-98166362D01*
X188539743Y-98024317D01*
X188802992Y-97761527D01*
X188945638Y-97417999D01*
X188945962Y-97046033D01*
X188803917Y-96702257D01*
X188736555Y-96634778D01*
X188712948Y-96516097D01*
X188548201Y-96269535D01*
X182471600Y-90192934D01*
X182471600Y-86706968D01*
X183982637Y-86706968D01*
X184073923Y-86967580D01*
X184661833Y-87184045D01*
X185287828Y-87159049D01*
X185750077Y-86967580D01*
X185841363Y-86706968D01*
X186522637Y-86706968D01*
X186613923Y-86967580D01*
X187201833Y-87184045D01*
X187827828Y-87159049D01*
X188290077Y-86967580D01*
X188381363Y-86706968D01*
X189062637Y-86706968D01*
X189153923Y-86967580D01*
X189741833Y-87184045D01*
X190367828Y-87159049D01*
X190830077Y-86967580D01*
X190921363Y-86706968D01*
X191602637Y-86706968D01*
X191693923Y-86967580D01*
X192281833Y-87184045D01*
X192907828Y-87159049D01*
X193370077Y-86967580D01*
X193461363Y-86706968D01*
X192532000Y-85777605D01*
X191602637Y-86706968D01*
X190921363Y-86706968D01*
X189992000Y-85777605D01*
X189062637Y-86706968D01*
X188381363Y-86706968D01*
X187452000Y-85777605D01*
X186522637Y-86706968D01*
X185841363Y-86706968D01*
X184912000Y-85777605D01*
X183982637Y-86706968D01*
X182471600Y-86706968D01*
X182471600Y-86160463D01*
X182503792Y-86128327D01*
X182646438Y-85784799D01*
X182646762Y-85412833D01*
X182619905Y-85347833D01*
X183325955Y-85347833D01*
X183350951Y-85973828D01*
X183542420Y-86436077D01*
X183803032Y-86527363D01*
X184732395Y-85598000D01*
X185091605Y-85598000D01*
X186020968Y-86527363D01*
X186182000Y-86470957D01*
X186343032Y-86527363D01*
X187272395Y-85598000D01*
X187631605Y-85598000D01*
X188560968Y-86527363D01*
X188722000Y-86470957D01*
X188883032Y-86527363D01*
X189812395Y-85598000D01*
X190171605Y-85598000D01*
X191100968Y-86527363D01*
X191262000Y-86470957D01*
X191423032Y-86527363D01*
X192352395Y-85598000D01*
X191423032Y-84668637D01*
X191262000Y-84725043D01*
X191100968Y-84668637D01*
X190171605Y-85598000D01*
X189812395Y-85598000D01*
X188883032Y-84668637D01*
X188722000Y-84725043D01*
X188560968Y-84668637D01*
X187631605Y-85598000D01*
X187272395Y-85598000D01*
X186343032Y-84668637D01*
X186182000Y-84725043D01*
X186020968Y-84668637D01*
X185091605Y-85598000D01*
X184732395Y-85598000D01*
X183803032Y-84668637D01*
X183542420Y-84759923D01*
X183325955Y-85347833D01*
X182619905Y-85347833D01*
X182504717Y-85069057D01*
X182241927Y-84805808D01*
X181898399Y-84663162D01*
X181526433Y-84662838D01*
X181214716Y-84791636D01*
X181201580Y-84759923D01*
X180940968Y-84668637D01*
X180011605Y-85598000D01*
X180025748Y-85612143D01*
X179846143Y-85791748D01*
X179832000Y-85777605D01*
X178902637Y-86706968D01*
X178993923Y-86967580D01*
X179581833Y-87184045D01*
X180207828Y-87159049D01*
X180670077Y-86967580D01*
X180761362Y-86706970D01*
X180875804Y-86821412D01*
X180951600Y-86745616D01*
X180951600Y-89554398D01*
X178515201Y-87117999D01*
X178268639Y-86953252D01*
X178143794Y-86928419D01*
X178221363Y-86706968D01*
X177292000Y-85777605D01*
X176362637Y-86706968D01*
X176428640Y-86895400D01*
X175615360Y-86895400D01*
X175681363Y-86706968D01*
X174752000Y-85777605D01*
X173822637Y-86706968D01*
X173888640Y-86895400D01*
X173075360Y-86895400D01*
X173141363Y-86706968D01*
X172212000Y-85777605D01*
X171282637Y-86706968D01*
X171348640Y-86895400D01*
X167995360Y-86895400D01*
X168061363Y-86706968D01*
X167132000Y-85777605D01*
X166202637Y-86706968D01*
X166268640Y-86895400D01*
X165455360Y-86895400D01*
X165521363Y-86706968D01*
X164592000Y-85777605D01*
X163662637Y-86706968D01*
X163728640Y-86895400D01*
X162915360Y-86895400D01*
X162981363Y-86706968D01*
X162052000Y-85777605D01*
X161122637Y-86706968D01*
X161188640Y-86895400D01*
X160375360Y-86895400D01*
X160441363Y-86706968D01*
X159512000Y-85777605D01*
X159497858Y-85791748D01*
X159318253Y-85612143D01*
X159332395Y-85598000D01*
X159691605Y-85598000D01*
X160620968Y-86527363D01*
X160782000Y-86470957D01*
X160943032Y-86527363D01*
X161872395Y-85598000D01*
X162231605Y-85598000D01*
X163160968Y-86527363D01*
X163322000Y-86470957D01*
X163483032Y-86527363D01*
X164412395Y-85598000D01*
X164771605Y-85598000D01*
X165700968Y-86527363D01*
X165862000Y-86470957D01*
X166023032Y-86527363D01*
X166952395Y-85598000D01*
X167311605Y-85598000D01*
X168240968Y-86527363D01*
X168501580Y-86436077D01*
X168718045Y-85848167D01*
X168698067Y-85347833D01*
X170625955Y-85347833D01*
X170650951Y-85973828D01*
X170842420Y-86436077D01*
X171103032Y-86527363D01*
X172032395Y-85598000D01*
X172391605Y-85598000D01*
X173320968Y-86527363D01*
X173482000Y-86470957D01*
X173643032Y-86527363D01*
X174572395Y-85598000D01*
X174931605Y-85598000D01*
X175860968Y-86527363D01*
X176022000Y-86470957D01*
X176183032Y-86527363D01*
X177112395Y-85598000D01*
X177471605Y-85598000D01*
X178400968Y-86527363D01*
X178562000Y-86470957D01*
X178723032Y-86527363D01*
X179652395Y-85598000D01*
X178723032Y-84668637D01*
X178562000Y-84725043D01*
X178400968Y-84668637D01*
X177471605Y-85598000D01*
X177112395Y-85598000D01*
X176183032Y-84668637D01*
X176022000Y-84725043D01*
X175860968Y-84668637D01*
X174931605Y-85598000D01*
X174572395Y-85598000D01*
X173643032Y-84668637D01*
X173482000Y-84725043D01*
X173320968Y-84668637D01*
X172391605Y-85598000D01*
X172032395Y-85598000D01*
X171103032Y-84668637D01*
X170842420Y-84759923D01*
X170625955Y-85347833D01*
X168698067Y-85347833D01*
X168693049Y-85222172D01*
X168501580Y-84759923D01*
X168240968Y-84668637D01*
X167311605Y-85598000D01*
X166952395Y-85598000D01*
X166023032Y-84668637D01*
X165862000Y-84725043D01*
X165700968Y-84668637D01*
X164771605Y-85598000D01*
X164412395Y-85598000D01*
X163483032Y-84668637D01*
X163322000Y-84725043D01*
X163160968Y-84668637D01*
X162231605Y-85598000D01*
X161872395Y-85598000D01*
X160943032Y-84668637D01*
X160782000Y-84725043D01*
X160620968Y-84668637D01*
X159691605Y-85598000D01*
X159332395Y-85598000D01*
X158403032Y-84668637D01*
X158242000Y-84725043D01*
X158080968Y-84668637D01*
X157151605Y-85598000D01*
X157165748Y-85612143D01*
X156986143Y-85791748D01*
X156972000Y-85777605D01*
X156042637Y-86706968D01*
X156133923Y-86967580D01*
X156721833Y-87184045D01*
X157347828Y-87159049D01*
X157361924Y-87153210D01*
X157230962Y-87468601D01*
X157230638Y-87840567D01*
X157354361Y-88140000D01*
X157045757Y-88140000D01*
X156952317Y-87913857D01*
X156689527Y-87650608D01*
X156345999Y-87507962D01*
X155974033Y-87507638D01*
X155630257Y-87649683D01*
X155367008Y-87912473D01*
X155224362Y-88256001D01*
X155224038Y-88627967D01*
X155366083Y-88971743D01*
X155628873Y-89234992D01*
X155972401Y-89377638D01*
X156019277Y-89377679D01*
X156076998Y-89435400D01*
X151895663Y-89435400D01*
X151863527Y-89403208D01*
X151519999Y-89260562D01*
X151148033Y-89260238D01*
X150804257Y-89402283D01*
X150771082Y-89435400D01*
X148034863Y-89435400D01*
X148002727Y-89403208D01*
X147659199Y-89260562D01*
X147287233Y-89260238D01*
X146943457Y-89402283D01*
X146680208Y-89665073D01*
X146537562Y-90008601D01*
X146537238Y-90380567D01*
X146660961Y-90680000D01*
X145145602Y-90680000D01*
X144495922Y-90030320D01*
X144495962Y-89984833D01*
X144353917Y-89641057D01*
X144091127Y-89377808D01*
X143747599Y-89235162D01*
X143375633Y-89234838D01*
X143031857Y-89376883D01*
X142768608Y-89639673D01*
X142625962Y-89983201D01*
X142625638Y-90355167D01*
X142767683Y-90698943D01*
X143030473Y-90962192D01*
X143374001Y-91104838D01*
X143420877Y-91104879D01*
X144293399Y-91977401D01*
X144442459Y-92077000D01*
X141577600Y-92077000D01*
X141577600Y-88624263D01*
X141609792Y-88592127D01*
X141752438Y-88248599D01*
X141752762Y-87876633D01*
X141744485Y-87856600D01*
X141829937Y-87856600D01*
X141862073Y-87888792D01*
X142205601Y-88031438D01*
X142577567Y-88031762D01*
X142921343Y-87889717D01*
X142954518Y-87856600D01*
X149424537Y-87856600D01*
X149456673Y-87888792D01*
X149800201Y-88031438D01*
X150172167Y-88031762D01*
X150515943Y-87889717D01*
X150779192Y-87626927D01*
X150921838Y-87283399D01*
X150922162Y-86911433D01*
X150837679Y-86706968D01*
X153502637Y-86706968D01*
X153593923Y-86967580D01*
X154181833Y-87184045D01*
X154807828Y-87159049D01*
X155270077Y-86967580D01*
X155361363Y-86706968D01*
X154432000Y-85777605D01*
X153502637Y-86706968D01*
X150837679Y-86706968D01*
X150780117Y-86567657D01*
X150747000Y-86534482D01*
X150747000Y-85557202D01*
X150956369Y-85347833D01*
X152845955Y-85347833D01*
X152870951Y-85973828D01*
X153062420Y-86436077D01*
X153323032Y-86527363D01*
X154252395Y-85598000D01*
X154611605Y-85598000D01*
X155540968Y-86527363D01*
X155702000Y-86470957D01*
X155863032Y-86527363D01*
X156792395Y-85598000D01*
X155863032Y-84668637D01*
X155702000Y-84725043D01*
X155540968Y-84668637D01*
X154611605Y-85598000D01*
X154252395Y-85598000D01*
X153323032Y-84668637D01*
X153062420Y-84759923D01*
X152845955Y-85347833D01*
X150956369Y-85347833D01*
X152486202Y-83818000D01*
X153042090Y-83818000D01*
X153096171Y-83948887D01*
X153537115Y-84390601D01*
X153502637Y-84489032D01*
X154432000Y-85418395D01*
X155361363Y-84489032D01*
X155326687Y-84390036D01*
X155702273Y-84015104D01*
X156077115Y-84390601D01*
X156042637Y-84489032D01*
X156972000Y-85418395D01*
X157901363Y-84489032D01*
X157866687Y-84390036D01*
X158242273Y-84015104D01*
X158617115Y-84390601D01*
X158582637Y-84489032D01*
X159512000Y-85418395D01*
X160441363Y-84489032D01*
X160406687Y-84390036D01*
X160782273Y-84015104D01*
X161157115Y-84390601D01*
X161122637Y-84489032D01*
X162052000Y-85418395D01*
X162981363Y-84489032D01*
X162946687Y-84390036D01*
X163322273Y-84015104D01*
X163697115Y-84390601D01*
X163662637Y-84489032D01*
X164592000Y-85418395D01*
X165521363Y-84489032D01*
X165486687Y-84390036D01*
X165862273Y-84015104D01*
X166237115Y-84390601D01*
X166202637Y-84489032D01*
X167132000Y-85418395D01*
X168061363Y-84489032D01*
X168026687Y-84390036D01*
X168466272Y-83951217D01*
X168521589Y-83818000D01*
X170822090Y-83818000D01*
X170876171Y-83948887D01*
X171317115Y-84390601D01*
X171282637Y-84489032D01*
X172212000Y-85418395D01*
X173141363Y-84489032D01*
X173106687Y-84390036D01*
X173482273Y-84015104D01*
X173857115Y-84390601D01*
X173822637Y-84489032D01*
X174752000Y-85418395D01*
X175681363Y-84489032D01*
X175646687Y-84390036D01*
X176022273Y-84015104D01*
X176397115Y-84390601D01*
X176362637Y-84489032D01*
X177292000Y-85418395D01*
X178221363Y-84489032D01*
X178186687Y-84390036D01*
X178562273Y-84015104D01*
X178937115Y-84390601D01*
X178902637Y-84489032D01*
X179832000Y-85418395D01*
X180761363Y-84489032D01*
X180726687Y-84390036D01*
X181166272Y-83951217D01*
X181221589Y-83818000D01*
X183522090Y-83818000D01*
X183576171Y-83948887D01*
X184017115Y-84390601D01*
X183982637Y-84489032D01*
X184912000Y-85418395D01*
X185841363Y-84489032D01*
X185806687Y-84390036D01*
X186182273Y-84015104D01*
X186557115Y-84390601D01*
X186522637Y-84489032D01*
X187452000Y-85418395D01*
X188381363Y-84489032D01*
X188346687Y-84390036D01*
X188722273Y-84015104D01*
X189097115Y-84390601D01*
X189062637Y-84489032D01*
X189992000Y-85418395D01*
X190921363Y-84489032D01*
X190886687Y-84390036D01*
X191262273Y-84015104D01*
X191637115Y-84390601D01*
X191602637Y-84489032D01*
X192532000Y-85418395D01*
X192546143Y-85404253D01*
X192725748Y-85583858D01*
X192711605Y-85598000D01*
X193640968Y-86527363D01*
X193901580Y-86436077D01*
X194118045Y-85848167D01*
X194112666Y-85713468D01*
X197080600Y-88681402D01*
X197080600Y-93923198D01*
X194701800Y-91544398D01*
X194455238Y-91379651D01*
X194164399Y-91321799D01*
X187419801Y-91321799D01*
X187128961Y-91379651D01*
X186882400Y-91544398D01*
X186677320Y-91749478D01*
X186631833Y-91749438D01*
X186288057Y-91891483D01*
X186024808Y-92154273D01*
X185882162Y-92497801D01*
X185881838Y-92869767D01*
X186023883Y-93213543D01*
X186286673Y-93476792D01*
X186630201Y-93619438D01*
X187002167Y-93619762D01*
X187279643Y-93505111D01*
X187493801Y-93594038D01*
X187865767Y-93594362D01*
X188209543Y-93452317D01*
X188242718Y-93419200D01*
X193794054Y-93419200D01*
X194691208Y-94316354D01*
X194435113Y-94422171D01*
X194127301Y-94729446D01*
X194127562Y-94429833D01*
X193985517Y-94086057D01*
X193722727Y-93822808D01*
X193379199Y-93680162D01*
X193007233Y-93679838D01*
X192760417Y-93781820D01*
X192515599Y-93680162D01*
X192143633Y-93679838D01*
X191896817Y-93781820D01*
X191651999Y-93680162D01*
X191280033Y-93679838D01*
X191002557Y-93794489D01*
X190788399Y-93705562D01*
X190416433Y-93705238D01*
X190072657Y-93847283D01*
X189809408Y-94110073D01*
X189666762Y-94453601D01*
X189666438Y-94825567D01*
X189808483Y-95169343D01*
X189841600Y-95202518D01*
X189841600Y-95863557D01*
X189809408Y-95895693D01*
X189666762Y-96239221D01*
X189666438Y-96611187D01*
X189808483Y-96954963D01*
X190071273Y-97218212D01*
X190131209Y-97243100D01*
X189885608Y-97488273D01*
X189742962Y-97831801D01*
X189742638Y-98203767D01*
X189884683Y-98547543D01*
X190147473Y-98810792D01*
X190491001Y-98953438D01*
X190862967Y-98953762D01*
X191147674Y-98836124D01*
X190487320Y-99496478D01*
X190441833Y-99496438D01*
X190098057Y-99638483D01*
X189834808Y-99901273D01*
X189692162Y-100244801D01*
X189691959Y-100477601D01*
X187040960Y-100477601D01*
X187040962Y-100475033D01*
X186898917Y-100131257D01*
X186636127Y-99868008D01*
X186292599Y-99725362D01*
X185920633Y-99725038D01*
X185576857Y-99867083D01*
X185543682Y-99900200D01*
X185068063Y-99900200D01*
X185035927Y-99868008D01*
X184692399Y-99725362D01*
X184320433Y-99725038D01*
X183976657Y-99867083D01*
X183713408Y-100129873D01*
X183570762Y-100473401D01*
X183570758Y-100477601D01*
X183238803Y-100477601D01*
X182903400Y-100142198D01*
X182903400Y-99393863D01*
X182935592Y-99361727D01*
X183078238Y-99018199D01*
X183078562Y-98646233D01*
X182936517Y-98302457D01*
X182673727Y-98039208D01*
X182330199Y-97896562D01*
X181958233Y-97896238D01*
X181614457Y-98038283D01*
X181351208Y-98301073D01*
X181208562Y-98644601D01*
X181208238Y-99016567D01*
X181350283Y-99360343D01*
X181383400Y-99393518D01*
X181383400Y-100457000D01*
X181441252Y-100747839D01*
X181605999Y-100994401D01*
X182386600Y-101775002D01*
X182633162Y-101939749D01*
X182924001Y-101997601D01*
X193571922Y-101997601D01*
X193862761Y-101939749D01*
X194065462Y-101804309D01*
X194432783Y-102172272D01*
X195011379Y-102412526D01*
X195637873Y-102413073D01*
X196216887Y-102173829D01*
X196658601Y-101732885D01*
X196757032Y-101767363D01*
X197686395Y-100838000D01*
X197672253Y-100823858D01*
X197851858Y-100644253D01*
X197866000Y-100658395D01*
X197880143Y-100644253D01*
X198059748Y-100823858D01*
X198045605Y-100838000D01*
X198059748Y-100852143D01*
X197880143Y-101031748D01*
X197866000Y-101017605D01*
X196936637Y-101946968D01*
X197027923Y-102207580D01*
X197615833Y-102424045D01*
X198241828Y-102399049D01*
X198503000Y-102290868D01*
X198503000Y-103190198D01*
X198033798Y-103659400D01*
X191439800Y-103659400D01*
X191148961Y-103717252D01*
X190902399Y-103881999D01*
X184145999Y-110638399D01*
X183981252Y-110884961D01*
X183923400Y-111175800D01*
X183923400Y-112588198D01*
X181726998Y-114784600D01*
X173263402Y-114784600D01*
X171879800Y-113400998D01*
X171879800Y-112766579D01*
X171992786Y-112766579D01*
X172180408Y-113220657D01*
X172527515Y-113568371D01*
X172981266Y-113756785D01*
X173472579Y-113757214D01*
X173926657Y-113569592D01*
X174274371Y-113222485D01*
X174462785Y-112768734D01*
X174463214Y-112277421D01*
X174275592Y-111823343D01*
X173928485Y-111475629D01*
X173474734Y-111287215D01*
X172983421Y-111286786D01*
X172529343Y-111474408D01*
X172181629Y-111821515D01*
X171993215Y-112275266D01*
X171992786Y-112766579D01*
X171879800Y-112766579D01*
X171879800Y-107340400D01*
X171821948Y-107049561D01*
X171657201Y-106802999D01*
X170886522Y-106032320D01*
X170886562Y-105986833D01*
X170744517Y-105643057D01*
X170481727Y-105379808D01*
X170277568Y-105295034D01*
X174078880Y-101493722D01*
X174124367Y-101493762D01*
X174468143Y-101351717D01*
X174731392Y-101088927D01*
X174874038Y-100745399D01*
X174874335Y-100404200D01*
X178047998Y-100404200D01*
X175628320Y-102823878D01*
X175582833Y-102823838D01*
X175239057Y-102965883D01*
X174975808Y-103228673D01*
X174833162Y-103572201D01*
X174832838Y-103944167D01*
X174974883Y-104287943D01*
X175008000Y-104321118D01*
X175008000Y-111535644D01*
X174721629Y-111821515D01*
X174533215Y-112275266D01*
X174532786Y-112766579D01*
X174720408Y-113220657D01*
X175067515Y-113568371D01*
X175521266Y-113756785D01*
X176012579Y-113757214D01*
X176466657Y-113569592D01*
X176814371Y-113222485D01*
X177002785Y-112768734D01*
X177002786Y-112766579D01*
X178342786Y-112766579D01*
X178530408Y-113220657D01*
X178877515Y-113568371D01*
X179331266Y-113756785D01*
X179822579Y-113757214D01*
X180276657Y-113569592D01*
X180624371Y-113222485D01*
X180812785Y-112768734D01*
X180813214Y-112277421D01*
X180625592Y-111823343D01*
X180278485Y-111475629D01*
X179824734Y-111287215D01*
X179333421Y-111286786D01*
X178879343Y-111474408D01*
X178531629Y-111821515D01*
X178343215Y-112275266D01*
X178342786Y-112766579D01*
X177002786Y-112766579D01*
X177003214Y-112277421D01*
X176815592Y-111823343D01*
X176528000Y-111535248D01*
X176528000Y-104321463D01*
X176560192Y-104289327D01*
X176702838Y-103945799D01*
X176702879Y-103898923D01*
X179133480Y-101468322D01*
X179178967Y-101468362D01*
X179522743Y-101326317D01*
X179561963Y-101287165D01*
X181358000Y-103083202D01*
X181358000Y-111535644D01*
X181071629Y-111821515D01*
X180883215Y-112275266D01*
X180882786Y-112766579D01*
X181070408Y-113220657D01*
X181417515Y-113568371D01*
X181871266Y-113756785D01*
X182362579Y-113757214D01*
X182816657Y-113569592D01*
X183164371Y-113222485D01*
X183352785Y-112768734D01*
X183353214Y-112277421D01*
X183165592Y-111823343D01*
X182878000Y-111535248D01*
X182878000Y-102768400D01*
X182820148Y-102477561D01*
X182655401Y-102230999D01*
X179928922Y-99504520D01*
X179928962Y-99459033D01*
X179786917Y-99115257D01*
X179524127Y-98852008D01*
X179180599Y-98709362D01*
X178808633Y-98709038D01*
X178464857Y-98851083D01*
X178431682Y-98884200D01*
X165176200Y-98884200D01*
X164885361Y-98942052D01*
X164638799Y-99106799D01*
X163309320Y-100436278D01*
X163263833Y-100436238D01*
X162920057Y-100578283D01*
X162656808Y-100841073D01*
X162514162Y-101184601D01*
X162513838Y-101556567D01*
X162655883Y-101900343D01*
X162918673Y-102163592D01*
X163262201Y-102306238D01*
X163634167Y-102306562D01*
X163977943Y-102164517D01*
X164241192Y-101901727D01*
X164383838Y-101558199D01*
X164383879Y-101511323D01*
X165491002Y-100404200D01*
X173004334Y-100404200D01*
X173004321Y-100418677D01*
X168010998Y-105412000D01*
X164646463Y-105412000D01*
X164614327Y-105379808D01*
X164270799Y-105237162D01*
X163898833Y-105236838D01*
X163555057Y-105378883D01*
X163291808Y-105641673D01*
X163149162Y-105985201D01*
X163148838Y-106357167D01*
X163290883Y-106700943D01*
X163553673Y-106964192D01*
X163897201Y-107106838D01*
X164269167Y-107107162D01*
X164612943Y-106965117D01*
X164646118Y-106932000D01*
X168325800Y-106932000D01*
X168616639Y-106874148D01*
X168863201Y-106709401D01*
X169074479Y-106498123D01*
X169158283Y-106700943D01*
X169421073Y-106964192D01*
X169764601Y-107106838D01*
X169811477Y-107106879D01*
X170359800Y-107655202D01*
X170359800Y-111856236D01*
X170280735Y-111838870D01*
X169597605Y-112522000D01*
X170280735Y-113205130D01*
X170359800Y-113187764D01*
X170359800Y-113715800D01*
X170417652Y-114006639D01*
X170582399Y-114253201D01*
X172411199Y-116082001D01*
X172657761Y-116246748D01*
X172948600Y-116304600D01*
X182041800Y-116304600D01*
X182332639Y-116246748D01*
X182579201Y-116082001D01*
X182872989Y-115788213D01*
X187231392Y-115788213D01*
X187300857Y-116030397D01*
X187824302Y-116217144D01*
X188379368Y-116189362D01*
X188763143Y-116030397D01*
X188832608Y-115788213D01*
X188032000Y-114987605D01*
X187231392Y-115788213D01*
X182872989Y-115788213D01*
X184060900Y-114600302D01*
X186622856Y-114600302D01*
X186650638Y-115155368D01*
X186809603Y-115539143D01*
X187051787Y-115608608D01*
X187852395Y-114808000D01*
X188211605Y-114808000D01*
X189012213Y-115608608D01*
X189254397Y-115539143D01*
X189416540Y-115084661D01*
X191134758Y-115084661D01*
X191346990Y-115598303D01*
X191739630Y-115991629D01*
X192252900Y-116204757D01*
X192808661Y-116205242D01*
X193322303Y-115993010D01*
X193715629Y-115600370D01*
X193928757Y-115087100D01*
X193929242Y-114531339D01*
X193915764Y-114498719D01*
X197103604Y-114498719D01*
X197450894Y-115339223D01*
X198093395Y-115982846D01*
X198933292Y-116331602D01*
X199842719Y-116332396D01*
X200683223Y-115985106D01*
X201326846Y-115342605D01*
X201675602Y-114502708D01*
X201676396Y-113593281D01*
X201329106Y-112752777D01*
X200686605Y-112109154D01*
X199846708Y-111760398D01*
X198937281Y-111759604D01*
X198096777Y-112106894D01*
X197453154Y-112749395D01*
X197104398Y-113589292D01*
X197103604Y-114498719D01*
X193915764Y-114498719D01*
X193717010Y-114017697D01*
X193492454Y-113792748D01*
X194076089Y-113793257D01*
X194622086Y-113567656D01*
X195040188Y-113150283D01*
X195266742Y-112604681D01*
X195267257Y-112013911D01*
X195041656Y-111467914D01*
X194624283Y-111049812D01*
X194078681Y-110823258D01*
X193487911Y-110822743D01*
X192941914Y-111048344D01*
X192523812Y-111465717D01*
X192297258Y-112011319D01*
X192296743Y-112602089D01*
X192522344Y-113148086D01*
X192785019Y-113411220D01*
X192255339Y-113410758D01*
X191741697Y-113622990D01*
X191348371Y-114015630D01*
X191135243Y-114528900D01*
X191134758Y-115084661D01*
X189416540Y-115084661D01*
X189441144Y-115015698D01*
X189413362Y-114460632D01*
X189254397Y-114076857D01*
X189012213Y-114007392D01*
X188211605Y-114808000D01*
X187852395Y-114808000D01*
X187051787Y-114007392D01*
X186809603Y-114076857D01*
X186622856Y-114600302D01*
X184060900Y-114600302D01*
X185220801Y-113440401D01*
X185385548Y-113193839D01*
X185436146Y-112939470D01*
X185522344Y-113148086D01*
X185939717Y-113566188D01*
X186485319Y-113792742D01*
X187076089Y-113793257D01*
X187263508Y-113715817D01*
X187231392Y-113827787D01*
X188032000Y-114628395D01*
X188832608Y-113827787D01*
X188763143Y-113585603D01*
X188239698Y-113398856D01*
X187767506Y-113422490D01*
X188040188Y-113150283D01*
X188266742Y-112604681D01*
X188267257Y-112013911D01*
X188041656Y-111467914D01*
X187624283Y-111049812D01*
X187078681Y-110823258D01*
X186487911Y-110822743D01*
X185941914Y-111048344D01*
X185523812Y-111465717D01*
X185443400Y-111659370D01*
X185443400Y-111490602D01*
X188646435Y-108287567D01*
X189869638Y-108287567D01*
X190011683Y-108631343D01*
X190274473Y-108894592D01*
X190618001Y-109037238D01*
X190989967Y-109037562D01*
X191333743Y-108895517D01*
X191366918Y-108862400D01*
X200249937Y-108862400D01*
X200282073Y-108894592D01*
X200625601Y-109037238D01*
X200997567Y-109037562D01*
X201341343Y-108895517D01*
X201604592Y-108632727D01*
X201747238Y-108289199D01*
X201747562Y-107917233D01*
X201605517Y-107573457D01*
X201342727Y-107310208D01*
X200999199Y-107167562D01*
X200627233Y-107167238D01*
X200283457Y-107309283D01*
X200250282Y-107342400D01*
X191367263Y-107342400D01*
X191335127Y-107310208D01*
X190991599Y-107167562D01*
X190619633Y-107167238D01*
X190275857Y-107309283D01*
X190012608Y-107572073D01*
X189869962Y-107915601D01*
X189869638Y-108287567D01*
X188646435Y-108287567D01*
X191754602Y-105179400D01*
X198348600Y-105179400D01*
X198639439Y-105121548D01*
X198886001Y-104956801D01*
X199800401Y-104042401D01*
X199965148Y-103795839D01*
X200023000Y-103505000D01*
X200023000Y-100353344D01*
X199987431Y-100174527D01*
X199965148Y-100062504D01*
X199800401Y-99815943D01*
X199187963Y-99203505D01*
X199200272Y-99191217D01*
X199440526Y-98612621D01*
X199441073Y-97986127D01*
X199201829Y-97407113D01*
X198823104Y-97027727D01*
X199200272Y-96651217D01*
X199440526Y-96072621D01*
X199441073Y-95446127D01*
X199201829Y-94867113D01*
X198759217Y-94423728D01*
X198600600Y-94357864D01*
X198600600Y-88366600D01*
X198542748Y-88075761D01*
X198378001Y-87829199D01*
X194052216Y-83503414D01*
X194106526Y-83372621D01*
X194106848Y-83002719D01*
X197103604Y-83002719D01*
X197450894Y-83843223D01*
X198093395Y-84486846D01*
X198933292Y-84835602D01*
X199842719Y-84836396D01*
X200683223Y-84489106D01*
X201326846Y-83846605D01*
X201675602Y-83006708D01*
X201676396Y-82097281D01*
X201329106Y-81256777D01*
X200686605Y-80613154D01*
X199846708Y-80264398D01*
X198937281Y-80263604D01*
X198096777Y-80610894D01*
X197453154Y-81253395D01*
X197104398Y-82093292D01*
X197103604Y-83002719D01*
X194106848Y-83002719D01*
X194107073Y-82746127D01*
X193867829Y-82167113D01*
X193489104Y-81787727D01*
X193866272Y-81411217D01*
X194106526Y-80832621D01*
X194107073Y-80206127D01*
X194004549Y-79958000D01*
X199320069Y-79958000D01*
X200327993Y-80158488D01*
X201123183Y-80689817D01*
X201654512Y-81485007D01*
X201853601Y-82485897D01*
X201852605Y-82535707D01*
X201855080Y-82549596D01*
X201855000Y-82550000D01*
X201855000Y-114103069D01*
X201654512Y-115110993D01*
X201123183Y-115906183D01*
X200327993Y-116437512D01*
X199320069Y-116638000D01*
X119184471Y-116638000D01*
X119195818Y-116630418D01*
X119748236Y-116078000D01*
X124467611Y-116078000D01*
X124578001Y-116123838D01*
X124949967Y-116124162D01*
X125293743Y-115982117D01*
X125556992Y-115719327D01*
X125699638Y-115375799D01*
X125699962Y-115003833D01*
X125557917Y-114660057D01*
X125295127Y-114396808D01*
X124951599Y-114254162D01*
X124579633Y-114253838D01*
X124467912Y-114300000D01*
X119380000Y-114300000D01*
X119039794Y-114367671D01*
X118843667Y-114498719D01*
X118751382Y-114560382D01*
X118198964Y-115112800D01*
X117092243Y-115112800D01*
X117222834Y-114982437D01*
X117474713Y-114375845D01*
X117475286Y-113719037D01*
X117260462Y-113199120D01*
X127584016Y-113199120D01*
X127744927Y-113588554D01*
X128042619Y-113886766D01*
X128431772Y-114048356D01*
X128853140Y-114048724D01*
X129242574Y-113887813D01*
X129540786Y-113590121D01*
X129702376Y-113200968D01*
X129702377Y-113199120D01*
X131383856Y-113199120D01*
X131544767Y-113588554D01*
X131842459Y-113886766D01*
X132231612Y-114048356D01*
X132652980Y-114048724D01*
X133042414Y-113887813D01*
X133340626Y-113590121D01*
X133502216Y-113200968D01*
X133502584Y-112779600D01*
X133497204Y-112766579D01*
X159292786Y-112766579D01*
X159480408Y-113220657D01*
X159827515Y-113568371D01*
X160281266Y-113756785D01*
X160772579Y-113757214D01*
X161226657Y-113569592D01*
X161411837Y-113384735D01*
X162384870Y-113384735D01*
X162434383Y-113610164D01*
X162899036Y-113769807D01*
X163389413Y-113739482D01*
X163701617Y-113610164D01*
X163751130Y-113384735D01*
X163068000Y-112701605D01*
X162384870Y-113384735D01*
X161411837Y-113384735D01*
X161574371Y-113222485D01*
X161762785Y-112768734D01*
X161763147Y-112353036D01*
X161820193Y-112353036D01*
X161850518Y-112843413D01*
X161979836Y-113155617D01*
X162205265Y-113205130D01*
X162888395Y-112522000D01*
X163247605Y-112522000D01*
X163930735Y-113205130D01*
X164156164Y-113155617D01*
X164289827Y-112766579D01*
X165642786Y-112766579D01*
X165830408Y-113220657D01*
X166177515Y-113568371D01*
X166631266Y-113756785D01*
X167122579Y-113757214D01*
X167576657Y-113569592D01*
X167761837Y-113384735D01*
X168734870Y-113384735D01*
X168784383Y-113610164D01*
X169249036Y-113769807D01*
X169739413Y-113739482D01*
X170051617Y-113610164D01*
X170101130Y-113384735D01*
X169418000Y-112701605D01*
X168734870Y-113384735D01*
X167761837Y-113384735D01*
X167924371Y-113222485D01*
X168112785Y-112768734D01*
X168113147Y-112353036D01*
X168170193Y-112353036D01*
X168200518Y-112843413D01*
X168329836Y-113155617D01*
X168555265Y-113205130D01*
X169238395Y-112522000D01*
X168555265Y-111838870D01*
X168329836Y-111888383D01*
X168170193Y-112353036D01*
X168113147Y-112353036D01*
X168113214Y-112277421D01*
X167925592Y-111823343D01*
X167761801Y-111659265D01*
X168734870Y-111659265D01*
X169418000Y-112342395D01*
X170101130Y-111659265D01*
X170051617Y-111433836D01*
X169586964Y-111274193D01*
X169096587Y-111304518D01*
X168784383Y-111433836D01*
X168734870Y-111659265D01*
X167761801Y-111659265D01*
X167578485Y-111475629D01*
X167124734Y-111287215D01*
X166633421Y-111286786D01*
X166179343Y-111474408D01*
X165831629Y-111821515D01*
X165643215Y-112275266D01*
X165642786Y-112766579D01*
X164289827Y-112766579D01*
X164315807Y-112690964D01*
X164285482Y-112200587D01*
X164156164Y-111888383D01*
X163930735Y-111838870D01*
X163247605Y-112522000D01*
X162888395Y-112522000D01*
X162205265Y-111838870D01*
X161979836Y-111888383D01*
X161820193Y-112353036D01*
X161763147Y-112353036D01*
X161763214Y-112277421D01*
X161575592Y-111823343D01*
X161411801Y-111659265D01*
X162384870Y-111659265D01*
X163068000Y-112342395D01*
X163751130Y-111659265D01*
X163701617Y-111433836D01*
X163236964Y-111274193D01*
X162746587Y-111304518D01*
X162434383Y-111433836D01*
X162384870Y-111659265D01*
X161411801Y-111659265D01*
X161228485Y-111475629D01*
X160774734Y-111287215D01*
X160283421Y-111286786D01*
X159829343Y-111474408D01*
X159481629Y-111821515D01*
X159293215Y-112275266D01*
X159292786Y-112766579D01*
X133497204Y-112766579D01*
X133341673Y-112390166D01*
X133043981Y-112091954D01*
X132654828Y-111930364D01*
X132233460Y-111929996D01*
X131844026Y-112090907D01*
X131545814Y-112388599D01*
X131384224Y-112777752D01*
X131383856Y-113199120D01*
X129702377Y-113199120D01*
X129702744Y-112779600D01*
X129541833Y-112390166D01*
X129244141Y-112091954D01*
X128854988Y-111930364D01*
X128433620Y-111929996D01*
X128044186Y-112090907D01*
X127745974Y-112388599D01*
X127584384Y-112777752D01*
X127584016Y-113199120D01*
X117260462Y-113199120D01*
X117224466Y-113112005D01*
X116760437Y-112647166D01*
X116153845Y-112395287D01*
X115497037Y-112394714D01*
X114890005Y-112645534D01*
X114425166Y-113109563D01*
X114173287Y-113716155D01*
X114172714Y-114372963D01*
X114423534Y-114979995D01*
X114556108Y-115112800D01*
X111823436Y-115112800D01*
X106511599Y-109800963D01*
X114172714Y-109800963D01*
X114423534Y-110407995D01*
X114887563Y-110872834D01*
X115494155Y-111124713D01*
X116150963Y-111125286D01*
X116757995Y-110874466D01*
X117222834Y-110410437D01*
X117474713Y-109803845D01*
X117475286Y-109147037D01*
X117224466Y-108540005D01*
X116760437Y-108075166D01*
X116153845Y-107823287D01*
X115497037Y-107822714D01*
X114890005Y-108073534D01*
X114425166Y-108537563D01*
X114173287Y-109144155D01*
X114172714Y-109800963D01*
X106511599Y-109800963D01*
X102692200Y-105981564D01*
X102692200Y-88943189D01*
X102738038Y-88832799D01*
X102738362Y-88460833D01*
X102596317Y-88117057D01*
X102333527Y-87853808D01*
X101989999Y-87711162D01*
X101675000Y-87710888D01*
X101675000Y-84659672D01*
X102305127Y-85290900D01*
X103493696Y-85784437D01*
X104780658Y-85785560D01*
X105970086Y-85294098D01*
X106880900Y-84384873D01*
X107374437Y-83196304D01*
X107374683Y-82914048D01*
X110638984Y-82914048D01*
X110898767Y-83542772D01*
X111379378Y-84024222D01*
X112007648Y-84285103D01*
X112687928Y-84285696D01*
X113316652Y-84025913D01*
X113798102Y-83545302D01*
X114058983Y-82917032D01*
X114059031Y-82861150D01*
X115638000Y-82861150D01*
X115638000Y-83776710D01*
X115734673Y-84010099D01*
X115913302Y-84188727D01*
X116146691Y-84285400D01*
X117062250Y-84285400D01*
X117221000Y-84126650D01*
X117221000Y-82702400D01*
X117475000Y-82702400D01*
X117475000Y-84126650D01*
X117633750Y-84285400D01*
X118549309Y-84285400D01*
X118782698Y-84188727D01*
X118961327Y-84010099D01*
X119058000Y-83776710D01*
X119058000Y-82861150D01*
X118899250Y-82702400D01*
X117475000Y-82702400D01*
X117221000Y-82702400D01*
X115796750Y-82702400D01*
X115638000Y-82861150D01*
X114059031Y-82861150D01*
X114059576Y-82236752D01*
X113799793Y-81608028D01*
X113566263Y-81374090D01*
X115638000Y-81374090D01*
X115638000Y-82289650D01*
X115796750Y-82448400D01*
X117221000Y-82448400D01*
X117221000Y-81024150D01*
X117475000Y-81024150D01*
X117475000Y-82448400D01*
X118899250Y-82448400D01*
X119058000Y-82289650D01*
X119058000Y-81374090D01*
X118961327Y-81140701D01*
X118782698Y-80962073D01*
X118549309Y-80865400D01*
X117633750Y-80865400D01*
X117475000Y-81024150D01*
X117221000Y-81024150D01*
X117062250Y-80865400D01*
X116146691Y-80865400D01*
X115913302Y-80962073D01*
X115734673Y-81140701D01*
X115638000Y-81374090D01*
X113566263Y-81374090D01*
X113319182Y-81126578D01*
X112690912Y-80865697D01*
X112010632Y-80865104D01*
X111381908Y-81124887D01*
X110900458Y-81605498D01*
X110639577Y-82233768D01*
X110638984Y-82914048D01*
X107374683Y-82914048D01*
X107375560Y-81909342D01*
X106884098Y-80719914D01*
X106123513Y-79958000D01*
X122479364Y-79958000D01*
X122377474Y-80203379D01*
G36*
X125597115Y-81850601D02*
X125562637Y-81949032D01*
X126492000Y-82878395D01*
X126506143Y-82864253D01*
X126685748Y-83043858D01*
X126671605Y-83058000D01*
X127600968Y-83987363D01*
X127762000Y-83930957D01*
X127923032Y-83987363D01*
X128852395Y-83058000D01*
X128838253Y-83043858D01*
X129017858Y-82864253D01*
X129032000Y-82878395D01*
X129046143Y-82864253D01*
X129225748Y-83043858D01*
X129211605Y-83058000D01*
X130140968Y-83987363D01*
X130302000Y-83930957D01*
X130463032Y-83987363D01*
X131392395Y-83058000D01*
X131378253Y-83043858D01*
X131557858Y-82864253D01*
X131572000Y-82878395D01*
X131586143Y-82864253D01*
X131765748Y-83043858D01*
X131751605Y-83058000D01*
X132680968Y-83987363D01*
X132941580Y-83896077D01*
X133158045Y-83308167D01*
X133144895Y-82978851D01*
X137800045Y-87634001D01*
X138046606Y-87798748D01*
X138337446Y-87856600D01*
X139890403Y-87856600D01*
X139882762Y-87875001D01*
X139882438Y-88246967D01*
X140024483Y-88590743D01*
X140057600Y-88623918D01*
X140057600Y-91154598D01*
X139685400Y-90782398D01*
X139438838Y-90617651D01*
X139147999Y-90559799D01*
X118798047Y-90559799D01*
X118507208Y-90617651D01*
X118260646Y-90782398D01*
X116596923Y-92446121D01*
X115188093Y-92446121D01*
X115212400Y-92323920D01*
X115212400Y-90332402D01*
X121377834Y-84166968D01*
X123022637Y-84166968D01*
X123113923Y-84427580D01*
X123701833Y-84644045D01*
X124327828Y-84619049D01*
X124790077Y-84427580D01*
X124881363Y-84166968D01*
X125562637Y-84166968D01*
X125653923Y-84427580D01*
X126241833Y-84644045D01*
X126867828Y-84619049D01*
X127330077Y-84427580D01*
X127421363Y-84166968D01*
X128102637Y-84166968D01*
X128193923Y-84427580D01*
X128781833Y-84644045D01*
X129407828Y-84619049D01*
X129870077Y-84427580D01*
X129961363Y-84166968D01*
X130642637Y-84166968D01*
X130733923Y-84427580D01*
X131321833Y-84644045D01*
X131947828Y-84619049D01*
X132410077Y-84427580D01*
X132501363Y-84166968D01*
X131572000Y-83237605D01*
X130642637Y-84166968D01*
X129961363Y-84166968D01*
X129032000Y-83237605D01*
X128102637Y-84166968D01*
X127421363Y-84166968D01*
X126492000Y-83237605D01*
X125562637Y-84166968D01*
X124881363Y-84166968D01*
X123952000Y-83237605D01*
X123022637Y-84166968D01*
X121377834Y-84166968D01*
X122380201Y-83164601D01*
X122390951Y-83433828D01*
X122582420Y-83896077D01*
X122843032Y-83987363D01*
X123772395Y-83058000D01*
X124131605Y-83058000D01*
X125060968Y-83987363D01*
X125222000Y-83930957D01*
X125383032Y-83987363D01*
X126312395Y-83058000D01*
X125383032Y-82128637D01*
X125222000Y-82185043D01*
X125060968Y-82128637D01*
X124131605Y-83058000D01*
X123772395Y-83058000D01*
X123758253Y-83043858D01*
X123937858Y-82864253D01*
X123952000Y-82878395D01*
X124881363Y-81949032D01*
X124846687Y-81850036D01*
X125222273Y-81475104D01*
X125597115Y-81850601D01*
X125597115Y-81850601D01*
G37*
X125597115Y-81850601D02*
X125562637Y-81949032D01*
X126492000Y-82878395D01*
X126506143Y-82864253D01*
X126685748Y-83043858D01*
X126671605Y-83058000D01*
X127600968Y-83987363D01*
X127762000Y-83930957D01*
X127923032Y-83987363D01*
X128852395Y-83058000D01*
X128838253Y-83043858D01*
X129017858Y-82864253D01*
X129032000Y-82878395D01*
X129046143Y-82864253D01*
X129225748Y-83043858D01*
X129211605Y-83058000D01*
X130140968Y-83987363D01*
X130302000Y-83930957D01*
X130463032Y-83987363D01*
X131392395Y-83058000D01*
X131378253Y-83043858D01*
X131557858Y-82864253D01*
X131572000Y-82878395D01*
X131586143Y-82864253D01*
X131765748Y-83043858D01*
X131751605Y-83058000D01*
X132680968Y-83987363D01*
X132941580Y-83896077D01*
X133158045Y-83308167D01*
X133144895Y-82978851D01*
X137800045Y-87634001D01*
X138046606Y-87798748D01*
X138337446Y-87856600D01*
X139890403Y-87856600D01*
X139882762Y-87875001D01*
X139882438Y-88246967D01*
X140024483Y-88590743D01*
X140057600Y-88623918D01*
X140057600Y-91154598D01*
X139685400Y-90782398D01*
X139438838Y-90617651D01*
X139147999Y-90559799D01*
X118798047Y-90559799D01*
X118507208Y-90617651D01*
X118260646Y-90782398D01*
X116596923Y-92446121D01*
X115188093Y-92446121D01*
X115212400Y-92323920D01*
X115212400Y-90332402D01*
X121377834Y-84166968D01*
X123022637Y-84166968D01*
X123113923Y-84427580D01*
X123701833Y-84644045D01*
X124327828Y-84619049D01*
X124790077Y-84427580D01*
X124881363Y-84166968D01*
X125562637Y-84166968D01*
X125653923Y-84427580D01*
X126241833Y-84644045D01*
X126867828Y-84619049D01*
X127330077Y-84427580D01*
X127421363Y-84166968D01*
X128102637Y-84166968D01*
X128193923Y-84427580D01*
X128781833Y-84644045D01*
X129407828Y-84619049D01*
X129870077Y-84427580D01*
X129961363Y-84166968D01*
X130642637Y-84166968D01*
X130733923Y-84427580D01*
X131321833Y-84644045D01*
X131947828Y-84619049D01*
X132410077Y-84427580D01*
X132501363Y-84166968D01*
X131572000Y-83237605D01*
X130642637Y-84166968D01*
X129961363Y-84166968D01*
X129032000Y-83237605D01*
X128102637Y-84166968D01*
X127421363Y-84166968D01*
X126492000Y-83237605D01*
X125562637Y-84166968D01*
X124881363Y-84166968D01*
X123952000Y-83237605D01*
X123022637Y-84166968D01*
X121377834Y-84166968D01*
X122380201Y-83164601D01*
X122390951Y-83433828D01*
X122582420Y-83896077D01*
X122843032Y-83987363D01*
X123772395Y-83058000D01*
X124131605Y-83058000D01*
X125060968Y-83987363D01*
X125222000Y-83930957D01*
X125383032Y-83987363D01*
X126312395Y-83058000D01*
X125383032Y-82128637D01*
X125222000Y-82185043D01*
X125060968Y-82128637D01*
X124131605Y-83058000D01*
X123772395Y-83058000D01*
X123758253Y-83043858D01*
X123937858Y-82864253D01*
X123952000Y-82878395D01*
X124881363Y-81949032D01*
X124846687Y-81850036D01*
X125222273Y-81475104D01*
X125597115Y-81850601D01*
M02*
