G04 #@! TF.FileFunction,Legend,Bot*
%FSLAX46Y46*%
G04 Gerber Fmt 4.6, Leading zero omitted, Abs format (unit mm)*
G04 Created by KiCad (PCBNEW 4.0.7) date 01/19/18 12:17:46*
%MOMM*%
%LPD*%
G01*
G04 APERTURE LIST*
%ADD10C,0.100000*%
%ADD11C,0.200000*%
%ADD12C,0.508000*%
%ADD13C,0.300000*%
%ADD14C,0.010000*%
G04 APERTURE END LIST*
D10*
D11*
X152399928Y-87890333D02*
X152018976Y-87890333D01*
X152476119Y-88118905D02*
X152209452Y-87318905D01*
X151942785Y-88118905D01*
X151333262Y-87318905D02*
X151485643Y-87318905D01*
X151561833Y-87357000D01*
X151599928Y-87395095D01*
X151676119Y-87509381D01*
X151714214Y-87661762D01*
X151714214Y-87966524D01*
X151676119Y-88042714D01*
X151638024Y-88080810D01*
X151561833Y-88118905D01*
X151409452Y-88118905D01*
X151333262Y-88080810D01*
X151295166Y-88042714D01*
X151257071Y-87966524D01*
X151257071Y-87776048D01*
X151295166Y-87699857D01*
X151333262Y-87661762D01*
X151409452Y-87623667D01*
X151561833Y-87623667D01*
X151638024Y-87661762D01*
X151676119Y-87699857D01*
X151714214Y-87776048D01*
X154939928Y-87890333D02*
X154558976Y-87890333D01*
X155016119Y-88118905D02*
X154749452Y-87318905D01*
X154482785Y-88118905D01*
X153835166Y-87318905D02*
X154216119Y-87318905D01*
X154254214Y-87699857D01*
X154216119Y-87661762D01*
X154139928Y-87623667D01*
X153949452Y-87623667D01*
X153873262Y-87661762D01*
X153835166Y-87699857D01*
X153797071Y-87776048D01*
X153797071Y-87966524D01*
X153835166Y-88042714D01*
X153873262Y-88080810D01*
X153949452Y-88118905D01*
X154139928Y-88118905D01*
X154216119Y-88080810D01*
X154254214Y-88042714D01*
D12*
X150622000Y-79248000D02*
X150622000Y-81597500D01*
X153162000Y-79248000D02*
X153162000Y-81597500D01*
X150622000Y-88582500D02*
X150622000Y-86995000D01*
X153162000Y-88582500D02*
X153162000Y-86995000D01*
X168338500Y-88646000D02*
X147828000Y-88646000D01*
X147828000Y-91948000D02*
X147828000Y-79248000D01*
D11*
X147828000Y-79248000D02*
X147828000Y-91948000D01*
D12*
X177673000Y-108394500D02*
X177673000Y-106997500D01*
X171323000Y-108394500D02*
X171323000Y-106934000D01*
X164973000Y-108394500D02*
X164973000Y-106997500D01*
X183896000Y-106870500D02*
X158750000Y-106870500D01*
X183896000Y-108458000D02*
X183896000Y-106870500D01*
X158750000Y-108458000D02*
X183896000Y-108458000D01*
X158750000Y-106870500D02*
X158750000Y-108458000D01*
X191262000Y-86931500D02*
X191262000Y-88519000D01*
X188722000Y-86868000D02*
X188722000Y-88646000D01*
X186182000Y-86931500D02*
X186182000Y-88519000D01*
X193675000Y-90297000D02*
X183705500Y-90297000D01*
X183642000Y-88646000D02*
X193675000Y-88646000D01*
X193802000Y-86868000D02*
X183769000Y-86868000D01*
X183769000Y-84328000D02*
X193611500Y-84328000D01*
X193675000Y-81788000D02*
X183769000Y-81788000D01*
X191262000Y-79248000D02*
X191262000Y-81724500D01*
X188722000Y-79248000D02*
X188722000Y-81724500D01*
X186182000Y-79248000D02*
X186182000Y-81788000D01*
X183642000Y-91948000D02*
X183642000Y-79248000D01*
X193802000Y-91948000D02*
X187198000Y-91948000D01*
X193802000Y-79248000D02*
X193802000Y-91948000D01*
X173482000Y-86995000D02*
X173482000Y-88519000D01*
X176022000Y-86995000D02*
X176022000Y-88455500D01*
X178562000Y-86995000D02*
X178562000Y-88582500D01*
X173482000Y-79248000D02*
X173482000Y-81661000D01*
X178562000Y-79248000D02*
X178562000Y-81724500D01*
X176022000Y-79248000D02*
X176022000Y-81661000D01*
X170942000Y-90297000D02*
X181038500Y-90297000D01*
X181038500Y-88646000D02*
X171069000Y-88646000D01*
X170942000Y-86868000D02*
X180975000Y-86868000D01*
X181038500Y-84328000D02*
X171069000Y-84328000D01*
X170942000Y-81788000D02*
X180975000Y-81788000D01*
X170942000Y-91948000D02*
X170942000Y-79248000D01*
X181102000Y-91948000D02*
X170942000Y-91948000D01*
X181102000Y-79248000D02*
X181102000Y-91948000D01*
X165862000Y-79248000D02*
X165862000Y-81724500D01*
X163322000Y-79248000D02*
X163322000Y-81661000D01*
X160782000Y-79121000D02*
X160782000Y-81661000D01*
X158242000Y-79248000D02*
X158242000Y-81788000D01*
X155702000Y-79311500D02*
X155702000Y-81661000D01*
X155702000Y-88646000D02*
X155702000Y-87058500D01*
X158242000Y-86931500D02*
X158242000Y-88519000D01*
X165862000Y-86931500D02*
X165862000Y-88582500D01*
X163322000Y-86931500D02*
X163322000Y-88519000D01*
X160782000Y-88582500D02*
X160782000Y-87058500D01*
X147828000Y-90297000D02*
X168275000Y-90297000D01*
X147828000Y-86868000D02*
X168275000Y-86868000D01*
X168275000Y-84328000D02*
X147828000Y-84328000D01*
X147828000Y-81788000D02*
X168338500Y-81788000D01*
X168402000Y-91948000D02*
X147828000Y-91948000D01*
X168402000Y-79248000D02*
X168402000Y-91948000D01*
X109347000Y-86677500D02*
X109347000Y-79184500D01*
X120396000Y-86677500D02*
X120396000Y-79184500D01*
X127698500Y-84391500D02*
X127698500Y-85915500D01*
X122555000Y-86042500D02*
X132969000Y-86042500D01*
X132969000Y-84328000D02*
X122618500Y-84328000D01*
X122555000Y-81788000D02*
X132905500Y-81788000D01*
X127698500Y-79248000D02*
X127698500Y-81788000D01*
X133096000Y-87630000D02*
X133096000Y-79311500D01*
X122428000Y-87630000D02*
X133096000Y-87630000D01*
X122428000Y-79248000D02*
X122428000Y-87630000D01*
X114871500Y-88265000D02*
X114871500Y-86677500D01*
X109347000Y-88265000D02*
X109347000Y-86614000D01*
X120396000Y-88265000D02*
X109347000Y-88265000D01*
X120396000Y-86614000D02*
X120396000Y-88265000D01*
X109347000Y-86614000D02*
X120396000Y-86614000D01*
D13*
X147012000Y-84112286D02*
X147012000Y-84683715D01*
X147354857Y-83998001D02*
X146154857Y-84398001D01*
X147354857Y-84798001D01*
X147354857Y-85198000D02*
X146154857Y-85198000D01*
X146154857Y-85483715D01*
X146212000Y-85655143D01*
X146326286Y-85769429D01*
X146440571Y-85826572D01*
X146669143Y-85883715D01*
X146840571Y-85883715D01*
X147069143Y-85826572D01*
X147183429Y-85769429D01*
X147297714Y-85655143D01*
X147354857Y-85483715D01*
X147354857Y-85198000D01*
X147240571Y-87083715D02*
X147297714Y-87026572D01*
X147354857Y-86855143D01*
X147354857Y-86740857D01*
X147297714Y-86569429D01*
X147183429Y-86455143D01*
X147069143Y-86398000D01*
X146840571Y-86340857D01*
X146669143Y-86340857D01*
X146440571Y-86398000D01*
X146326286Y-86455143D01*
X146212000Y-86569429D01*
X146154857Y-86740857D01*
X146154857Y-86855143D01*
X146212000Y-87026572D01*
X146269143Y-87083715D01*
X170348214Y-84432928D02*
X170405357Y-84604357D01*
X170405357Y-84890071D01*
X170348214Y-85004357D01*
X170291071Y-85061500D01*
X170176786Y-85118643D01*
X170062500Y-85118643D01*
X169948214Y-85061500D01*
X169891071Y-85004357D01*
X169833929Y-84890071D01*
X169776786Y-84661500D01*
X169719643Y-84547214D01*
X169662500Y-84490071D01*
X169548214Y-84432928D01*
X169433929Y-84432928D01*
X169319643Y-84490071D01*
X169262500Y-84547214D01*
X169205357Y-84661500D01*
X169205357Y-84947214D01*
X169262500Y-85118643D01*
X170405357Y-85632928D02*
X169205357Y-85632928D01*
X169205357Y-86090071D01*
X169262500Y-86204357D01*
X169319643Y-86261500D01*
X169433929Y-86318643D01*
X169605357Y-86318643D01*
X169719643Y-86261500D01*
X169776786Y-86204357D01*
X169833929Y-86090071D01*
X169833929Y-85632928D01*
X170405357Y-86832928D02*
X169205357Y-86832928D01*
X183232357Y-83848785D02*
X182032357Y-83848785D01*
X182032357Y-84305928D01*
X182089500Y-84420214D01*
X182146643Y-84477357D01*
X182260929Y-84534500D01*
X182432357Y-84534500D01*
X182546643Y-84477357D01*
X182603786Y-84420214D01*
X182660929Y-84305928D01*
X182660929Y-83848785D01*
X182032357Y-84934500D02*
X183232357Y-85220214D01*
X182375214Y-85448785D01*
X183232357Y-85677357D01*
X182032357Y-85963071D01*
X183232357Y-86420214D02*
X182032357Y-86420214D01*
X182889500Y-86820214D01*
X182032357Y-87220214D01*
X183232357Y-87220214D01*
D11*
X193675000Y-95186500D02*
X193675000Y-96329500D01*
X197249952Y-103485905D02*
X197249952Y-102685905D01*
X196907095Y-103447810D02*
X196792809Y-103485905D01*
X196602333Y-103485905D01*
X196526143Y-103447810D01*
X196488047Y-103409714D01*
X196449952Y-103333524D01*
X196449952Y-103257333D01*
X196488047Y-103181143D01*
X196526143Y-103143048D01*
X196602333Y-103104952D01*
X196754714Y-103066857D01*
X196830905Y-103028762D01*
X196869000Y-102990667D01*
X196907095Y-102914476D01*
X196907095Y-102838286D01*
X196869000Y-102762095D01*
X196830905Y-102724000D01*
X196754714Y-102685905D01*
X196564238Y-102685905D01*
X196449952Y-102724000D01*
X196107095Y-103485905D02*
X196107095Y-102685905D01*
X195802333Y-102685905D01*
X195726142Y-102724000D01*
X195688047Y-102762095D01*
X195649952Y-102838286D01*
X195649952Y-102952571D01*
X195688047Y-103028762D01*
X195726142Y-103066857D01*
X195802333Y-103104952D01*
X196107095Y-103104952D01*
D13*
X121974642Y-96627071D02*
X122474642Y-95912786D01*
X122831785Y-96627071D02*
X122831785Y-95127071D01*
X122260357Y-95127071D01*
X122117499Y-95198500D01*
X122046071Y-95269929D01*
X121974642Y-95412786D01*
X121974642Y-95627071D01*
X122046071Y-95769929D01*
X122117499Y-95841357D01*
X122260357Y-95912786D01*
X122831785Y-95912786D01*
X120760357Y-96555643D02*
X120903214Y-96627071D01*
X121188928Y-96627071D01*
X121331785Y-96555643D01*
X121403214Y-96412786D01*
X121403214Y-95841357D01*
X121331785Y-95698500D01*
X121188928Y-95627071D01*
X120903214Y-95627071D01*
X120760357Y-95698500D01*
X120688928Y-95841357D01*
X120688928Y-95984214D01*
X121403214Y-96127071D01*
X119403214Y-96627071D02*
X119403214Y-95127071D01*
X119403214Y-96555643D02*
X119546071Y-96627071D01*
X119831785Y-96627071D01*
X119974643Y-96555643D01*
X120046071Y-96484214D01*
X120117500Y-96341357D01*
X120117500Y-95912786D01*
X120046071Y-95769929D01*
X119974643Y-95698500D01*
X119831785Y-95627071D01*
X119546071Y-95627071D01*
X119403214Y-95698500D01*
X118188928Y-95841357D02*
X117974642Y-95912786D01*
X117903214Y-95984214D01*
X117831785Y-96127071D01*
X117831785Y-96341357D01*
X117903214Y-96484214D01*
X117974642Y-96555643D01*
X118117500Y-96627071D01*
X118688928Y-96627071D01*
X118688928Y-95127071D01*
X118188928Y-95127071D01*
X118046071Y-95198500D01*
X117974642Y-95269929D01*
X117903214Y-95412786D01*
X117903214Y-95555643D01*
X117974642Y-95698500D01*
X118046071Y-95769929D01*
X118188928Y-95841357D01*
X118688928Y-95841357D01*
X116974642Y-96627071D02*
X117117500Y-96555643D01*
X117188928Y-96484214D01*
X117260357Y-96341357D01*
X117260357Y-95912786D01*
X117188928Y-95769929D01*
X117117500Y-95698500D01*
X116974642Y-95627071D01*
X116760357Y-95627071D01*
X116617500Y-95698500D01*
X116546071Y-95769929D01*
X116474642Y-95912786D01*
X116474642Y-96341357D01*
X116546071Y-96484214D01*
X116617500Y-96555643D01*
X116760357Y-96627071D01*
X116974642Y-96627071D01*
X115188928Y-96627071D02*
X115188928Y-95841357D01*
X115260357Y-95698500D01*
X115403214Y-95627071D01*
X115688928Y-95627071D01*
X115831785Y-95698500D01*
X115188928Y-96555643D02*
X115331785Y-96627071D01*
X115688928Y-96627071D01*
X115831785Y-96555643D01*
X115903214Y-96412786D01*
X115903214Y-96269929D01*
X115831785Y-96127071D01*
X115688928Y-96055643D01*
X115331785Y-96055643D01*
X115188928Y-95984214D01*
X114474642Y-96627071D02*
X114474642Y-95627071D01*
X114474642Y-95912786D02*
X114403214Y-95769929D01*
X114331785Y-95698500D01*
X114188928Y-95627071D01*
X114046071Y-95627071D01*
X112903214Y-96627071D02*
X112903214Y-95127071D01*
X112903214Y-96555643D02*
X113046071Y-96627071D01*
X113331785Y-96627071D01*
X113474643Y-96555643D01*
X113546071Y-96484214D01*
X113617500Y-96341357D01*
X113617500Y-95912786D01*
X113546071Y-95769929D01*
X113474643Y-95698500D01*
X113331785Y-95627071D01*
X113046071Y-95627071D01*
X112903214Y-95698500D01*
X111046071Y-95841357D02*
X110546071Y-95841357D01*
X110331785Y-96627071D02*
X111046071Y-96627071D01*
X111046071Y-95127071D01*
X110331785Y-95127071D01*
X109046071Y-96627071D02*
X109046071Y-95127071D01*
X109046071Y-96555643D02*
X109188928Y-96627071D01*
X109474642Y-96627071D01*
X109617500Y-96555643D01*
X109688928Y-96484214D01*
X109760357Y-96341357D01*
X109760357Y-95912786D01*
X109688928Y-95769929D01*
X109617500Y-95698500D01*
X109474642Y-95627071D01*
X109188928Y-95627071D01*
X109046071Y-95698500D01*
X107688928Y-95627071D02*
X107688928Y-96841357D01*
X107760357Y-96984214D01*
X107831785Y-97055643D01*
X107974642Y-97127071D01*
X108188928Y-97127071D01*
X108331785Y-97055643D01*
X107688928Y-96555643D02*
X107831785Y-96627071D01*
X108117499Y-96627071D01*
X108260357Y-96555643D01*
X108331785Y-96484214D01*
X108403214Y-96341357D01*
X108403214Y-95912786D01*
X108331785Y-95769929D01*
X108260357Y-95698500D01*
X108117499Y-95627071D01*
X107831785Y-95627071D01*
X107688928Y-95698500D01*
X106403214Y-96555643D02*
X106546071Y-96627071D01*
X106831785Y-96627071D01*
X106974642Y-96555643D01*
X107046071Y-96412786D01*
X107046071Y-95841357D01*
X106974642Y-95698500D01*
X106831785Y-95627071D01*
X106546071Y-95627071D01*
X106403214Y-95698500D01*
X106331785Y-95841357D01*
X106331785Y-95984214D01*
X107046071Y-96127071D01*
D11*
X180917833Y-108057905D02*
X181184500Y-107676952D01*
X181374976Y-108057905D02*
X181374976Y-107257905D01*
X181070214Y-107257905D01*
X180994023Y-107296000D01*
X180955928Y-107334095D01*
X180917833Y-107410286D01*
X180917833Y-107524571D01*
X180955928Y-107600762D01*
X180994023Y-107638857D01*
X181070214Y-107676952D01*
X181374976Y-107676952D01*
X180651166Y-107257905D02*
X180117833Y-108057905D01*
X180117833Y-107257905D02*
X180651166Y-108057905D01*
X175107524Y-107257905D02*
X174650381Y-107257905D01*
X174878952Y-108057905D02*
X174878952Y-107257905D01*
X174459904Y-107257905D02*
X173926571Y-108057905D01*
X173926571Y-107257905D02*
X174459904Y-108057905D01*
X168300381Y-108057905D02*
X168757524Y-108057905D01*
X168528953Y-108057905D02*
X168528953Y-107257905D01*
X168605143Y-107372190D01*
X168681334Y-107448381D01*
X168757524Y-107486476D01*
X168033714Y-107257905D02*
X167538476Y-107257905D01*
X167805143Y-107562667D01*
X167690857Y-107562667D01*
X167614667Y-107600762D01*
X167576571Y-107638857D01*
X167538476Y-107715048D01*
X167538476Y-107905524D01*
X167576571Y-107981714D01*
X167614667Y-108019810D01*
X167690857Y-108057905D01*
X167919429Y-108057905D01*
X167995619Y-108019810D01*
X168033714Y-107981714D01*
X162737667Y-108057905D02*
X162737667Y-107257905D01*
X162432905Y-107257905D01*
X162356714Y-107296000D01*
X162318619Y-107334095D01*
X162280524Y-107410286D01*
X162280524Y-107524571D01*
X162318619Y-107600762D01*
X162356714Y-107638857D01*
X162432905Y-107676952D01*
X162737667Y-107676952D01*
X162013857Y-107257905D02*
X161823381Y-108057905D01*
X161671000Y-107486476D01*
X161518619Y-108057905D01*
X161328143Y-107257905D01*
X160566238Y-108057905D02*
X160832905Y-107676952D01*
X161023381Y-108057905D02*
X161023381Y-107257905D01*
X160718619Y-107257905D01*
X160642428Y-107296000D01*
X160604333Y-107334095D01*
X160566238Y-107410286D01*
X160566238Y-107524571D01*
X160604333Y-107600762D01*
X160642428Y-107638857D01*
X160718619Y-107676952D01*
X161023381Y-107676952D01*
X192798666Y-87318905D02*
X192303428Y-87318905D01*
X192570095Y-87623667D01*
X192455809Y-87623667D01*
X192379619Y-87661762D01*
X192341523Y-87699857D01*
X192303428Y-87776048D01*
X192303428Y-87966524D01*
X192341523Y-88042714D01*
X192379619Y-88080810D01*
X192455809Y-88118905D01*
X192684381Y-88118905D01*
X192760571Y-88080810D01*
X192798666Y-88042714D01*
X189801523Y-87318905D02*
X190182476Y-87318905D01*
X190220571Y-87699857D01*
X190182476Y-87661762D01*
X190106285Y-87623667D01*
X189915809Y-87623667D01*
X189839619Y-87661762D01*
X189801523Y-87699857D01*
X189763428Y-87776048D01*
X189763428Y-87966524D01*
X189801523Y-88042714D01*
X189839619Y-88080810D01*
X189915809Y-88118905D01*
X190106285Y-88118905D01*
X190182476Y-88080810D01*
X190220571Y-88042714D01*
X187299619Y-87318905D02*
X187452000Y-87318905D01*
X187528190Y-87357000D01*
X187566285Y-87395095D01*
X187642476Y-87509381D01*
X187680571Y-87661762D01*
X187680571Y-87966524D01*
X187642476Y-88042714D01*
X187604381Y-88080810D01*
X187528190Y-88118905D01*
X187375809Y-88118905D01*
X187299619Y-88080810D01*
X187261523Y-88042714D01*
X187223428Y-87966524D01*
X187223428Y-87776048D01*
X187261523Y-87699857D01*
X187299619Y-87661762D01*
X187375809Y-87623667D01*
X187528190Y-87623667D01*
X187604381Y-87661762D01*
X187642476Y-87699857D01*
X187680571Y-87776048D01*
X185064381Y-88118905D02*
X184912000Y-88118905D01*
X184835809Y-88080810D01*
X184797714Y-88042714D01*
X184721523Y-87928429D01*
X184683428Y-87776048D01*
X184683428Y-87471286D01*
X184721523Y-87395095D01*
X184759619Y-87357000D01*
X184835809Y-87318905D01*
X184988190Y-87318905D01*
X185064381Y-87357000D01*
X185102476Y-87395095D01*
X185140571Y-87471286D01*
X185140571Y-87661762D01*
X185102476Y-87737952D01*
X185064381Y-87776048D01*
X184988190Y-87814143D01*
X184835809Y-87814143D01*
X184759619Y-87776048D01*
X184721523Y-87737952D01*
X184683428Y-87661762D01*
X188874380Y-89096905D02*
X189255333Y-89096905D01*
X189293428Y-89477857D01*
X189255333Y-89439762D01*
X189179142Y-89401667D01*
X188988666Y-89401667D01*
X188912476Y-89439762D01*
X188874380Y-89477857D01*
X188836285Y-89554048D01*
X188836285Y-89744524D01*
X188874380Y-89820714D01*
X188912476Y-89858810D01*
X188988666Y-89896905D01*
X189179142Y-89896905D01*
X189255333Y-89858810D01*
X189293428Y-89820714D01*
X188607714Y-89096905D02*
X188341047Y-89896905D01*
X188074380Y-89096905D01*
X189331523Y-90786000D02*
X189407714Y-90747905D01*
X189521999Y-90747905D01*
X189636285Y-90786000D01*
X189712476Y-90862190D01*
X189750571Y-90938381D01*
X189788666Y-91090762D01*
X189788666Y-91205048D01*
X189750571Y-91357429D01*
X189712476Y-91433619D01*
X189636285Y-91509810D01*
X189521999Y-91547905D01*
X189445809Y-91547905D01*
X189331523Y-91509810D01*
X189293428Y-91471714D01*
X189293428Y-91205048D01*
X189445809Y-91205048D01*
X188950571Y-91547905D02*
X188950571Y-90747905D01*
X188493428Y-91547905D01*
X188493428Y-90747905D01*
X188112476Y-91547905D02*
X188112476Y-90747905D01*
X187922000Y-90747905D01*
X187807714Y-90786000D01*
X187731523Y-90862190D01*
X187693428Y-90938381D01*
X187655333Y-91090762D01*
X187655333Y-91205048D01*
X187693428Y-91357429D01*
X187731523Y-91433619D01*
X187807714Y-91509810D01*
X187922000Y-91547905D01*
X188112476Y-91547905D01*
X179984381Y-88118905D02*
X180441524Y-88118905D01*
X180212953Y-88118905D02*
X180212953Y-87318905D01*
X180289143Y-87433190D01*
X180365334Y-87509381D01*
X180441524Y-87547476D01*
X179489143Y-87318905D02*
X179412952Y-87318905D01*
X179336762Y-87357000D01*
X179298667Y-87395095D01*
X179260571Y-87471286D01*
X179222476Y-87623667D01*
X179222476Y-87814143D01*
X179260571Y-87966524D01*
X179298667Y-88042714D01*
X179336762Y-88080810D01*
X179412952Y-88118905D01*
X179489143Y-88118905D01*
X179565333Y-88080810D01*
X179603429Y-88042714D01*
X179641524Y-87966524D01*
X179679619Y-87814143D01*
X179679619Y-87623667D01*
X179641524Y-87471286D01*
X179603429Y-87395095D01*
X179565333Y-87357000D01*
X179489143Y-87318905D01*
X177444381Y-88118905D02*
X177901524Y-88118905D01*
X177672953Y-88118905D02*
X177672953Y-87318905D01*
X177749143Y-87433190D01*
X177825334Y-87509381D01*
X177901524Y-87547476D01*
X176682476Y-88118905D02*
X177139619Y-88118905D01*
X176911048Y-88118905D02*
X176911048Y-87318905D01*
X176987238Y-87433190D01*
X177063429Y-87509381D01*
X177139619Y-87547476D01*
X174904381Y-88118905D02*
X175361524Y-88118905D01*
X175132953Y-88118905D02*
X175132953Y-87318905D01*
X175209143Y-87433190D01*
X175285334Y-87509381D01*
X175361524Y-87547476D01*
X174599619Y-87395095D02*
X174561524Y-87357000D01*
X174485333Y-87318905D01*
X174294857Y-87318905D01*
X174218667Y-87357000D01*
X174180571Y-87395095D01*
X174142476Y-87471286D01*
X174142476Y-87547476D01*
X174180571Y-87661762D01*
X174637714Y-88118905D01*
X174142476Y-88118905D01*
X172364381Y-88118905D02*
X172821524Y-88118905D01*
X172592953Y-88118905D02*
X172592953Y-87318905D01*
X172669143Y-87433190D01*
X172745334Y-87509381D01*
X172821524Y-87547476D01*
X172097714Y-87318905D02*
X171602476Y-87318905D01*
X171869143Y-87623667D01*
X171754857Y-87623667D01*
X171678667Y-87661762D01*
X171640571Y-87699857D01*
X171602476Y-87776048D01*
X171602476Y-87966524D01*
X171640571Y-88042714D01*
X171678667Y-88080810D01*
X171754857Y-88118905D01*
X171983429Y-88118905D01*
X172059619Y-88080810D01*
X172097714Y-88042714D01*
X176174380Y-89096905D02*
X176555333Y-89096905D01*
X176593428Y-89477857D01*
X176555333Y-89439762D01*
X176479142Y-89401667D01*
X176288666Y-89401667D01*
X176212476Y-89439762D01*
X176174380Y-89477857D01*
X176136285Y-89554048D01*
X176136285Y-89744524D01*
X176174380Y-89820714D01*
X176212476Y-89858810D01*
X176288666Y-89896905D01*
X176479142Y-89896905D01*
X176555333Y-89858810D01*
X176593428Y-89820714D01*
X175907714Y-89096905D02*
X175641047Y-89896905D01*
X175374380Y-89096905D01*
X176631523Y-90786000D02*
X176707714Y-90747905D01*
X176821999Y-90747905D01*
X176936285Y-90786000D01*
X177012476Y-90862190D01*
X177050571Y-90938381D01*
X177088666Y-91090762D01*
X177088666Y-91205048D01*
X177050571Y-91357429D01*
X177012476Y-91433619D01*
X176936285Y-91509810D01*
X176821999Y-91547905D01*
X176745809Y-91547905D01*
X176631523Y-91509810D01*
X176593428Y-91471714D01*
X176593428Y-91205048D01*
X176745809Y-91205048D01*
X176250571Y-91547905D02*
X176250571Y-90747905D01*
X175793428Y-91547905D01*
X175793428Y-90747905D01*
X175412476Y-91547905D02*
X175412476Y-90747905D01*
X175222000Y-90747905D01*
X175107714Y-90786000D01*
X175031523Y-90862190D01*
X174993428Y-90938381D01*
X174955333Y-91090762D01*
X174955333Y-91205048D01*
X174993428Y-91357429D01*
X175031523Y-91433619D01*
X175107714Y-91509810D01*
X175222000Y-91547905D01*
X175412476Y-91547905D01*
X158915023Y-90786000D02*
X158991214Y-90747905D01*
X159105499Y-90747905D01*
X159219785Y-90786000D01*
X159295976Y-90862190D01*
X159334071Y-90938381D01*
X159372166Y-91090762D01*
X159372166Y-91205048D01*
X159334071Y-91357429D01*
X159295976Y-91433619D01*
X159219785Y-91509810D01*
X159105499Y-91547905D01*
X159029309Y-91547905D01*
X158915023Y-91509810D01*
X158876928Y-91471714D01*
X158876928Y-91205048D01*
X159029309Y-91205048D01*
X158534071Y-91547905D02*
X158534071Y-90747905D01*
X158076928Y-91547905D01*
X158076928Y-90747905D01*
X157695976Y-91547905D02*
X157695976Y-90747905D01*
X157505500Y-90747905D01*
X157391214Y-90786000D01*
X157315023Y-90862190D01*
X157276928Y-90938381D01*
X157238833Y-91090762D01*
X157238833Y-91205048D01*
X157276928Y-91357429D01*
X157315023Y-91433619D01*
X157391214Y-91509810D01*
X157505500Y-91547905D01*
X157695976Y-91547905D01*
X158457880Y-89160405D02*
X158838833Y-89160405D01*
X158876928Y-89541357D01*
X158838833Y-89503262D01*
X158762642Y-89465167D01*
X158572166Y-89465167D01*
X158495976Y-89503262D01*
X158457880Y-89541357D01*
X158419785Y-89617548D01*
X158419785Y-89808024D01*
X158457880Y-89884214D01*
X158495976Y-89922310D01*
X158572166Y-89960405D01*
X158762642Y-89960405D01*
X158838833Y-89922310D01*
X158876928Y-89884214D01*
X158191214Y-89160405D02*
X157924547Y-89960405D01*
X157657880Y-89160405D01*
X167703428Y-87890333D02*
X167322476Y-87890333D01*
X167779619Y-88118905D02*
X167512952Y-87318905D01*
X167246285Y-88118905D01*
X166827238Y-87318905D02*
X166751047Y-87318905D01*
X166674857Y-87357000D01*
X166636762Y-87395095D01*
X166598666Y-87471286D01*
X166560571Y-87623667D01*
X166560571Y-87814143D01*
X166598666Y-87966524D01*
X166636762Y-88042714D01*
X166674857Y-88080810D01*
X166751047Y-88118905D01*
X166827238Y-88118905D01*
X166903428Y-88080810D01*
X166941524Y-88042714D01*
X166979619Y-87966524D01*
X167017714Y-87814143D01*
X167017714Y-87623667D01*
X166979619Y-87471286D01*
X166941524Y-87395095D01*
X166903428Y-87357000D01*
X166827238Y-87318905D01*
X165163428Y-87890333D02*
X164782476Y-87890333D01*
X165239619Y-88118905D02*
X164972952Y-87318905D01*
X164706285Y-88118905D01*
X164020571Y-88118905D02*
X164477714Y-88118905D01*
X164249143Y-88118905D02*
X164249143Y-87318905D01*
X164325333Y-87433190D01*
X164401524Y-87509381D01*
X164477714Y-87547476D01*
X162623428Y-87890333D02*
X162242476Y-87890333D01*
X162699619Y-88118905D02*
X162432952Y-87318905D01*
X162166285Y-88118905D01*
X161937714Y-87395095D02*
X161899619Y-87357000D01*
X161823428Y-87318905D01*
X161632952Y-87318905D01*
X161556762Y-87357000D01*
X161518666Y-87395095D01*
X161480571Y-87471286D01*
X161480571Y-87547476D01*
X161518666Y-87661762D01*
X161975809Y-88118905D01*
X161480571Y-88118905D01*
X160083428Y-87890333D02*
X159702476Y-87890333D01*
X160159619Y-88118905D02*
X159892952Y-87318905D01*
X159626285Y-88118905D01*
X159435809Y-87318905D02*
X158940571Y-87318905D01*
X159207238Y-87623667D01*
X159092952Y-87623667D01*
X159016762Y-87661762D01*
X158978666Y-87699857D01*
X158940571Y-87776048D01*
X158940571Y-87966524D01*
X158978666Y-88042714D01*
X159016762Y-88080810D01*
X159092952Y-88118905D01*
X159321524Y-88118905D01*
X159397714Y-88080810D01*
X159435809Y-88042714D01*
X157543428Y-87890333D02*
X157162476Y-87890333D01*
X157619619Y-88118905D02*
X157352952Y-87318905D01*
X157086285Y-88118905D01*
X156476762Y-87585571D02*
X156476762Y-88118905D01*
X156667238Y-87280810D02*
X156857714Y-87852238D01*
X156362476Y-87852238D01*
X149859928Y-87826833D02*
X149478976Y-87826833D01*
X149936119Y-88055405D02*
X149669452Y-87255405D01*
X149402785Y-88055405D01*
X149212309Y-87255405D02*
X148678976Y-87255405D01*
X149021833Y-88055405D01*
X131165476Y-84778905D02*
X130670238Y-84778905D01*
X130936905Y-85083667D01*
X130822619Y-85083667D01*
X130746429Y-85121762D01*
X130708333Y-85159857D01*
X130670238Y-85236048D01*
X130670238Y-85426524D01*
X130708333Y-85502714D01*
X130746429Y-85540810D01*
X130822619Y-85578905D01*
X131051191Y-85578905D01*
X131127381Y-85540810D01*
X131165476Y-85502714D01*
X130441667Y-84778905D02*
X130175000Y-85578905D01*
X129908333Y-84778905D01*
X129717857Y-84778905D02*
X129222619Y-84778905D01*
X129489286Y-85083667D01*
X129375000Y-85083667D01*
X129298810Y-85121762D01*
X129260714Y-85159857D01*
X129222619Y-85236048D01*
X129222619Y-85426524D01*
X129260714Y-85502714D01*
X129298810Y-85540810D01*
X129375000Y-85578905D01*
X129603572Y-85578905D01*
X129679762Y-85540810D01*
X129717857Y-85502714D01*
X128371523Y-86468000D02*
X128447714Y-86429905D01*
X128561999Y-86429905D01*
X128676285Y-86468000D01*
X128752476Y-86544190D01*
X128790571Y-86620381D01*
X128828666Y-86772762D01*
X128828666Y-86887048D01*
X128790571Y-87039429D01*
X128752476Y-87115619D01*
X128676285Y-87191810D01*
X128561999Y-87229905D01*
X128485809Y-87229905D01*
X128371523Y-87191810D01*
X128333428Y-87153714D01*
X128333428Y-86887048D01*
X128485809Y-86887048D01*
X127990571Y-87229905D02*
X127990571Y-86429905D01*
X127533428Y-87229905D01*
X127533428Y-86429905D01*
X127152476Y-87229905D02*
X127152476Y-86429905D01*
X126962000Y-86429905D01*
X126847714Y-86468000D01*
X126771523Y-86544190D01*
X126733428Y-86620381D01*
X126695333Y-86772762D01*
X126695333Y-86887048D01*
X126733428Y-87039429D01*
X126771523Y-87115619D01*
X126847714Y-87191810D01*
X126962000Y-87229905D01*
X127152476Y-87229905D01*
X125374380Y-84778905D02*
X125755333Y-84778905D01*
X125793428Y-85159857D01*
X125755333Y-85121762D01*
X125679142Y-85083667D01*
X125488666Y-85083667D01*
X125412476Y-85121762D01*
X125374380Y-85159857D01*
X125336285Y-85236048D01*
X125336285Y-85426524D01*
X125374380Y-85502714D01*
X125412476Y-85540810D01*
X125488666Y-85578905D01*
X125679142Y-85578905D01*
X125755333Y-85540810D01*
X125793428Y-85502714D01*
X125107714Y-84778905D02*
X124841047Y-85578905D01*
X124574380Y-84778905D01*
X113017190Y-87064905D02*
X112750523Y-87864905D01*
X112483856Y-87064905D01*
X112217190Y-87864905D02*
X112217190Y-87064905D01*
X111836238Y-87864905D02*
X111836238Y-87064905D01*
X111379095Y-87864905D01*
X111379095Y-87064905D01*
X118211523Y-87103000D02*
X118287714Y-87064905D01*
X118401999Y-87064905D01*
X118516285Y-87103000D01*
X118592476Y-87179190D01*
X118630571Y-87255381D01*
X118668666Y-87407762D01*
X118668666Y-87522048D01*
X118630571Y-87674429D01*
X118592476Y-87750619D01*
X118516285Y-87826810D01*
X118401999Y-87864905D01*
X118325809Y-87864905D01*
X118211523Y-87826810D01*
X118173428Y-87788714D01*
X118173428Y-87522048D01*
X118325809Y-87522048D01*
X117830571Y-87864905D02*
X117830571Y-87064905D01*
X117373428Y-87864905D01*
X117373428Y-87064905D01*
X116992476Y-87864905D02*
X116992476Y-87064905D01*
X116802000Y-87064905D01*
X116687714Y-87103000D01*
X116611523Y-87179190D01*
X116573428Y-87255381D01*
X116535333Y-87407762D01*
X116535333Y-87522048D01*
X116573428Y-87674429D01*
X116611523Y-87750619D01*
X116687714Y-87826810D01*
X116802000Y-87864905D01*
X116992476Y-87864905D01*
X114871500Y-86614000D02*
X114871500Y-88265000D01*
X109347000Y-86614000D02*
X120396000Y-86614000D01*
X109347000Y-88265000D02*
X109347000Y-86614000D01*
X120396000Y-88265000D02*
X109347000Y-88265000D01*
X120396000Y-86614000D02*
X120396000Y-88265000D01*
X177673000Y-106870500D02*
X177673000Y-108458000D01*
X171323000Y-106934000D02*
X171323000Y-108394500D01*
X164973000Y-106870500D02*
X164973000Y-108458000D01*
X183896000Y-106870500D02*
X158750000Y-106870500D01*
X183896000Y-108458000D02*
X183896000Y-106870500D01*
X158750000Y-108458000D02*
X183896000Y-108458000D01*
X158750000Y-108394500D02*
X158750000Y-108458000D01*
X158750000Y-106934000D02*
X158750000Y-108394500D01*
X191262000Y-86931500D02*
X191262000Y-88519000D01*
X188722000Y-86868000D02*
X188722000Y-88646000D01*
X186182000Y-86931500D02*
X186182000Y-88646000D01*
X193802000Y-90297000D02*
X183705500Y-90297000D01*
X183642000Y-88646000D02*
X193802000Y-88646000D01*
X193738500Y-86868000D02*
X183642000Y-86868000D01*
X183642000Y-84328000D02*
X193738500Y-84328000D01*
X193802000Y-81788000D02*
X183642000Y-81788000D01*
X191262000Y-79248000D02*
X191262000Y-81788000D01*
X188722000Y-79248000D02*
X188722000Y-81724500D01*
X186182000Y-79248000D02*
X186182000Y-81724500D01*
X183642000Y-91948000D02*
X183642000Y-79248000D01*
X193802000Y-91948000D02*
X183642000Y-91948000D01*
X193802000Y-79248000D02*
X193802000Y-91948000D01*
X173482000Y-86931500D02*
X173482000Y-88582500D01*
X176022000Y-86931500D02*
X176022000Y-88582500D01*
X178562000Y-86931500D02*
X178562000Y-88582500D01*
X171005500Y-90297000D02*
X181038500Y-90297000D01*
X170942000Y-88646000D02*
X181038500Y-88646000D01*
X181102000Y-86868000D02*
X170942000Y-86868000D01*
X170942000Y-84328000D02*
X181102000Y-84328000D01*
X181102000Y-81788000D02*
X170942000Y-81788000D01*
X178562000Y-79248000D02*
X178562000Y-81788000D01*
X176022000Y-79248000D02*
X176022000Y-81788000D01*
X173482000Y-79248000D02*
X173482000Y-81788000D01*
X181102000Y-91948000D02*
X181102000Y-79248000D01*
X170942000Y-91948000D02*
X181102000Y-91948000D01*
X170942000Y-79248000D02*
X170942000Y-91948000D01*
X165862000Y-86931500D02*
X165862000Y-88582500D01*
X163322000Y-88582500D02*
X163322000Y-86931500D01*
X160782000Y-86868000D02*
X160782000Y-88646000D01*
X158242000Y-88646000D02*
X158242000Y-86931500D01*
X155702000Y-86868000D02*
X155702000Y-88646000D01*
X155702000Y-81788000D02*
X155702000Y-79248000D01*
X158242000Y-79248000D02*
X158242000Y-81724500D01*
X165862000Y-79248000D02*
X165862000Y-81788000D01*
X163322000Y-81788000D02*
X163322000Y-79248000D01*
X160782000Y-79248000D02*
X160782000Y-81724500D01*
X153162000Y-88646000D02*
X168402000Y-88646000D01*
X168402000Y-86868000D02*
X147828000Y-86868000D01*
X153162000Y-84328000D02*
X168402000Y-84328000D01*
X168402000Y-81788000D02*
X153162000Y-81788000D01*
X168402000Y-91948000D02*
X168402000Y-79248000D01*
X153162000Y-91948000D02*
X168402000Y-91948000D01*
X122428000Y-85979000D02*
X133096000Y-85979000D01*
X133096000Y-84328000D02*
X122428000Y-84328000D01*
X122428000Y-81788000D02*
X133096000Y-81788000D01*
X127762000Y-79248000D02*
X127762000Y-81788000D01*
X127762000Y-84328000D02*
X127762000Y-85979000D01*
X133096000Y-87630000D02*
X133096000Y-79248000D01*
X122428000Y-87630000D02*
X133096000Y-87630000D01*
X122428000Y-79248000D02*
X122428000Y-87630000D01*
D14*
G36*
X122636280Y-93850460D02*
X122636280Y-93911420D01*
X122615960Y-93962220D01*
X122585480Y-94000320D01*
X122544840Y-94030800D01*
X122504200Y-94061280D01*
X122445780Y-94071440D01*
X122394980Y-94081600D01*
X122334020Y-94091760D01*
X122295920Y-94081600D01*
X122255280Y-94081600D01*
X122214640Y-94071440D01*
X122174000Y-94051120D01*
X122135900Y-94020640D01*
X122105420Y-93990160D01*
X122095260Y-93952060D01*
X122085100Y-93911420D01*
X122095260Y-93870780D01*
X122115580Y-93830140D01*
X122156220Y-93802200D01*
X122204480Y-93771720D01*
X122265440Y-93751400D01*
X122344180Y-93731080D01*
X122425460Y-93710760D01*
X122524520Y-93690440D01*
X122615960Y-93670120D01*
X122694700Y-93642180D01*
X122765820Y-93611700D01*
X122834400Y-93571060D01*
X122895360Y-93530420D01*
X122936000Y-93472000D01*
X122966480Y-93400880D01*
X122974100Y-93311980D01*
X122966480Y-93190060D01*
X122925840Y-93091000D01*
X122854720Y-93012260D01*
X122786140Y-92951300D01*
X122684540Y-92900500D01*
X122585480Y-92880180D01*
X122476260Y-92862400D01*
X122245120Y-92862400D01*
X122135900Y-92880180D01*
X122034300Y-92910660D01*
X121945400Y-92951300D01*
X121864120Y-93012260D01*
X121805700Y-93091000D01*
X121754900Y-93190060D01*
X121734580Y-93311980D01*
X122105420Y-93311980D01*
X122115580Y-93261180D01*
X122135900Y-93210380D01*
X122156220Y-93182440D01*
X122184160Y-93162120D01*
X122224800Y-93141800D01*
X122275600Y-93121480D01*
X122445780Y-93121480D01*
X122476260Y-93131640D01*
X122514360Y-93141800D01*
X122544840Y-93151960D01*
X122565160Y-93182440D01*
X122585480Y-93210380D01*
X122585480Y-93251020D01*
X122575320Y-93291660D01*
X122544840Y-93332300D01*
X122504200Y-93360240D01*
X122445780Y-93390720D01*
X122384820Y-93411040D01*
X122306080Y-93421200D01*
X122224800Y-93441520D01*
X122146060Y-93461840D01*
X122064780Y-93482160D01*
X121975880Y-93502480D01*
X121904760Y-93540580D01*
X121836180Y-93581220D01*
X121775220Y-93632020D01*
X121734580Y-93690440D01*
X121704100Y-93761560D01*
X121696480Y-93850460D01*
X121714260Y-93980000D01*
X121754900Y-94091760D01*
X121815860Y-94170500D01*
X121894600Y-94241620D01*
X121996200Y-94292420D01*
X122105420Y-94320360D01*
X122224800Y-94340680D01*
X122344180Y-94350840D01*
X122466100Y-94340680D01*
X122585480Y-94320360D01*
X122694700Y-94292420D01*
X122796300Y-94241620D01*
X122875040Y-94170500D01*
X122946160Y-94081600D01*
X122984260Y-93980000D01*
X123004580Y-93850460D01*
X122684540Y-93850460D01*
X122636280Y-93850460D01*
G37*
X122636280Y-93850460D02*
X122636280Y-93911420D01*
X122615960Y-93962220D01*
X122585480Y-94000320D01*
X122544840Y-94030800D01*
X122504200Y-94061280D01*
X122445780Y-94071440D01*
X122394980Y-94081600D01*
X122334020Y-94091760D01*
X122295920Y-94081600D01*
X122255280Y-94081600D01*
X122214640Y-94071440D01*
X122174000Y-94051120D01*
X122135900Y-94020640D01*
X122105420Y-93990160D01*
X122095260Y-93952060D01*
X122085100Y-93911420D01*
X122095260Y-93870780D01*
X122115580Y-93830140D01*
X122156220Y-93802200D01*
X122204480Y-93771720D01*
X122265440Y-93751400D01*
X122344180Y-93731080D01*
X122425460Y-93710760D01*
X122524520Y-93690440D01*
X122615960Y-93670120D01*
X122694700Y-93642180D01*
X122765820Y-93611700D01*
X122834400Y-93571060D01*
X122895360Y-93530420D01*
X122936000Y-93472000D01*
X122966480Y-93400880D01*
X122974100Y-93311980D01*
X122966480Y-93190060D01*
X122925840Y-93091000D01*
X122854720Y-93012260D01*
X122786140Y-92951300D01*
X122684540Y-92900500D01*
X122585480Y-92880180D01*
X122476260Y-92862400D01*
X122245120Y-92862400D01*
X122135900Y-92880180D01*
X122034300Y-92910660D01*
X121945400Y-92951300D01*
X121864120Y-93012260D01*
X121805700Y-93091000D01*
X121754900Y-93190060D01*
X121734580Y-93311980D01*
X122105420Y-93311980D01*
X122115580Y-93261180D01*
X122135900Y-93210380D01*
X122156220Y-93182440D01*
X122184160Y-93162120D01*
X122224800Y-93141800D01*
X122275600Y-93121480D01*
X122445780Y-93121480D01*
X122476260Y-93131640D01*
X122514360Y-93141800D01*
X122544840Y-93151960D01*
X122565160Y-93182440D01*
X122585480Y-93210380D01*
X122585480Y-93251020D01*
X122575320Y-93291660D01*
X122544840Y-93332300D01*
X122504200Y-93360240D01*
X122445780Y-93390720D01*
X122384820Y-93411040D01*
X122306080Y-93421200D01*
X122224800Y-93441520D01*
X122146060Y-93461840D01*
X122064780Y-93482160D01*
X121975880Y-93502480D01*
X121904760Y-93540580D01*
X121836180Y-93581220D01*
X121775220Y-93632020D01*
X121734580Y-93690440D01*
X121704100Y-93761560D01*
X121696480Y-93850460D01*
X121714260Y-93980000D01*
X121754900Y-94091760D01*
X121815860Y-94170500D01*
X121894600Y-94241620D01*
X121996200Y-94292420D01*
X122105420Y-94320360D01*
X122224800Y-94340680D01*
X122344180Y-94350840D01*
X122466100Y-94340680D01*
X122585480Y-94320360D01*
X122694700Y-94292420D01*
X122796300Y-94241620D01*
X122875040Y-94170500D01*
X122946160Y-94081600D01*
X122984260Y-93980000D01*
X123004580Y-93850460D01*
X122684540Y-93850460D01*
X122636280Y-93850460D01*
G36*
X120535700Y-93850460D02*
X120505220Y-93771720D01*
X120495060Y-93690440D01*
X120495060Y-93611700D01*
X120106440Y-93621860D01*
X120114060Y-93761560D01*
X120144540Y-93891100D01*
X120195340Y-94010480D01*
X120535700Y-93850460D01*
G37*
X120535700Y-93850460D02*
X120505220Y-93771720D01*
X120495060Y-93690440D01*
X120495060Y-93611700D01*
X120106440Y-93621860D01*
X120114060Y-93761560D01*
X120144540Y-93891100D01*
X120195340Y-94010480D01*
X120535700Y-93850460D01*
G36*
X120195340Y-94010480D02*
X120256300Y-94122240D01*
X120345200Y-94211140D01*
X120454420Y-94292420D01*
X120576340Y-94330520D01*
X120726200Y-94350840D01*
X120784620Y-94340680D01*
X120845580Y-94330520D01*
X120904000Y-94320360D01*
X120964960Y-94292420D01*
X121015760Y-94261940D01*
X121064020Y-94231460D01*
X121104660Y-94180660D01*
X121145300Y-94132400D01*
X121155460Y-94132400D01*
X121155460Y-95150940D01*
X121196100Y-95110300D01*
X121244360Y-95062040D01*
X121295160Y-95021400D01*
X121345960Y-94980760D01*
X121394220Y-94940120D01*
X121445020Y-94891860D01*
X121485660Y-94851220D01*
X121536460Y-94810580D01*
X121536460Y-92961460D01*
X121495820Y-92951300D01*
X121445020Y-92941140D01*
X121394220Y-92941140D01*
X121356120Y-92930980D01*
X121305320Y-92920820D01*
X121264680Y-92910660D01*
X121216420Y-92900500D01*
X121165620Y-92890340D01*
X121165620Y-93070680D01*
X121124980Y-93022420D01*
X121084340Y-92981780D01*
X121036080Y-92941140D01*
X120985280Y-92910660D01*
X120934480Y-92880180D01*
X120876060Y-92870020D01*
X120815100Y-92862400D01*
X120746520Y-92862400D01*
X120594120Y-92870020D01*
X120454420Y-92920820D01*
X120345200Y-92991940D01*
X120256300Y-93091000D01*
X120185180Y-93200220D01*
X120144540Y-93332300D01*
X120114060Y-93472000D01*
X120106440Y-93621860D01*
X120495060Y-93611700D01*
X120495060Y-93520260D01*
X120505220Y-93441520D01*
X120535700Y-93360240D01*
X120566180Y-93291660D01*
X120614440Y-93230700D01*
X120675400Y-93190060D01*
X120746520Y-93162120D01*
X120835420Y-93151960D01*
X120914160Y-93162120D01*
X120995440Y-93190060D01*
X121046240Y-93230700D01*
X121094500Y-93291660D01*
X121124980Y-93360240D01*
X121155460Y-93441520D01*
X121165620Y-93520260D01*
X121165620Y-93690440D01*
X121145300Y-93771720D01*
X121124980Y-93850460D01*
X121094500Y-93921580D01*
X121046240Y-93972380D01*
X120985280Y-94020640D01*
X120914160Y-94040960D01*
X120825260Y-94051120D01*
X120746520Y-94040960D01*
X120665240Y-94020640D01*
X120604280Y-93972380D01*
X120566180Y-93921580D01*
X120535700Y-93850460D01*
X120195340Y-94010480D01*
G37*
X120195340Y-94010480D02*
X120256300Y-94122240D01*
X120345200Y-94211140D01*
X120454420Y-94292420D01*
X120576340Y-94330520D01*
X120726200Y-94350840D01*
X120784620Y-94340680D01*
X120845580Y-94330520D01*
X120904000Y-94320360D01*
X120964960Y-94292420D01*
X121015760Y-94261940D01*
X121064020Y-94231460D01*
X121104660Y-94180660D01*
X121145300Y-94132400D01*
X121155460Y-94132400D01*
X121155460Y-95150940D01*
X121196100Y-95110300D01*
X121244360Y-95062040D01*
X121295160Y-95021400D01*
X121345960Y-94980760D01*
X121394220Y-94940120D01*
X121445020Y-94891860D01*
X121485660Y-94851220D01*
X121536460Y-94810580D01*
X121536460Y-92961460D01*
X121495820Y-92951300D01*
X121445020Y-92941140D01*
X121394220Y-92941140D01*
X121356120Y-92930980D01*
X121305320Y-92920820D01*
X121264680Y-92910660D01*
X121216420Y-92900500D01*
X121165620Y-92890340D01*
X121165620Y-93070680D01*
X121124980Y-93022420D01*
X121084340Y-92981780D01*
X121036080Y-92941140D01*
X120985280Y-92910660D01*
X120934480Y-92880180D01*
X120876060Y-92870020D01*
X120815100Y-92862400D01*
X120746520Y-92862400D01*
X120594120Y-92870020D01*
X120454420Y-92920820D01*
X120345200Y-92991940D01*
X120256300Y-93091000D01*
X120185180Y-93200220D01*
X120144540Y-93332300D01*
X120114060Y-93472000D01*
X120106440Y-93621860D01*
X120495060Y-93611700D01*
X120495060Y-93520260D01*
X120505220Y-93441520D01*
X120535700Y-93360240D01*
X120566180Y-93291660D01*
X120614440Y-93230700D01*
X120675400Y-93190060D01*
X120746520Y-93162120D01*
X120835420Y-93151960D01*
X120914160Y-93162120D01*
X120995440Y-93190060D01*
X121046240Y-93230700D01*
X121094500Y-93291660D01*
X121124980Y-93360240D01*
X121155460Y-93441520D01*
X121165620Y-93520260D01*
X121165620Y-93690440D01*
X121145300Y-93771720D01*
X121124980Y-93850460D01*
X121094500Y-93921580D01*
X121046240Y-93972380D01*
X120985280Y-94020640D01*
X120914160Y-94040960D01*
X120825260Y-94051120D01*
X120746520Y-94040960D01*
X120665240Y-94020640D01*
X120604280Y-93972380D01*
X120566180Y-93921580D01*
X120535700Y-93850460D01*
X120195340Y-94010480D01*
G36*
X119514620Y-93502480D02*
X119425720Y-93492320D01*
X119334280Y-93482160D01*
X119265700Y-93472000D01*
X119214900Y-93670120D01*
X119235220Y-93680280D01*
X119255540Y-93680280D01*
X119286020Y-93690440D01*
X119324120Y-93690440D01*
X119354600Y-93700600D01*
X119395240Y-93700600D01*
X119415560Y-93710760D01*
X119435880Y-93710760D01*
X119514620Y-93502480D01*
G37*
X119514620Y-93502480D02*
X119425720Y-93492320D01*
X119334280Y-93482160D01*
X119265700Y-93472000D01*
X119214900Y-93670120D01*
X119235220Y-93680280D01*
X119255540Y-93680280D01*
X119286020Y-93690440D01*
X119324120Y-93690440D01*
X119354600Y-93700600D01*
X119395240Y-93700600D01*
X119415560Y-93710760D01*
X119435880Y-93710760D01*
X119514620Y-93502480D01*
G36*
X119435880Y-93710760D02*
X119466360Y-93720920D01*
X119484140Y-93731080D01*
X119494300Y-93741240D01*
X119514620Y-93751400D01*
X119534940Y-93761560D01*
X119545100Y-93771720D01*
X119565420Y-93781880D01*
X119575580Y-93802200D01*
X119585740Y-93822520D01*
X119595900Y-93840300D01*
X119595900Y-93860620D01*
X119606060Y-93880940D01*
X119606060Y-93931740D01*
X119595900Y-93962220D01*
X119595900Y-93980000D01*
X119585740Y-94000320D01*
X119575580Y-94010480D01*
X119565420Y-94030800D01*
X119545100Y-94040960D01*
X119534940Y-94051120D01*
X119514620Y-94061280D01*
X119494300Y-94071440D01*
X119476520Y-94071440D01*
X119456200Y-94081600D01*
X119435880Y-94081600D01*
X119415560Y-94091760D01*
X119364760Y-94091760D01*
X119316500Y-94081600D01*
X119265700Y-94081600D01*
X119225060Y-94061280D01*
X119184420Y-94051120D01*
X119156480Y-94030800D01*
X119136160Y-94010480D01*
X119115840Y-93980000D01*
X119095520Y-93962220D01*
X119085360Y-93931740D01*
X119075200Y-93901260D01*
X119065040Y-93880940D01*
X119054880Y-93850460D01*
X119054880Y-93621860D01*
X119065040Y-93632020D01*
X119075200Y-93642180D01*
X119095520Y-93642180D01*
X119115840Y-93652340D01*
X119136160Y-93662500D01*
X119156480Y-93662500D01*
X119174260Y-93670120D01*
X119214900Y-93670120D01*
X119265700Y-93472000D01*
X119194580Y-93451680D01*
X119136160Y-93431360D01*
X119085360Y-93400880D01*
X119054880Y-93360240D01*
X119054880Y-93251020D01*
X119065040Y-93230700D01*
X119075200Y-93210380D01*
X119085360Y-93190060D01*
X119095520Y-93182440D01*
X119105680Y-93162120D01*
X119126000Y-93151960D01*
X119146320Y-93141800D01*
X119164100Y-93131640D01*
X119184420Y-93131640D01*
X119204740Y-93121480D01*
X119385080Y-93121480D01*
X119405400Y-93131640D01*
X119425720Y-93141800D01*
X119446040Y-93151960D01*
X119466360Y-93162120D01*
X119484140Y-93172280D01*
X119494300Y-93182440D01*
X119514620Y-93200220D01*
X119524780Y-93210380D01*
X119534940Y-93230700D01*
X119545100Y-93261180D01*
X119555260Y-93281500D01*
X119555260Y-93332300D01*
X119946420Y-93332300D01*
X119936260Y-93271340D01*
X119926100Y-93210380D01*
X119905780Y-93151960D01*
X119875300Y-93111320D01*
X119844820Y-93060520D01*
X119814340Y-93022420D01*
X119776240Y-92991940D01*
X119725440Y-92961460D01*
X119674640Y-92930980D01*
X119626380Y-92910660D01*
X119575580Y-92900500D01*
X119514620Y-92880180D01*
X119456200Y-92870020D01*
X119405400Y-92862400D01*
X119174260Y-92862400D01*
X119126000Y-92870020D01*
X119065040Y-92870020D01*
X119014240Y-92880180D01*
X118965980Y-92900500D01*
X118915180Y-92910660D01*
X118864380Y-92930980D01*
X118826280Y-92961460D01*
X118785640Y-92991940D01*
X118745000Y-93022420D01*
X118714520Y-93060520D01*
X118694200Y-93101160D01*
X118676420Y-93151960D01*
X118666260Y-93200220D01*
X118666260Y-94071440D01*
X118656100Y-94091760D01*
X118656100Y-94180660D01*
X118645940Y-94200980D01*
X118645940Y-94221300D01*
X118635780Y-94241620D01*
X118635780Y-94272100D01*
X118625620Y-94292420D01*
X118615460Y-94300040D01*
X118615460Y-94310200D01*
X119004080Y-94310200D01*
X119004080Y-94300040D01*
X119014240Y-94292420D01*
X119014240Y-94282260D01*
X119024400Y-94272100D01*
X119024400Y-94241620D01*
X119034560Y-94231460D01*
X119034560Y-94170500D01*
X119054880Y-94200980D01*
X119085360Y-94221300D01*
X119105680Y-94241620D01*
X119136160Y-94261940D01*
X119164100Y-94272100D01*
X119194580Y-94292420D01*
X119225060Y-94300040D01*
X119255540Y-94310200D01*
X119286020Y-94320360D01*
X119316500Y-94330520D01*
X119344440Y-94330520D01*
X119374920Y-94340680D01*
X119415560Y-94340680D01*
X119446040Y-94350840D01*
X119555260Y-94350840D01*
X119606060Y-94340680D01*
X119654320Y-94340680D01*
X119694960Y-94330520D01*
X119745760Y-94310200D01*
X119786400Y-94292420D01*
X119814340Y-94272100D01*
X119854980Y-94251780D01*
X119885460Y-94221300D01*
X119905780Y-94190820D01*
X119936260Y-94150180D01*
X119954040Y-94122240D01*
X119964200Y-94071440D01*
X119984520Y-94030800D01*
X119984520Y-93980000D01*
X119994680Y-93931740D01*
X119974360Y-93822520D01*
X119946420Y-93731080D01*
X119905780Y-93662500D01*
X119834660Y-93601540D01*
X119766080Y-93560900D01*
X119684800Y-93530420D01*
X119606060Y-93510100D01*
X119514620Y-93502480D01*
X119435880Y-93710760D01*
G37*
X119435880Y-93710760D02*
X119466360Y-93720920D01*
X119484140Y-93731080D01*
X119494300Y-93741240D01*
X119514620Y-93751400D01*
X119534940Y-93761560D01*
X119545100Y-93771720D01*
X119565420Y-93781880D01*
X119575580Y-93802200D01*
X119585740Y-93822520D01*
X119595900Y-93840300D01*
X119595900Y-93860620D01*
X119606060Y-93880940D01*
X119606060Y-93931740D01*
X119595900Y-93962220D01*
X119595900Y-93980000D01*
X119585740Y-94000320D01*
X119575580Y-94010480D01*
X119565420Y-94030800D01*
X119545100Y-94040960D01*
X119534940Y-94051120D01*
X119514620Y-94061280D01*
X119494300Y-94071440D01*
X119476520Y-94071440D01*
X119456200Y-94081600D01*
X119435880Y-94081600D01*
X119415560Y-94091760D01*
X119364760Y-94091760D01*
X119316500Y-94081600D01*
X119265700Y-94081600D01*
X119225060Y-94061280D01*
X119184420Y-94051120D01*
X119156480Y-94030800D01*
X119136160Y-94010480D01*
X119115840Y-93980000D01*
X119095520Y-93962220D01*
X119085360Y-93931740D01*
X119075200Y-93901260D01*
X119065040Y-93880940D01*
X119054880Y-93850460D01*
X119054880Y-93621860D01*
X119065040Y-93632020D01*
X119075200Y-93642180D01*
X119095520Y-93642180D01*
X119115840Y-93652340D01*
X119136160Y-93662500D01*
X119156480Y-93662500D01*
X119174260Y-93670120D01*
X119214900Y-93670120D01*
X119265700Y-93472000D01*
X119194580Y-93451680D01*
X119136160Y-93431360D01*
X119085360Y-93400880D01*
X119054880Y-93360240D01*
X119054880Y-93251020D01*
X119065040Y-93230700D01*
X119075200Y-93210380D01*
X119085360Y-93190060D01*
X119095520Y-93182440D01*
X119105680Y-93162120D01*
X119126000Y-93151960D01*
X119146320Y-93141800D01*
X119164100Y-93131640D01*
X119184420Y-93131640D01*
X119204740Y-93121480D01*
X119385080Y-93121480D01*
X119405400Y-93131640D01*
X119425720Y-93141800D01*
X119446040Y-93151960D01*
X119466360Y-93162120D01*
X119484140Y-93172280D01*
X119494300Y-93182440D01*
X119514620Y-93200220D01*
X119524780Y-93210380D01*
X119534940Y-93230700D01*
X119545100Y-93261180D01*
X119555260Y-93281500D01*
X119555260Y-93332300D01*
X119946420Y-93332300D01*
X119936260Y-93271340D01*
X119926100Y-93210380D01*
X119905780Y-93151960D01*
X119875300Y-93111320D01*
X119844820Y-93060520D01*
X119814340Y-93022420D01*
X119776240Y-92991940D01*
X119725440Y-92961460D01*
X119674640Y-92930980D01*
X119626380Y-92910660D01*
X119575580Y-92900500D01*
X119514620Y-92880180D01*
X119456200Y-92870020D01*
X119405400Y-92862400D01*
X119174260Y-92862400D01*
X119126000Y-92870020D01*
X119065040Y-92870020D01*
X119014240Y-92880180D01*
X118965980Y-92900500D01*
X118915180Y-92910660D01*
X118864380Y-92930980D01*
X118826280Y-92961460D01*
X118785640Y-92991940D01*
X118745000Y-93022420D01*
X118714520Y-93060520D01*
X118694200Y-93101160D01*
X118676420Y-93151960D01*
X118666260Y-93200220D01*
X118666260Y-94071440D01*
X118656100Y-94091760D01*
X118656100Y-94180660D01*
X118645940Y-94200980D01*
X118645940Y-94221300D01*
X118635780Y-94241620D01*
X118635780Y-94272100D01*
X118625620Y-94292420D01*
X118615460Y-94300040D01*
X118615460Y-94310200D01*
X119004080Y-94310200D01*
X119004080Y-94300040D01*
X119014240Y-94292420D01*
X119014240Y-94282260D01*
X119024400Y-94272100D01*
X119024400Y-94241620D01*
X119034560Y-94231460D01*
X119034560Y-94170500D01*
X119054880Y-94200980D01*
X119085360Y-94221300D01*
X119105680Y-94241620D01*
X119136160Y-94261940D01*
X119164100Y-94272100D01*
X119194580Y-94292420D01*
X119225060Y-94300040D01*
X119255540Y-94310200D01*
X119286020Y-94320360D01*
X119316500Y-94330520D01*
X119344440Y-94330520D01*
X119374920Y-94340680D01*
X119415560Y-94340680D01*
X119446040Y-94350840D01*
X119555260Y-94350840D01*
X119606060Y-94340680D01*
X119654320Y-94340680D01*
X119694960Y-94330520D01*
X119745760Y-94310200D01*
X119786400Y-94292420D01*
X119814340Y-94272100D01*
X119854980Y-94251780D01*
X119885460Y-94221300D01*
X119905780Y-94190820D01*
X119936260Y-94150180D01*
X119954040Y-94122240D01*
X119964200Y-94071440D01*
X119984520Y-94030800D01*
X119984520Y-93980000D01*
X119994680Y-93931740D01*
X119974360Y-93822520D01*
X119946420Y-93731080D01*
X119905780Y-93662500D01*
X119834660Y-93601540D01*
X119766080Y-93560900D01*
X119684800Y-93530420D01*
X119606060Y-93510100D01*
X119514620Y-93502480D01*
X119435880Y-93710760D01*
G36*
X118445280Y-92961460D02*
X118394480Y-92951300D01*
X118356380Y-92941140D01*
X118305580Y-92941140D01*
X118254780Y-92930980D01*
X118214140Y-92920820D01*
X118165880Y-92910660D01*
X118115080Y-92900500D01*
X118074440Y-92890340D01*
X118074440Y-93162120D01*
X118036340Y-93091000D01*
X117995700Y-93040200D01*
X117944900Y-92981780D01*
X117894100Y-92941140D01*
X117825520Y-92900500D01*
X117764560Y-92880180D01*
X117695980Y-92862400D01*
X117556280Y-92862400D01*
X117546120Y-92870020D01*
X117535960Y-92870020D01*
X117535960Y-93230700D01*
X117546120Y-93230700D01*
X117566440Y-93220540D01*
X117675660Y-93220540D01*
X117774720Y-93230700D01*
X117856000Y-93251020D01*
X117924580Y-93291660D01*
X117975380Y-93350080D01*
X118016020Y-93421200D01*
X118036340Y-93492320D01*
X118054120Y-93581220D01*
X118054120Y-94310200D01*
X118445280Y-94310200D01*
X118445280Y-93131640D01*
X118445280Y-92961460D01*
G37*
X118445280Y-92961460D02*
X118394480Y-92951300D01*
X118356380Y-92941140D01*
X118305580Y-92941140D01*
X118254780Y-92930980D01*
X118214140Y-92920820D01*
X118165880Y-92910660D01*
X118115080Y-92900500D01*
X118074440Y-92890340D01*
X118074440Y-93162120D01*
X118036340Y-93091000D01*
X117995700Y-93040200D01*
X117944900Y-92981780D01*
X117894100Y-92941140D01*
X117825520Y-92900500D01*
X117764560Y-92880180D01*
X117695980Y-92862400D01*
X117556280Y-92862400D01*
X117546120Y-92870020D01*
X117535960Y-92870020D01*
X117535960Y-93230700D01*
X117546120Y-93230700D01*
X117566440Y-93220540D01*
X117675660Y-93220540D01*
X117774720Y-93230700D01*
X117856000Y-93251020D01*
X117924580Y-93291660D01*
X117975380Y-93350080D01*
X118016020Y-93421200D01*
X118036340Y-93492320D01*
X118054120Y-93581220D01*
X118054120Y-94310200D01*
X118445280Y-94310200D01*
X118445280Y-93131640D01*
X118445280Y-92961460D01*
G36*
X117386100Y-92570300D02*
X116994940Y-92362020D01*
X116994940Y-93400880D01*
X116504720Y-92890340D01*
X116044980Y-92890340D01*
X116575840Y-93411040D01*
X115984020Y-94310200D01*
X116456460Y-94310200D01*
X116845080Y-93680280D01*
X116994940Y-93822520D01*
X116994940Y-94310200D01*
X117386100Y-94310200D01*
X117386100Y-92570300D01*
G37*
X117386100Y-92570300D02*
X116994940Y-92362020D01*
X116994940Y-93400880D01*
X116504720Y-92890340D01*
X116044980Y-92890340D01*
X116575840Y-93411040D01*
X115984020Y-94310200D01*
X116456460Y-94310200D01*
X116845080Y-93680280D01*
X116994940Y-93822520D01*
X116994940Y-94310200D01*
X117386100Y-94310200D01*
X117386100Y-92570300D01*
G36*
X115745260Y-93151960D02*
X116136420Y-93151960D01*
X116095780Y-93121480D01*
X116065300Y-93091000D01*
X116034820Y-93060520D01*
X115994180Y-93022420D01*
X115966240Y-92991940D01*
X115935760Y-92961460D01*
X115895120Y-92930980D01*
X115864640Y-92890340D01*
X115745260Y-92890340D01*
X115745260Y-92692220D01*
X115714780Y-92610940D01*
X115684300Y-92542360D01*
X115636040Y-92481400D01*
X115564920Y-92430600D01*
X115486180Y-92392500D01*
X115384580Y-92362020D01*
X115095020Y-92362020D01*
X115074700Y-92372180D01*
X115074700Y-92651580D01*
X115244880Y-92651580D01*
X115285520Y-92661740D01*
X115305840Y-92671900D01*
X115326160Y-92682060D01*
X115346480Y-92710000D01*
X115354100Y-92730320D01*
X115354100Y-92770960D01*
X115364260Y-92811600D01*
X115364260Y-92890340D01*
X115095020Y-92890340D01*
X115095020Y-93151960D01*
X115364260Y-93151960D01*
X115364260Y-94310200D01*
X115745260Y-94310200D01*
X115745260Y-93301820D01*
X115745260Y-93151960D01*
G37*
X115745260Y-93151960D02*
X116136420Y-93151960D01*
X116095780Y-93121480D01*
X116065300Y-93091000D01*
X116034820Y-93060520D01*
X115994180Y-93022420D01*
X115966240Y-92991940D01*
X115935760Y-92961460D01*
X115895120Y-92930980D01*
X115864640Y-92890340D01*
X115745260Y-92890340D01*
X115745260Y-92692220D01*
X115714780Y-92610940D01*
X115684300Y-92542360D01*
X115636040Y-92481400D01*
X115564920Y-92430600D01*
X115486180Y-92392500D01*
X115384580Y-92362020D01*
X115095020Y-92362020D01*
X115074700Y-92372180D01*
X115074700Y-92651580D01*
X115244880Y-92651580D01*
X115285520Y-92661740D01*
X115305840Y-92671900D01*
X115326160Y-92682060D01*
X115346480Y-92710000D01*
X115354100Y-92730320D01*
X115354100Y-92770960D01*
X115364260Y-92811600D01*
X115364260Y-92890340D01*
X115095020Y-92890340D01*
X115095020Y-93151960D01*
X115364260Y-93151960D01*
X115364260Y-94310200D01*
X115745260Y-94310200D01*
X115745260Y-93301820D01*
X115745260Y-93151960D01*
G36*
X113654840Y-94310200D02*
X114025680Y-94310200D01*
X114025680Y-94112080D01*
X114035840Y-94112080D01*
X114076480Y-94170500D01*
X114114580Y-94221300D01*
X114165380Y-94261940D01*
X114226340Y-94292420D01*
X114274600Y-94310200D01*
X114335560Y-94330520D01*
X114404140Y-94340680D01*
X114465100Y-94350840D01*
X114604800Y-94340680D01*
X114714020Y-94300040D01*
X114805460Y-94251780D01*
X114874040Y-94190820D01*
X114924840Y-94101920D01*
X114955320Y-94000320D01*
X114975640Y-93891100D01*
X114975640Y-92890340D01*
X114594640Y-92890340D01*
X114594640Y-93690440D01*
X114584480Y-93771720D01*
X114574320Y-93850460D01*
X114564160Y-93911420D01*
X114536220Y-93952060D01*
X114505740Y-93990160D01*
X114454940Y-94020640D01*
X114404140Y-94030800D01*
X114345720Y-94040960D01*
X114264440Y-94030800D01*
X114206020Y-94020640D01*
X114155220Y-93990160D01*
X114114580Y-93952060D01*
X114084100Y-93891100D01*
X114056160Y-93822520D01*
X114046000Y-93741240D01*
X114046000Y-92890340D01*
X113654840Y-92890340D01*
X113654840Y-94132400D01*
X113654840Y-94310200D01*
G37*
X113654840Y-94310200D02*
X114025680Y-94310200D01*
X114025680Y-94112080D01*
X114035840Y-94112080D01*
X114076480Y-94170500D01*
X114114580Y-94221300D01*
X114165380Y-94261940D01*
X114226340Y-94292420D01*
X114274600Y-94310200D01*
X114335560Y-94330520D01*
X114404140Y-94340680D01*
X114465100Y-94350840D01*
X114604800Y-94340680D01*
X114714020Y-94300040D01*
X114805460Y-94251780D01*
X114874040Y-94190820D01*
X114924840Y-94101920D01*
X114955320Y-94000320D01*
X114975640Y-93891100D01*
X114975640Y-92890340D01*
X114594640Y-92890340D01*
X114594640Y-93690440D01*
X114584480Y-93771720D01*
X114574320Y-93850460D01*
X114564160Y-93911420D01*
X114536220Y-93952060D01*
X114505740Y-93990160D01*
X114454940Y-94020640D01*
X114404140Y-94030800D01*
X114345720Y-94040960D01*
X114264440Y-94030800D01*
X114206020Y-94020640D01*
X114155220Y-93990160D01*
X114114580Y-93952060D01*
X114084100Y-93891100D01*
X114056160Y-93822520D01*
X114046000Y-93741240D01*
X114046000Y-92890340D01*
X113654840Y-92890340D01*
X113654840Y-94132400D01*
X113654840Y-94310200D01*
G36*
X113444020Y-92890340D02*
X113075720Y-92890340D01*
X113075720Y-93091000D01*
X113065560Y-93091000D01*
X113024920Y-93030040D01*
X112984280Y-92991940D01*
X112936020Y-92951300D01*
X112875060Y-92910660D01*
X112814100Y-92890340D01*
X112755680Y-92870020D01*
X112694720Y-92862400D01*
X112636300Y-92862400D01*
X112494060Y-92870020D01*
X112384840Y-92900500D01*
X112295940Y-92951300D01*
X112224820Y-93022420D01*
X112174020Y-93101160D01*
X112146080Y-93200220D01*
X112125760Y-93311980D01*
X112115600Y-93441520D01*
X112115600Y-94310200D01*
X112504220Y-94310200D01*
X112504220Y-93510100D01*
X112514380Y-93431360D01*
X112524540Y-93360240D01*
X112534700Y-93301820D01*
X112565180Y-93251020D01*
X112595660Y-93210380D01*
X112646460Y-93182440D01*
X112694720Y-93172280D01*
X112755680Y-93162120D01*
X112834420Y-93172280D01*
X112895380Y-93182440D01*
X112946180Y-93210380D01*
X112984280Y-93261180D01*
X113014760Y-93311980D01*
X113045240Y-93380560D01*
X113055400Y-93472000D01*
X113055400Y-94310200D01*
X113444020Y-94310200D01*
X113444020Y-93070680D01*
X113444020Y-92890340D01*
G37*
X113444020Y-92890340D02*
X113075720Y-92890340D01*
X113075720Y-93091000D01*
X113065560Y-93091000D01*
X113024920Y-93030040D01*
X112984280Y-92991940D01*
X112936020Y-92951300D01*
X112875060Y-92910660D01*
X112814100Y-92890340D01*
X112755680Y-92870020D01*
X112694720Y-92862400D01*
X112636300Y-92862400D01*
X112494060Y-92870020D01*
X112384840Y-92900500D01*
X112295940Y-92951300D01*
X112224820Y-93022420D01*
X112174020Y-93101160D01*
X112146080Y-93200220D01*
X112125760Y-93311980D01*
X112115600Y-93441520D01*
X112115600Y-94310200D01*
X112504220Y-94310200D01*
X112504220Y-93510100D01*
X112514380Y-93431360D01*
X112524540Y-93360240D01*
X112534700Y-93301820D01*
X112565180Y-93251020D01*
X112595660Y-93210380D01*
X112646460Y-93182440D01*
X112694720Y-93172280D01*
X112755680Y-93162120D01*
X112834420Y-93172280D01*
X112895380Y-93182440D01*
X112946180Y-93210380D01*
X112984280Y-93261180D01*
X113014760Y-93311980D01*
X113045240Y-93380560D01*
X113055400Y-93472000D01*
X113055400Y-94310200D01*
X113444020Y-94310200D01*
X113444020Y-93070680D01*
X113444020Y-92890340D01*
G36*
X115194080Y-90472260D02*
X115194080Y-90551000D01*
X115204240Y-90581480D01*
X115214400Y-90611960D01*
X115244880Y-90632280D01*
X115275360Y-90642440D01*
X115346480Y-90642440D01*
X115384580Y-90622120D01*
X115425220Y-90601800D01*
X115455700Y-90581480D01*
X115496340Y-90551000D01*
X115524280Y-90530680D01*
X115554760Y-90500200D01*
X115575080Y-90462100D01*
X115595400Y-90431620D01*
X115605560Y-90390980D01*
X115615720Y-90360500D01*
X115605560Y-90330020D01*
X115595400Y-90312240D01*
X115585240Y-90281760D01*
X115564920Y-90251280D01*
X115524280Y-90220800D01*
X115486180Y-90200480D01*
X115435380Y-90190320D01*
X115394740Y-90180160D01*
X115364260Y-90180160D01*
X115336320Y-90190320D01*
X115305840Y-90190320D01*
X115316000Y-90180160D01*
X115354100Y-90152220D01*
X115415060Y-90121740D01*
X115496340Y-90091260D01*
X115585240Y-90060780D01*
X115684300Y-90060780D01*
X115796060Y-90081100D01*
X115905280Y-90142060D01*
X115994180Y-90220800D01*
X116044980Y-90291920D01*
X116075460Y-90380820D01*
X116075460Y-90462100D01*
X116055140Y-90551000D01*
X116004340Y-90642440D01*
X115935760Y-90721180D01*
X115854480Y-90810080D01*
X115785900Y-90891360D01*
X115755420Y-90962480D01*
X115755420Y-91031060D01*
X115775740Y-91092020D01*
X115816380Y-91140280D01*
X115874800Y-91180920D01*
X115956080Y-91201240D01*
X116034820Y-91201240D01*
X116085620Y-91191080D01*
X116136420Y-91170760D01*
X116164360Y-91150440D01*
X116194840Y-91122500D01*
X116215160Y-91081860D01*
X116225320Y-91051380D01*
X116225320Y-91020900D01*
X116215160Y-90990420D01*
X116194840Y-90962480D01*
X116174520Y-90942160D01*
X116154200Y-90921840D01*
X116126260Y-90911680D01*
X116105940Y-90901520D01*
X116085620Y-90891360D01*
X116075460Y-90881200D01*
X116095780Y-90871040D01*
X116116100Y-90871040D01*
X116154200Y-90860880D01*
X116235480Y-90860880D01*
X116296440Y-90871040D01*
X116344700Y-90891360D01*
X116395500Y-90911680D01*
X116436140Y-90942160D01*
X116484400Y-90970100D01*
X116514880Y-91020900D01*
X116545360Y-91081860D01*
X116565680Y-91140280D01*
X116575840Y-91231720D01*
X116586000Y-91320620D01*
X116586000Y-92600780D01*
X116575840Y-92600780D01*
X116555520Y-92570300D01*
X116525040Y-92542360D01*
X116494560Y-92501720D01*
X116446300Y-92450920D01*
X116395500Y-92392500D01*
X116334540Y-92331540D01*
X116286280Y-92260420D01*
X116215160Y-92191840D01*
X116154200Y-92130880D01*
X116105940Y-92072460D01*
X116055140Y-92031820D01*
X116004340Y-91991180D01*
X115956080Y-91960700D01*
X115895120Y-91950540D01*
X115704620Y-91950540D01*
X115585240Y-91930220D01*
X115476020Y-91902280D01*
X115374420Y-91861640D01*
X115275360Y-91800680D01*
X115194080Y-91732100D01*
X115115340Y-91650820D01*
X115044220Y-91561920D01*
X114945160Y-91381580D01*
X114894360Y-91201240D01*
X114884200Y-91020900D01*
X114914680Y-90860880D01*
X114965480Y-90721180D01*
X115034060Y-90601800D01*
X115115340Y-90510360D01*
X115194080Y-90472260D01*
G37*
X115194080Y-90472260D02*
X115194080Y-90551000D01*
X115204240Y-90581480D01*
X115214400Y-90611960D01*
X115244880Y-90632280D01*
X115275360Y-90642440D01*
X115346480Y-90642440D01*
X115384580Y-90622120D01*
X115425220Y-90601800D01*
X115455700Y-90581480D01*
X115496340Y-90551000D01*
X115524280Y-90530680D01*
X115554760Y-90500200D01*
X115575080Y-90462100D01*
X115595400Y-90431620D01*
X115605560Y-90390980D01*
X115615720Y-90360500D01*
X115605560Y-90330020D01*
X115595400Y-90312240D01*
X115585240Y-90281760D01*
X115564920Y-90251280D01*
X115524280Y-90220800D01*
X115486180Y-90200480D01*
X115435380Y-90190320D01*
X115394740Y-90180160D01*
X115364260Y-90180160D01*
X115336320Y-90190320D01*
X115305840Y-90190320D01*
X115316000Y-90180160D01*
X115354100Y-90152220D01*
X115415060Y-90121740D01*
X115496340Y-90091260D01*
X115585240Y-90060780D01*
X115684300Y-90060780D01*
X115796060Y-90081100D01*
X115905280Y-90142060D01*
X115994180Y-90220800D01*
X116044980Y-90291920D01*
X116075460Y-90380820D01*
X116075460Y-90462100D01*
X116055140Y-90551000D01*
X116004340Y-90642440D01*
X115935760Y-90721180D01*
X115854480Y-90810080D01*
X115785900Y-90891360D01*
X115755420Y-90962480D01*
X115755420Y-91031060D01*
X115775740Y-91092020D01*
X115816380Y-91140280D01*
X115874800Y-91180920D01*
X115956080Y-91201240D01*
X116034820Y-91201240D01*
X116085620Y-91191080D01*
X116136420Y-91170760D01*
X116164360Y-91150440D01*
X116194840Y-91122500D01*
X116215160Y-91081860D01*
X116225320Y-91051380D01*
X116225320Y-91020900D01*
X116215160Y-90990420D01*
X116194840Y-90962480D01*
X116174520Y-90942160D01*
X116154200Y-90921840D01*
X116126260Y-90911680D01*
X116105940Y-90901520D01*
X116085620Y-90891360D01*
X116075460Y-90881200D01*
X116095780Y-90871040D01*
X116116100Y-90871040D01*
X116154200Y-90860880D01*
X116235480Y-90860880D01*
X116296440Y-90871040D01*
X116344700Y-90891360D01*
X116395500Y-90911680D01*
X116436140Y-90942160D01*
X116484400Y-90970100D01*
X116514880Y-91020900D01*
X116545360Y-91081860D01*
X116565680Y-91140280D01*
X116575840Y-91231720D01*
X116586000Y-91320620D01*
X116586000Y-92600780D01*
X116575840Y-92600780D01*
X116555520Y-92570300D01*
X116525040Y-92542360D01*
X116494560Y-92501720D01*
X116446300Y-92450920D01*
X116395500Y-92392500D01*
X116334540Y-92331540D01*
X116286280Y-92260420D01*
X116215160Y-92191840D01*
X116154200Y-92130880D01*
X116105940Y-92072460D01*
X116055140Y-92031820D01*
X116004340Y-91991180D01*
X115956080Y-91960700D01*
X115895120Y-91950540D01*
X115704620Y-91950540D01*
X115585240Y-91930220D01*
X115476020Y-91902280D01*
X115374420Y-91861640D01*
X115275360Y-91800680D01*
X115194080Y-91732100D01*
X115115340Y-91650820D01*
X115044220Y-91561920D01*
X114945160Y-91381580D01*
X114894360Y-91201240D01*
X114884200Y-91020900D01*
X114914680Y-90860880D01*
X114965480Y-90721180D01*
X115034060Y-90601800D01*
X115115340Y-90510360D01*
X115194080Y-90472260D01*
G36*
X108572300Y-94170500D02*
X108419900Y-94091760D01*
X108043980Y-94399100D01*
X107784900Y-94140020D01*
X108092240Y-93764100D01*
X108013500Y-93611700D01*
X107962700Y-93449140D01*
X107477560Y-93398340D01*
X107477560Y-93037660D01*
X107962700Y-92986860D01*
X108013500Y-92824300D01*
X108092240Y-92671900D01*
X107784900Y-92295980D01*
X108043980Y-92036900D01*
X108419900Y-92344240D01*
X108572300Y-92265500D01*
X108734860Y-92214700D01*
X108785660Y-91729560D01*
X109146340Y-91729560D01*
X109197140Y-92214700D01*
X109359700Y-92265500D01*
X109512100Y-92344240D01*
X109888020Y-92036900D01*
X110147100Y-92295980D01*
X109839760Y-92671900D01*
X109918500Y-92824300D01*
X109969300Y-92986860D01*
X110454440Y-93037660D01*
X110454440Y-93398340D01*
X109969300Y-93449140D01*
X109918500Y-93611700D01*
X109839760Y-93764100D01*
X110147100Y-94140020D01*
X109888020Y-94399100D01*
X109512100Y-94091760D01*
X109359700Y-94170500D01*
X109143800Y-93649800D01*
X109240320Y-93596460D01*
X109321600Y-93520260D01*
X109382560Y-93428820D01*
X109420660Y-93327220D01*
X109433360Y-93218000D01*
X109420660Y-93108780D01*
X109380020Y-93002100D01*
X109316520Y-92910660D01*
X109232700Y-92834460D01*
X109133640Y-92783660D01*
X109026960Y-92755720D01*
X108915200Y-92753180D01*
X108805980Y-92778580D01*
X108706920Y-92829380D01*
X108620560Y-92903040D01*
X108557060Y-92994480D01*
X108513880Y-93098620D01*
X108498640Y-93207840D01*
X108508800Y-93317060D01*
X108546900Y-93423740D01*
X108607860Y-93517720D01*
X108689140Y-93593920D01*
X108788200Y-93649800D01*
X108572300Y-94170500D01*
G37*
X108572300Y-94170500D02*
X108419900Y-94091760D01*
X108043980Y-94399100D01*
X107784900Y-94140020D01*
X108092240Y-93764100D01*
X108013500Y-93611700D01*
X107962700Y-93449140D01*
X107477560Y-93398340D01*
X107477560Y-93037660D01*
X107962700Y-92986860D01*
X108013500Y-92824300D01*
X108092240Y-92671900D01*
X107784900Y-92295980D01*
X108043980Y-92036900D01*
X108419900Y-92344240D01*
X108572300Y-92265500D01*
X108734860Y-92214700D01*
X108785660Y-91729560D01*
X109146340Y-91729560D01*
X109197140Y-92214700D01*
X109359700Y-92265500D01*
X109512100Y-92344240D01*
X109888020Y-92036900D01*
X110147100Y-92295980D01*
X109839760Y-92671900D01*
X109918500Y-92824300D01*
X109969300Y-92986860D01*
X110454440Y-93037660D01*
X110454440Y-93398340D01*
X109969300Y-93449140D01*
X109918500Y-93611700D01*
X109839760Y-93764100D01*
X110147100Y-94140020D01*
X109888020Y-94399100D01*
X109512100Y-94091760D01*
X109359700Y-94170500D01*
X109143800Y-93649800D01*
X109240320Y-93596460D01*
X109321600Y-93520260D01*
X109382560Y-93428820D01*
X109420660Y-93327220D01*
X109433360Y-93218000D01*
X109420660Y-93108780D01*
X109380020Y-93002100D01*
X109316520Y-92910660D01*
X109232700Y-92834460D01*
X109133640Y-92783660D01*
X109026960Y-92755720D01*
X108915200Y-92753180D01*
X108805980Y-92778580D01*
X108706920Y-92829380D01*
X108620560Y-92903040D01*
X108557060Y-92994480D01*
X108513880Y-93098620D01*
X108498640Y-93207840D01*
X108508800Y-93317060D01*
X108546900Y-93423740D01*
X108607860Y-93517720D01*
X108689140Y-93593920D01*
X108788200Y-93649800D01*
X108572300Y-94170500D01*
M02*
