G04 #@! TF.FileFunction,Soldermask,Bot*
%FSLAX46Y46*%
G04 Gerber Fmt 4.6, Leading zero omitted, Abs format (unit mm)*
G04 Created by KiCad (PCBNEW 4.0.6) date 08/03/17 04:28:43*
%MOMM*%
%LPD*%
G01*
G04 APERTURE LIST*
%ADD10C,0.100000*%
%ADD11C,5.352400*%
%ADD12C,0.652400*%
%ADD13C,2.184400*%
%ADD14C,1.000760*%
%ADD15C,2.032000*%
%ADD16R,2.184400X2.184400*%
%ADD17C,2.652400*%
%ADD18C,3.454400*%
%ADD19C,1.852400*%
%ADD20C,1.676400*%
%ADD21C,1.352400*%
G04 APERTURE END LIST*
D10*
D11*
X41783000Y-155871001D03*
D12*
X43815000Y-155871001D03*
X39751000Y-155871001D03*
X41783000Y-153839001D03*
X41783000Y-157903001D03*
X43307000Y-157395001D03*
X43307000Y-154347001D03*
X40259000Y-154347001D03*
X40259000Y-157395001D03*
D11*
X41783000Y-117263001D03*
D12*
X43815000Y-117263001D03*
X39751000Y-117263001D03*
X41783000Y-115231001D03*
X41783000Y-119295001D03*
X43307000Y-118787001D03*
X43307000Y-115739001D03*
X40259000Y-115739001D03*
X40259000Y-118787001D03*
D13*
X53467000Y-155702000D03*
X53467000Y-151130000D03*
X53467000Y-117094000D03*
X53467000Y-112522000D03*
D14*
X66286380Y-154645360D03*
X70086220Y-154645360D03*
X66286380Y-116037360D03*
X70086220Y-116037360D03*
D15*
X61595000Y-124714000D03*
X64135000Y-124714000D03*
X66675000Y-124714000D03*
X69215000Y-124714000D03*
X61595000Y-86106000D03*
X64135000Y-86106000D03*
X66675000Y-86106000D03*
X69215000Y-86106000D03*
X69215000Y-122174000D03*
X66675000Y-122174000D03*
X64135000Y-122174000D03*
X61595000Y-122174000D03*
X69215000Y-83566000D03*
X66675000Y-83566000D03*
X64135000Y-83566000D03*
X61595000Y-83566000D03*
D11*
X41783000Y-124206000D03*
D12*
X43815000Y-124206000D03*
X39751000Y-124206000D03*
X41783000Y-122174000D03*
X41783000Y-126238000D03*
X43307000Y-125730000D03*
X43307000Y-122682000D03*
X40259000Y-122682000D03*
X40259000Y-125730000D03*
D11*
X41783000Y-85598000D03*
D12*
X43815000Y-85598000D03*
X39751000Y-85598000D03*
X41783000Y-83566000D03*
X41783000Y-87630000D03*
X43307000Y-87122000D03*
X43307000Y-84074000D03*
X40259000Y-84074000D03*
X40259000Y-87122000D03*
D16*
X49992280Y-124968000D03*
D13*
X54991000Y-124968000D03*
D16*
X49992280Y-86360000D03*
D13*
X54991000Y-86360000D03*
D17*
X84709000Y-143304000D03*
X77709000Y-143304000D03*
X84709000Y-146304000D03*
X77709000Y-146304000D03*
X84709000Y-104696000D03*
X77709000Y-104696000D03*
X84709000Y-107696000D03*
X77709000Y-107696000D03*
D15*
X92075000Y-127254000D03*
X94615000Y-127254000D03*
X97155000Y-127254000D03*
X99695000Y-127254000D03*
X102235000Y-127254000D03*
X104775000Y-127254000D03*
X92075000Y-88646000D03*
X94615000Y-88646000D03*
X97155000Y-88646000D03*
X99695000Y-88646000D03*
X102235000Y-88646000D03*
X104775000Y-88646000D03*
X92075000Y-124714000D03*
X94615000Y-124714000D03*
X97155000Y-124714000D03*
X99695000Y-124714000D03*
X102235000Y-124714000D03*
X104775000Y-124714000D03*
X92075000Y-86106000D03*
X94615000Y-86106000D03*
X97155000Y-86106000D03*
X99695000Y-86106000D03*
X102235000Y-86106000D03*
X104775000Y-86106000D03*
X92075000Y-122174000D03*
X94615000Y-122174000D03*
X97155000Y-122174000D03*
X99695000Y-122174000D03*
X102235000Y-122174000D03*
X104775000Y-122174000D03*
X92075000Y-83566000D03*
X94615000Y-83566000D03*
X97155000Y-83566000D03*
X99695000Y-83566000D03*
X102235000Y-83566000D03*
X104775000Y-83566000D03*
D18*
X137033000Y-124206000D03*
X137033000Y-85598000D03*
D15*
X109855000Y-124714000D03*
X112395000Y-124714000D03*
X114935000Y-124714000D03*
X117475000Y-124714000D03*
X109855000Y-86106000D03*
X112395000Y-86106000D03*
X114935000Y-86106000D03*
X117475000Y-86106000D03*
X109855000Y-127254000D03*
X112395000Y-127254000D03*
X114935000Y-127254000D03*
X117475000Y-127254000D03*
X109855000Y-88646000D03*
X112395000Y-88646000D03*
X114935000Y-88646000D03*
X117475000Y-88646000D03*
X122555000Y-122174000D03*
X125095000Y-122174000D03*
X127635000Y-122174000D03*
X130175000Y-122174000D03*
X122555000Y-83566000D03*
X125095000Y-83566000D03*
X127635000Y-83566000D03*
X130175000Y-83566000D03*
X122555000Y-124714000D03*
X125095000Y-124714000D03*
X127635000Y-124714000D03*
X130175000Y-124714000D03*
X122555000Y-86106000D03*
X125095000Y-86106000D03*
X127635000Y-86106000D03*
X130175000Y-86106000D03*
X122555000Y-127254000D03*
X125095000Y-127254000D03*
X127635000Y-127254000D03*
X130175000Y-127254000D03*
X122555000Y-88646000D03*
X125095000Y-88646000D03*
X127635000Y-88646000D03*
X130175000Y-88646000D03*
X109855000Y-122174000D03*
X112395000Y-122174000D03*
X114935000Y-122174000D03*
X117475000Y-122174000D03*
X109855000Y-83566000D03*
X112395000Y-83566000D03*
X114935000Y-83566000D03*
X117475000Y-83566000D03*
X132943600Y-137414000D03*
X135483600Y-137414000D03*
X132943600Y-139954000D03*
X135483600Y-139954000D03*
X132943600Y-142494000D03*
X135483600Y-142494000D03*
X132943600Y-98806000D03*
X135483600Y-98806000D03*
X132943600Y-101346000D03*
X135483600Y-101346000D03*
X132943600Y-103886000D03*
X135483600Y-103886000D03*
D19*
X131425000Y-153964000D03*
D20*
X130175000Y-156464000D03*
X125675000Y-156464000D03*
D19*
X124425000Y-153964000D03*
X131425000Y-115356000D03*
D20*
X130175000Y-117856000D03*
X125675000Y-117856000D03*
D19*
X124425000Y-115356000D03*
D18*
X137033000Y-155702000D03*
X137033000Y-117094000D03*
D21*
X107061000Y-154178000D03*
X104521000Y-154178000D03*
X107061000Y-115570000D03*
X104521000Y-115570000D03*
X113411000Y-154178000D03*
X110871000Y-154178000D03*
X113411000Y-115570000D03*
X110871000Y-115570000D03*
X100711000Y-154178000D03*
X98171000Y-154178000D03*
X100711000Y-115570000D03*
X98171000Y-115570000D03*
X119761000Y-154178000D03*
X117221000Y-154178000D03*
X119761000Y-115570000D03*
X117221000Y-115570000D03*
D14*
X66286380Y-77429360D03*
X70086220Y-77429360D03*
D13*
X53467000Y-78486000D03*
X53467000Y-73914000D03*
D15*
X122555000Y-50038000D03*
X125095000Y-50038000D03*
X127635000Y-50038000D03*
X130175000Y-50038000D03*
X122555000Y-47498000D03*
X125095000Y-47498000D03*
X127635000Y-47498000D03*
X130175000Y-47498000D03*
X122555000Y-44958000D03*
X125095000Y-44958000D03*
X127635000Y-44958000D03*
X130175000Y-44958000D03*
X109855000Y-50038000D03*
X112395000Y-50038000D03*
X114935000Y-50038000D03*
X117475000Y-50038000D03*
X109855000Y-47498000D03*
X112395000Y-47498000D03*
X114935000Y-47498000D03*
X117475000Y-47498000D03*
X109855000Y-44958000D03*
X112395000Y-44958000D03*
X114935000Y-44958000D03*
X117475000Y-44958000D03*
X92075000Y-50038000D03*
X94615000Y-50038000D03*
X97155000Y-50038000D03*
X99695000Y-50038000D03*
X102235000Y-50038000D03*
X104775000Y-50038000D03*
X92075000Y-47498000D03*
X94615000Y-47498000D03*
X97155000Y-47498000D03*
X99695000Y-47498000D03*
X102235000Y-47498000D03*
X104775000Y-47498000D03*
X92075000Y-44958000D03*
X94615000Y-44958000D03*
X97155000Y-44958000D03*
X99695000Y-44958000D03*
X102235000Y-44958000D03*
X104775000Y-44958000D03*
X61595000Y-47498000D03*
X64135000Y-47498000D03*
X66675000Y-47498000D03*
X69215000Y-47498000D03*
X69215000Y-44958000D03*
X66675000Y-44958000D03*
X64135000Y-44958000D03*
X61595000Y-44958000D03*
D17*
X84709000Y-66088000D03*
X77709000Y-66088000D03*
X84709000Y-69088000D03*
X77709000Y-69088000D03*
D19*
X131425000Y-76748000D03*
D20*
X130175000Y-79248000D03*
X125675000Y-79248000D03*
D19*
X124425000Y-76748000D03*
D21*
X119761000Y-76962000D03*
X117221000Y-76962000D03*
X113411000Y-76962000D03*
X110871000Y-76962000D03*
D18*
X137033000Y-78486000D03*
X137033000Y-46990000D03*
D21*
X100711000Y-76962000D03*
X98171000Y-76962000D03*
X107061000Y-76962000D03*
X104521000Y-76962000D03*
D16*
X49992280Y-47752000D03*
D13*
X54991000Y-47752000D03*
D11*
X41783000Y-46990000D03*
D12*
X43815000Y-46990000D03*
X39751000Y-46990000D03*
X41783000Y-44958000D03*
X41783000Y-49022000D03*
X43307000Y-48514000D03*
X43307000Y-45466000D03*
X40259000Y-45466000D03*
X40259000Y-48514000D03*
D11*
X41783000Y-78655001D03*
D12*
X43815000Y-78655001D03*
X39751000Y-78655001D03*
X41783000Y-76623001D03*
X41783000Y-80687001D03*
X43307000Y-80179001D03*
X43307000Y-77131001D03*
X40259000Y-77131001D03*
X40259000Y-80179001D03*
D15*
X132943600Y-60198000D03*
X135483600Y-60198000D03*
X132943600Y-62738000D03*
X135483600Y-62738000D03*
X132943600Y-65278000D03*
X135483600Y-65278000D03*
M02*
