M48
;DRILL file {KiCad 4.0.6} date 08/03/17 04:28:39
;FORMAT={-:-/ absolute / inch / decimal}
FMAT,2
INCH,TZ
T1C0.016
T2C0.020
T3C0.024
T4C0.039
T5C0.040
T6C0.051
T7C0.051
T8C0.059
T9C0.130
T10C0.033
T11C0.080
T12C0.130
%
G90
G05
M72
T1
X1.553Y-2.09
X1.553Y-3.61
X1.553Y-5.13
X1.706Y-2.185
X1.706Y-3.705
X1.706Y-5.225
X2.039Y-2.2468
X2.039Y-3.7668
X2.039Y-5.2868
X2.233Y-2.218
X2.233Y-3.738
X2.233Y-5.258
X2.457Y-3.135
X2.457Y-4.655
X2.457Y-6.175
X2.528Y-2.629
X2.528Y-2.829
X2.528Y-4.149
X2.528Y-4.349
X2.528Y-5.669
X2.528Y-5.869
X2.618Y-2.963
X2.618Y-4.483
X2.618Y-6.003
X2.659Y-2.967
X2.659Y-4.487
X2.659Y-6.007
X2.67Y-2.562
X2.67Y-4.082
X2.67Y-5.602
X2.701Y-2.962
X2.701Y-4.482
X2.701Y-6.002
X2.702Y-2.912
X2.702Y-4.432
X2.702Y-5.952
X2.956Y-1.856
X2.956Y-3.376
X2.956Y-4.896
X2.996Y-2.
X2.996Y-3.52
X2.996Y-5.04
X3.034Y-1.812
X3.034Y-3.332
X3.034Y-4.852
X3.083Y-2.255
X3.083Y-3.775
X3.083Y-5.295
X3.089Y-2.067
X3.089Y-3.587
X3.089Y-5.107
X3.151Y-2.029
X3.151Y-3.549
X3.151Y-5.069
X3.197Y-2.15
X3.197Y-3.67
X3.197Y-5.19
X3.276Y-1.856
X3.276Y-3.376
X3.276Y-4.896
X3.3152Y-1.9838
X3.3152Y-3.5038
X3.3152Y-5.0238
X3.351Y-2.151
X3.351Y-3.671
X3.351Y-5.191
X3.382Y-2.255
X3.382Y-3.775
X3.382Y-5.295
X3.45Y-2.029
X3.45Y-3.549
X3.45Y-5.069
X3.503Y-2.151
X3.503Y-3.671
X3.503Y-5.191
X3.628Y-2.47
X3.628Y-3.99
X3.628Y-5.51
X3.693Y-2.082
X3.693Y-3.602
X3.693Y-5.122
X3.772Y-2.051
X3.772Y-3.571
X3.772Y-5.091
X3.845Y-2.42
X3.845Y-3.94
X3.845Y-5.46
X3.86Y-2.37
X3.86Y-3.89
X3.86Y-5.41
X3.98Y-2.591
X3.98Y-4.111
X3.98Y-5.631
X4.005Y-2.78
X4.005Y-4.3
X4.005Y-5.82
X4.015Y-2.44
X4.015Y-3.96
X4.015Y-5.48
X4.2Y-2.44
X4.2Y-3.96
X4.2Y-5.48
X4.236Y-2.78
X4.236Y-4.3
X4.236Y-5.82
X4.393Y-2.559
X4.393Y-4.079
X4.393Y-5.599
X4.458Y-2.431
X4.458Y-3.951
X4.458Y-5.471
X4.465Y-2.685
X4.465Y-4.205
X4.465Y-5.725
X4.592Y-2.523
X4.592Y-2.558
X4.592Y-4.043
X4.592Y-4.078
X4.592Y-5.563
X4.592Y-5.598
X4.593Y-2.412
X4.593Y-2.447
X4.593Y-3.932
X4.593Y-3.967
X4.593Y-5.452
X4.593Y-5.487
X4.699Y-1.97
X4.699Y-3.49
X4.699Y-5.01
X4.716Y-2.491
X4.716Y-4.011
X4.716Y-5.531
X4.763Y-2.356
X4.763Y-3.876
X4.763Y-5.396
X4.809Y-2.563
X4.809Y-4.083
X4.809Y-5.603
X4.858Y-2.357
X4.858Y-3.877
X4.858Y-5.397
X4.872Y-2.563
X4.872Y-4.083
X4.872Y-5.603
X4.9Y-2.249
X4.9Y-3.769
X4.9Y-5.289
X4.934Y-2.248
X4.934Y-3.768
X4.934Y-5.288
X4.947Y-2.428
X4.947Y-3.948
X4.947Y-5.468
X5.049Y-2.326
X5.049Y-2.3963
X5.049Y-3.846
X5.049Y-3.9163
X5.049Y-5.366
X5.049Y-5.4363
X5.05Y-2.554
X5.05Y-4.074
X5.05Y-5.594
X5.052Y-2.459
X5.052Y-3.979
X5.052Y-5.499
X5.057Y-2.856
X5.057Y-4.376
X5.057Y-5.896
X5.083Y-2.325
X5.083Y-3.845
X5.083Y-5.365
X5.117Y-2.325
X5.117Y-3.845
X5.117Y-5.365
X5.131Y-2.54
X5.131Y-4.06
X5.131Y-5.58
X5.151Y-2.325
X5.151Y-3.845
X5.151Y-5.365
X5.451Y-2.856
X5.451Y-4.376
X5.451Y-5.896
T2
X1.565Y-1.85
X1.565Y-3.0967
X1.565Y-3.37
X1.565Y-4.6167
X1.565Y-4.89
X1.565Y-6.1367
X1.585Y-1.79
X1.585Y-1.91
X1.585Y-3.0367
X1.585Y-3.1567
X1.585Y-3.31
X1.585Y-3.43
X1.585Y-4.5567
X1.585Y-4.6767
X1.585Y-4.83
X1.585Y-4.95
X1.585Y-6.0767
X1.585Y-6.1967
X1.645Y-1.77
X1.645Y-1.93
X1.645Y-3.0167
X1.645Y-3.1767
X1.645Y-3.29
X1.645Y-3.45
X1.645Y-4.5367
X1.645Y-4.6967
X1.645Y-4.81
X1.645Y-4.97
X1.645Y-6.0567
X1.645Y-6.2167
X1.705Y-1.79
X1.705Y-1.91
X1.705Y-3.0367
X1.705Y-3.1567
X1.705Y-3.31
X1.705Y-3.43
X1.705Y-4.5567
X1.705Y-4.6767
X1.705Y-4.83
X1.705Y-4.95
X1.705Y-6.0767
X1.705Y-6.1967
X1.725Y-1.85
X1.725Y-3.0967
X1.725Y-3.37
X1.725Y-4.6167
X1.725Y-4.89
X1.725Y-6.1367
T3
X3.865Y-3.03
X3.865Y-4.55
X3.865Y-6.07
X3.965Y-3.03
X3.965Y-4.55
X3.965Y-6.07
X4.115Y-3.03
X4.115Y-4.55
X4.115Y-6.07
X4.215Y-3.03
X4.215Y-4.55
X4.215Y-6.07
X4.365Y-3.03
X4.365Y-4.55
X4.365Y-6.07
X4.465Y-3.03
X4.465Y-4.55
X4.465Y-6.07
X4.615Y-3.03
X4.615Y-4.55
X4.615Y-6.07
X4.715Y-3.03
X4.715Y-4.55
X4.715Y-6.07
T4
X4.9478Y-3.12
X4.9478Y-4.64
X4.9478Y-6.16
X5.125Y-3.12
X5.125Y-4.64
X5.125Y-6.16
T5
X2.425Y-1.77
X2.425Y-1.87
X2.425Y-3.29
X2.425Y-3.39
X2.425Y-4.81
X2.425Y-4.91
X2.525Y-1.77
X2.525Y-1.87
X2.525Y-3.29
X2.525Y-3.39
X2.525Y-4.81
X2.525Y-4.91
X2.625Y-1.77
X2.625Y-1.87
X2.625Y-3.29
X2.625Y-3.39
X2.625Y-4.81
X2.625Y-4.91
X2.725Y-1.77
X2.725Y-1.87
X2.725Y-3.29
X2.725Y-3.39
X2.725Y-4.81
X2.725Y-4.91
X3.625Y-1.77
X3.625Y-1.87
X3.625Y-1.97
X3.625Y-3.29
X3.625Y-3.39
X3.625Y-3.49
X3.625Y-4.81
X3.625Y-4.91
X3.625Y-5.01
X3.725Y-1.77
X3.725Y-1.87
X3.725Y-1.97
X3.725Y-3.29
X3.725Y-3.39
X3.725Y-3.49
X3.725Y-4.81
X3.725Y-4.91
X3.725Y-5.01
X3.825Y-1.77
X3.825Y-1.87
X3.825Y-1.97
X3.825Y-3.29
X3.825Y-3.39
X3.825Y-3.49
X3.825Y-4.81
X3.825Y-4.91
X3.825Y-5.01
X3.925Y-1.77
X3.925Y-1.87
X3.925Y-1.97
X3.925Y-3.29
X3.925Y-3.39
X3.925Y-3.49
X3.925Y-4.81
X3.925Y-4.91
X3.925Y-5.01
X4.025Y-1.77
X4.025Y-1.87
X4.025Y-1.97
X4.025Y-3.29
X4.025Y-3.39
X4.025Y-3.49
X4.025Y-4.81
X4.025Y-4.91
X4.025Y-5.01
X4.125Y-1.77
X4.125Y-1.87
X4.125Y-1.97
X4.125Y-3.29
X4.125Y-3.39
X4.125Y-3.49
X4.125Y-4.81
X4.125Y-4.91
X4.125Y-5.01
X4.325Y-1.77
X4.325Y-1.87
X4.325Y-1.97
X4.325Y-3.29
X4.325Y-3.39
X4.325Y-3.49
X4.325Y-4.81
X4.325Y-4.91
X4.325Y-5.01
X4.425Y-1.77
X4.425Y-1.87
X4.425Y-1.97
X4.425Y-3.29
X4.425Y-3.39
X4.425Y-3.49
X4.425Y-4.81
X4.425Y-4.91
X4.425Y-5.01
X4.525Y-1.77
X4.525Y-1.87
X4.525Y-1.97
X4.525Y-3.29
X4.525Y-3.39
X4.525Y-3.49
X4.525Y-4.81
X4.525Y-4.91
X4.525Y-5.01
X4.625Y-1.77
X4.625Y-1.87
X4.625Y-1.97
X4.625Y-3.29
X4.625Y-3.39
X4.625Y-3.49
X4.625Y-4.81
X4.625Y-4.91
X4.625Y-5.01
X4.825Y-1.77
X4.825Y-1.87
X4.825Y-1.97
X4.825Y-3.29
X4.825Y-3.39
X4.825Y-3.49
X4.825Y-4.81
X4.825Y-4.91
X4.825Y-5.01
X4.925Y-1.77
X4.925Y-1.87
X4.925Y-1.97
X4.925Y-3.29
X4.925Y-3.39
X4.925Y-3.49
X4.925Y-4.81
X4.925Y-4.91
X4.925Y-5.01
X5.025Y-1.77
X5.025Y-1.87
X5.025Y-1.97
X5.025Y-3.29
X5.025Y-3.39
X5.025Y-3.49
X5.025Y-4.81
X5.025Y-4.91
X5.025Y-5.01
X5.125Y-1.77
X5.125Y-1.87
X5.125Y-1.97
X5.125Y-3.29
X5.125Y-3.39
X5.125Y-3.49
X5.125Y-4.81
X5.125Y-4.91
X5.125Y-5.01
X5.234Y-2.37
X5.234Y-2.47
X5.234Y-2.57
X5.234Y-3.89
X5.234Y-3.99
X5.234Y-4.09
X5.234Y-5.41
X5.234Y-5.51
X5.234Y-5.61
X5.334Y-2.37
X5.334Y-2.47
X5.334Y-2.57
X5.334Y-3.89
X5.334Y-3.99
X5.334Y-4.09
X5.334Y-5.41
X5.334Y-5.51
X5.334Y-5.61
T6
X1.9682Y-1.88
X1.9682Y-3.4
X1.9682Y-4.92
X2.165Y-1.88
X2.165Y-3.4
X2.165Y-4.92
T7
X4.8986Y-3.0216
X4.8986Y-4.5416
X4.8986Y-6.0616
X5.1742Y-3.0216
X5.1742Y-4.5416
X5.1742Y-6.0616
T8
X3.0594Y-2.6019
X3.0594Y-2.72
X3.0594Y-4.1219
X3.0594Y-4.24
X3.0594Y-5.6419
X3.0594Y-5.76
X3.335Y-2.6019
X3.335Y-2.72
X3.335Y-4.1219
X3.335Y-4.24
X3.335Y-5.6419
X3.335Y-5.76
T9
X1.645Y-1.85
X1.645Y-3.0967
X1.645Y-3.37
X1.645Y-4.6167
X1.645Y-4.89
X1.645Y-6.1367
T10
X2.6097Y-3.0484
X2.6097Y-4.5684
X2.6097Y-6.0884
X2.7593Y-3.0484
X2.7593Y-4.5684
X2.7593Y-6.0884
T11
X2.105Y-2.91
X2.105Y-3.09
X2.105Y-4.43
X2.105Y-4.61
X2.105Y-5.95
X2.105Y-6.13
T12
X5.395Y-1.85
X5.395Y-3.09
X5.395Y-3.37
X5.395Y-4.61
X5.395Y-4.89
X5.395Y-6.13
T0
M30
