G04 #@! TF.FileFunction,Paste,Top*
%FSLAX46Y46*%
G04 Gerber Fmt 4.6, Leading zero omitted, Abs format (unit mm)*
G04 Created by KiCad (PCBNEW 4.0.6) date 08/03/17 04:28:43*
%MOMM*%
%LPD*%
G01*
G04 APERTURE LIST*
%ADD10C,0.100000*%
%ADD11R,0.800000X0.750000*%
%ADD12R,0.548640X1.198880*%
%ADD13R,1.270000X0.635000*%
%ADD14R,1.597660X1.399540*%
%ADD15R,0.998220X1.099820*%
%ADD16R,2.397760X1.998980*%
%ADD17R,0.398780X1.447800*%
%ADD18R,1.798320X1.498600*%
%ADD19R,2.499360X1.498600*%
%ADD20R,1.099820X0.998220*%
%ADD21R,0.812800X1.524000*%
%ADD22R,3.124200X1.905000*%
%ADD23R,0.599440X1.348740*%
%ADD24R,1.198880X1.998980*%
%ADD25R,0.797560X0.899160*%
%ADD26R,2.999740X1.399540*%
%ADD27R,0.899160X0.797560*%
%ADD28C,0.998220*%
%ADD29R,1.399540X1.597660*%
%ADD30R,1.524000X1.468120*%
%ADD31R,1.198880X0.599440*%
%ADD32O,0.449580X1.905000*%
%ADD33R,0.558800X1.270000*%
%ADD34R,1.270000X0.558800*%
%ADD35R,0.500000X0.900000*%
%ADD36R,1.099820X1.198880*%
G04 APERTURE END LIST*
D10*
D11*
X42799000Y-139954000D03*
X41299000Y-139954000D03*
X42799000Y-101346000D03*
X41299000Y-101346000D03*
D12*
X41061640Y-145620740D03*
X42011600Y-145620740D03*
X42959020Y-145620740D03*
X42959020Y-143024860D03*
X41061640Y-143024860D03*
X41061640Y-107012740D03*
X42011600Y-107012740D03*
X42959020Y-107012740D03*
X42959020Y-104416860D03*
X41061640Y-104416860D03*
D13*
X41783000Y-150520400D03*
X41783000Y-149707600D03*
X41783000Y-111912400D03*
X41783000Y-111099600D03*
D14*
X54356000Y-138551920D03*
X54356000Y-141351000D03*
X54356000Y-99943920D03*
X54356000Y-102743000D03*
D15*
X50546000Y-139232640D03*
X50546000Y-140929360D03*
X50546000Y-100624640D03*
X50546000Y-102321360D03*
D16*
X59166760Y-155702000D03*
X59166760Y-149603460D03*
X47767240Y-155702000D03*
X47767240Y-149603460D03*
X59166760Y-117094000D03*
X59166760Y-110995460D03*
X47767240Y-117094000D03*
X47767240Y-110995460D03*
D15*
X58293000Y-140929360D03*
X58293000Y-139232640D03*
X58293000Y-102321360D03*
X58293000Y-100624640D03*
D17*
X68186300Y-154122120D03*
X67538600Y-154122120D03*
X69484240Y-154122120D03*
X68834000Y-154122120D03*
D18*
X64503300Y-156845000D03*
X71869300Y-156845000D03*
D19*
X68186300Y-156845000D03*
D17*
X66888360Y-154122120D03*
X68186300Y-115514120D03*
X67538600Y-115514120D03*
X69484240Y-115514120D03*
X68834000Y-115514120D03*
D18*
X64503300Y-118237000D03*
X71869300Y-118237000D03*
D19*
X68186300Y-118237000D03*
D17*
X66888360Y-115514120D03*
D20*
X67269360Y-149098000D03*
X65572640Y-149098000D03*
X67269360Y-110490000D03*
X65572640Y-110490000D03*
D21*
X65547240Y-143990060D03*
X67818000Y-143990060D03*
X70104000Y-143990060D03*
D22*
X67818000Y-138051540D03*
D21*
X65547240Y-105382060D03*
X67818000Y-105382060D03*
X70104000Y-105382060D03*
D22*
X67818000Y-99443540D03*
D20*
X65572640Y-151180800D03*
X67269360Y-151180800D03*
X65572640Y-112572800D03*
X67269360Y-112572800D03*
D23*
X78084680Y-125846840D03*
X77083920Y-125846840D03*
X76088240Y-125846840D03*
X75087480Y-125846840D03*
D24*
X73787000Y-122174000D03*
X79385160Y-122174000D03*
D23*
X78084680Y-87238840D03*
X77083920Y-87238840D03*
X76088240Y-87238840D03*
X75087480Y-87238840D03*
D24*
X73787000Y-83566000D03*
X79385160Y-83566000D03*
D25*
X77149960Y-129730500D03*
X75250040Y-129730500D03*
X76200000Y-131828540D03*
X77149960Y-91122500D03*
X75250040Y-91122500D03*
X76200000Y-93220540D03*
D26*
X64643000Y-134112000D03*
X59847480Y-134112000D03*
X64643000Y-95504000D03*
X59847480Y-95504000D03*
D20*
X75250040Y-134493000D03*
X76946760Y-134493000D03*
X75250040Y-95885000D03*
X76946760Y-95885000D03*
D15*
X50546000Y-132588000D03*
X50546000Y-134284720D03*
X50546000Y-93980000D03*
X50546000Y-95676720D03*
D27*
X53086000Y-132588000D03*
X53086000Y-134485380D03*
X55184040Y-133537960D03*
X53086000Y-93980000D03*
X53086000Y-95877380D03*
X55184040Y-94929960D03*
D13*
X41783000Y-129489200D03*
X41783000Y-130302000D03*
X41783000Y-90881200D03*
X41783000Y-91694000D03*
D28*
X45148500Y-127508000D03*
X45148500Y-88900000D03*
D29*
X43307000Y-134366000D03*
X40507920Y-134366000D03*
X43307000Y-95758000D03*
X40507920Y-95758000D03*
D20*
X42799000Y-137414000D03*
X41102280Y-137414000D03*
X42799000Y-98806000D03*
X41102280Y-98806000D03*
X98592640Y-147828000D03*
X100289360Y-147828000D03*
X98592640Y-109220000D03*
X100289360Y-109220000D03*
D30*
X84698840Y-138430000D03*
X80147160Y-138430000D03*
X84698840Y-99822000D03*
X80147160Y-99822000D03*
D31*
X99319080Y-143764000D03*
X99319080Y-142494000D03*
X99319080Y-141224000D03*
X99319080Y-139954000D03*
X99319080Y-138684000D03*
X99319080Y-137414000D03*
X99319080Y-136144000D03*
X99319080Y-134874000D03*
X93720920Y-134874000D03*
X93720920Y-136144000D03*
X93720920Y-137414000D03*
X93720920Y-138684000D03*
X93720920Y-139954000D03*
X93720920Y-141224000D03*
X93720920Y-142494000D03*
X93720920Y-143764000D03*
X99319080Y-105156000D03*
X99319080Y-103886000D03*
X99319080Y-102616000D03*
X99319080Y-101346000D03*
X99319080Y-100076000D03*
X99319080Y-98806000D03*
X99319080Y-97536000D03*
X99319080Y-96266000D03*
X93720920Y-96266000D03*
X93720920Y-97536000D03*
X93720920Y-98806000D03*
X93720920Y-100076000D03*
X93720920Y-101346000D03*
X93720920Y-102616000D03*
X93720920Y-103886000D03*
X93720920Y-105156000D03*
D23*
X86202520Y-125846840D03*
X85201760Y-125846840D03*
X84206080Y-125846840D03*
X83205320Y-125846840D03*
D24*
X81904840Y-122174000D03*
X87503000Y-122174000D03*
D23*
X86202520Y-87238840D03*
X85201760Y-87238840D03*
X84206080Y-87238840D03*
X83205320Y-87238840D03*
D24*
X81904840Y-83566000D03*
X87503000Y-83566000D03*
D25*
X84754720Y-129743200D03*
X82854800Y-129743200D03*
X83804760Y-131841240D03*
X84754720Y-91135200D03*
X82854800Y-91135200D03*
X83804760Y-93233240D03*
D15*
X87630000Y-131851400D03*
X87630000Y-130154680D03*
X87630000Y-93243400D03*
X87630000Y-91546680D03*
D20*
X82844640Y-134493000D03*
X84541360Y-134493000D03*
X82844640Y-95885000D03*
X84541360Y-95885000D03*
D15*
X80035400Y-131826000D03*
X80035400Y-130129280D03*
X80035400Y-93218000D03*
X80035400Y-91521280D03*
D32*
X122499120Y-147955000D03*
X123698000Y-147955000D03*
X124896880Y-147955000D03*
X122499120Y-109347000D03*
X123698000Y-109347000D03*
X124896880Y-109347000D03*
D20*
X123911360Y-133096000D03*
X122214640Y-133096000D03*
X123911360Y-94488000D03*
X122214640Y-94488000D03*
D28*
X133985000Y-152400000D03*
X133985000Y-113792000D03*
D33*
X119755920Y-144373600D03*
X120556020Y-144373600D03*
X121356120Y-144373600D03*
X122156220Y-144373600D03*
X122953780Y-144373600D03*
X123753880Y-144373600D03*
X124553980Y-144373600D03*
X125354080Y-144373600D03*
D34*
X126847600Y-142880080D03*
X126847600Y-142079980D03*
X126847600Y-141279880D03*
X126847600Y-140479780D03*
X126847600Y-139682220D03*
X126847600Y-138882120D03*
X126847600Y-138082020D03*
X126847600Y-137281920D03*
D33*
X125354080Y-135790940D03*
X124553980Y-135790940D03*
X123753880Y-135790940D03*
X122953780Y-135790940D03*
X122156220Y-135790940D03*
X121356120Y-135790940D03*
X120556020Y-135790940D03*
X119755920Y-135790940D03*
D34*
X118264940Y-137281920D03*
X118264940Y-138082020D03*
X118264940Y-138882120D03*
X118264940Y-139682220D03*
X118264940Y-140479780D03*
X118264940Y-141279880D03*
X118264940Y-142079980D03*
X118264940Y-142880080D03*
D33*
X119755920Y-105765600D03*
X120556020Y-105765600D03*
X121356120Y-105765600D03*
X122156220Y-105765600D03*
X122953780Y-105765600D03*
X123753880Y-105765600D03*
X124553980Y-105765600D03*
X125354080Y-105765600D03*
D34*
X126847600Y-104272080D03*
X126847600Y-103471980D03*
X126847600Y-102671880D03*
X126847600Y-101871780D03*
X126847600Y-101074220D03*
X126847600Y-100274120D03*
X126847600Y-99474020D03*
X126847600Y-98673920D03*
D33*
X125354080Y-97182940D03*
X124553980Y-97182940D03*
X123753880Y-97182940D03*
X122953780Y-97182940D03*
X122156220Y-97182940D03*
X121356120Y-97182940D03*
X120556020Y-97182940D03*
X119755920Y-97182940D03*
D34*
X118264940Y-98673920D03*
X118264940Y-99474020D03*
X118264940Y-100274120D03*
X118264940Y-101074220D03*
X118264940Y-101871780D03*
X118264940Y-102671880D03*
X118264940Y-103471980D03*
X118264940Y-104272080D03*
D20*
X113238280Y-140335000D03*
X114935000Y-140335000D03*
X113238280Y-101727000D03*
X114935000Y-101727000D03*
D35*
X116991000Y-147828000D03*
X118491000Y-147828000D03*
X116991000Y-109220000D03*
X118491000Y-109220000D03*
D20*
X114935000Y-142240000D03*
X113238280Y-142240000D03*
X114935000Y-103632000D03*
X113238280Y-103632000D03*
D35*
X112371000Y-147828000D03*
X110871000Y-147828000D03*
X112371000Y-109220000D03*
X110871000Y-109220000D03*
D36*
X103520240Y-136875520D03*
X103520240Y-139222480D03*
X105267760Y-139222480D03*
X105267760Y-136875520D03*
X103520240Y-98267520D03*
X103520240Y-100614480D03*
X105267760Y-100614480D03*
X105267760Y-98267520D03*
D11*
X103644000Y-142748000D03*
X105144000Y-142748000D03*
X103644000Y-104140000D03*
X105144000Y-104140000D03*
X105144000Y-141224000D03*
X103644000Y-141224000D03*
X105144000Y-102616000D03*
X103644000Y-102616000D03*
D20*
X106217720Y-147828000D03*
X104521000Y-147828000D03*
X106217720Y-109220000D03*
X104521000Y-109220000D03*
D11*
X103644000Y-134874000D03*
X105144000Y-134874000D03*
X103644000Y-96266000D03*
X105144000Y-96266000D03*
D31*
X99319080Y-66548000D03*
X99319080Y-65278000D03*
X99319080Y-64008000D03*
X99319080Y-62738000D03*
X99319080Y-61468000D03*
X99319080Y-60198000D03*
X99319080Y-58928000D03*
X99319080Y-57658000D03*
X93720920Y-57658000D03*
X93720920Y-58928000D03*
X93720920Y-60198000D03*
X93720920Y-61468000D03*
X93720920Y-62738000D03*
X93720920Y-64008000D03*
X93720920Y-65278000D03*
X93720920Y-66548000D03*
D20*
X98592640Y-70612000D03*
X100289360Y-70612000D03*
X106217720Y-70612000D03*
X104521000Y-70612000D03*
D35*
X112371000Y-70612000D03*
X110871000Y-70612000D03*
X116991000Y-70612000D03*
X118491000Y-70612000D03*
D20*
X123911360Y-55880000D03*
X122214640Y-55880000D03*
X114935000Y-65024000D03*
X113238280Y-65024000D03*
X113238280Y-63119000D03*
X114935000Y-63119000D03*
D11*
X103644000Y-65532000D03*
X105144000Y-65532000D03*
X105144000Y-64008000D03*
X103644000Y-64008000D03*
D12*
X41061640Y-68404740D03*
X42011600Y-68404740D03*
X42959020Y-68404740D03*
X42959020Y-65808860D03*
X41061640Y-65808860D03*
D11*
X42799000Y-62738000D03*
X41299000Y-62738000D03*
X103644000Y-57658000D03*
X105144000Y-57658000D03*
D20*
X75250040Y-57277000D03*
X76946760Y-57277000D03*
D15*
X80035400Y-54610000D03*
X80035400Y-52913280D03*
D20*
X82844640Y-57277000D03*
X84541360Y-57277000D03*
D15*
X87630000Y-54635400D03*
X87630000Y-52938680D03*
D25*
X84754720Y-52527200D03*
X82854800Y-52527200D03*
X83804760Y-54625240D03*
X77149960Y-52514500D03*
X75250040Y-52514500D03*
X76200000Y-54612540D03*
D20*
X65572640Y-73964800D03*
X67269360Y-73964800D03*
X67269360Y-71882000D03*
X65572640Y-71882000D03*
D17*
X68186300Y-76906120D03*
X67538600Y-76906120D03*
X69484240Y-76906120D03*
X68834000Y-76906120D03*
D18*
X64503300Y-79629000D03*
X71869300Y-79629000D03*
D19*
X68186300Y-79629000D03*
D17*
X66888360Y-76906120D03*
D16*
X59166760Y-78486000D03*
X59166760Y-72387460D03*
X47767240Y-78486000D03*
X47767240Y-72387460D03*
D30*
X84698840Y-61214000D03*
X80147160Y-61214000D03*
D26*
X64643000Y-56896000D03*
X59847480Y-56896000D03*
D21*
X65547240Y-66774060D03*
X67818000Y-66774060D03*
X70104000Y-66774060D03*
D22*
X67818000Y-60835540D03*
D15*
X58293000Y-63713360D03*
X58293000Y-62016640D03*
X50546000Y-62016640D03*
X50546000Y-63713360D03*
D27*
X53086000Y-55372000D03*
X53086000Y-57269380D03*
X55184040Y-56321960D03*
D15*
X50546000Y-55372000D03*
X50546000Y-57068720D03*
D20*
X42799000Y-60198000D03*
X41102280Y-60198000D03*
D32*
X122499120Y-70739000D03*
X123698000Y-70739000D03*
X124896880Y-70739000D03*
D14*
X54356000Y-61335920D03*
X54356000Y-64135000D03*
D29*
X43307000Y-57150000D03*
X40507920Y-57150000D03*
D28*
X45148500Y-50292000D03*
X133985000Y-75184000D03*
D33*
X119755920Y-67157600D03*
X120556020Y-67157600D03*
X121356120Y-67157600D03*
X122156220Y-67157600D03*
X122953780Y-67157600D03*
X123753880Y-67157600D03*
X124553980Y-67157600D03*
X125354080Y-67157600D03*
D34*
X126847600Y-65664080D03*
X126847600Y-64863980D03*
X126847600Y-64063880D03*
X126847600Y-63263780D03*
X126847600Y-62466220D03*
X126847600Y-61666120D03*
X126847600Y-60866020D03*
X126847600Y-60065920D03*
D33*
X125354080Y-58574940D03*
X124553980Y-58574940D03*
X123753880Y-58574940D03*
X122953780Y-58574940D03*
X122156220Y-58574940D03*
X121356120Y-58574940D03*
X120556020Y-58574940D03*
X119755920Y-58574940D03*
D34*
X118264940Y-60065920D03*
X118264940Y-60866020D03*
X118264940Y-61666120D03*
X118264940Y-62466220D03*
X118264940Y-63263780D03*
X118264940Y-64063880D03*
X118264940Y-64863980D03*
X118264940Y-65664080D03*
D36*
X103520240Y-59659520D03*
X103520240Y-62006480D03*
X105267760Y-62006480D03*
X105267760Y-59659520D03*
D23*
X86202520Y-48630840D03*
X85201760Y-48630840D03*
X84206080Y-48630840D03*
X83205320Y-48630840D03*
D24*
X81904840Y-44958000D03*
X87503000Y-44958000D03*
D23*
X78084680Y-48630840D03*
X77083920Y-48630840D03*
X76088240Y-48630840D03*
X75087480Y-48630840D03*
D24*
X73787000Y-44958000D03*
X79385160Y-44958000D03*
D13*
X41783000Y-52273200D03*
X41783000Y-53086000D03*
X41783000Y-73304400D03*
X41783000Y-72491600D03*
M02*
