G04 #@! TF.FileFunction,Legend,Top*
%FSLAX46Y46*%
G04 Gerber Fmt 4.6, Leading zero omitted, Abs format (unit mm)*
G04 Created by KiCad (PCBNEW 4.0.6) date 08/03/17 04:28:43*
%MOMM*%
%LPD*%
G01*
G04 APERTURE LIST*
%ADD10C,0.100000*%
%ADD11C,0.200000*%
%ADD12C,0.152400*%
%ADD13C,0.203200*%
%ADD14C,0.254000*%
%ADD15C,0.398780*%
%ADD16C,0.127000*%
%ADD17C,0.150000*%
G04 APERTURE END LIST*
D10*
D11*
X62712620Y-126434905D02*
X62331667Y-126434905D01*
X62293572Y-126815857D01*
X62331667Y-126777762D01*
X62407858Y-126739667D01*
X62598334Y-126739667D01*
X62674524Y-126777762D01*
X62712620Y-126815857D01*
X62750715Y-126892048D01*
X62750715Y-127082524D01*
X62712620Y-127158714D01*
X62674524Y-127196810D01*
X62598334Y-127234905D01*
X62407858Y-127234905D01*
X62331667Y-127196810D01*
X62293572Y-127158714D01*
X62979286Y-126434905D02*
X63245953Y-127234905D01*
X63512620Y-126434905D01*
X62712620Y-87826905D02*
X62331667Y-87826905D01*
X62293572Y-88207857D01*
X62331667Y-88169762D01*
X62407858Y-88131667D01*
X62598334Y-88131667D01*
X62674524Y-88169762D01*
X62712620Y-88207857D01*
X62750715Y-88284048D01*
X62750715Y-88474524D01*
X62712620Y-88550714D01*
X62674524Y-88588810D01*
X62598334Y-88626905D01*
X62407858Y-88626905D01*
X62331667Y-88588810D01*
X62293572Y-88550714D01*
X62979286Y-87826905D02*
X63245953Y-88626905D01*
X63512620Y-87826905D01*
X60071000Y-123444000D02*
X70739000Y-123444000D01*
X60071000Y-84836000D02*
X70739000Y-84836000D01*
X65405000Y-125984000D02*
X65405000Y-127635000D01*
X65405000Y-87376000D02*
X65405000Y-89027000D01*
X60071000Y-127889000D02*
X60071000Y-120904000D01*
X60071000Y-89281000D02*
X60071000Y-82296000D01*
X67208477Y-128124000D02*
X67132286Y-128085905D01*
X67018001Y-128085905D01*
X66903715Y-128124000D01*
X66827524Y-128200190D01*
X66789429Y-128276381D01*
X66751334Y-128428762D01*
X66751334Y-128543048D01*
X66789429Y-128695429D01*
X66827524Y-128771619D01*
X66903715Y-128847810D01*
X67018001Y-128885905D01*
X67094191Y-128885905D01*
X67208477Y-128847810D01*
X67246572Y-128809714D01*
X67246572Y-128543048D01*
X67094191Y-128543048D01*
X67589429Y-128885905D02*
X67589429Y-128085905D01*
X68046572Y-128885905D01*
X68046572Y-128085905D01*
X68427524Y-128885905D02*
X68427524Y-128085905D01*
X68618000Y-128085905D01*
X68732286Y-128124000D01*
X68808477Y-128200190D01*
X68846572Y-128276381D01*
X68884667Y-128428762D01*
X68884667Y-128543048D01*
X68846572Y-128695429D01*
X68808477Y-128771619D01*
X68732286Y-128847810D01*
X68618000Y-128885905D01*
X68427524Y-128885905D01*
X67208477Y-89516000D02*
X67132286Y-89477905D01*
X67018001Y-89477905D01*
X66903715Y-89516000D01*
X66827524Y-89592190D01*
X66789429Y-89668381D01*
X66751334Y-89820762D01*
X66751334Y-89935048D01*
X66789429Y-90087429D01*
X66827524Y-90163619D01*
X66903715Y-90239810D01*
X67018001Y-90277905D01*
X67094191Y-90277905D01*
X67208477Y-90239810D01*
X67246572Y-90201714D01*
X67246572Y-89935048D01*
X67094191Y-89935048D01*
X67589429Y-90277905D02*
X67589429Y-89477905D01*
X68046572Y-90277905D01*
X68046572Y-89477905D01*
X68427524Y-90277905D02*
X68427524Y-89477905D01*
X68618000Y-89477905D01*
X68732286Y-89516000D01*
X68808477Y-89592190D01*
X68846572Y-89668381D01*
X68884667Y-89820762D01*
X68884667Y-89935048D01*
X68846572Y-90087429D01*
X68808477Y-90163619D01*
X68732286Y-90239810D01*
X68618000Y-90277905D01*
X68427524Y-90277905D01*
X62255477Y-128124000D02*
X62179286Y-128085905D01*
X62065001Y-128085905D01*
X61950715Y-128124000D01*
X61874524Y-128200190D01*
X61836429Y-128276381D01*
X61798334Y-128428762D01*
X61798334Y-128543048D01*
X61836429Y-128695429D01*
X61874524Y-128771619D01*
X61950715Y-128847810D01*
X62065001Y-128885905D01*
X62141191Y-128885905D01*
X62255477Y-128847810D01*
X62293572Y-128809714D01*
X62293572Y-128543048D01*
X62141191Y-128543048D01*
X62636429Y-128885905D02*
X62636429Y-128085905D01*
X63093572Y-128885905D01*
X63093572Y-128085905D01*
X63474524Y-128885905D02*
X63474524Y-128085905D01*
X63665000Y-128085905D01*
X63779286Y-128124000D01*
X63855477Y-128200190D01*
X63893572Y-128276381D01*
X63931667Y-128428762D01*
X63931667Y-128543048D01*
X63893572Y-128695429D01*
X63855477Y-128771619D01*
X63779286Y-128847810D01*
X63665000Y-128885905D01*
X63474524Y-128885905D01*
X62255477Y-89516000D02*
X62179286Y-89477905D01*
X62065001Y-89477905D01*
X61950715Y-89516000D01*
X61874524Y-89592190D01*
X61836429Y-89668381D01*
X61798334Y-89820762D01*
X61798334Y-89935048D01*
X61836429Y-90087429D01*
X61874524Y-90163619D01*
X61950715Y-90239810D01*
X62065001Y-90277905D01*
X62141191Y-90277905D01*
X62255477Y-90239810D01*
X62293572Y-90201714D01*
X62293572Y-89935048D01*
X62141191Y-89935048D01*
X62636429Y-90277905D02*
X62636429Y-89477905D01*
X63093572Y-90277905D01*
X63093572Y-89477905D01*
X63474524Y-90277905D02*
X63474524Y-89477905D01*
X63665000Y-89477905D01*
X63779286Y-89516000D01*
X63855477Y-89592190D01*
X63893572Y-89668381D01*
X63931667Y-89820762D01*
X63931667Y-89935048D01*
X63893572Y-90087429D01*
X63855477Y-90163619D01*
X63779286Y-90239810D01*
X63665000Y-90277905D01*
X63474524Y-90277905D01*
X60071000Y-127889000D02*
X60071000Y-129286000D01*
X60071000Y-89281000D02*
X60071000Y-90678000D01*
X60071000Y-129286000D02*
X70739000Y-129286000D01*
X60071000Y-90678000D02*
X70739000Y-90678000D01*
X70739000Y-129286000D02*
X70739000Y-127889000D01*
X70739000Y-90678000D02*
X70739000Y-89281000D01*
X79711668Y-127755595D02*
X79635477Y-127717500D01*
X79559287Y-127641310D01*
X79445001Y-127527024D01*
X79368810Y-127488929D01*
X79292620Y-127488929D01*
X79330715Y-127679405D02*
X79254525Y-127641310D01*
X79178334Y-127565119D01*
X79140239Y-127412738D01*
X79140239Y-127146071D01*
X79178334Y-126993690D01*
X79254525Y-126917500D01*
X79330715Y-126879405D01*
X79483096Y-126879405D01*
X79559287Y-126917500D01*
X79635477Y-126993690D01*
X79673572Y-127146071D01*
X79673572Y-127412738D01*
X79635477Y-127565119D01*
X79559287Y-127641310D01*
X79483096Y-127679405D01*
X79330715Y-127679405D01*
X79940239Y-126879405D02*
X80130715Y-127679405D01*
X80283096Y-127107976D01*
X80435477Y-127679405D01*
X80625953Y-126879405D01*
X80930715Y-127679405D02*
X80930715Y-126879405D01*
X81311667Y-127679405D02*
X81311667Y-126879405D01*
X82149762Y-127603214D02*
X82111667Y-127641310D01*
X81997381Y-127679405D01*
X81921191Y-127679405D01*
X81806905Y-127641310D01*
X81730714Y-127565119D01*
X81692619Y-127488929D01*
X81654524Y-127336548D01*
X81654524Y-127222262D01*
X81692619Y-127069881D01*
X81730714Y-126993690D01*
X81806905Y-126917500D01*
X81921191Y-126879405D01*
X81997381Y-126879405D01*
X82111667Y-126917500D01*
X82149762Y-126955595D01*
X79711668Y-89147595D02*
X79635477Y-89109500D01*
X79559287Y-89033310D01*
X79445001Y-88919024D01*
X79368810Y-88880929D01*
X79292620Y-88880929D01*
X79330715Y-89071405D02*
X79254525Y-89033310D01*
X79178334Y-88957119D01*
X79140239Y-88804738D01*
X79140239Y-88538071D01*
X79178334Y-88385690D01*
X79254525Y-88309500D01*
X79330715Y-88271405D01*
X79483096Y-88271405D01*
X79559287Y-88309500D01*
X79635477Y-88385690D01*
X79673572Y-88538071D01*
X79673572Y-88804738D01*
X79635477Y-88957119D01*
X79559287Y-89033310D01*
X79483096Y-89071405D01*
X79330715Y-89071405D01*
X79940239Y-88271405D02*
X80130715Y-89071405D01*
X80283096Y-88499976D01*
X80435477Y-89071405D01*
X80625953Y-88271405D01*
X80930715Y-89071405D02*
X80930715Y-88271405D01*
X81311667Y-89071405D02*
X81311667Y-88271405D01*
X82149762Y-88995214D02*
X82111667Y-89033310D01*
X81997381Y-89071405D01*
X81921191Y-89071405D01*
X81806905Y-89033310D01*
X81730714Y-88957119D01*
X81692619Y-88880929D01*
X81654524Y-88728548D01*
X81654524Y-88614262D01*
X81692619Y-88461881D01*
X81730714Y-88385690D01*
X81806905Y-88309500D01*
X81921191Y-88271405D01*
X81997381Y-88271405D01*
X82111667Y-88309500D01*
X82149762Y-88347595D01*
X90805000Y-120904000D02*
X90805000Y-130429000D01*
X90805000Y-82296000D02*
X90805000Y-91821000D01*
X95885000Y-123444000D02*
X95885000Y-120904000D01*
X95885000Y-84836000D02*
X95885000Y-82296000D01*
X98425000Y-123444000D02*
X98425000Y-120904000D01*
X98425000Y-84836000D02*
X98425000Y-82296000D01*
X100965000Y-123444000D02*
X100965000Y-120904000D01*
X100965000Y-84836000D02*
X100965000Y-82296000D01*
X103505000Y-123444000D02*
X103505000Y-120904000D01*
X103505000Y-84836000D02*
X103505000Y-82296000D01*
X93345000Y-123444000D02*
X93345000Y-120904000D01*
X93345000Y-84836000D02*
X93345000Y-82296000D01*
X66827524Y-126434905D02*
X67322762Y-126434905D01*
X67056095Y-126739667D01*
X67170381Y-126739667D01*
X67246571Y-126777762D01*
X67284667Y-126815857D01*
X67322762Y-126892048D01*
X67322762Y-127082524D01*
X67284667Y-127158714D01*
X67246571Y-127196810D01*
X67170381Y-127234905D01*
X66941809Y-127234905D01*
X66865619Y-127196810D01*
X66827524Y-127158714D01*
X67551333Y-126434905D02*
X67818000Y-127234905D01*
X68084667Y-126434905D01*
X68275143Y-126434905D02*
X68770381Y-126434905D01*
X68503714Y-126739667D01*
X68618000Y-126739667D01*
X68694190Y-126777762D01*
X68732286Y-126815857D01*
X68770381Y-126892048D01*
X68770381Y-127082524D01*
X68732286Y-127158714D01*
X68694190Y-127196810D01*
X68618000Y-127234905D01*
X68389428Y-127234905D01*
X68313238Y-127196810D01*
X68275143Y-127158714D01*
X66827524Y-87826905D02*
X67322762Y-87826905D01*
X67056095Y-88131667D01*
X67170381Y-88131667D01*
X67246571Y-88169762D01*
X67284667Y-88207857D01*
X67322762Y-88284048D01*
X67322762Y-88474524D01*
X67284667Y-88550714D01*
X67246571Y-88588810D01*
X67170381Y-88626905D01*
X66941809Y-88626905D01*
X66865619Y-88588810D01*
X66827524Y-88550714D01*
X67551333Y-87826905D02*
X67818000Y-88626905D01*
X68084667Y-87826905D01*
X68275143Y-87826905D02*
X68770381Y-87826905D01*
X68503714Y-88131667D01*
X68618000Y-88131667D01*
X68694190Y-88169762D01*
X68732286Y-88207857D01*
X68770381Y-88284048D01*
X68770381Y-88474524D01*
X68732286Y-88550714D01*
X68694190Y-88588810D01*
X68618000Y-88626905D01*
X68389428Y-88626905D01*
X68313238Y-88588810D01*
X68275143Y-88550714D01*
X65405000Y-123444000D02*
X65405000Y-120904000D01*
X65405000Y-84836000D02*
X65405000Y-82296000D01*
X60071000Y-125984000D02*
X70739000Y-125984000D01*
X60071000Y-87376000D02*
X70739000Y-87376000D01*
X60071000Y-127635000D02*
X70739000Y-127635000D01*
X60071000Y-89027000D02*
X70739000Y-89027000D01*
X70739000Y-127889000D02*
X70739000Y-120904000D01*
X70739000Y-89281000D02*
X70739000Y-82296000D01*
X106045000Y-132080000D02*
X106045000Y-130302000D01*
X106045000Y-93472000D02*
X106045000Y-91694000D01*
X98272620Y-130752905D02*
X97891667Y-130752905D01*
X97853572Y-131133857D01*
X97891667Y-131095762D01*
X97967858Y-131057667D01*
X98158334Y-131057667D01*
X98234524Y-131095762D01*
X98272620Y-131133857D01*
X98310715Y-131210048D01*
X98310715Y-131400524D01*
X98272620Y-131476714D01*
X98234524Y-131514810D01*
X98158334Y-131552905D01*
X97967858Y-131552905D01*
X97891667Y-131514810D01*
X97853572Y-131476714D01*
X98539286Y-130752905D02*
X98805953Y-131552905D01*
X99072620Y-130752905D01*
X98272620Y-92144905D02*
X97891667Y-92144905D01*
X97853572Y-92525857D01*
X97891667Y-92487762D01*
X97967858Y-92449667D01*
X98158334Y-92449667D01*
X98234524Y-92487762D01*
X98272620Y-92525857D01*
X98310715Y-92602048D01*
X98310715Y-92792524D01*
X98272620Y-92868714D01*
X98234524Y-92906810D01*
X98158334Y-92944905D01*
X97967858Y-92944905D01*
X97891667Y-92906810D01*
X97853572Y-92868714D01*
X98539286Y-92144905D02*
X98805953Y-92944905D01*
X99072620Y-92144905D01*
X97815477Y-132442000D02*
X97739286Y-132403905D01*
X97625001Y-132403905D01*
X97510715Y-132442000D01*
X97434524Y-132518190D01*
X97396429Y-132594381D01*
X97358334Y-132746762D01*
X97358334Y-132861048D01*
X97396429Y-133013429D01*
X97434524Y-133089619D01*
X97510715Y-133165810D01*
X97625001Y-133203905D01*
X97701191Y-133203905D01*
X97815477Y-133165810D01*
X97853572Y-133127714D01*
X97853572Y-132861048D01*
X97701191Y-132861048D01*
X98196429Y-133203905D02*
X98196429Y-132403905D01*
X98653572Y-133203905D01*
X98653572Y-132403905D01*
X99034524Y-133203905D02*
X99034524Y-132403905D01*
X99225000Y-132403905D01*
X99339286Y-132442000D01*
X99415477Y-132518190D01*
X99453572Y-132594381D01*
X99491667Y-132746762D01*
X99491667Y-132861048D01*
X99453572Y-133013429D01*
X99415477Y-133089619D01*
X99339286Y-133165810D01*
X99225000Y-133203905D01*
X99034524Y-133203905D01*
X97815477Y-93834000D02*
X97739286Y-93795905D01*
X97625001Y-93795905D01*
X97510715Y-93834000D01*
X97434524Y-93910190D01*
X97396429Y-93986381D01*
X97358334Y-94138762D01*
X97358334Y-94253048D01*
X97396429Y-94405429D01*
X97434524Y-94481619D01*
X97510715Y-94557810D01*
X97625001Y-94595905D01*
X97701191Y-94595905D01*
X97815477Y-94557810D01*
X97853572Y-94519714D01*
X97853572Y-94253048D01*
X97701191Y-94253048D01*
X98196429Y-94595905D02*
X98196429Y-93795905D01*
X98653572Y-94595905D01*
X98653572Y-93795905D01*
X99034524Y-94595905D02*
X99034524Y-93795905D01*
X99225000Y-93795905D01*
X99339286Y-93834000D01*
X99415477Y-93910190D01*
X99453572Y-93986381D01*
X99491667Y-94138762D01*
X99491667Y-94253048D01*
X99453572Y-94405429D01*
X99415477Y-94481619D01*
X99339286Y-94557810D01*
X99225000Y-94595905D01*
X99034524Y-94595905D01*
X106045000Y-133604000D02*
X106045000Y-132080000D01*
X106045000Y-94996000D02*
X106045000Y-93472000D01*
X96583572Y-129546333D02*
X96964524Y-129546333D01*
X96507381Y-129774905D02*
X96774048Y-128974905D01*
X97040715Y-129774905D01*
X97231191Y-128974905D02*
X97726429Y-128974905D01*
X97459762Y-129279667D01*
X97574048Y-129279667D01*
X97650238Y-129317762D01*
X97688334Y-129355857D01*
X97726429Y-129432048D01*
X97726429Y-129622524D01*
X97688334Y-129698714D01*
X97650238Y-129736810D01*
X97574048Y-129774905D01*
X97345476Y-129774905D01*
X97269286Y-129736810D01*
X97231191Y-129698714D01*
X96583572Y-90938333D02*
X96964524Y-90938333D01*
X96507381Y-91166905D02*
X96774048Y-90366905D01*
X97040715Y-91166905D01*
X97231191Y-90366905D02*
X97726429Y-90366905D01*
X97459762Y-90671667D01*
X97574048Y-90671667D01*
X97650238Y-90709762D01*
X97688334Y-90747857D01*
X97726429Y-90824048D01*
X97726429Y-91014524D01*
X97688334Y-91090714D01*
X97650238Y-91128810D01*
X97574048Y-91166905D01*
X97345476Y-91166905D01*
X97269286Y-91128810D01*
X97231191Y-91090714D01*
X99123572Y-129546333D02*
X99504524Y-129546333D01*
X99047381Y-129774905D02*
X99314048Y-128974905D01*
X99580715Y-129774905D01*
X99809286Y-129051095D02*
X99847381Y-129013000D01*
X99923572Y-128974905D01*
X100114048Y-128974905D01*
X100190238Y-129013000D01*
X100228334Y-129051095D01*
X100266429Y-129127286D01*
X100266429Y-129203476D01*
X100228334Y-129317762D01*
X99771191Y-129774905D01*
X100266429Y-129774905D01*
X99123572Y-90938333D02*
X99504524Y-90938333D01*
X99047381Y-91166905D02*
X99314048Y-90366905D01*
X99580715Y-91166905D01*
X99809286Y-90443095D02*
X99847381Y-90405000D01*
X99923572Y-90366905D01*
X100114048Y-90366905D01*
X100190238Y-90405000D01*
X100228334Y-90443095D01*
X100266429Y-90519286D01*
X100266429Y-90595476D01*
X100228334Y-90709762D01*
X99771191Y-91166905D01*
X100266429Y-91166905D01*
X101663572Y-129546333D02*
X102044524Y-129546333D01*
X101587381Y-129774905D02*
X101854048Y-128974905D01*
X102120715Y-129774905D01*
X102806429Y-129774905D02*
X102349286Y-129774905D01*
X102577857Y-129774905D02*
X102577857Y-128974905D01*
X102501667Y-129089190D01*
X102425476Y-129165381D01*
X102349286Y-129203476D01*
X101663572Y-90938333D02*
X102044524Y-90938333D01*
X101587381Y-91166905D02*
X101854048Y-90366905D01*
X102120715Y-91166905D01*
X102806429Y-91166905D02*
X102349286Y-91166905D01*
X102577857Y-91166905D02*
X102577857Y-90366905D01*
X102501667Y-90481190D01*
X102425476Y-90557381D01*
X102349286Y-90595476D01*
X90805000Y-125984000D02*
X106045000Y-125984000D01*
X90805000Y-87376000D02*
X106045000Y-87376000D01*
X104203572Y-129546333D02*
X104584524Y-129546333D01*
X104127381Y-129774905D02*
X104394048Y-128974905D01*
X104660715Y-129774905D01*
X105079762Y-128974905D02*
X105155953Y-128974905D01*
X105232143Y-129013000D01*
X105270238Y-129051095D01*
X105308334Y-129127286D01*
X105346429Y-129279667D01*
X105346429Y-129470143D01*
X105308334Y-129622524D01*
X105270238Y-129698714D01*
X105232143Y-129736810D01*
X105155953Y-129774905D01*
X105079762Y-129774905D01*
X105003572Y-129736810D01*
X104965476Y-129698714D01*
X104927381Y-129622524D01*
X104889286Y-129470143D01*
X104889286Y-129279667D01*
X104927381Y-129127286D01*
X104965476Y-129051095D01*
X105003572Y-129013000D01*
X105079762Y-128974905D01*
X104203572Y-90938333D02*
X104584524Y-90938333D01*
X104127381Y-91166905D02*
X104394048Y-90366905D01*
X104660715Y-91166905D01*
X105079762Y-90366905D02*
X105155953Y-90366905D01*
X105232143Y-90405000D01*
X105270238Y-90443095D01*
X105308334Y-90519286D01*
X105346429Y-90671667D01*
X105346429Y-90862143D01*
X105308334Y-91014524D01*
X105270238Y-91090714D01*
X105232143Y-91128810D01*
X105155953Y-91166905D01*
X105079762Y-91166905D01*
X105003572Y-91128810D01*
X104965476Y-91090714D01*
X104927381Y-91014524D01*
X104889286Y-90862143D01*
X104889286Y-90671667D01*
X104927381Y-90519286D01*
X104965476Y-90443095D01*
X105003572Y-90405000D01*
X105079762Y-90366905D01*
X90805000Y-128524000D02*
X106045000Y-128524000D01*
X90805000Y-89916000D02*
X106045000Y-89916000D01*
X90805000Y-123444000D02*
X106045000Y-123444000D01*
X90805000Y-84836000D02*
X106045000Y-84836000D01*
X106045000Y-120904000D02*
X106045000Y-130175000D01*
X106045000Y-82296000D02*
X106045000Y-91567000D01*
X93345000Y-128524000D02*
X93345000Y-130302000D01*
X93345000Y-89916000D02*
X93345000Y-91694000D01*
X100965000Y-128524000D02*
X100965000Y-130302000D01*
X100965000Y-89916000D02*
X100965000Y-91694000D01*
X103505000Y-128524000D02*
X103505000Y-130302000D01*
X103505000Y-89916000D02*
X103505000Y-91694000D01*
X90805000Y-130302000D02*
X106045000Y-130302000D01*
X90805000Y-91694000D02*
X106045000Y-91694000D01*
X91503572Y-129546333D02*
X91884524Y-129546333D01*
X91427381Y-129774905D02*
X91694048Y-128974905D01*
X91960715Y-129774905D01*
X92151191Y-128974905D02*
X92684524Y-128974905D01*
X92341667Y-129774905D01*
X91503572Y-90938333D02*
X91884524Y-90938333D01*
X91427381Y-91166905D02*
X91694048Y-90366905D01*
X91960715Y-91166905D01*
X92151191Y-90366905D02*
X92684524Y-90366905D01*
X92341667Y-91166905D01*
X94043572Y-129546333D02*
X94424524Y-129546333D01*
X93967381Y-129774905D02*
X94234048Y-128974905D01*
X94500715Y-129774905D01*
X95110238Y-128974905D02*
X94957857Y-128974905D01*
X94881667Y-129013000D01*
X94843572Y-129051095D01*
X94767381Y-129165381D01*
X94729286Y-129317762D01*
X94729286Y-129622524D01*
X94767381Y-129698714D01*
X94805476Y-129736810D01*
X94881667Y-129774905D01*
X95034048Y-129774905D01*
X95110238Y-129736810D01*
X95148334Y-129698714D01*
X95186429Y-129622524D01*
X95186429Y-129432048D01*
X95148334Y-129355857D01*
X95110238Y-129317762D01*
X95034048Y-129279667D01*
X94881667Y-129279667D01*
X94805476Y-129317762D01*
X94767381Y-129355857D01*
X94729286Y-129432048D01*
X94043572Y-90938333D02*
X94424524Y-90938333D01*
X93967381Y-91166905D02*
X94234048Y-90366905D01*
X94500715Y-91166905D01*
X95110238Y-90366905D02*
X94957857Y-90366905D01*
X94881667Y-90405000D01*
X94843572Y-90443095D01*
X94767381Y-90557381D01*
X94729286Y-90709762D01*
X94729286Y-91014524D01*
X94767381Y-91090714D01*
X94805476Y-91128810D01*
X94881667Y-91166905D01*
X95034048Y-91166905D01*
X95110238Y-91128810D01*
X95148334Y-91090714D01*
X95186429Y-91014524D01*
X95186429Y-90824048D01*
X95148334Y-90747857D01*
X95110238Y-90709762D01*
X95034048Y-90671667D01*
X94881667Y-90671667D01*
X94805476Y-90709762D01*
X94767381Y-90747857D01*
X94729286Y-90824048D01*
X95885000Y-128524000D02*
X95885000Y-130302000D01*
X95885000Y-89916000D02*
X95885000Y-91694000D01*
X98425000Y-128524000D02*
X98425000Y-130302000D01*
X98425000Y-89916000D02*
X98425000Y-91694000D01*
X90805000Y-130429000D02*
X90805000Y-132080000D01*
X90805000Y-91821000D02*
X90805000Y-93472000D01*
X90805000Y-131953000D02*
X106045000Y-131953000D01*
X90805000Y-93345000D02*
X106045000Y-93345000D01*
X90805000Y-132080000D02*
X90805000Y-133604000D01*
X90805000Y-93472000D02*
X90805000Y-94996000D01*
X90805000Y-133604000D02*
X106045000Y-133604000D01*
X90805000Y-94996000D02*
X106045000Y-94996000D01*
X133331048Y-145141905D02*
X133331048Y-144341905D01*
X133673905Y-145103810D02*
X133788191Y-145141905D01*
X133978667Y-145141905D01*
X134054857Y-145103810D01*
X134092953Y-145065714D01*
X134131048Y-144989524D01*
X134131048Y-144913333D01*
X134092953Y-144837143D01*
X134054857Y-144799048D01*
X133978667Y-144760952D01*
X133826286Y-144722857D01*
X133750095Y-144684762D01*
X133712000Y-144646667D01*
X133673905Y-144570476D01*
X133673905Y-144494286D01*
X133712000Y-144418095D01*
X133750095Y-144380000D01*
X133826286Y-144341905D01*
X134016762Y-144341905D01*
X134131048Y-144380000D01*
X134473905Y-145141905D02*
X134473905Y-144341905D01*
X134778667Y-144341905D01*
X134854858Y-144380000D01*
X134892953Y-144418095D01*
X134931048Y-144494286D01*
X134931048Y-144608571D01*
X134892953Y-144684762D01*
X134854858Y-144722857D01*
X134778667Y-144760952D01*
X134473905Y-144760952D01*
X133331048Y-106533905D02*
X133331048Y-105733905D01*
X133673905Y-106495810D02*
X133788191Y-106533905D01*
X133978667Y-106533905D01*
X134054857Y-106495810D01*
X134092953Y-106457714D01*
X134131048Y-106381524D01*
X134131048Y-106305333D01*
X134092953Y-106229143D01*
X134054857Y-106191048D01*
X133978667Y-106152952D01*
X133826286Y-106114857D01*
X133750095Y-106076762D01*
X133712000Y-106038667D01*
X133673905Y-105962476D01*
X133673905Y-105886286D01*
X133712000Y-105810095D01*
X133750095Y-105772000D01*
X133826286Y-105733905D01*
X134016762Y-105733905D01*
X134131048Y-105772000D01*
X134473905Y-106533905D02*
X134473905Y-105733905D01*
X134778667Y-105733905D01*
X134854858Y-105772000D01*
X134892953Y-105810095D01*
X134931048Y-105886286D01*
X134931048Y-106000571D01*
X134892953Y-106076762D01*
X134854858Y-106114857D01*
X134778667Y-106152952D01*
X134473905Y-106152952D01*
X131445000Y-133604000D02*
X124714000Y-133604000D01*
X131445000Y-94996000D02*
X124714000Y-94996000D01*
X126790595Y-151809405D02*
X126523928Y-151428452D01*
X126333452Y-151809405D02*
X126333452Y-151009405D01*
X126638214Y-151009405D01*
X126714405Y-151047500D01*
X126752500Y-151085595D01*
X126790595Y-151161786D01*
X126790595Y-151276071D01*
X126752500Y-151352262D01*
X126714405Y-151390357D01*
X126638214Y-151428452D01*
X126333452Y-151428452D01*
X127133452Y-151390357D02*
X127400119Y-151390357D01*
X127514405Y-151809405D02*
X127133452Y-151809405D01*
X127133452Y-151009405D01*
X127514405Y-151009405D01*
X127819167Y-151771310D02*
X127933453Y-151809405D01*
X128123929Y-151809405D01*
X128200119Y-151771310D01*
X128238215Y-151733214D01*
X128276310Y-151657024D01*
X128276310Y-151580833D01*
X128238215Y-151504643D01*
X128200119Y-151466548D01*
X128123929Y-151428452D01*
X127971548Y-151390357D01*
X127895357Y-151352262D01*
X127857262Y-151314167D01*
X127819167Y-151237976D01*
X127819167Y-151161786D01*
X127857262Y-151085595D01*
X127895357Y-151047500D01*
X127971548Y-151009405D01*
X128162024Y-151009405D01*
X128276310Y-151047500D01*
X128619167Y-151390357D02*
X128885834Y-151390357D01*
X129000120Y-151809405D02*
X128619167Y-151809405D01*
X128619167Y-151009405D01*
X129000120Y-151009405D01*
X129228691Y-151009405D02*
X129685834Y-151009405D01*
X129457263Y-151809405D02*
X129457263Y-151009405D01*
X126790595Y-113201405D02*
X126523928Y-112820452D01*
X126333452Y-113201405D02*
X126333452Y-112401405D01*
X126638214Y-112401405D01*
X126714405Y-112439500D01*
X126752500Y-112477595D01*
X126790595Y-112553786D01*
X126790595Y-112668071D01*
X126752500Y-112744262D01*
X126714405Y-112782357D01*
X126638214Y-112820452D01*
X126333452Y-112820452D01*
X127133452Y-112782357D02*
X127400119Y-112782357D01*
X127514405Y-113201405D02*
X127133452Y-113201405D01*
X127133452Y-112401405D01*
X127514405Y-112401405D01*
X127819167Y-113163310D02*
X127933453Y-113201405D01*
X128123929Y-113201405D01*
X128200119Y-113163310D01*
X128238215Y-113125214D01*
X128276310Y-113049024D01*
X128276310Y-112972833D01*
X128238215Y-112896643D01*
X128200119Y-112858548D01*
X128123929Y-112820452D01*
X127971548Y-112782357D01*
X127895357Y-112744262D01*
X127857262Y-112706167D01*
X127819167Y-112629976D01*
X127819167Y-112553786D01*
X127857262Y-112477595D01*
X127895357Y-112439500D01*
X127971548Y-112401405D01*
X128162024Y-112401405D01*
X128276310Y-112439500D01*
X128619167Y-112782357D02*
X128885834Y-112782357D01*
X129000120Y-113201405D02*
X128619167Y-113201405D01*
X128619167Y-112401405D01*
X129000120Y-112401405D01*
X129228691Y-112401405D02*
X129685834Y-112401405D01*
X129457263Y-113201405D02*
X129457263Y-112401405D01*
X108585000Y-133604000D02*
X118745000Y-133604000D01*
X108585000Y-94996000D02*
X118745000Y-94996000D01*
X118745000Y-133604000D02*
X118745000Y-130302000D01*
X118745000Y-94996000D02*
X118745000Y-91694000D01*
X108585000Y-130302000D02*
X118745000Y-130302000D01*
X108585000Y-91694000D02*
X118745000Y-91694000D01*
X108585000Y-130302000D02*
X108585000Y-133604000D01*
X108585000Y-91694000D02*
X108585000Y-94996000D01*
X111531476Y-148913905D02*
X111988619Y-148913905D01*
X111760048Y-149713905D02*
X111760048Y-148913905D01*
X112179096Y-148913905D02*
X112712429Y-149713905D01*
X112712429Y-148913905D02*
X112179096Y-149713905D01*
X111531476Y-110305905D02*
X111988619Y-110305905D01*
X111760048Y-111105905D02*
X111760048Y-110305905D01*
X112179096Y-110305905D02*
X112712429Y-111105905D01*
X112712429Y-110305905D02*
X112179096Y-111105905D01*
X121539000Y-148526500D02*
X121539000Y-150114000D01*
X121539000Y-109918500D02*
X121539000Y-111506000D01*
X118294167Y-149713905D02*
X118027500Y-149332952D01*
X117837024Y-149713905D02*
X117837024Y-148913905D01*
X118141786Y-148913905D01*
X118217977Y-148952000D01*
X118256072Y-148990095D01*
X118294167Y-149066286D01*
X118294167Y-149180571D01*
X118256072Y-149256762D01*
X118217977Y-149294857D01*
X118141786Y-149332952D01*
X117837024Y-149332952D01*
X118560834Y-148913905D02*
X119094167Y-149713905D01*
X119094167Y-148913905D02*
X118560834Y-149713905D01*
X118294167Y-111105905D02*
X118027500Y-110724952D01*
X117837024Y-111105905D02*
X117837024Y-110305905D01*
X118141786Y-110305905D01*
X118217977Y-110344000D01*
X118256072Y-110382095D01*
X118294167Y-110458286D01*
X118294167Y-110572571D01*
X118256072Y-110648762D01*
X118217977Y-110686857D01*
X118141786Y-110724952D01*
X117837024Y-110724952D01*
X118560834Y-110305905D02*
X119094167Y-111105905D01*
X119094167Y-110305905D02*
X118560834Y-111105905D01*
X118808500Y-148526500D02*
X121539000Y-148526500D01*
X118808500Y-109918500D02*
X121539000Y-109918500D01*
X108966000Y-150114000D02*
X108966000Y-148526500D01*
X108966000Y-111506000D02*
X108966000Y-109918500D01*
X115316000Y-150114000D02*
X115316000Y-148526500D01*
X115316000Y-111506000D02*
X115316000Y-109918500D01*
X121412000Y-128524000D02*
X121285000Y-128524000D01*
X121412000Y-89916000D02*
X121285000Y-89916000D01*
X113665000Y-128524000D02*
X113665000Y-130302000D01*
X113665000Y-89916000D02*
X113665000Y-91694000D01*
X113055477Y-132442000D02*
X112979286Y-132403905D01*
X112865001Y-132403905D01*
X112750715Y-132442000D01*
X112674524Y-132518190D01*
X112636429Y-132594381D01*
X112598334Y-132746762D01*
X112598334Y-132861048D01*
X112636429Y-133013429D01*
X112674524Y-133089619D01*
X112750715Y-133165810D01*
X112865001Y-133203905D01*
X112941191Y-133203905D01*
X113055477Y-133165810D01*
X113093572Y-133127714D01*
X113093572Y-132861048D01*
X112941191Y-132861048D01*
X113436429Y-133203905D02*
X113436429Y-132403905D01*
X113893572Y-133203905D01*
X113893572Y-132403905D01*
X114274524Y-133203905D02*
X114274524Y-132403905D01*
X114465000Y-132403905D01*
X114579286Y-132442000D01*
X114655477Y-132518190D01*
X114693572Y-132594381D01*
X114731667Y-132746762D01*
X114731667Y-132861048D01*
X114693572Y-133013429D01*
X114655477Y-133089619D01*
X114579286Y-133165810D01*
X114465000Y-133203905D01*
X114274524Y-133203905D01*
X113055477Y-93834000D02*
X112979286Y-93795905D01*
X112865001Y-93795905D01*
X112750715Y-93834000D01*
X112674524Y-93910190D01*
X112636429Y-93986381D01*
X112598334Y-94138762D01*
X112598334Y-94253048D01*
X112636429Y-94405429D01*
X112674524Y-94481619D01*
X112750715Y-94557810D01*
X112865001Y-94595905D01*
X112941191Y-94595905D01*
X113055477Y-94557810D01*
X113093572Y-94519714D01*
X113093572Y-94253048D01*
X112941191Y-94253048D01*
X113436429Y-94595905D02*
X113436429Y-93795905D01*
X113893572Y-94595905D01*
X113893572Y-93795905D01*
X114274524Y-94595905D02*
X114274524Y-93795905D01*
X114465000Y-93795905D01*
X114579286Y-93834000D01*
X114655477Y-93910190D01*
X114693572Y-93986381D01*
X114731667Y-94138762D01*
X114731667Y-94253048D01*
X114693572Y-94405429D01*
X114655477Y-94481619D01*
X114579286Y-94557810D01*
X114465000Y-94595905D01*
X114274524Y-94595905D01*
X111125000Y-128524000D02*
X111125000Y-130302000D01*
X111125000Y-89916000D02*
X111125000Y-91694000D01*
X112242619Y-129774905D02*
X111785476Y-129774905D01*
X112014047Y-129774905D02*
X112014047Y-128974905D01*
X111937857Y-129089190D01*
X111861666Y-129165381D01*
X111785476Y-129203476D01*
X112547381Y-129051095D02*
X112585476Y-129013000D01*
X112661667Y-128974905D01*
X112852143Y-128974905D01*
X112928333Y-129013000D01*
X112966429Y-129051095D01*
X113004524Y-129127286D01*
X113004524Y-129203476D01*
X112966429Y-129317762D01*
X112509286Y-129774905D01*
X113004524Y-129774905D01*
X112242619Y-91166905D02*
X111785476Y-91166905D01*
X112014047Y-91166905D02*
X112014047Y-90366905D01*
X111937857Y-90481190D01*
X111861666Y-90557381D01*
X111785476Y-90595476D01*
X112547381Y-90443095D02*
X112585476Y-90405000D01*
X112661667Y-90366905D01*
X112852143Y-90366905D01*
X112928333Y-90405000D01*
X112966429Y-90443095D01*
X113004524Y-90519286D01*
X113004524Y-90595476D01*
X112966429Y-90709762D01*
X112509286Y-91166905D01*
X113004524Y-91166905D01*
X113512620Y-130752905D02*
X113131667Y-130752905D01*
X113093572Y-131133857D01*
X113131667Y-131095762D01*
X113207858Y-131057667D01*
X113398334Y-131057667D01*
X113474524Y-131095762D01*
X113512620Y-131133857D01*
X113550715Y-131210048D01*
X113550715Y-131400524D01*
X113512620Y-131476714D01*
X113474524Y-131514810D01*
X113398334Y-131552905D01*
X113207858Y-131552905D01*
X113131667Y-131514810D01*
X113093572Y-131476714D01*
X113779286Y-130752905D02*
X114045953Y-131552905D01*
X114312620Y-130752905D01*
X113512620Y-92144905D02*
X113131667Y-92144905D01*
X113093572Y-92525857D01*
X113131667Y-92487762D01*
X113207858Y-92449667D01*
X113398334Y-92449667D01*
X113474524Y-92487762D01*
X113512620Y-92525857D01*
X113550715Y-92602048D01*
X113550715Y-92792524D01*
X113512620Y-92868714D01*
X113474524Y-92906810D01*
X113398334Y-92944905D01*
X113207858Y-92944905D01*
X113131667Y-92906810D01*
X113093572Y-92868714D01*
X113779286Y-92144905D02*
X114045953Y-92944905D01*
X114312620Y-92144905D01*
X105638619Y-149713905D02*
X105181476Y-149713905D01*
X105410047Y-149713905D02*
X105410047Y-148913905D01*
X105333857Y-149028190D01*
X105257666Y-149104381D01*
X105181476Y-149142476D01*
X105905286Y-148913905D02*
X106400524Y-148913905D01*
X106133857Y-149218667D01*
X106248143Y-149218667D01*
X106324333Y-149256762D01*
X106362429Y-149294857D01*
X106400524Y-149371048D01*
X106400524Y-149561524D01*
X106362429Y-149637714D01*
X106324333Y-149675810D01*
X106248143Y-149713905D01*
X106019571Y-149713905D01*
X105943381Y-149675810D01*
X105905286Y-149637714D01*
X105638619Y-111105905D02*
X105181476Y-111105905D01*
X105410047Y-111105905D02*
X105410047Y-110305905D01*
X105333857Y-110420190D01*
X105257666Y-110496381D01*
X105181476Y-110534476D01*
X105905286Y-110305905D02*
X106400524Y-110305905D01*
X106133857Y-110610667D01*
X106248143Y-110610667D01*
X106324333Y-110648762D01*
X106362429Y-110686857D01*
X106400524Y-110763048D01*
X106400524Y-110953524D01*
X106362429Y-111029714D01*
X106324333Y-111067810D01*
X106248143Y-111105905D01*
X106019571Y-111105905D01*
X105943381Y-111067810D01*
X105905286Y-111029714D01*
X102616000Y-150114000D02*
X102616000Y-148526500D01*
X102616000Y-111506000D02*
X102616000Y-109918500D01*
X96393000Y-150114000D02*
X121539000Y-150114000D01*
X96393000Y-111506000D02*
X121539000Y-111506000D01*
X118872000Y-148526500D02*
X96393000Y-148526500D01*
X118872000Y-109918500D02*
X96393000Y-109918500D01*
X96393000Y-148526500D02*
X96393000Y-150050500D01*
X96393000Y-109918500D02*
X96393000Y-111442500D01*
X98247333Y-149713905D02*
X98247333Y-148913905D01*
X98552095Y-148913905D01*
X98628286Y-148952000D01*
X98666381Y-148990095D01*
X98704476Y-149066286D01*
X98704476Y-149180571D01*
X98666381Y-149256762D01*
X98628286Y-149294857D01*
X98552095Y-149332952D01*
X98247333Y-149332952D01*
X98971143Y-148913905D02*
X99161619Y-149713905D01*
X99314000Y-149142476D01*
X99466381Y-149713905D01*
X99656857Y-148913905D01*
X100418762Y-149713905D02*
X100152095Y-149332952D01*
X99961619Y-149713905D02*
X99961619Y-148913905D01*
X100266381Y-148913905D01*
X100342572Y-148952000D01*
X100380667Y-148990095D01*
X100418762Y-149066286D01*
X100418762Y-149180571D01*
X100380667Y-149256762D01*
X100342572Y-149294857D01*
X100266381Y-149332952D01*
X99961619Y-149332952D01*
X98247333Y-111105905D02*
X98247333Y-110305905D01*
X98552095Y-110305905D01*
X98628286Y-110344000D01*
X98666381Y-110382095D01*
X98704476Y-110458286D01*
X98704476Y-110572571D01*
X98666381Y-110648762D01*
X98628286Y-110686857D01*
X98552095Y-110724952D01*
X98247333Y-110724952D01*
X98971143Y-110305905D02*
X99161619Y-111105905D01*
X99314000Y-110534476D01*
X99466381Y-111105905D01*
X99656857Y-110305905D01*
X100418762Y-111105905D02*
X100152095Y-110724952D01*
X99961619Y-111105905D02*
X99961619Y-110305905D01*
X100266381Y-110305905D01*
X100342572Y-110344000D01*
X100380667Y-110382095D01*
X100418762Y-110458286D01*
X100418762Y-110572571D01*
X100380667Y-110648762D01*
X100342572Y-110686857D01*
X100266381Y-110724952D01*
X99961619Y-110724952D01*
X111125000Y-120904000D02*
X111125000Y-123444000D01*
X111125000Y-82296000D02*
X111125000Y-84836000D01*
X108585000Y-128524000D02*
X108585000Y-120904000D01*
X108585000Y-89916000D02*
X108585000Y-82296000D01*
X109702619Y-129774905D02*
X109245476Y-129774905D01*
X109474047Y-129774905D02*
X109474047Y-128974905D01*
X109397857Y-129089190D01*
X109321666Y-129165381D01*
X109245476Y-129203476D01*
X109969286Y-128974905D02*
X110464524Y-128974905D01*
X110197857Y-129279667D01*
X110312143Y-129279667D01*
X110388333Y-129317762D01*
X110426429Y-129355857D01*
X110464524Y-129432048D01*
X110464524Y-129622524D01*
X110426429Y-129698714D01*
X110388333Y-129736810D01*
X110312143Y-129774905D01*
X110083571Y-129774905D01*
X110007381Y-129736810D01*
X109969286Y-129698714D01*
X109702619Y-91166905D02*
X109245476Y-91166905D01*
X109474047Y-91166905D02*
X109474047Y-90366905D01*
X109397857Y-90481190D01*
X109321666Y-90557381D01*
X109245476Y-90595476D01*
X109969286Y-90366905D02*
X110464524Y-90366905D01*
X110197857Y-90671667D01*
X110312143Y-90671667D01*
X110388333Y-90709762D01*
X110426429Y-90747857D01*
X110464524Y-90824048D01*
X110464524Y-91014524D01*
X110426429Y-91090714D01*
X110388333Y-91128810D01*
X110312143Y-91166905D01*
X110083571Y-91166905D01*
X110007381Y-91128810D01*
X109969286Y-91090714D01*
X108585000Y-123444000D02*
X118745000Y-123444000D01*
X108585000Y-84836000D02*
X118745000Y-84836000D01*
X118745000Y-128524000D02*
X108585000Y-128524000D01*
X118745000Y-89916000D02*
X108585000Y-89916000D01*
X114782619Y-129774905D02*
X114325476Y-129774905D01*
X114554047Y-129774905D02*
X114554047Y-128974905D01*
X114477857Y-129089190D01*
X114401666Y-129165381D01*
X114325476Y-129203476D01*
X115544524Y-129774905D02*
X115087381Y-129774905D01*
X115315952Y-129774905D02*
X115315952Y-128974905D01*
X115239762Y-129089190D01*
X115163571Y-129165381D01*
X115087381Y-129203476D01*
X114782619Y-91166905D02*
X114325476Y-91166905D01*
X114554047Y-91166905D02*
X114554047Y-90366905D01*
X114477857Y-90481190D01*
X114401666Y-90557381D01*
X114325476Y-90595476D01*
X115544524Y-91166905D02*
X115087381Y-91166905D01*
X115315952Y-91166905D02*
X115315952Y-90366905D01*
X115239762Y-90481190D01*
X115163571Y-90557381D01*
X115087381Y-90595476D01*
X108585000Y-131953000D02*
X118745000Y-131953000D01*
X108585000Y-93345000D02*
X118745000Y-93345000D01*
X108585000Y-125984000D02*
X118745000Y-125984000D01*
X108585000Y-87376000D02*
X118745000Y-87376000D01*
X108585000Y-128524000D02*
X108585000Y-130302000D01*
X108585000Y-89916000D02*
X108585000Y-91694000D01*
X121285000Y-128524000D02*
X121285000Y-123444000D01*
X121285000Y-89916000D02*
X121285000Y-84836000D01*
X121285000Y-120904000D02*
X121285000Y-123444000D01*
X121285000Y-82296000D02*
X121285000Y-84836000D01*
X118745000Y-120904000D02*
X118745000Y-128524000D01*
X118745000Y-82296000D02*
X118745000Y-89916000D01*
X116205000Y-120904000D02*
X116205000Y-123444000D01*
X116205000Y-82296000D02*
X116205000Y-84836000D01*
X113665000Y-120904000D02*
X113665000Y-123444000D01*
X113665000Y-82296000D02*
X113665000Y-84836000D01*
X118745000Y-130302000D02*
X118745000Y-128651000D01*
X118745000Y-91694000D02*
X118745000Y-90043000D01*
X116205000Y-128524000D02*
X116205000Y-130302000D01*
X116205000Y-89916000D02*
X116205000Y-91694000D01*
X118745000Y-128651000D02*
X118745000Y-128397000D01*
X118745000Y-90043000D02*
X118745000Y-89789000D01*
X121285000Y-128524000D02*
X121285000Y-133604000D01*
X121285000Y-89916000D02*
X121285000Y-94996000D01*
X117322619Y-129774905D02*
X116865476Y-129774905D01*
X117094047Y-129774905D02*
X117094047Y-128974905D01*
X117017857Y-129089190D01*
X116941666Y-129165381D01*
X116865476Y-129203476D01*
X117817857Y-128974905D02*
X117894048Y-128974905D01*
X117970238Y-129013000D01*
X118008333Y-129051095D01*
X118046429Y-129127286D01*
X118084524Y-129279667D01*
X118084524Y-129470143D01*
X118046429Y-129622524D01*
X118008333Y-129698714D01*
X117970238Y-129736810D01*
X117894048Y-129774905D01*
X117817857Y-129774905D01*
X117741667Y-129736810D01*
X117703571Y-129698714D01*
X117665476Y-129622524D01*
X117627381Y-129470143D01*
X117627381Y-129279667D01*
X117665476Y-129127286D01*
X117703571Y-129051095D01*
X117741667Y-129013000D01*
X117817857Y-128974905D01*
X117322619Y-91166905D02*
X116865476Y-91166905D01*
X117094047Y-91166905D02*
X117094047Y-90366905D01*
X117017857Y-90481190D01*
X116941666Y-90557381D01*
X116865476Y-90595476D01*
X117817857Y-90366905D02*
X117894048Y-90366905D01*
X117970238Y-90405000D01*
X118008333Y-90443095D01*
X118046429Y-90519286D01*
X118084524Y-90671667D01*
X118084524Y-90862143D01*
X118046429Y-91014524D01*
X118008333Y-91090714D01*
X117970238Y-91128810D01*
X117894048Y-91166905D01*
X117817857Y-91166905D01*
X117741667Y-91128810D01*
X117703571Y-91090714D01*
X117665476Y-91014524D01*
X117627381Y-90862143D01*
X117627381Y-90671667D01*
X117665476Y-90519286D01*
X117703571Y-90443095D01*
X117741667Y-90405000D01*
X117817857Y-90366905D01*
X39605000Y-150660023D02*
X39566905Y-150736214D01*
X39566905Y-150850499D01*
X39605000Y-150964785D01*
X39681190Y-151040976D01*
X39757381Y-151079071D01*
X39909762Y-151117166D01*
X40024048Y-151117166D01*
X40176429Y-151079071D01*
X40252619Y-151040976D01*
X40328810Y-150964785D01*
X40366905Y-150850499D01*
X40366905Y-150774309D01*
X40328810Y-150660023D01*
X40290714Y-150621928D01*
X40024048Y-150621928D01*
X40024048Y-150774309D01*
X40366905Y-150279071D02*
X39566905Y-150279071D01*
X40366905Y-149821928D01*
X39566905Y-149821928D01*
X40366905Y-149440976D02*
X39566905Y-149440976D01*
X39566905Y-149250500D01*
X39605000Y-149136214D01*
X39681190Y-149060023D01*
X39757381Y-149021928D01*
X39909762Y-148983833D01*
X40024048Y-148983833D01*
X40176429Y-149021928D01*
X40252619Y-149060023D01*
X40328810Y-149136214D01*
X40366905Y-149250500D01*
X40366905Y-149440976D01*
X39605000Y-112052023D02*
X39566905Y-112128214D01*
X39566905Y-112242499D01*
X39605000Y-112356785D01*
X39681190Y-112432976D01*
X39757381Y-112471071D01*
X39909762Y-112509166D01*
X40024048Y-112509166D01*
X40176429Y-112471071D01*
X40252619Y-112432976D01*
X40328810Y-112356785D01*
X40366905Y-112242499D01*
X40366905Y-112166309D01*
X40328810Y-112052023D01*
X40290714Y-112013928D01*
X40024048Y-112013928D01*
X40024048Y-112166309D01*
X40366905Y-111671071D02*
X39566905Y-111671071D01*
X40366905Y-111213928D01*
X39566905Y-111213928D01*
X40366905Y-110832976D02*
X39566905Y-110832976D01*
X39566905Y-110642500D01*
X39605000Y-110528214D01*
X39681190Y-110452023D01*
X39757381Y-110413928D01*
X39909762Y-110375833D01*
X40024048Y-110375833D01*
X40176429Y-110413928D01*
X40252619Y-110452023D01*
X40328810Y-110528214D01*
X40366905Y-110642500D01*
X40366905Y-110832976D01*
X40328810Y-131908309D02*
X40366905Y-131794023D01*
X40366905Y-131603547D01*
X40328810Y-131527357D01*
X40290714Y-131489261D01*
X40214524Y-131451166D01*
X40138333Y-131451166D01*
X40062143Y-131489261D01*
X40024048Y-131527357D01*
X39985952Y-131603547D01*
X39947857Y-131755928D01*
X39909762Y-131832119D01*
X39871667Y-131870214D01*
X39795476Y-131908309D01*
X39719286Y-131908309D01*
X39643095Y-131870214D01*
X39605000Y-131832119D01*
X39566905Y-131755928D01*
X39566905Y-131565452D01*
X39605000Y-131451166D01*
X40366905Y-131108309D02*
X39566905Y-131108309D01*
X39947857Y-131108309D02*
X39947857Y-130651166D01*
X40366905Y-130651166D02*
X39566905Y-130651166D01*
X40366905Y-130270214D02*
X39566905Y-130270214D01*
X39947857Y-129889262D02*
X39947857Y-129622595D01*
X40366905Y-129508309D02*
X40366905Y-129889262D01*
X39566905Y-129889262D01*
X39566905Y-129508309D01*
X40366905Y-128784499D02*
X40366905Y-129165452D01*
X39566905Y-129165452D01*
X40366905Y-128517833D02*
X39566905Y-128517833D01*
X39566905Y-128327357D01*
X39605000Y-128213071D01*
X39681190Y-128136880D01*
X39757381Y-128098785D01*
X39909762Y-128060690D01*
X40024048Y-128060690D01*
X40176429Y-128098785D01*
X40252619Y-128136880D01*
X40328810Y-128213071D01*
X40366905Y-128327357D01*
X40366905Y-128517833D01*
X40328810Y-93300309D02*
X40366905Y-93186023D01*
X40366905Y-92995547D01*
X40328810Y-92919357D01*
X40290714Y-92881261D01*
X40214524Y-92843166D01*
X40138333Y-92843166D01*
X40062143Y-92881261D01*
X40024048Y-92919357D01*
X39985952Y-92995547D01*
X39947857Y-93147928D01*
X39909762Y-93224119D01*
X39871667Y-93262214D01*
X39795476Y-93300309D01*
X39719286Y-93300309D01*
X39643095Y-93262214D01*
X39605000Y-93224119D01*
X39566905Y-93147928D01*
X39566905Y-92957452D01*
X39605000Y-92843166D01*
X40366905Y-92500309D02*
X39566905Y-92500309D01*
X39947857Y-92500309D02*
X39947857Y-92043166D01*
X40366905Y-92043166D02*
X39566905Y-92043166D01*
X40366905Y-91662214D02*
X39566905Y-91662214D01*
X39947857Y-91281262D02*
X39947857Y-91014595D01*
X40366905Y-90900309D02*
X40366905Y-91281262D01*
X39566905Y-91281262D01*
X39566905Y-90900309D01*
X40366905Y-90176499D02*
X40366905Y-90557452D01*
X39566905Y-90557452D01*
X40366905Y-89909833D02*
X39566905Y-89909833D01*
X39566905Y-89719357D01*
X39605000Y-89605071D01*
X39681190Y-89528880D01*
X39757381Y-89490785D01*
X39909762Y-89452690D01*
X40024048Y-89452690D01*
X40176429Y-89490785D01*
X40252619Y-89528880D01*
X40328810Y-89605071D01*
X40366905Y-89719357D01*
X40366905Y-89909833D01*
X52514500Y-128270000D02*
X52514500Y-129921000D01*
X52514500Y-89662000D02*
X52514500Y-91313000D01*
X54368810Y-128720905D02*
X54635477Y-129520905D01*
X54902144Y-128720905D01*
X55168810Y-129520905D02*
X55168810Y-128720905D01*
X55549762Y-129520905D02*
X55549762Y-128720905D01*
X56006905Y-129520905D01*
X56006905Y-128720905D01*
X54368810Y-90112905D02*
X54635477Y-90912905D01*
X54902144Y-90112905D01*
X55168810Y-90912905D02*
X55168810Y-90112905D01*
X55549762Y-90912905D02*
X55549762Y-90112905D01*
X56006905Y-90912905D01*
X56006905Y-90112905D01*
X58089800Y-129918460D02*
X58089800Y-128267460D01*
X58089800Y-91310460D02*
X58089800Y-89659460D01*
X49110977Y-128759000D02*
X49034786Y-128720905D01*
X48920501Y-128720905D01*
X48806215Y-128759000D01*
X48730024Y-128835190D01*
X48691929Y-128911381D01*
X48653834Y-129063762D01*
X48653834Y-129178048D01*
X48691929Y-129330429D01*
X48730024Y-129406619D01*
X48806215Y-129482810D01*
X48920501Y-129520905D01*
X48996691Y-129520905D01*
X49110977Y-129482810D01*
X49149072Y-129444714D01*
X49149072Y-129178048D01*
X48996691Y-129178048D01*
X49491929Y-129520905D02*
X49491929Y-128720905D01*
X49949072Y-129520905D01*
X49949072Y-128720905D01*
X50330024Y-129520905D02*
X50330024Y-128720905D01*
X50520500Y-128720905D01*
X50634786Y-128759000D01*
X50710977Y-128835190D01*
X50749072Y-128911381D01*
X50787167Y-129063762D01*
X50787167Y-129178048D01*
X50749072Y-129330429D01*
X50710977Y-129406619D01*
X50634786Y-129482810D01*
X50520500Y-129520905D01*
X50330024Y-129520905D01*
X49110977Y-90151000D02*
X49034786Y-90112905D01*
X48920501Y-90112905D01*
X48806215Y-90151000D01*
X48730024Y-90227190D01*
X48691929Y-90303381D01*
X48653834Y-90455762D01*
X48653834Y-90570048D01*
X48691929Y-90722429D01*
X48730024Y-90798619D01*
X48806215Y-90874810D01*
X48920501Y-90912905D01*
X48996691Y-90912905D01*
X49110977Y-90874810D01*
X49149072Y-90836714D01*
X49149072Y-90570048D01*
X48996691Y-90570048D01*
X49491929Y-90912905D02*
X49491929Y-90112905D01*
X49949072Y-90912905D01*
X49949072Y-90112905D01*
X50330024Y-90912905D02*
X50330024Y-90112905D01*
X50520500Y-90112905D01*
X50634786Y-90151000D01*
X50710977Y-90227190D01*
X50749072Y-90303381D01*
X50787167Y-90455762D01*
X50787167Y-90570048D01*
X50749072Y-90722429D01*
X50710977Y-90798619D01*
X50634786Y-90874810D01*
X50520500Y-90912905D01*
X50330024Y-90912905D01*
X46893480Y-128267460D02*
X46893480Y-129918460D01*
X46893480Y-89659460D02*
X46893480Y-91310460D01*
X46926500Y-129921000D02*
X58039000Y-129921000D01*
X46926500Y-91313000D02*
X58039000Y-91313000D01*
X123825000Y-120904000D02*
X123825000Y-123444000D01*
X123825000Y-82296000D02*
X123825000Y-84836000D01*
X128905000Y-120904000D02*
X128905000Y-123444000D01*
X128905000Y-82296000D02*
X128905000Y-84836000D01*
X131445000Y-123444000D02*
X131445000Y-120904000D01*
X131445000Y-84836000D02*
X131445000Y-82296000D01*
X126365000Y-120904000D02*
X126365000Y-123444000D01*
X126365000Y-82296000D02*
X126365000Y-84836000D01*
X121285000Y-123444000D02*
X131445000Y-123444000D01*
X121285000Y-84836000D02*
X131445000Y-84836000D01*
X126212620Y-130752905D02*
X125831667Y-130752905D01*
X125793572Y-131133857D01*
X125831667Y-131095762D01*
X125907858Y-131057667D01*
X126098334Y-131057667D01*
X126174524Y-131095762D01*
X126212620Y-131133857D01*
X126250715Y-131210048D01*
X126250715Y-131400524D01*
X126212620Y-131476714D01*
X126174524Y-131514810D01*
X126098334Y-131552905D01*
X125907858Y-131552905D01*
X125831667Y-131514810D01*
X125793572Y-131476714D01*
X126479286Y-130752905D02*
X126745953Y-131552905D01*
X127012620Y-130752905D01*
X126212620Y-92144905D02*
X125831667Y-92144905D01*
X125793572Y-92525857D01*
X125831667Y-92487762D01*
X125907858Y-92449667D01*
X126098334Y-92449667D01*
X126174524Y-92487762D01*
X126212620Y-92525857D01*
X126250715Y-92602048D01*
X126250715Y-92792524D01*
X126212620Y-92868714D01*
X126174524Y-92906810D01*
X126098334Y-92944905D01*
X125907858Y-92944905D01*
X125831667Y-92906810D01*
X125793572Y-92868714D01*
X126479286Y-92144905D02*
X126745953Y-92944905D01*
X127012620Y-92144905D01*
X131445000Y-131953000D02*
X131445000Y-130175000D01*
X131445000Y-93345000D02*
X131445000Y-91567000D01*
X131445000Y-133604000D02*
X131445000Y-131953000D01*
X131445000Y-94996000D02*
X131445000Y-93345000D01*
X125755477Y-132442000D02*
X125679286Y-132403905D01*
X125565001Y-132403905D01*
X125450715Y-132442000D01*
X125374524Y-132518190D01*
X125336429Y-132594381D01*
X125298334Y-132746762D01*
X125298334Y-132861048D01*
X125336429Y-133013429D01*
X125374524Y-133089619D01*
X125450715Y-133165810D01*
X125565001Y-133203905D01*
X125641191Y-133203905D01*
X125755477Y-133165810D01*
X125793572Y-133127714D01*
X125793572Y-132861048D01*
X125641191Y-132861048D01*
X126136429Y-133203905D02*
X126136429Y-132403905D01*
X126593572Y-133203905D01*
X126593572Y-132403905D01*
X126974524Y-133203905D02*
X126974524Y-132403905D01*
X127165000Y-132403905D01*
X127279286Y-132442000D01*
X127355477Y-132518190D01*
X127393572Y-132594381D01*
X127431667Y-132746762D01*
X127431667Y-132861048D01*
X127393572Y-133013429D01*
X127355477Y-133089619D01*
X127279286Y-133165810D01*
X127165000Y-133203905D01*
X126974524Y-133203905D01*
X125755477Y-93834000D02*
X125679286Y-93795905D01*
X125565001Y-93795905D01*
X125450715Y-93834000D01*
X125374524Y-93910190D01*
X125336429Y-93986381D01*
X125298334Y-94138762D01*
X125298334Y-94253048D01*
X125336429Y-94405429D01*
X125374524Y-94481619D01*
X125450715Y-94557810D01*
X125565001Y-94595905D01*
X125641191Y-94595905D01*
X125755477Y-94557810D01*
X125793572Y-94519714D01*
X125793572Y-94253048D01*
X125641191Y-94253048D01*
X126136429Y-94595905D02*
X126136429Y-93795905D01*
X126593572Y-94595905D01*
X126593572Y-93795905D01*
X126974524Y-94595905D02*
X126974524Y-93795905D01*
X127165000Y-93795905D01*
X127279286Y-93834000D01*
X127355477Y-93910190D01*
X127393572Y-93986381D01*
X127431667Y-94138762D01*
X127431667Y-94253048D01*
X127393572Y-94405429D01*
X127355477Y-94481619D01*
X127279286Y-94557810D01*
X127165000Y-94595905D01*
X126974524Y-94595905D01*
X127825477Y-128974905D02*
X127444524Y-128974905D01*
X127406429Y-129355857D01*
X127444524Y-129317762D01*
X127520715Y-129279667D01*
X127711191Y-129279667D01*
X127787381Y-129317762D01*
X127825477Y-129355857D01*
X127863572Y-129432048D01*
X127863572Y-129622524D01*
X127825477Y-129698714D01*
X127787381Y-129736810D01*
X127711191Y-129774905D01*
X127520715Y-129774905D01*
X127444524Y-129736810D01*
X127406429Y-129698714D01*
X127825477Y-90366905D02*
X127444524Y-90366905D01*
X127406429Y-90747857D01*
X127444524Y-90709762D01*
X127520715Y-90671667D01*
X127711191Y-90671667D01*
X127787381Y-90709762D01*
X127825477Y-90747857D01*
X127863572Y-90824048D01*
X127863572Y-91014524D01*
X127825477Y-91090714D01*
X127787381Y-91128810D01*
X127711191Y-91166905D01*
X127520715Y-91166905D01*
X127444524Y-91128810D01*
X127406429Y-91090714D01*
X128905000Y-128524000D02*
X128905000Y-130302000D01*
X128905000Y-89916000D02*
X128905000Y-91694000D01*
X121285000Y-125984000D02*
X131445000Y-125984000D01*
X121285000Y-87376000D02*
X131445000Y-87376000D01*
X129908334Y-128974905D02*
X130403572Y-128974905D01*
X130136905Y-129279667D01*
X130251191Y-129279667D01*
X130327381Y-129317762D01*
X130365477Y-129355857D01*
X130403572Y-129432048D01*
X130403572Y-129622524D01*
X130365477Y-129698714D01*
X130327381Y-129736810D01*
X130251191Y-129774905D01*
X130022619Y-129774905D01*
X129946429Y-129736810D01*
X129908334Y-129698714D01*
X129908334Y-90366905D02*
X130403572Y-90366905D01*
X130136905Y-90671667D01*
X130251191Y-90671667D01*
X130327381Y-90709762D01*
X130365477Y-90747857D01*
X130403572Y-90824048D01*
X130403572Y-91014524D01*
X130365477Y-91090714D01*
X130327381Y-91128810D01*
X130251191Y-91166905D01*
X130022619Y-91166905D01*
X129946429Y-91128810D01*
X129908334Y-91090714D01*
X131445000Y-128524000D02*
X121412000Y-128524000D01*
X131445000Y-89916000D02*
X121412000Y-89916000D01*
X126365000Y-128524000D02*
X126365000Y-130302000D01*
X126365000Y-89916000D02*
X126365000Y-91694000D01*
X123825000Y-128524000D02*
X123825000Y-130302000D01*
X123825000Y-89916000D02*
X123825000Y-91694000D01*
X131445000Y-130302000D02*
X131445000Y-128524000D01*
X131445000Y-91694000D02*
X131445000Y-89916000D01*
X121285000Y-131953000D02*
X131445000Y-131953000D01*
X121285000Y-93345000D02*
X131445000Y-93345000D01*
X125247381Y-128974905D02*
X125095000Y-128974905D01*
X125018810Y-129013000D01*
X124980715Y-129051095D01*
X124904524Y-129165381D01*
X124866429Y-129317762D01*
X124866429Y-129622524D01*
X124904524Y-129698714D01*
X124942619Y-129736810D01*
X125018810Y-129774905D01*
X125171191Y-129774905D01*
X125247381Y-129736810D01*
X125285477Y-129698714D01*
X125323572Y-129622524D01*
X125323572Y-129432048D01*
X125285477Y-129355857D01*
X125247381Y-129317762D01*
X125171191Y-129279667D01*
X125018810Y-129279667D01*
X124942619Y-129317762D01*
X124904524Y-129355857D01*
X124866429Y-129432048D01*
X125247381Y-90366905D02*
X125095000Y-90366905D01*
X125018810Y-90405000D01*
X124980715Y-90443095D01*
X124904524Y-90557381D01*
X124866429Y-90709762D01*
X124866429Y-91014524D01*
X124904524Y-91090714D01*
X124942619Y-91128810D01*
X125018810Y-91166905D01*
X125171191Y-91166905D01*
X125247381Y-91128810D01*
X125285477Y-91090714D01*
X125323572Y-91014524D01*
X125323572Y-90824048D01*
X125285477Y-90747857D01*
X125247381Y-90709762D01*
X125171191Y-90671667D01*
X125018810Y-90671667D01*
X124942619Y-90709762D01*
X124904524Y-90747857D01*
X124866429Y-90824048D01*
X122402619Y-129774905D02*
X122555000Y-129774905D01*
X122631191Y-129736810D01*
X122669286Y-129698714D01*
X122745477Y-129584429D01*
X122783572Y-129432048D01*
X122783572Y-129127286D01*
X122745477Y-129051095D01*
X122707381Y-129013000D01*
X122631191Y-128974905D01*
X122478810Y-128974905D01*
X122402619Y-129013000D01*
X122364524Y-129051095D01*
X122326429Y-129127286D01*
X122326429Y-129317762D01*
X122364524Y-129393952D01*
X122402619Y-129432048D01*
X122478810Y-129470143D01*
X122631191Y-129470143D01*
X122707381Y-129432048D01*
X122745477Y-129393952D01*
X122783572Y-129317762D01*
X122402619Y-91166905D02*
X122555000Y-91166905D01*
X122631191Y-91128810D01*
X122669286Y-91090714D01*
X122745477Y-90976429D01*
X122783572Y-90824048D01*
X122783572Y-90519286D01*
X122745477Y-90443095D01*
X122707381Y-90405000D01*
X122631191Y-90366905D01*
X122478810Y-90366905D01*
X122402619Y-90405000D01*
X122364524Y-90443095D01*
X122326429Y-90519286D01*
X122326429Y-90709762D01*
X122364524Y-90785952D01*
X122402619Y-90824048D01*
X122478810Y-90862143D01*
X122631191Y-90862143D01*
X122707381Y-90824048D01*
X122745477Y-90785952D01*
X122783572Y-90709762D01*
X121285000Y-130302000D02*
X131445000Y-130302000D01*
X121285000Y-91694000D02*
X131445000Y-91694000D01*
X131445000Y-123444000D02*
X131445000Y-128524000D01*
X131445000Y-84836000D02*
X131445000Y-89916000D01*
X133331048Y-67925905D02*
X133331048Y-67125905D01*
X133673905Y-67887810D02*
X133788191Y-67925905D01*
X133978667Y-67925905D01*
X134054857Y-67887810D01*
X134092953Y-67849714D01*
X134131048Y-67773524D01*
X134131048Y-67697333D01*
X134092953Y-67621143D01*
X134054857Y-67583048D01*
X133978667Y-67544952D01*
X133826286Y-67506857D01*
X133750095Y-67468762D01*
X133712000Y-67430667D01*
X133673905Y-67354476D01*
X133673905Y-67278286D01*
X133712000Y-67202095D01*
X133750095Y-67164000D01*
X133826286Y-67125905D01*
X134016762Y-67125905D01*
X134131048Y-67164000D01*
X134473905Y-67925905D02*
X134473905Y-67125905D01*
X134778667Y-67125905D01*
X134854858Y-67164000D01*
X134892953Y-67202095D01*
X134931048Y-67278286D01*
X134931048Y-67392571D01*
X134892953Y-67468762D01*
X134854858Y-67506857D01*
X134778667Y-67544952D01*
X134473905Y-67544952D01*
X39605000Y-73444023D02*
X39566905Y-73520214D01*
X39566905Y-73634499D01*
X39605000Y-73748785D01*
X39681190Y-73824976D01*
X39757381Y-73863071D01*
X39909762Y-73901166D01*
X40024048Y-73901166D01*
X40176429Y-73863071D01*
X40252619Y-73824976D01*
X40328810Y-73748785D01*
X40366905Y-73634499D01*
X40366905Y-73558309D01*
X40328810Y-73444023D01*
X40290714Y-73405928D01*
X40024048Y-73405928D01*
X40024048Y-73558309D01*
X40366905Y-73063071D02*
X39566905Y-73063071D01*
X40366905Y-72605928D01*
X39566905Y-72605928D01*
X40366905Y-72224976D02*
X39566905Y-72224976D01*
X39566905Y-72034500D01*
X39605000Y-71920214D01*
X39681190Y-71844023D01*
X39757381Y-71805928D01*
X39909762Y-71767833D01*
X40024048Y-71767833D01*
X40176429Y-71805928D01*
X40252619Y-71844023D01*
X40328810Y-71920214D01*
X40366905Y-72034500D01*
X40366905Y-72224976D01*
X40328810Y-54692309D02*
X40366905Y-54578023D01*
X40366905Y-54387547D01*
X40328810Y-54311357D01*
X40290714Y-54273261D01*
X40214524Y-54235166D01*
X40138333Y-54235166D01*
X40062143Y-54273261D01*
X40024048Y-54311357D01*
X39985952Y-54387547D01*
X39947857Y-54539928D01*
X39909762Y-54616119D01*
X39871667Y-54654214D01*
X39795476Y-54692309D01*
X39719286Y-54692309D01*
X39643095Y-54654214D01*
X39605000Y-54616119D01*
X39566905Y-54539928D01*
X39566905Y-54349452D01*
X39605000Y-54235166D01*
X40366905Y-53892309D02*
X39566905Y-53892309D01*
X39947857Y-53892309D02*
X39947857Y-53435166D01*
X40366905Y-53435166D02*
X39566905Y-53435166D01*
X40366905Y-53054214D02*
X39566905Y-53054214D01*
X39947857Y-52673262D02*
X39947857Y-52406595D01*
X40366905Y-52292309D02*
X40366905Y-52673262D01*
X39566905Y-52673262D01*
X39566905Y-52292309D01*
X40366905Y-51568499D02*
X40366905Y-51949452D01*
X39566905Y-51949452D01*
X40366905Y-51301833D02*
X39566905Y-51301833D01*
X39566905Y-51111357D01*
X39605000Y-50997071D01*
X39681190Y-50920880D01*
X39757381Y-50882785D01*
X39909762Y-50844690D01*
X40024048Y-50844690D01*
X40176429Y-50882785D01*
X40252619Y-50920880D01*
X40328810Y-50997071D01*
X40366905Y-51111357D01*
X40366905Y-51301833D01*
X79711668Y-50539595D02*
X79635477Y-50501500D01*
X79559287Y-50425310D01*
X79445001Y-50311024D01*
X79368810Y-50272929D01*
X79292620Y-50272929D01*
X79330715Y-50463405D02*
X79254525Y-50425310D01*
X79178334Y-50349119D01*
X79140239Y-50196738D01*
X79140239Y-49930071D01*
X79178334Y-49777690D01*
X79254525Y-49701500D01*
X79330715Y-49663405D01*
X79483096Y-49663405D01*
X79559287Y-49701500D01*
X79635477Y-49777690D01*
X79673572Y-49930071D01*
X79673572Y-50196738D01*
X79635477Y-50349119D01*
X79559287Y-50425310D01*
X79483096Y-50463405D01*
X79330715Y-50463405D01*
X79940239Y-49663405D02*
X80130715Y-50463405D01*
X80283096Y-49891976D01*
X80435477Y-50463405D01*
X80625953Y-49663405D01*
X80930715Y-50463405D02*
X80930715Y-49663405D01*
X81311667Y-50463405D02*
X81311667Y-49663405D01*
X82149762Y-50387214D02*
X82111667Y-50425310D01*
X81997381Y-50463405D01*
X81921191Y-50463405D01*
X81806905Y-50425310D01*
X81730714Y-50349119D01*
X81692619Y-50272929D01*
X81654524Y-50120548D01*
X81654524Y-50006262D01*
X81692619Y-49853881D01*
X81730714Y-49777690D01*
X81806905Y-49701500D01*
X81921191Y-49663405D01*
X81997381Y-49663405D01*
X82111667Y-49701500D01*
X82149762Y-49739595D01*
X126790595Y-74593405D02*
X126523928Y-74212452D01*
X126333452Y-74593405D02*
X126333452Y-73793405D01*
X126638214Y-73793405D01*
X126714405Y-73831500D01*
X126752500Y-73869595D01*
X126790595Y-73945786D01*
X126790595Y-74060071D01*
X126752500Y-74136262D01*
X126714405Y-74174357D01*
X126638214Y-74212452D01*
X126333452Y-74212452D01*
X127133452Y-74174357D02*
X127400119Y-74174357D01*
X127514405Y-74593405D02*
X127133452Y-74593405D01*
X127133452Y-73793405D01*
X127514405Y-73793405D01*
X127819167Y-74555310D02*
X127933453Y-74593405D01*
X128123929Y-74593405D01*
X128200119Y-74555310D01*
X128238215Y-74517214D01*
X128276310Y-74441024D01*
X128276310Y-74364833D01*
X128238215Y-74288643D01*
X128200119Y-74250548D01*
X128123929Y-74212452D01*
X127971548Y-74174357D01*
X127895357Y-74136262D01*
X127857262Y-74098167D01*
X127819167Y-74021976D01*
X127819167Y-73945786D01*
X127857262Y-73869595D01*
X127895357Y-73831500D01*
X127971548Y-73793405D01*
X128162024Y-73793405D01*
X128276310Y-73831500D01*
X128619167Y-74174357D02*
X128885834Y-74174357D01*
X129000120Y-74593405D02*
X128619167Y-74593405D01*
X128619167Y-73793405D01*
X129000120Y-73793405D01*
X129228691Y-73793405D02*
X129685834Y-73793405D01*
X129457263Y-74593405D02*
X129457263Y-73793405D01*
X102616000Y-72898000D02*
X102616000Y-71310500D01*
X108966000Y-72898000D02*
X108966000Y-71310500D01*
X115316000Y-72898000D02*
X115316000Y-71310500D01*
X96393000Y-71310500D02*
X96393000Y-72834500D01*
X118872000Y-71310500D02*
X96393000Y-71310500D01*
X121539000Y-71310500D02*
X121539000Y-72898000D01*
X118808500Y-71310500D02*
X121539000Y-71310500D01*
X96393000Y-72898000D02*
X121539000Y-72898000D01*
X118294167Y-72497905D02*
X118027500Y-72116952D01*
X117837024Y-72497905D02*
X117837024Y-71697905D01*
X118141786Y-71697905D01*
X118217977Y-71736000D01*
X118256072Y-71774095D01*
X118294167Y-71850286D01*
X118294167Y-71964571D01*
X118256072Y-72040762D01*
X118217977Y-72078857D01*
X118141786Y-72116952D01*
X117837024Y-72116952D01*
X118560834Y-71697905D02*
X119094167Y-72497905D01*
X119094167Y-71697905D02*
X118560834Y-72497905D01*
X111531476Y-71697905D02*
X111988619Y-71697905D01*
X111760048Y-72497905D02*
X111760048Y-71697905D01*
X112179096Y-71697905D02*
X112712429Y-72497905D01*
X112712429Y-71697905D02*
X112179096Y-72497905D01*
X98247333Y-72497905D02*
X98247333Y-71697905D01*
X98552095Y-71697905D01*
X98628286Y-71736000D01*
X98666381Y-71774095D01*
X98704476Y-71850286D01*
X98704476Y-71964571D01*
X98666381Y-72040762D01*
X98628286Y-72078857D01*
X98552095Y-72116952D01*
X98247333Y-72116952D01*
X98971143Y-71697905D02*
X99161619Y-72497905D01*
X99314000Y-71926476D01*
X99466381Y-72497905D01*
X99656857Y-71697905D01*
X100418762Y-72497905D02*
X100152095Y-72116952D01*
X99961619Y-72497905D02*
X99961619Y-71697905D01*
X100266381Y-71697905D01*
X100342572Y-71736000D01*
X100380667Y-71774095D01*
X100418762Y-71850286D01*
X100418762Y-71964571D01*
X100380667Y-72040762D01*
X100342572Y-72078857D01*
X100266381Y-72116952D01*
X99961619Y-72116952D01*
X105638619Y-72497905D02*
X105181476Y-72497905D01*
X105410047Y-72497905D02*
X105410047Y-71697905D01*
X105333857Y-71812190D01*
X105257666Y-71888381D01*
X105181476Y-71926476D01*
X105905286Y-71697905D02*
X106400524Y-71697905D01*
X106133857Y-72002667D01*
X106248143Y-72002667D01*
X106324333Y-72040762D01*
X106362429Y-72078857D01*
X106400524Y-72155048D01*
X106400524Y-72345524D01*
X106362429Y-72421714D01*
X106324333Y-72459810D01*
X106248143Y-72497905D01*
X106019571Y-72497905D01*
X105943381Y-72459810D01*
X105905286Y-72421714D01*
X52514500Y-51054000D02*
X52514500Y-52705000D01*
X58089800Y-52702460D02*
X58089800Y-51051460D01*
X46926500Y-52705000D02*
X58039000Y-52705000D01*
X46893480Y-51051460D02*
X46893480Y-52702460D01*
X125755477Y-55226000D02*
X125679286Y-55187905D01*
X125565001Y-55187905D01*
X125450715Y-55226000D01*
X125374524Y-55302190D01*
X125336429Y-55378381D01*
X125298334Y-55530762D01*
X125298334Y-55645048D01*
X125336429Y-55797429D01*
X125374524Y-55873619D01*
X125450715Y-55949810D01*
X125565001Y-55987905D01*
X125641191Y-55987905D01*
X125755477Y-55949810D01*
X125793572Y-55911714D01*
X125793572Y-55645048D01*
X125641191Y-55645048D01*
X126136429Y-55987905D02*
X126136429Y-55187905D01*
X126593572Y-55987905D01*
X126593572Y-55187905D01*
X126974524Y-55987905D02*
X126974524Y-55187905D01*
X127165000Y-55187905D01*
X127279286Y-55226000D01*
X127355477Y-55302190D01*
X127393572Y-55378381D01*
X127431667Y-55530762D01*
X127431667Y-55645048D01*
X127393572Y-55797429D01*
X127355477Y-55873619D01*
X127279286Y-55949810D01*
X127165000Y-55987905D01*
X126974524Y-55987905D01*
X126212620Y-53536905D02*
X125831667Y-53536905D01*
X125793572Y-53917857D01*
X125831667Y-53879762D01*
X125907858Y-53841667D01*
X126098334Y-53841667D01*
X126174524Y-53879762D01*
X126212620Y-53917857D01*
X126250715Y-53994048D01*
X126250715Y-54184524D01*
X126212620Y-54260714D01*
X126174524Y-54298810D01*
X126098334Y-54336905D01*
X125907858Y-54336905D01*
X125831667Y-54298810D01*
X125793572Y-54260714D01*
X126479286Y-53536905D02*
X126745953Y-54336905D01*
X127012620Y-53536905D01*
X129908334Y-51758905D02*
X130403572Y-51758905D01*
X130136905Y-52063667D01*
X130251191Y-52063667D01*
X130327381Y-52101762D01*
X130365477Y-52139857D01*
X130403572Y-52216048D01*
X130403572Y-52406524D01*
X130365477Y-52482714D01*
X130327381Y-52520810D01*
X130251191Y-52558905D01*
X130022619Y-52558905D01*
X129946429Y-52520810D01*
X129908334Y-52482714D01*
X127825477Y-51758905D02*
X127444524Y-51758905D01*
X127406429Y-52139857D01*
X127444524Y-52101762D01*
X127520715Y-52063667D01*
X127711191Y-52063667D01*
X127787381Y-52101762D01*
X127825477Y-52139857D01*
X127863572Y-52216048D01*
X127863572Y-52406524D01*
X127825477Y-52482714D01*
X127787381Y-52520810D01*
X127711191Y-52558905D01*
X127520715Y-52558905D01*
X127444524Y-52520810D01*
X127406429Y-52482714D01*
X125247381Y-51758905D02*
X125095000Y-51758905D01*
X125018810Y-51797000D01*
X124980715Y-51835095D01*
X124904524Y-51949381D01*
X124866429Y-52101762D01*
X124866429Y-52406524D01*
X124904524Y-52482714D01*
X124942619Y-52520810D01*
X125018810Y-52558905D01*
X125171191Y-52558905D01*
X125247381Y-52520810D01*
X125285477Y-52482714D01*
X125323572Y-52406524D01*
X125323572Y-52216048D01*
X125285477Y-52139857D01*
X125247381Y-52101762D01*
X125171191Y-52063667D01*
X125018810Y-52063667D01*
X124942619Y-52101762D01*
X124904524Y-52139857D01*
X124866429Y-52216048D01*
X122402619Y-52558905D02*
X122555000Y-52558905D01*
X122631191Y-52520810D01*
X122669286Y-52482714D01*
X122745477Y-52368429D01*
X122783572Y-52216048D01*
X122783572Y-51911286D01*
X122745477Y-51835095D01*
X122707381Y-51797000D01*
X122631191Y-51758905D01*
X122478810Y-51758905D01*
X122402619Y-51797000D01*
X122364524Y-51835095D01*
X122326429Y-51911286D01*
X122326429Y-52101762D01*
X122364524Y-52177952D01*
X122402619Y-52216048D01*
X122478810Y-52254143D01*
X122631191Y-52254143D01*
X122707381Y-52216048D01*
X122745477Y-52177952D01*
X122783572Y-52101762D01*
X113055477Y-55226000D02*
X112979286Y-55187905D01*
X112865001Y-55187905D01*
X112750715Y-55226000D01*
X112674524Y-55302190D01*
X112636429Y-55378381D01*
X112598334Y-55530762D01*
X112598334Y-55645048D01*
X112636429Y-55797429D01*
X112674524Y-55873619D01*
X112750715Y-55949810D01*
X112865001Y-55987905D01*
X112941191Y-55987905D01*
X113055477Y-55949810D01*
X113093572Y-55911714D01*
X113093572Y-55645048D01*
X112941191Y-55645048D01*
X113436429Y-55987905D02*
X113436429Y-55187905D01*
X113893572Y-55987905D01*
X113893572Y-55187905D01*
X114274524Y-55987905D02*
X114274524Y-55187905D01*
X114465000Y-55187905D01*
X114579286Y-55226000D01*
X114655477Y-55302190D01*
X114693572Y-55378381D01*
X114731667Y-55530762D01*
X114731667Y-55645048D01*
X114693572Y-55797429D01*
X114655477Y-55873619D01*
X114579286Y-55949810D01*
X114465000Y-55987905D01*
X114274524Y-55987905D01*
X113512620Y-53536905D02*
X113131667Y-53536905D01*
X113093572Y-53917857D01*
X113131667Y-53879762D01*
X113207858Y-53841667D01*
X113398334Y-53841667D01*
X113474524Y-53879762D01*
X113512620Y-53917857D01*
X113550715Y-53994048D01*
X113550715Y-54184524D01*
X113512620Y-54260714D01*
X113474524Y-54298810D01*
X113398334Y-54336905D01*
X113207858Y-54336905D01*
X113131667Y-54298810D01*
X113093572Y-54260714D01*
X113779286Y-53536905D02*
X114045953Y-54336905D01*
X114312620Y-53536905D01*
X117322619Y-52558905D02*
X116865476Y-52558905D01*
X117094047Y-52558905D02*
X117094047Y-51758905D01*
X117017857Y-51873190D01*
X116941666Y-51949381D01*
X116865476Y-51987476D01*
X117817857Y-51758905D02*
X117894048Y-51758905D01*
X117970238Y-51797000D01*
X118008333Y-51835095D01*
X118046429Y-51911286D01*
X118084524Y-52063667D01*
X118084524Y-52254143D01*
X118046429Y-52406524D01*
X118008333Y-52482714D01*
X117970238Y-52520810D01*
X117894048Y-52558905D01*
X117817857Y-52558905D01*
X117741667Y-52520810D01*
X117703571Y-52482714D01*
X117665476Y-52406524D01*
X117627381Y-52254143D01*
X117627381Y-52063667D01*
X117665476Y-51911286D01*
X117703571Y-51835095D01*
X117741667Y-51797000D01*
X117817857Y-51758905D01*
X114782619Y-52558905D02*
X114325476Y-52558905D01*
X114554047Y-52558905D02*
X114554047Y-51758905D01*
X114477857Y-51873190D01*
X114401666Y-51949381D01*
X114325476Y-51987476D01*
X115544524Y-52558905D02*
X115087381Y-52558905D01*
X115315952Y-52558905D02*
X115315952Y-51758905D01*
X115239762Y-51873190D01*
X115163571Y-51949381D01*
X115087381Y-51987476D01*
X112242619Y-52558905D02*
X111785476Y-52558905D01*
X112014047Y-52558905D02*
X112014047Y-51758905D01*
X111937857Y-51873190D01*
X111861666Y-51949381D01*
X111785476Y-51987476D01*
X112547381Y-51835095D02*
X112585476Y-51797000D01*
X112661667Y-51758905D01*
X112852143Y-51758905D01*
X112928333Y-51797000D01*
X112966429Y-51835095D01*
X113004524Y-51911286D01*
X113004524Y-51987476D01*
X112966429Y-52101762D01*
X112509286Y-52558905D01*
X113004524Y-52558905D01*
X109702619Y-52558905D02*
X109245476Y-52558905D01*
X109474047Y-52558905D02*
X109474047Y-51758905D01*
X109397857Y-51873190D01*
X109321666Y-51949381D01*
X109245476Y-51987476D01*
X109969286Y-51758905D02*
X110464524Y-51758905D01*
X110197857Y-52063667D01*
X110312143Y-52063667D01*
X110388333Y-52101762D01*
X110426429Y-52139857D01*
X110464524Y-52216048D01*
X110464524Y-52406524D01*
X110426429Y-52482714D01*
X110388333Y-52520810D01*
X110312143Y-52558905D01*
X110083571Y-52558905D01*
X110007381Y-52520810D01*
X109969286Y-52482714D01*
X128905000Y-51308000D02*
X128905000Y-53086000D01*
X126365000Y-51308000D02*
X126365000Y-53086000D01*
X123825000Y-51308000D02*
X123825000Y-53086000D01*
X131445000Y-56388000D02*
X124714000Y-56388000D01*
X131445000Y-56388000D02*
X131445000Y-54737000D01*
X131445000Y-54737000D02*
X131445000Y-52959000D01*
X121285000Y-54737000D02*
X131445000Y-54737000D01*
X131445000Y-53086000D02*
X131445000Y-51308000D01*
X121285000Y-53086000D02*
X131445000Y-53086000D01*
X121285000Y-51308000D02*
X121285000Y-56388000D01*
X121285000Y-48768000D02*
X131445000Y-48768000D01*
X121285000Y-51308000D02*
X121285000Y-46228000D01*
X121412000Y-51308000D02*
X121285000Y-51308000D01*
X131445000Y-51308000D02*
X121412000Y-51308000D01*
X131445000Y-46228000D02*
X131445000Y-51308000D01*
X131445000Y-46228000D02*
X131445000Y-43688000D01*
X121285000Y-46228000D02*
X131445000Y-46228000D01*
X121285000Y-43688000D02*
X121285000Y-46228000D01*
X128905000Y-43688000D02*
X128905000Y-46228000D01*
X126365000Y-43688000D02*
X126365000Y-46228000D01*
X123825000Y-43688000D02*
X123825000Y-46228000D01*
X108585000Y-54737000D02*
X118745000Y-54737000D01*
X118745000Y-56388000D02*
X118745000Y-53086000D01*
X108585000Y-56388000D02*
X118745000Y-56388000D01*
X108585000Y-53086000D02*
X108585000Y-56388000D01*
X111125000Y-51308000D02*
X111125000Y-53086000D01*
X113665000Y-51308000D02*
X113665000Y-53086000D01*
X116205000Y-51308000D02*
X116205000Y-53086000D01*
X118745000Y-51435000D02*
X118745000Y-51181000D01*
X118745000Y-53086000D02*
X118745000Y-51435000D01*
X108585000Y-53086000D02*
X118745000Y-53086000D01*
X108585000Y-51308000D02*
X108585000Y-53086000D01*
X108585000Y-46228000D02*
X118745000Y-46228000D01*
X108585000Y-48768000D02*
X118745000Y-48768000D01*
X108585000Y-51308000D02*
X108585000Y-43688000D01*
X118745000Y-51308000D02*
X108585000Y-51308000D01*
X118745000Y-43688000D02*
X118745000Y-51308000D01*
X116205000Y-43688000D02*
X116205000Y-46228000D01*
X113665000Y-43688000D02*
X113665000Y-46228000D01*
X111125000Y-43688000D02*
X111125000Y-46228000D01*
X65405000Y-46228000D02*
X65405000Y-43688000D01*
X103505000Y-46228000D02*
X103505000Y-43688000D01*
X100965000Y-46228000D02*
X100965000Y-43688000D01*
X98425000Y-46228000D02*
X98425000Y-43688000D01*
X95885000Y-46228000D02*
X95885000Y-43688000D01*
X93345000Y-46228000D02*
X93345000Y-43688000D01*
X97815477Y-55226000D02*
X97739286Y-55187905D01*
X97625001Y-55187905D01*
X97510715Y-55226000D01*
X97434524Y-55302190D01*
X97396429Y-55378381D01*
X97358334Y-55530762D01*
X97358334Y-55645048D01*
X97396429Y-55797429D01*
X97434524Y-55873619D01*
X97510715Y-55949810D01*
X97625001Y-55987905D01*
X97701191Y-55987905D01*
X97815477Y-55949810D01*
X97853572Y-55911714D01*
X97853572Y-55645048D01*
X97701191Y-55645048D01*
X98196429Y-55987905D02*
X98196429Y-55187905D01*
X98653572Y-55987905D01*
X98653572Y-55187905D01*
X99034524Y-55987905D02*
X99034524Y-55187905D01*
X99225000Y-55187905D01*
X99339286Y-55226000D01*
X99415477Y-55302190D01*
X99453572Y-55378381D01*
X99491667Y-55530762D01*
X99491667Y-55645048D01*
X99453572Y-55797429D01*
X99415477Y-55873619D01*
X99339286Y-55949810D01*
X99225000Y-55987905D01*
X99034524Y-55987905D01*
X98272620Y-53536905D02*
X97891667Y-53536905D01*
X97853572Y-53917857D01*
X97891667Y-53879762D01*
X97967858Y-53841667D01*
X98158334Y-53841667D01*
X98234524Y-53879762D01*
X98272620Y-53917857D01*
X98310715Y-53994048D01*
X98310715Y-54184524D01*
X98272620Y-54260714D01*
X98234524Y-54298810D01*
X98158334Y-54336905D01*
X97967858Y-54336905D01*
X97891667Y-54298810D01*
X97853572Y-54260714D01*
X98539286Y-53536905D02*
X98805953Y-54336905D01*
X99072620Y-53536905D01*
X106045000Y-56388000D02*
X106045000Y-54864000D01*
X90805000Y-56388000D02*
X106045000Y-56388000D01*
X90805000Y-54864000D02*
X90805000Y-56388000D01*
X106045000Y-54864000D02*
X106045000Y-53086000D01*
X90805000Y-54737000D02*
X106045000Y-54737000D01*
X90805000Y-53213000D02*
X90805000Y-54864000D01*
X104203572Y-52330333D02*
X104584524Y-52330333D01*
X104127381Y-52558905D02*
X104394048Y-51758905D01*
X104660715Y-52558905D01*
X105079762Y-51758905D02*
X105155953Y-51758905D01*
X105232143Y-51797000D01*
X105270238Y-51835095D01*
X105308334Y-51911286D01*
X105346429Y-52063667D01*
X105346429Y-52254143D01*
X105308334Y-52406524D01*
X105270238Y-52482714D01*
X105232143Y-52520810D01*
X105155953Y-52558905D01*
X105079762Y-52558905D01*
X105003572Y-52520810D01*
X104965476Y-52482714D01*
X104927381Y-52406524D01*
X104889286Y-52254143D01*
X104889286Y-52063667D01*
X104927381Y-51911286D01*
X104965476Y-51835095D01*
X105003572Y-51797000D01*
X105079762Y-51758905D01*
X101663572Y-52330333D02*
X102044524Y-52330333D01*
X101587381Y-52558905D02*
X101854048Y-51758905D01*
X102120715Y-52558905D01*
X102806429Y-52558905D02*
X102349286Y-52558905D01*
X102577857Y-52558905D02*
X102577857Y-51758905D01*
X102501667Y-51873190D01*
X102425476Y-51949381D01*
X102349286Y-51987476D01*
X99123572Y-52330333D02*
X99504524Y-52330333D01*
X99047381Y-52558905D02*
X99314048Y-51758905D01*
X99580715Y-52558905D01*
X99809286Y-51835095D02*
X99847381Y-51797000D01*
X99923572Y-51758905D01*
X100114048Y-51758905D01*
X100190238Y-51797000D01*
X100228334Y-51835095D01*
X100266429Y-51911286D01*
X100266429Y-51987476D01*
X100228334Y-52101762D01*
X99771191Y-52558905D01*
X100266429Y-52558905D01*
X96583572Y-52330333D02*
X96964524Y-52330333D01*
X96507381Y-52558905D02*
X96774048Y-51758905D01*
X97040715Y-52558905D01*
X97231191Y-51758905D02*
X97726429Y-51758905D01*
X97459762Y-52063667D01*
X97574048Y-52063667D01*
X97650238Y-52101762D01*
X97688334Y-52139857D01*
X97726429Y-52216048D01*
X97726429Y-52406524D01*
X97688334Y-52482714D01*
X97650238Y-52520810D01*
X97574048Y-52558905D01*
X97345476Y-52558905D01*
X97269286Y-52520810D01*
X97231191Y-52482714D01*
X94043572Y-52330333D02*
X94424524Y-52330333D01*
X93967381Y-52558905D02*
X94234048Y-51758905D01*
X94500715Y-52558905D01*
X95110238Y-51758905D02*
X94957857Y-51758905D01*
X94881667Y-51797000D01*
X94843572Y-51835095D01*
X94767381Y-51949381D01*
X94729286Y-52101762D01*
X94729286Y-52406524D01*
X94767381Y-52482714D01*
X94805476Y-52520810D01*
X94881667Y-52558905D01*
X95034048Y-52558905D01*
X95110238Y-52520810D01*
X95148334Y-52482714D01*
X95186429Y-52406524D01*
X95186429Y-52216048D01*
X95148334Y-52139857D01*
X95110238Y-52101762D01*
X95034048Y-52063667D01*
X94881667Y-52063667D01*
X94805476Y-52101762D01*
X94767381Y-52139857D01*
X94729286Y-52216048D01*
X91503572Y-52330333D02*
X91884524Y-52330333D01*
X91427381Y-52558905D02*
X91694048Y-51758905D01*
X91960715Y-52558905D01*
X92151191Y-51758905D02*
X92684524Y-51758905D01*
X92341667Y-52558905D01*
X90805000Y-53086000D02*
X106045000Y-53086000D01*
X90805000Y-51308000D02*
X106045000Y-51308000D01*
X90805000Y-43688000D02*
X90805000Y-53213000D01*
X106045000Y-43688000D02*
X106045000Y-52959000D01*
X90805000Y-48768000D02*
X106045000Y-48768000D01*
X90805000Y-46228000D02*
X106045000Y-46228000D01*
X103505000Y-51308000D02*
X103505000Y-53086000D01*
X100965000Y-51308000D02*
X100965000Y-53086000D01*
X98425000Y-51308000D02*
X98425000Y-53086000D01*
X95885000Y-51308000D02*
X95885000Y-53086000D01*
X93345000Y-51308000D02*
X93345000Y-53086000D01*
X70739000Y-52070000D02*
X70739000Y-50673000D01*
X60071000Y-52070000D02*
X70739000Y-52070000D01*
X60071000Y-50673000D02*
X60071000Y-52070000D01*
X70739000Y-50673000D02*
X70739000Y-43688000D01*
X60071000Y-50673000D02*
X60071000Y-43688000D01*
X60071000Y-50419000D02*
X70739000Y-50419000D01*
X60071000Y-48768000D02*
X70739000Y-48768000D01*
X60071000Y-46228000D02*
X70739000Y-46228000D01*
X65405000Y-48768000D02*
X65405000Y-50419000D01*
X67208477Y-50908000D02*
X67132286Y-50869905D01*
X67018001Y-50869905D01*
X66903715Y-50908000D01*
X66827524Y-50984190D01*
X66789429Y-51060381D01*
X66751334Y-51212762D01*
X66751334Y-51327048D01*
X66789429Y-51479429D01*
X66827524Y-51555619D01*
X66903715Y-51631810D01*
X67018001Y-51669905D01*
X67094191Y-51669905D01*
X67208477Y-51631810D01*
X67246572Y-51593714D01*
X67246572Y-51327048D01*
X67094191Y-51327048D01*
X67589429Y-51669905D02*
X67589429Y-50869905D01*
X68046572Y-51669905D01*
X68046572Y-50869905D01*
X68427524Y-51669905D02*
X68427524Y-50869905D01*
X68618000Y-50869905D01*
X68732286Y-50908000D01*
X68808477Y-50984190D01*
X68846572Y-51060381D01*
X68884667Y-51212762D01*
X68884667Y-51327048D01*
X68846572Y-51479429D01*
X68808477Y-51555619D01*
X68732286Y-51631810D01*
X68618000Y-51669905D01*
X68427524Y-51669905D01*
X62255477Y-50908000D02*
X62179286Y-50869905D01*
X62065001Y-50869905D01*
X61950715Y-50908000D01*
X61874524Y-50984190D01*
X61836429Y-51060381D01*
X61798334Y-51212762D01*
X61798334Y-51327048D01*
X61836429Y-51479429D01*
X61874524Y-51555619D01*
X61950715Y-51631810D01*
X62065001Y-51669905D01*
X62141191Y-51669905D01*
X62255477Y-51631810D01*
X62293572Y-51593714D01*
X62293572Y-51327048D01*
X62141191Y-51327048D01*
X62636429Y-51669905D02*
X62636429Y-50869905D01*
X63093572Y-51669905D01*
X63093572Y-50869905D01*
X63474524Y-51669905D02*
X63474524Y-50869905D01*
X63665000Y-50869905D01*
X63779286Y-50908000D01*
X63855477Y-50984190D01*
X63893572Y-51060381D01*
X63931667Y-51212762D01*
X63931667Y-51327048D01*
X63893572Y-51479429D01*
X63855477Y-51555619D01*
X63779286Y-51631810D01*
X63665000Y-51669905D01*
X63474524Y-51669905D01*
X66827524Y-49218905D02*
X67322762Y-49218905D01*
X67056095Y-49523667D01*
X67170381Y-49523667D01*
X67246571Y-49561762D01*
X67284667Y-49599857D01*
X67322762Y-49676048D01*
X67322762Y-49866524D01*
X67284667Y-49942714D01*
X67246571Y-49980810D01*
X67170381Y-50018905D01*
X66941809Y-50018905D01*
X66865619Y-49980810D01*
X66827524Y-49942714D01*
X67551333Y-49218905D02*
X67818000Y-50018905D01*
X68084667Y-49218905D01*
X68275143Y-49218905D02*
X68770381Y-49218905D01*
X68503714Y-49523667D01*
X68618000Y-49523667D01*
X68694190Y-49561762D01*
X68732286Y-49599857D01*
X68770381Y-49676048D01*
X68770381Y-49866524D01*
X68732286Y-49942714D01*
X68694190Y-49980810D01*
X68618000Y-50018905D01*
X68389428Y-50018905D01*
X68313238Y-49980810D01*
X68275143Y-49942714D01*
X62712620Y-49218905D02*
X62331667Y-49218905D01*
X62293572Y-49599857D01*
X62331667Y-49561762D01*
X62407858Y-49523667D01*
X62598334Y-49523667D01*
X62674524Y-49561762D01*
X62712620Y-49599857D01*
X62750715Y-49676048D01*
X62750715Y-49866524D01*
X62712620Y-49942714D01*
X62674524Y-49980810D01*
X62598334Y-50018905D01*
X62407858Y-50018905D01*
X62331667Y-49980810D01*
X62293572Y-49942714D01*
X62979286Y-49218905D02*
X63245953Y-50018905D01*
X63512620Y-49218905D01*
X49110977Y-51543000D02*
X49034786Y-51504905D01*
X48920501Y-51504905D01*
X48806215Y-51543000D01*
X48730024Y-51619190D01*
X48691929Y-51695381D01*
X48653834Y-51847762D01*
X48653834Y-51962048D01*
X48691929Y-52114429D01*
X48730024Y-52190619D01*
X48806215Y-52266810D01*
X48920501Y-52304905D01*
X48996691Y-52304905D01*
X49110977Y-52266810D01*
X49149072Y-52228714D01*
X49149072Y-51962048D01*
X48996691Y-51962048D01*
X49491929Y-52304905D02*
X49491929Y-51504905D01*
X49949072Y-52304905D01*
X49949072Y-51504905D01*
X50330024Y-52304905D02*
X50330024Y-51504905D01*
X50520500Y-51504905D01*
X50634786Y-51543000D01*
X50710977Y-51619190D01*
X50749072Y-51695381D01*
X50787167Y-51847762D01*
X50787167Y-51962048D01*
X50749072Y-52114429D01*
X50710977Y-52190619D01*
X50634786Y-52266810D01*
X50520500Y-52304905D01*
X50330024Y-52304905D01*
X54368810Y-51504905D02*
X54635477Y-52304905D01*
X54902144Y-51504905D01*
X55168810Y-52304905D02*
X55168810Y-51504905D01*
X55549762Y-52304905D02*
X55549762Y-51504905D01*
X56006905Y-52304905D01*
X56006905Y-51504905D01*
D10*
X40538400Y-145338800D02*
G75*
G03X40538400Y-145338800I-127000J0D01*
G01*
X40538400Y-106730800D02*
G75*
G03X40538400Y-106730800I-127000J0D01*
G01*
D12*
X42799000Y-149250400D02*
X42799000Y-150977600D01*
X42545000Y-148996400D02*
X41021000Y-148996400D01*
X42545000Y-151231600D02*
X41021000Y-151231600D01*
X40767000Y-150977600D02*
X40767000Y-149250400D01*
X41021000Y-148996400D02*
G75*
G03X40767000Y-149250400I0J-254000D01*
G01*
X40767000Y-150977600D02*
G75*
G03X41021000Y-151231600I254000J0D01*
G01*
X42545000Y-151231600D02*
G75*
G03X42799000Y-150977600I0J254000D01*
G01*
X42799000Y-149250400D02*
G75*
G03X42545000Y-148996400I-254000J0D01*
G01*
X42799000Y-110642400D02*
X42799000Y-112369600D01*
X42545000Y-110388400D02*
X41021000Y-110388400D01*
X42545000Y-112623600D02*
X41021000Y-112623600D01*
X40767000Y-112369600D02*
X40767000Y-110642400D01*
X41021000Y-110388400D02*
G75*
G03X40767000Y-110642400I0J-254000D01*
G01*
X40767000Y-112369600D02*
G75*
G03X41021000Y-112623600I254000J0D01*
G01*
X42545000Y-112623600D02*
G75*
G03X42799000Y-112369600I0J254000D01*
G01*
X42799000Y-110642400D02*
G75*
G03X42545000Y-110388400I-254000J0D01*
G01*
D13*
X53594000Y-137538460D02*
X55118000Y-137538460D01*
X53594000Y-98930460D02*
X55118000Y-98930460D01*
D14*
X78084680Y-121246900D02*
X75087480Y-121246900D01*
X79585820Y-123847860D02*
X79585820Y-125498860D01*
X74338180Y-125498860D02*
X73586340Y-125498860D01*
X73586340Y-125498860D02*
X73586340Y-123847860D01*
X79585820Y-125498860D02*
X78833980Y-125498860D01*
D15*
X79225140Y-126146560D02*
G75*
G03X79225140Y-126146560I-139700J0D01*
G01*
D14*
X78084680Y-82638900D02*
X75087480Y-82638900D01*
X79585820Y-85239860D02*
X79585820Y-86890860D01*
X74338180Y-86890860D02*
X73586340Y-86890860D01*
X73586340Y-86890860D02*
X73586340Y-85239860D01*
X79585820Y-86890860D02*
X78833980Y-86890860D01*
D15*
X79225140Y-87538560D02*
G75*
G03X79225140Y-87538560I-139700J0D01*
G01*
D12*
X40767000Y-130759200D02*
X40767000Y-129032000D01*
X41021000Y-131013200D02*
X42545000Y-131013200D01*
X41021000Y-128778000D02*
X42545000Y-128778000D01*
X42799000Y-129032000D02*
X42799000Y-130759200D01*
X42545000Y-131013200D02*
G75*
G03X42799000Y-130759200I0J254000D01*
G01*
X42799000Y-129032000D02*
G75*
G03X42545000Y-128778000I-254000J0D01*
G01*
X41021000Y-128778000D02*
G75*
G03X40767000Y-129032000I0J-254000D01*
G01*
X40767000Y-130759200D02*
G75*
G03X41021000Y-131013200I254000J0D01*
G01*
X40767000Y-92151200D02*
X40767000Y-90424000D01*
X41021000Y-92405200D02*
X42545000Y-92405200D01*
X41021000Y-90170000D02*
X42545000Y-90170000D01*
X42799000Y-90424000D02*
X42799000Y-92151200D01*
X42545000Y-92405200D02*
G75*
G03X42799000Y-92151200I0J254000D01*
G01*
X42799000Y-90424000D02*
G75*
G03X42545000Y-90170000I-254000J0D01*
G01*
X41021000Y-90170000D02*
G75*
G03X40767000Y-90424000I0J-254000D01*
G01*
X40767000Y-92151200D02*
G75*
G03X41021000Y-92405200I254000J0D01*
G01*
D13*
X46893480Y-120769380D02*
X58089800Y-120769380D01*
X58089800Y-120769380D02*
X58089800Y-127266700D01*
X58089800Y-127266700D02*
X58089800Y-128267460D01*
X58089800Y-128267460D02*
X46893480Y-128267460D01*
X46893480Y-128267460D02*
X46893480Y-127266700D01*
X46893480Y-127266700D02*
X46893480Y-120769380D01*
X58089800Y-127266700D02*
X46893480Y-127266700D01*
X46893480Y-82161380D02*
X58089800Y-82161380D01*
X58089800Y-82161380D02*
X58089800Y-88658700D01*
X58089800Y-88658700D02*
X58089800Y-89659460D01*
X58089800Y-89659460D02*
X46893480Y-89659460D01*
X46893480Y-89659460D02*
X46893480Y-88658700D01*
X46893480Y-88658700D02*
X46893480Y-82161380D01*
X58089800Y-88658700D02*
X46893480Y-88658700D01*
X44320460Y-133604000D02*
X44320460Y-135128000D01*
X44320460Y-94996000D02*
X44320460Y-96520000D01*
X81424780Y-139428220D02*
X81424780Y-137431780D01*
X81424780Y-100820220D02*
X81424780Y-98823780D01*
X97180400Y-144526000D02*
G75*
G03X95910400Y-144526000I-635000J0D01*
G01*
X97180400Y-105918000D02*
G75*
G03X95910400Y-105918000I-635000J0D01*
G01*
D14*
X86202520Y-121246900D02*
X83205320Y-121246900D01*
X87703660Y-123847860D02*
X87703660Y-125498860D01*
X82456020Y-125498860D02*
X81704180Y-125498860D01*
X81704180Y-125498860D02*
X81704180Y-123847860D01*
X87703660Y-125498860D02*
X86951820Y-125498860D01*
D15*
X87342980Y-126146560D02*
G75*
G03X87342980Y-126146560I-139700J0D01*
G01*
D14*
X86202520Y-82638900D02*
X83205320Y-82638900D01*
X87703660Y-85239860D02*
X87703660Y-86890860D01*
X82456020Y-86890860D02*
X81704180Y-86890860D01*
X81704180Y-86890860D02*
X81704180Y-85239860D01*
X87703660Y-86890860D02*
X86951820Y-86890860D01*
D15*
X87342980Y-87538560D02*
G75*
G03X87342980Y-87538560I-139700J0D01*
G01*
D16*
X139827000Y-124206000D02*
G75*
G03X139827000Y-124206000I-2794000J0D01*
G01*
D13*
X137033000Y-126060200D02*
G75*
G03X137033000Y-122351800I0J1854200D01*
G01*
X137033000Y-122351800D02*
G75*
G03X137033000Y-126060200I0J-1854200D01*
G01*
X137033000Y-126060200D02*
G75*
G03X137033000Y-122351800I0J1854200D01*
G01*
X137033000Y-122351800D02*
G75*
G03X137033000Y-126060200I0J-1854200D01*
G01*
D16*
X139827000Y-85598000D02*
G75*
G03X139827000Y-85598000I-2794000J0D01*
G01*
D13*
X137033000Y-87452200D02*
G75*
G03X137033000Y-83743800I0J1854200D01*
G01*
X137033000Y-83743800D02*
G75*
G03X137033000Y-87452200I0J-1854200D01*
G01*
X137033000Y-87452200D02*
G75*
G03X137033000Y-83743800I0J1854200D01*
G01*
X137033000Y-83743800D02*
G75*
G03X137033000Y-87452200I0J-1854200D01*
G01*
X132308600Y-136144000D02*
X131673600Y-136779000D01*
X131673600Y-138049000D02*
X132308600Y-138684000D01*
X132308600Y-138684000D02*
X131673600Y-139319000D01*
X131673600Y-140589000D02*
X132308600Y-141224000D01*
X132308600Y-141224000D02*
X131673600Y-141859000D01*
X131673600Y-143129000D02*
X132308600Y-143764000D01*
X132308600Y-136144000D02*
X136118600Y-136144000D01*
X136118600Y-136144000D02*
X136753600Y-136779000D01*
X136753600Y-136779000D02*
X136753600Y-138049000D01*
X136753600Y-138049000D02*
X136118600Y-138684000D01*
X136118600Y-138684000D02*
X136753600Y-139319000D01*
X136753600Y-139319000D02*
X136753600Y-140589000D01*
X136753600Y-140589000D02*
X136118600Y-141224000D01*
X136118600Y-141224000D02*
X136753600Y-141859000D01*
X136753600Y-141859000D02*
X136753600Y-143129000D01*
X136753600Y-143129000D02*
X136118600Y-143764000D01*
X136118600Y-138684000D02*
X132308600Y-138684000D01*
X136118600Y-141224000D02*
X132308600Y-141224000D01*
X136118600Y-143764000D02*
X132308600Y-143764000D01*
X131673600Y-141859000D02*
X131673600Y-143129000D01*
X131673600Y-139319000D02*
X131673600Y-140589000D01*
X131673600Y-136779000D02*
X131673600Y-138049000D01*
X131340860Y-138049000D02*
X131340860Y-136779000D01*
X131340860Y-136779000D02*
X131340860Y-138049000D01*
X132308600Y-97536000D02*
X131673600Y-98171000D01*
X131673600Y-99441000D02*
X132308600Y-100076000D01*
X132308600Y-100076000D02*
X131673600Y-100711000D01*
X131673600Y-101981000D02*
X132308600Y-102616000D01*
X132308600Y-102616000D02*
X131673600Y-103251000D01*
X131673600Y-104521000D02*
X132308600Y-105156000D01*
X132308600Y-97536000D02*
X136118600Y-97536000D01*
X136118600Y-97536000D02*
X136753600Y-98171000D01*
X136753600Y-98171000D02*
X136753600Y-99441000D01*
X136753600Y-99441000D02*
X136118600Y-100076000D01*
X136118600Y-100076000D02*
X136753600Y-100711000D01*
X136753600Y-100711000D02*
X136753600Y-101981000D01*
X136753600Y-101981000D02*
X136118600Y-102616000D01*
X136118600Y-102616000D02*
X136753600Y-103251000D01*
X136753600Y-103251000D02*
X136753600Y-104521000D01*
X136753600Y-104521000D02*
X136118600Y-105156000D01*
X136118600Y-100076000D02*
X132308600Y-100076000D01*
X136118600Y-102616000D02*
X132308600Y-102616000D01*
X136118600Y-105156000D02*
X132308600Y-105156000D01*
X131673600Y-103251000D02*
X131673600Y-104521000D01*
X131673600Y-100711000D02*
X131673600Y-101981000D01*
X131673600Y-98171000D02*
X131673600Y-99441000D01*
X131340860Y-99441000D02*
X131340860Y-98171000D01*
X131340860Y-98171000D02*
X131340860Y-99441000D01*
D16*
X139827000Y-155702000D02*
G75*
G03X139827000Y-155702000I-2794000J0D01*
G01*
D13*
X137033000Y-157556200D02*
G75*
G03X137033000Y-153847800I0J1854200D01*
G01*
X137033000Y-153847800D02*
G75*
G03X137033000Y-157556200I0J-1854200D01*
G01*
X137033000Y-157556200D02*
G75*
G03X137033000Y-153847800I0J1854200D01*
G01*
X137033000Y-153847800D02*
G75*
G03X137033000Y-157556200I0J-1854200D01*
G01*
D16*
X139827000Y-117094000D02*
G75*
G03X139827000Y-117094000I-2794000J0D01*
G01*
D13*
X137033000Y-118948200D02*
G75*
G03X137033000Y-115239800I0J1854200D01*
G01*
X137033000Y-115239800D02*
G75*
G03X137033000Y-118948200I0J-1854200D01*
G01*
X137033000Y-118948200D02*
G75*
G03X137033000Y-115239800I0J1854200D01*
G01*
X137033000Y-115239800D02*
G75*
G03X137033000Y-118948200I0J-1854200D01*
G01*
X119052340Y-136578340D02*
X126057660Y-136578340D01*
X126057660Y-136578340D02*
X126057660Y-143583660D01*
X126057660Y-143583660D02*
X119405400Y-143583660D01*
X119052340Y-143230600D02*
X119052340Y-136578340D01*
X119052340Y-143230600D02*
X119405400Y-143583660D01*
X119024400Y-143738600D02*
G75*
G03X119024400Y-143738600I-152400J0D01*
G01*
X119052340Y-97970340D02*
X126057660Y-97970340D01*
X126057660Y-97970340D02*
X126057660Y-104975660D01*
X126057660Y-104975660D02*
X119405400Y-104975660D01*
X119052340Y-104622600D02*
X119052340Y-97970340D01*
X119052340Y-104622600D02*
X119405400Y-104975660D01*
X119024400Y-105130600D02*
G75*
G03X119024400Y-105130600I-152400J0D01*
G01*
X105770680Y-137650220D02*
X105770680Y-138447780D01*
X104244140Y-136324340D02*
X104543860Y-136324340D01*
X104543860Y-139773660D02*
X104244140Y-139773660D01*
X103017320Y-138447780D02*
X103017320Y-137650220D01*
X105770680Y-99042220D02*
X105770680Y-99839780D01*
X104244140Y-97716340D02*
X104543860Y-97716340D01*
X104543860Y-101165660D02*
X104244140Y-101165660D01*
X103017320Y-99839780D02*
X103017320Y-99042220D01*
X97180400Y-67310000D02*
G75*
G03X95910400Y-67310000I-635000J0D01*
G01*
D10*
X40538400Y-68122800D02*
G75*
G03X40538400Y-68122800I-127000J0D01*
G01*
D13*
X81424780Y-62212220D02*
X81424780Y-60215780D01*
X53594000Y-60322460D02*
X55118000Y-60322460D01*
X44320460Y-56388000D02*
X44320460Y-57912000D01*
D16*
X139827000Y-78486000D02*
G75*
G03X139827000Y-78486000I-2794000J0D01*
G01*
D13*
X137033000Y-80340200D02*
G75*
G03X137033000Y-76631800I0J1854200D01*
G01*
X137033000Y-76631800D02*
G75*
G03X137033000Y-80340200I0J-1854200D01*
G01*
X137033000Y-80340200D02*
G75*
G03X137033000Y-76631800I0J1854200D01*
G01*
X137033000Y-76631800D02*
G75*
G03X137033000Y-80340200I0J-1854200D01*
G01*
D16*
X139827000Y-46990000D02*
G75*
G03X139827000Y-46990000I-2794000J0D01*
G01*
D13*
X137033000Y-48844200D02*
G75*
G03X137033000Y-45135800I0J1854200D01*
G01*
X137033000Y-45135800D02*
G75*
G03X137033000Y-48844200I0J-1854200D01*
G01*
X137033000Y-48844200D02*
G75*
G03X137033000Y-45135800I0J1854200D01*
G01*
X137033000Y-45135800D02*
G75*
G03X137033000Y-48844200I0J-1854200D01*
G01*
X119052340Y-59362340D02*
X126057660Y-59362340D01*
X126057660Y-59362340D02*
X126057660Y-66367660D01*
X126057660Y-66367660D02*
X119405400Y-66367660D01*
X119052340Y-66014600D02*
X119052340Y-59362340D01*
X119052340Y-66014600D02*
X119405400Y-66367660D01*
X119024400Y-66522600D02*
G75*
G03X119024400Y-66522600I-152400J0D01*
G01*
X105770680Y-60434220D02*
X105770680Y-61231780D01*
X104244140Y-59108340D02*
X104543860Y-59108340D01*
X104543860Y-62557660D02*
X104244140Y-62557660D01*
X103017320Y-61231780D02*
X103017320Y-60434220D01*
D14*
X86202520Y-44030900D02*
X83205320Y-44030900D01*
X87703660Y-46631860D02*
X87703660Y-48282860D01*
X82456020Y-48282860D02*
X81704180Y-48282860D01*
X81704180Y-48282860D02*
X81704180Y-46631860D01*
X87703660Y-48282860D02*
X86951820Y-48282860D01*
D15*
X87342980Y-48930560D02*
G75*
G03X87342980Y-48930560I-139700J0D01*
G01*
D14*
X78084680Y-44030900D02*
X75087480Y-44030900D01*
X79585820Y-46631860D02*
X79585820Y-48282860D01*
X74338180Y-48282860D02*
X73586340Y-48282860D01*
X73586340Y-48282860D02*
X73586340Y-46631860D01*
X79585820Y-48282860D02*
X78833980Y-48282860D01*
D15*
X79225140Y-48930560D02*
G75*
G03X79225140Y-48930560I-139700J0D01*
G01*
D13*
X46893480Y-43553380D02*
X58089800Y-43553380D01*
X58089800Y-43553380D02*
X58089800Y-50050700D01*
X58089800Y-50050700D02*
X58089800Y-51051460D01*
X58089800Y-51051460D02*
X46893480Y-51051460D01*
X46893480Y-51051460D02*
X46893480Y-50050700D01*
X46893480Y-50050700D02*
X46893480Y-43553380D01*
X58089800Y-50050700D02*
X46893480Y-50050700D01*
D12*
X40767000Y-53543200D02*
X40767000Y-51816000D01*
X41021000Y-53797200D02*
X42545000Y-53797200D01*
X41021000Y-51562000D02*
X42545000Y-51562000D01*
X42799000Y-51816000D02*
X42799000Y-53543200D01*
X42545000Y-53797200D02*
G75*
G03X42799000Y-53543200I0J254000D01*
G01*
X42799000Y-51816000D02*
G75*
G03X42545000Y-51562000I-254000J0D01*
G01*
X41021000Y-51562000D02*
G75*
G03X40767000Y-51816000I0J-254000D01*
G01*
X40767000Y-53543200D02*
G75*
G03X41021000Y-53797200I254000J0D01*
G01*
X42799000Y-72034400D02*
X42799000Y-73761600D01*
X42545000Y-71780400D02*
X41021000Y-71780400D01*
X42545000Y-74015600D02*
X41021000Y-74015600D01*
X40767000Y-73761600D02*
X40767000Y-72034400D01*
X41021000Y-71780400D02*
G75*
G03X40767000Y-72034400I0J-254000D01*
G01*
X40767000Y-73761600D02*
G75*
G03X41021000Y-74015600I254000J0D01*
G01*
X42545000Y-74015600D02*
G75*
G03X42799000Y-73761600I0J254000D01*
G01*
X42799000Y-72034400D02*
G75*
G03X42545000Y-71780400I-254000J0D01*
G01*
D13*
X132308600Y-58928000D02*
X131673600Y-59563000D01*
X131673600Y-60833000D02*
X132308600Y-61468000D01*
X132308600Y-61468000D02*
X131673600Y-62103000D01*
X131673600Y-63373000D02*
X132308600Y-64008000D01*
X132308600Y-64008000D02*
X131673600Y-64643000D01*
X131673600Y-65913000D02*
X132308600Y-66548000D01*
X132308600Y-58928000D02*
X136118600Y-58928000D01*
X136118600Y-58928000D02*
X136753600Y-59563000D01*
X136753600Y-59563000D02*
X136753600Y-60833000D01*
X136753600Y-60833000D02*
X136118600Y-61468000D01*
X136118600Y-61468000D02*
X136753600Y-62103000D01*
X136753600Y-62103000D02*
X136753600Y-63373000D01*
X136753600Y-63373000D02*
X136118600Y-64008000D01*
X136118600Y-64008000D02*
X136753600Y-64643000D01*
X136753600Y-64643000D02*
X136753600Y-65913000D01*
X136753600Y-65913000D02*
X136118600Y-66548000D01*
X136118600Y-61468000D02*
X132308600Y-61468000D01*
X136118600Y-64008000D02*
X132308600Y-64008000D01*
X136118600Y-66548000D02*
X132308600Y-66548000D01*
X131673600Y-64643000D02*
X131673600Y-65913000D01*
X131673600Y-62103000D02*
X131673600Y-63373000D01*
X131673600Y-59563000D02*
X131673600Y-60833000D01*
X131340860Y-60833000D02*
X131340860Y-59563000D01*
X131340860Y-59563000D02*
X131340860Y-60833000D01*
D17*
X64264288Y-132583429D02*
X65026193Y-132583429D01*
X64645241Y-132964381D02*
X64645241Y-132202476D01*
X64264288Y-93975429D02*
X65026193Y-93975429D01*
X64645241Y-94356381D02*
X64645241Y-93594476D01*
X64264288Y-55367429D02*
X65026193Y-55367429D01*
X64645241Y-55748381D02*
X64645241Y-54986476D01*
M02*
